<?xml version="1.0" encoding="UTF-8" standalone="no"?>
<!-- Created with Inkscape (http://www.inkscape.org/) -->

<svg
   xmlns:dc="http://purl.org/dc/elements/1.1/"
   xmlns:cc="http://creativecommons.org/ns#"
   xmlns:rdf="http://www.w3.org/1999/02/22-rdf-syntax-ns#"
   xmlns:svg="http://www.w3.org/2000/svg"
   xmlns="http://www.w3.org/2000/svg"
   xmlns:sodipodi="http://sodipodi.sourceforge.net/DTD/sodipodi-0.dtd"
   xmlns:inkscape="http://www.inkscape.org/namespaces/inkscape"
   width="210mm"
   height="297mm"
   viewBox="0 0 210 297"
   version="1.1"
   id="svg10236"
   inkscape:version="0.92.3 (2405546, 2018-03-11)"
   sodipodi:docname="bear.svg">
  <defs
     id="defs10230" />
  <sodipodi:namedview
     id="base"
     pagecolor="#ffffff"
     bordercolor="#666666"
     borderopacity="1.0"
     inkscape:pageopacity="0.0"
     inkscape:pageshadow="2"
     inkscape:zoom="0.35"
     inkscape:cx="-70"
     inkscape:cy="560"
     inkscape:document-units="mm"
     inkscape:current-layer="layer1"
     showgrid="false"
     inkscape:window-width="1825"
     inkscape:window-height="1051"
     inkscape:window-x="2391"
     inkscape:window-y="-9"
     inkscape:window-maximized="1" />
  <metadata
     id="metadata10233">
    <rdf:RDF>
      <cc:Work
         rdf:about="">
        <dc:format>image/svg+xml</dc:format>
        <dc:type
           rdf:resource="http://purl.org/dc/dcmitype/StillImage" />
        <dc:title></dc:title>
      </cc:Work>
    </rdf:RDF>
  </metadata>
  <g
     inkscape:label="Layer 1"
     inkscape:groupmode="layer"
     id="layer1">
    <path
       inkscape:connector-curvature="0"
       d="m 37.013055,41.191089 c 0.716195,-0.548216 1.806959,-1.292278 2.92512,-1.889087 1.118161,-0.596761 2.258228,-1.04318 3.312445,-1.32984 1.054217,-0.288134 2.022528,-0.415085 2.556041,-0.57489 0.533514,-0.159758 0.63212,-0.350896 0.895217,-0.889698 0.265093,-0.53728 0.690628,-1.422271 0.871535,-1.987747 0.180796,-0.565475 0.1148,-0.812957 -0.22849,-0.964917 -0.34329,-0.151675 -0.964706,-0.208256 -1.794204,-0.322844 -0.831272,-0.114588 -1.872734,-0.285281 -2.481117,-0.474518 -0.608383,-0.189712 -0.78746,-0.399394 -0.798385,-0.570135 -0.01109,-0.170694 0.144193,-0.303825 0.586477,-0.331878 0.444225,-0.02853 1.174784,0.04755 2.038944,0.08606 0.864214,0.03804 1.861752,0.03804 2.404417,-0.03804 0.542387,-0.07512 0.632175,-0.228701 0.575496,-0.446466 -0.05546,-0.219191 -0.255665,-0.502809 -0.675987,-0.759705 -0.420378,-0.256753 -1.063313,-0.485549 -1.772243,-0.618728 -0.708874,-0.131705 -1.485353,-0.170694 -1.949433,-0.285282 -0.465854,-0.114588 -0.621194,-0.303825 -0.542942,-0.455975 0.07653,-0.15215 0.387103,-0.266262 0.864215,-0.341387 0.476946,-0.07655 1.118161,-0.114112 1.684507,-0.08606 0.56457,0.02853 1.052386,0.123622 1.485409,0.303825 0.430915,0.180203 0.807536,0.446466 1.085273,0.570136 0.276185,0.123622 0.454763,0.105078 0.553479,-0.02853 0.100381,-0.133131 0.122564,-0.380851 -0.03328,-0.675118 -0.155285,-0.294316 -0.488038,-0.635941 -0.929933,-0.978992 -0.444226,-0.341387 -0.997538,-0.684485 -1.518297,-0.864641 -0.520758,-0.180202 -1.008518,-0.198746 -1.185709,-0.322843 -0.177469,-0.123622 -0.04437,-0.350896 0.299477,-0.48398 0.34329,-0.133132 0.897102,-0.170694 1.450692,-0.08606 0.553479,0.08463 1.10718,0.294315 1.616958,0.635987 0.509666,0.341387 0.973801,0.816096 1.295351,1.091773 0.321662,0.275772 0.498575,0.352323 0.542388,0.198746 0.04437,-0.15215 -0.04437,-0.531004 -0.221281,-1.05421 -0.177468,-0.523159 -0.444225,-1.187295 -0.465854,-1.566386 -0.02218,-0.380376 0.199097,-0.474519 0.454762,-0.352323 0.255665,0.123622 0.542388,0.465009 0.886121,0.90225 0.34329,0.436957 0.741762,0.969625 1.028595,1.168561 0.288941,0.198746 0.465854,0.06561 0.542387,-0.331877 0.07653,-0.399394 0.05546,-1.063578 0.03328,-1.643175 -0.02218,-0.579549 -0.04437,-1.072991 0.07653,-1.27188 0.122564,-0.198746 0.387102,-0.105079 0.6431,0.198746 0.254002,0.303825 0.496911,0.816048 0.643101,1.386231 0.144193,0.570183 0.188005,1.196756 0.321661,1.566386 0.133101,0.36944 0.354382,0.484028 0.564515,0.399394 0.210189,-0.08606 0.409287,-0.371341 0.542388,-0.921031 0.131437,-0.551402 0.199097,-1.36745 0.27563,-1.975242 0.07653,-0.607745 0.166377,-1.007187 0.354382,-1.159147 0.188005,-0.151675 0.476946,-0.05658 0.663232,0.360406 0.190224,0.418413 0.277849,1.159099 0.310569,1.842063 0.03328,0.684533 0.01109,1.311059 0.07653,1.699565 0.06544,0.388458 0.222944,0.54194 0.409286,0.493394 0.190224,-0.04755 0.41095,-0.294315 0.542387,-0.96021 0.133656,-0.664135 0.176914,-1.746541 0.222945,-2.753728 0.04437,-1.007186 0.08762,-1.937632 0.22128,-2.412246 0.131438,-0.474518 0.354382,-0.493394 0.553479,-0.180202 0.199097,0.313334 0.376566,0.960162 0.540724,1.6572 0.162494,0.695517 0.310569,1.444238 0.551815,1.751249 0.239028,0.307153 0.571836,0.174021 0.803876,-0.216339 0.231818,-0.389885 0.365473,-1.035382 0.365473,-1.851477 0,-0.816096 -0.133655,-1.804501 -0.05546,-2.42166 0.07875,-0.61716 0.365473,-0.864641 0.654081,-0.798884 0.288386,0.06562 0.575552,0.446466 0.864215,0.836493 0.28894,0.389885 0.575496,0.7879 0.798385,0.930446 0.221281,0.142641 0.376565,0.02853 0.442007,-0.256753 0.066,-0.285282 0.04437,-0.740924 0.02218,-1.168561 -0.02218,-0.426021 -0.04437,-0.825462 0.09872,-1.072992 0.144193,-0.247719 0.454762,-0.341387 0.776479,-0.189712 0.321661,0.15215 0.652251,0.551402 0.908027,0.73151 0.255666,0.180202 0.430915,0.14264 0.542388,-0.0095 0.111472,-0.151675 0.155284,-0.418413 0.190223,-0.722095 0.03328,-0.303825 0.05546,-0.645354 0.188006,-0.778486 0.133101,-0.133131 0.376565,-0.05801 0.630345,0.142641 0.255665,0.198746 0.520758,0.52159 0.809421,0.664135 0.288386,0.142641 0.599233,0.105079 0.820292,-0.05658 0.22128,-0.161185 0.354382,-0.446466 0.299477,-0.769072 -0.05546,-0.322844 -0.299477,-0.684533 -0.321661,-0.892836 -0.02218,-0.208256 0.177468,-0.266263 0.409286,-0.219192 0.234037,0.04755 0.498575,0.198747 0.765554,0.332353 0.266757,0.133132 0.53185,0.245818 0.730836,0.217765 0.199098,-0.02853 0.332753,-0.198746 0.210189,-0.512223 -0.122564,-0.313334 -0.498575,-0.769119 -0.498575,-1.007186 0,-0.236784 0.376566,-0.256754 0.723516,-0.232029 0.347173,0.02377 0.665007,0.09081 0.889726,0.08606 0.224608,-0.0048 0.356046,-0.07988 0.383775,-0.258656 0.02773,-0.178776 -0.05546,-0.458827 -0.07321,-0.825509 -0.02218,-0.366587 0.01664,-0.819234 0.151402,-1.533484 0.13532,-0.714297 0.36381,-1.688581 0.961046,-3.002778 0.597458,-1.314245 1.560279,-2.968355 2.956177,-4.1212254 1.395843,-1.1528703 3.222934,-1.8044534 4.916591,-1.7480628 1.693657,0.058007 3.253991,0.8223242 4.384908,1.9767635 1.132746,1.1544394 1.834356,2.6957682 2.185133,4.1807067 0.350499,1.484985 0.350499,2.915102 0.539059,4.185413 0.188006,1.26879 0.562741,2.377822 1.156539,2.976152 0.595628,0.598378 1.412314,0.686102 2.744213,0.71116 1.331955,0.02377 3.179066,-0.01426 4.490889,0.122195 1.311823,0.134558 2.081037,0.441711 2.329493,0.68924 0.248455,0.249146 -0.02773,0.436957 -0.30336,0.660998 -0.273967,0.225372 -0.551815,0.485597 -0.577326,0.720526 -0.02773,0.236784 0.191887,0.449794 0.895272,0.531004 0.703384,0.08131 1.889143,0.03804 3.060263,0.21301 1.17296,0.176875 2.3295,0.57955 3.36364,1.135611 1.03408,0.55454 1.94394,1.264083 2.26183,1.737175 0.31778,0.473092 0.0388,0.709542 -0.50967,0.733031 -0.55015,0.02377 -1.37759,-0.164513 -2.23266,-0.260082 -0.85506,-0.09414 -1.73752,-0.09414 -2.13577,0.118867 -0.39986,0.21301 -0.31612,0.637509 0.097,1.027537 0.41261,0.389885 1.15831,0.745631 2.22717,1.206123 1.0688,0.462156 2.46465,1.030674 3.45675,1.729329 0.9921,0.698607 1.58224,1.527207 1.82521,2.078609 0.24124,0.552923 0.1331,0.827031 -0.0948,0.884991 -0.22849,0.05801 -0.5755,-0.103177 -1.11267,-0.344715 -0.53518,-0.241063 -1.2588,-0.563907 -1.78317,-0.632802 -0.52408,-0.06894 -0.84414,0.114112 -0.65774,0.540418 0.18801,0.426021 0.88429,1.09334 1.82521,1.909436 0.93908,0.816095 2.11936,1.782534 3.07125,2.736468 0.9519,0.953934 1.67541,1.896932 1.9714,2.517229 0.29393,0.620298 0.16083,0.919463 -0.25567,0.897544 -0.4165,-0.02377 -1.11267,-0.368013 -1.95858,-0.932015 -0.84409,-0.562338 -1.83619,-1.345578 -2.45372,-1.552312 -0.61754,-0.206829 -0.85873,0.161184 -0.50967,0.689193 0.34884,0.527866 1.28809,1.218675 2.42449,1.853046 1.13641,0.635988 2.47197,1.215537 3.64498,1.907915 1.17295,0.690762 2.1833,1.494305 3.04569,2.435734 0.86233,0.941382 1.57858,2.019081 1.98415,2.738038 0.4054,0.719004 0.50634,1.077698 0.35826,1.206123 -0.14807,0.12695 -0.54239,0.01902 -1.29358,-0.571705 -0.75268,-0.590532 -1.86175,-1.6698 -3.02006,-2.568913 -1.15837,-0.899112 -2.36787,-1.618069 -3.32892,-2.03943 -0.96099,-0.423167 -1.67718,-0.549833 -1.98415,-0.391787 -0.30669,0.159758 -0.21019,0.603038 0.56818,1.342393 0.77653,0.740924 2.23083,1.776306 3.67786,3.062307 1.4452,1.286002 2.88308,2.819533 3.84779,4.094551 0.96465,1.275066 1.45796,2.290098 1.59316,2.849298 0.13532,0.560768 -0.086,0.665704 -0.57915,0.327598 -0.49359,-0.338534 -1.25703,-1.119968 -2.19429,-2.008145 -0.93731,-0.888129 -2.04815,-1.881241 -3.05666,-2.557929 -1.01218,-0.67664 -1.92387,-1.035382 -2.35506,-1.014984 -0.43092,0.02377 -0.38155,0.422692 0.0604,1.110553 0.44423,0.686102 1.28259,1.658817 2.18331,3.161015 0.90076,1.50215 1.86181,3.530645 2.35505,5.200398 0.49525,1.6698 0.5191,2.980859 0.37102,3.615278 -0.14807,0.634371 -0.46974,0.592102 -0.80204,-0.05325 -0.33276,-0.645354 -0.67781,-1.892225 -1.24605,-3.034112 -0.5664,-1.141887 -1.35569,-2.177316 -1.90013,-2.546946 -0.54238,-0.369915 -0.83676,-0.0737 -0.83676,0.570135 0,0.645354 0.29615,1.638467 0.74542,3.198577 0.44921,1.558588 1.0505,3.682605 1.39036,5.723651 0.33773,2.042569 0.41261,4.003689 0.62301,5.451065 0.21185,1.448898 0.55908,2.38562 1.13098,3.228342 0.57183,0.841152 1.36662,1.586736 1.72655,2.034723 0.35992,0.447892 0.28672,0.596809 0.0388,0.57489 -0.24846,-0.02377 -0.67239,-0.21301 -1.30451,-0.563907 -0.63401,-0.352323 -1.47991,-0.863072 -1.96407,-1.033813 -0.48415,-0.170693 -0.60845,0 -0.66872,0.343289 -0.0604,0.342814 -0.0566,0.858365 -0.0876,1.340824 -0.0333,0.484027 -0.0971,0.933583 0.001,1.213968 0.0987,0.281953 0.35992,0.393213 0.85323,0.552923 0.49136,0.159758 1.21316,0.36516 1.47626,0.524775 0.26287,0.159758 0.066,0.271018 -0.31778,0.440285 -0.38211,0.167365 -0.9519,0.393213 -1.28986,0.628095 -0.33775,0.233455 -0.44756,0.477751 -0.34884,0.6939 0.0987,0.214436 0.40541,0.402722 0.90803,0.635987 0.50246,0.233456 1.20218,0.512223 1.56943,0.740877 0.36935,0.2287 0.4054,0.405575 0.25566,0.534142 -0.14974,0.128376 -0.48803,0.208255 -0.92816,0.305251 -0.44035,0.097 -0.98478,0.208256 -1.24782,0.434103 -0.26288,0.225373 -0.24291,0.562338 0.0388,0.867827 0.28119,0.305251 0.82584,0.579549 1.28443,0.877146 0.45864,0.297643 0.83493,0.618728 0.86233,0.819233 0.0277,0.200648 -0.29061,0.281953 -0.78745,0.400821 -0.49691,0.120769 -1.17297,0.281953 -1.51825,0.579549 -0.34717,0.297644 -0.36548,0.73151 -0.10427,1.165423 0.26122,0.434103 0.80572,0.867779 1.20951,1.270359 0.40374,0.40082 0.665,0.772209 0.72168,1.02126 0.0566,0.249146 -0.0932,0.377523 -0.46751,0.320942 -0.37656,-0.05658 -0.97568,-0.297644 -1.45436,-0.393213 -0.47861,-0.09557 -0.83499,-0.0485 -0.92816,0.169267 -0.0932,0.217765 0.0749,0.603085 0.34717,1.22809 0.27232,0.625004 0.64683,1.489645 0.7674,1.976763 0.12255,0.488735 -0.0111,0.601516 -0.22461,0.53728 -0.21573,-0.06561 -0.51521,-0.305251 -0.87331,-0.538801 -0.35439,-0.233456 -0.76739,-0.457402 -1.00308,-0.441711 -0.23404,0.01426 -0.29061,0.274345 -0.17914,0.690761 0.11314,0.418413 0.39486,0.996204 0.53517,1.56011 0.14088,0.562338 0.14088,1.109032 0.0277,1.367497 -0.11313,0.258656 -0.33774,0.225373 -0.60838,-0.03328 -0.27064,-0.258655 -0.59014,-0.739354 -0.95556,-1.005665 -0.36547,-0.266262 -0.77831,-0.313334 -0.91901,-0.07227 -0.14086,0.241063 -0.0111,0.772257 0.17914,1.334595 0.188,0.562337 0.43147,1.15753 0.52465,1.607133 0.0932,0.451221 0.0388,0.754998 -0.13144,0.844291 -0.16971,0.08939 -0.45145,-0.03804 -0.71255,-0.320942 -0.26121,-0.281953 -0.50633,-0.715866 -0.71253,-0.795745 -0.20631,-0.07988 -0.37657,0.192565 -0.6395,0.667274 -0.26287,0.474518 -0.61753,1.149731 -1.14372,1.840541 -0.52409,0.69076 -1.21866,1.39878 -1.72472,2.1679 -0.50634,0.76907 -0.824,1.59929 -1.03048,2.29476 -0.2063,0.69703 -0.29948,1.25937 -0.21572,1.74968 0.0843,0.49025 0.34717,0.90848 0.53517,1.2938 0.18801,0.38703 0.29947,0.73935 0.25233,0.90852 -0.0444,0.16927 -0.25233,0.15358 -0.60844,0.01 -0.35603,-0.14407 -0.86233,-0.41841 -1.24782,-0.48246 -0.38544,-0.0642 -0.64682,0.0799 -0.76006,0.32903 -0.11314,0.24914 -0.0765,0.60308 0.26288,1.21083 0.33775,0.60779 0.97562,1.46929 1.31,2.03948 0.33608,0.5717 0.37101,0.85208 0.25954,0.96957 -0.11313,0.11887 -0.37102,0.0737 -0.75823,-0.10317 -0.3871,-0.17688 -0.90437,-0.48712 -1.23141,-0.52316 -0.32721,-0.038 -0.46585,0.19874 -0.39653,0.52316 0.0693,0.32569 0.34329,0.73935 0.6614,1.30483 0.31778,0.56704 0.67599,1.28914 0.88973,2.11931 0.21573,0.83021 0.28506,1.76846 0.38932,2.47648 0.10426,0.70802 0.24291,1.18577 0.57372,1.72933 0.33054,0.54351 0.85141,1.15444 1.40683,1.78724 0.55542,0.6328 1.14555,1.286 1.33555,1.74654 0.19023,0.46073 -0.0166,0.72837 -0.33053,0.68453 -0.31223,-0.0475 -0.72895,-0.40272 -1.20035,-0.72214 -0.46974,-0.32094 -0.99027,-0.60461 -1.36479,-0.60461 -0.37434,0 -0.60112,0.28338 -0.5664,0.70802 0.0333,0.4246 0.33054,0.9915 0.80754,1.60238 0.47694,0.61093 1.13829,1.26722 1.66082,1.90792 0.52076,0.64065 0.90254,1.26717 0.97197,1.63999 0.0693,0.37276 -0.17358,0.49187 -0.71253,0.20825 -0.53906,-0.28338 -1.37399,-0.96957 -2.03351,-1.44576 -0.6614,-0.47618 -1.14739,-0.74563 -1.41597,-0.70017 -0.26843,0.0428 -0.32166,0.40272 -0.20853,0.90063 0.11314,0.49972 0.39099,1.14037 0.9519,1.94077 0.55907,0.80045 1.40133,1.7591 2.07549,2.54386 0.67421,0.78476 1.18393,1.39564 1.47991,1.86712 0.29781,0.47309 0.38155,0.80825 0.27951,0.99625 -0.10205,0.18781 -0.38932,0.23203 -0.92444,0.038 -0.53352,-0.1959 -1.31366,-0.63285 -1.82344,-0.72681 -0.508,-0.0956 -0.74542,0.15215 -0.84774,0.4574 -0.10204,0.30526 -0.0677,0.66885 0.16083,1.14817 0.22849,0.48089 0.65225,1.07608 1.3502,2.00653 0.69612,0.93044 1.66626,2.19609 2.3697,3.09521 0.70339,0.89911 1.13824,1.43011 1.33922,1.83897 0.1991,0.41033 0.16638,0.69704 -0.0765,0.81296 -0.24291,0.11458 -0.69612,0.058 -1.13275,0.0285 -0.43479,-0.0285 -0.85512,-0.0285 -0.89527,0.27245 -0.0444,0.3024 0.29227,0.90539 0.69429,1.56011 0.40208,0.6532 0.87148,1.35808 1.36662,1.99716 0.49524,0.63908 1.01401,1.21397 1.39767,1.82799 0.38377,0.61402 0.63034,1.26722 0.59746,1.56015 -0.0333,0.29147 -0.34329,0.22252 -0.79295,-0.10032 -0.44922,-0.32284 -1.03775,-0.89597 -1.47077,-1.21867 -0.43313,-0.32285 -0.71071,-0.39179 -0.94092,-0.26009 -0.22849,0.13314 -0.40928,0.46834 -0.0804,1.0777 0.32887,0.60932 1.16014,1.49274 2.07549,2.32609 0.91352,0.83331 1.91111,1.61807 2.88125,2.61741 0.9702,0.99782 1.91477,2.21179 2.4921,3.12655 0.57738,0.9148 0.79112,1.53196 0.79844,1.83897 0.0111,0.30858 -0.188,0.30858 -0.65225,-0.005 -0.46419,-0.31477 -1.20224,-0.94614 -1.96041,-1.604 -0.76007,-0.65791 -1.5457,-1.34396 -2.09929,-1.70893 -0.55725,-0.36516 -0.88246,-0.40748 -1.05421,-0.1474 -0.17193,0.26008 -0.18801,0.81924 0.188,1.5758 0.37657,0.75657 1.14373,1.70893 2.10477,3.07325 0.95922,1.36435 2.11387,3.14061 2.88126,4.55509 0.76733,1.41447 1.15104,2.46706 1.24605,3.08736 0.097,0.62187 -0.0948,0.81296 -0.41484,0.69076 -0.31778,-0.12362 -0.76372,-0.56077 -1.33744,-1.17479 -0.57367,-0.61559 -1.27528,-1.40662 -2.11204,-1.95327 -0.83676,-0.5467 -1.80879,-0.84743 -2.22351,-0.77854 -0.41483,0.0675 -0.27064,0.506 -0.0715,1.18107 0.1991,0.67517 0.45476,1.59149 0.83676,2.39817 0.38378,0.80668 0.89344,1.5022 1.29358,2.66444 0.39986,1.16228 0.6924,2.78977 0.78197,3.82044 0.0915,1.03067 -0.0222,1.46459 -0.2174,1.56016 -0.19743,0.0956 -0.48249,-0.14882 -0.80576,-0.76598 -0.32333,-0.61716 -0.68697,-1.60557 -1.13824,-2.32453 -0.45143,-0.719 -0.98844,-1.16699 -1.3045,-1.30169 -0.31612,-0.13456 -0.41095,0.0428 -0.33275,0.46834 0.0787,0.42602 0.33275,1.10432 0.64676,2.0943 0.31611,0.98836 0.69612,2.29005 0.88612,3.57605 0.19022,1.286 0.19022,2.55479 0.0638,3.14219 -0.12589,0.58744 -0.37989,0.49344 -0.57006,0.0723 -0.19022,-0.41984 -0.31611,-1.16538 -0.52963,-2.03316 -0.21351,-0.86777 -0.51355,-1.85775 -0.89338,-2.70518 -0.3799,-0.84743 -0.83682,-1.55231 -1.16203,-1.8703 -0.32333,-0.31952 -0.51355,-0.25058 -0.56091,-0.0143 -0.0499,0.23631 0.0499,0.64379 0.30169,1.26095 0.254,0.6172 0.66323,1.44267 0.8295,2.07395 0.16638,0.62966 0.0876,1.06357 -0.0715,1.12467 -0.15695,0.0613 -0.39487,-0.25057 -0.65591,-0.77226 -0.26121,-0.52159 -0.54461,-1.2531 -0.79844,-1.57893 -0.25401,-0.3257 -0.47529,-0.2444 -0.52076,0.11458 -0.0499,0.35851 0.0788,0.99625 0.21185,1.67451 0.13532,0.67821 0.27785,1.39565 0.23015,1.79509 -0.0499,0.39939 -0.28505,0.48084 -0.60106,0.54194 -0.31611,0.0613 -0.71259,0.10175 -0.85323,0.28528 -0.14087,0.18306 -0.0333,0.50908 0.23182,0.96492 0.26509,0.45597 0.68147,1.04479 0.78196,1.38937 0.10205,0.34614 -0.11313,0.45264 -0.4054,0.50437 -0.2906,0.0518 -0.65957,0.0518 -0.71436,0.34139 -0.0555,0.29004 0.20852,0.86783 0.52242,1.33616 0.31445,0.46691 0.68331,0.82238 0.85867,1.13718 0.17747,0.31667 0.16249,0.59211 -0.0333,0.80203 -0.19189,0.21158 -0.56091,0.35565 -0.71436,0.54664 -0.15362,0.19114 -0.0915,0.42745 0.0765,0.67203 0.1697,0.24297 0.44589,0.49183 0.46752,0.70327 0.0222,0.21015 -0.20631,0.38037 -0.3799,0.61093 -0.17192,0.2287 -0.28339,0.51688 -0.16083,0.77535 0.12035,0.25865 0.47695,0.48716 0.64127,0.81766 0.16472,0.33045 0.13366,0.76284 0.006,1.07456 -0.12589,0.31191 -0.34884,0.50281 -0.28118,0.83958 0.0654,0.33664 0.42205,0.82081 0.70344,1.56639 0.28118,0.74563 0.48971,1.75282 0.26842,2.78506 -0.22128,1.03225 -0.86782,2.09112 -1.84894,2.8493 -0.98295,0.75657 -2.30026,1.21235 -4.12186,1.3471 -1.82338,0.13313 -4.149206,-0.0547 -6.052996,-0.14882 -1.903791,-0.0942 -3.381879,-0.0942 -4.531097,0.0941 -1.149218,0.18781 -1.971339,0.56391 -2.941536,0.80982 -0.971971,0.24582 -2.093792,0.36326 -3.288653,0.12695 -1.194916,-0.23678 -2.461041,-0.82865 -3.381879,-0.98998 -0.920838,-0.16308 -1.49456,0.10508 -1.839846,0.55607 -0.345509,0.45122 -0.460309,1.08397 -0.467518,1.59771 -0.0055,0.5138 0.08929,0.90853 -0.02218,1.08398 -0.114799,0.17545 -0.444225,0.13313 -0.845913,-0.11887 -0.402077,-0.252 -0.876971,-0.71743 -1.205841,-1.27977 -0.328871,-0.56391 -0.509667,-1.2249 -0.772875,-1.51313 -0.262874,-0.28814 -0.606553,-0.2035 -1.074292,0.0642 -0.467518,0.26769 -1.059708,0.71739 -1.395844,1.18892 -0.33608,0.47166 -0.418159,0.96486 -0.458644,1.32984 -0.03882,0.36658 -0.03882,0.60465 -0.230154,0.66884 -0.190224,0.0642 -0.566401,-0.0485 -1.041406,-0.46358 -0.476946,-0.41509 -1.050556,-1.13405 -1.379427,-1.80132 -0.328871,-0.66732 -0.41095,-1.28762 -0.681478,-1.568 -0.270639,-0.28196 -0.730837,-0.22538 -1.092594,0 -0.359928,0.22537 -0.623025,0.61873 -0.747253,0.98531 -0.122564,0.36516 -0.105926,0.70327 0.03328,1.00719 0.138647,0.3024 0.402076,0.57013 0.410949,0.72366 0.0055,0.15501 -0.237363,0.19732 -0.632175,0.12695 -0.394866,-0.0704 -0.937309,-0.2539 -1.452522,-0.69708 -0.516876,-0.44314 -1.006688,-1.1466 -1.129086,-1.80916 -0.122564,-0.66257 0.124228,-1.27978 0.222945,-1.66039 0.09872,-0.38037 0.04991,-0.52164 -0.155285,-0.56234 -0.204643,-0.0428 -0.566401,0.0143 -0.886121,0.31001 -0.319998,0.29432 -0.599288,0.83017 -0.697949,1.34396 -0.09872,0.51379 -0.01664,1.00719 -0.09872,1.29542 -0.08208,0.28813 -0.328871,0.37276 -0.623025,0.155 -0.29615,-0.21776 -0.64127,-0.73935 -0.803875,-1.30169 -0.162495,-0.56234 -0.148075,-1.16852 -0.03328,-1.64627 0.1148,-0.47775 0.328871,-0.83021 0.228491,-1.02758 -0.09872,-0.19732 -0.508003,-0.23964 -0.919008,-0.0642 -0.41095,0.17545 -0.820347,0.57018 -1.123652,1.02758 -0.305023,0.45741 -0.500793,0.979 -0.655911,1.34397 -0.156949,0.36516 -0.270639,0.57641 -0.476946,0.57018 -0.206307,-0.005 -0.500793,-0.23203 -0.615704,-0.68924 -0.1148,-0.4574 -0.04991,-1.1466 0.04991,-1.66039 0.09872,-0.51374 0.228491,-0.85209 0.262875,-1.21083 0.03327,-0.3585 -0.03328,-0.7393 0.206307,-1.16067 0.237364,-0.42269 0.780139,-0.8866 1.821545,-1.3064 1.041461,-0.41983 2.585324,-0.79726 3.619409,-1.05573 1.034085,-0.25865 1.560279,-0.39939 1.978715,-0.72209 0.41816,-0.32285 0.730781,-0.83022 0.63212,-1.13252 -0.09872,-0.3024 -0.608383,-0.40082 -1.989641,-0.44932 -1.381257,-0.0476 -3.637655,-0.0476 -5.537785,-0.17212 -1.90013,-0.12695 -3.442163,-0.3837 -4.430605,-0.23346 -0.986613,0.14883 -1.417805,0.70332 -1.626053,1.09491 -0.208525,0.39179 -0.190224,0.61873 -0.290604,0.75971 -0.100381,0.14264 -0.316116,0.19875 -0.70527,0.0285 -0.39043,-0.1707 -0.952949,-0.56871 -1.533936,-1.11698 -0.581042,-0.54821 -1.178444,-1.24525 -1.658995,-1.43011 -0.482492,-0.18496 -0.845913,0.14264 -0.946405,0.53257 -0.10038,0.39179 0.066,0.84743 0.257329,1.20931 0.191888,0.36183 0.407622,0.6328 0.339963,0.78315 -0.06766,0.15024 -0.414832,0.17687 -0.937254,0 -0.522423,-0.17831 -1.218653,-0.56229 -1.741186,-1.10899 -0.522422,-0.54665 -0.871535,-1.25937 -1.244218,-1.58678 -0.374347,-0.3257 -0.771044,-0.26959 -0.979292,-0.0499 -0.208525,0.22062 -0.224609,0.60466 -0.166377,1.01033 0.05657,0.40557 0.190224,0.83178 0.140866,1.05892 -0.04991,0.2287 -0.281177,0.25675 -0.630345,0.12837 -0.348836,-0.12837 -0.813027,-0.41366 -1.134577,-0.95393 -0.321661,-0.54042 -0.500793,-1.34083 -0.599288,-1.91728 -0.09705,-0.57798 -0.1148,-0.93359 -0.337744,-1.0119 -0.224608,-0.0784 -0.655912,0.12077 -0.988443,0.40558 -0.332753,0.28528 -0.564571,0.6532 -0.672383,0.9884 -0.10759,0.33378 -0.09151,0.63281 -0.248455,0.79732 -0.156949,0.16451 -0.489702,0.19256 -0.730836,-0.12838 -0.239583,-0.32094 -0.389321,-0.9884 -0.447553,-1.55859 -0.05657,-0.56861 -0.02773,-1.03852 0.07487,-1.5147 0.100381,-0.47618 0.266757,-0.96021 0.241246,-1.20142 -0.02773,-0.24106 -0.241246,-0.24106 -0.663232,-0.12076 -0.422042,0.12076 -1.054217,0.36183 -1.560279,0.70331 -0.506339,0.34139 -0.887951,0.78319 -1.178444,0.87558 -0.290604,0.0922 -0.489701,-0.16309 -0.389321,-0.54038 0.10038,-0.37609 0.496911,-0.87405 0.838593,-1.3722 0.339962,-0.4981 0.621194,-0.9962 0.886121,-1.42227 0.266757,-0.42602 0.515212,-0.78319 0.929989,-1.09491 0.414832,-0.31191 0.995708,-0.58426 1.741185,-0.86778 0.747252,-0.28528 1.65894,-0.58269 2.439079,-1.03852 0.78014,-0.45598 1.4269,-1.06672 2.800893,-1.36745 1.373937,-0.3005 3.473219,-0.28813 4.525551,-0.37277 1.050556,-0.0861 1.050556,-0.27102 1.074348,-0.44932 0.02773,-0.17687 0.07487,-0.34756 0.323325,-0.35565 0.248455,-0.005 0.696119,0.15025 1.087104,0.32713 0.389321,0.17877 0.721685,0.37752 1.136406,0.47618 0.414832,0.0984 0.911688,0.0984 1.244219,-0.0428 0.332753,-0.14122 0.496911,-0.42602 0.697949,-0.54827 0.199098,-0.12077 0.430915,-0.0785 0.679648,0.0785 0.248456,0.15643 0.513549,0.42603 0.803876,0.61094 0.290604,0.18495 0.606609,0.28528 0.988443,0.32712 0.379892,0.0428 0.829497,0.0285 1.11999,-0.10651 0.290605,-0.13455 0.422042,-0.39178 0.623025,-0.46976 0.199097,-0.0785 0.46419,0.0238 0.686968,0.20683 0.224609,0.18496 0.407623,0.45597 0.630345,0.6328 0.224609,0.17878 0.489702,0.26341 0.904367,0.30525 0.414832,0.0428 0.979292,0.0428 1.468994,-0.21301 0.489701,-0.25675 0.904367,-0.76755 1.052331,-1.23118 0.149739,-0.46215 0.03327,-0.87405 -0.18246,-1.06671 -0.217398,-0.19257 -0.53185,-0.16309 -0.780139,-0.058 -0.248455,0.1065 -0.430915,0.29146 -0.547933,0.2772 -0.115354,-0.0143 -0.166377,-0.2287 -0.02773,-0.6407 0.140866,-0.41175 0.473064,-1.0244 0.834933,-1.64312 0.361592,-0.61873 0.754573,-1.24531 1.02133,-1.83584 0.266757,-0.59053 0.407622,-1.14659 0.328871,-1.49278 -0.07875,-0.34614 -0.374347,-0.47775 -0.626685,-0.41651 -0.254002,0.0613 -0.465854,0.31476 -0.670553,0.76755 -0.204643,0.45264 -0.402076,1.10589 -0.606553,1.78881 -0.204643,0.68453 -0.416496,1.39726 -0.619364,1.8249 -0.204643,0.42744 -0.402077,0.57013 -0.55725,0.58111 -0.155285,0.01 -0.268421,-0.10983 -0.231818,-0.35089 0.03882,-0.24106 0.219062,-0.60466 0.226272,-0.8819 0.0055,-0.2772 -0.162495,-0.47167 -0.18246,-0.79727 -0.02218,-0.3257 0.105927,-0.78633 0.07653,-0.97433 -0.02773,-0.18781 -0.211852,-0.10175 -0.387102,0.10793 -0.177468,0.21158 -0.345509,0.55136 -0.515213,0.93829 -0.16804,0.38703 -0.337744,0.82233 -0.542387,1.00405 -0.204643,0.18163 -0.444225,0.10793 -0.55725,-0.0723 -0.113136,-0.18163 -0.100381,-0.47167 0.07653,-0.94923 0.177468,-0.47775 0.515212,-1.14193 0.754573,-1.911 0.239582,-0.76755 0.379893,-1.63847 0.436461,-2.30418 0.05657,-0.66418 0.02773,-1.12467 -0.113136,-1.31738 -0.142529,-0.19256 -0.394867,-0.12077 -0.69795,0.28338 -0.303359,0.40558 -0.655911,1.14194 -0.988442,1.89223 -0.330535,0.75029 -0.641271,1.51156 -0.887951,2.15226 -0.246792,0.64064 -0.429252,1.16066 -0.648591,1.40815 -0.219063,0.24724 -0.4714,0.22394 -0.571892,-0.13171 -0.09872,-0.35565 -0.04437,-1.04323 0.197434,-1.86712 0.239582,-0.82551 0.663232,-1.78886 0.966536,-2.65664 0.30336,-0.86934 0.488038,-1.64312 0.634005,-2.39812 0.149739,-0.755 0.261211,-1.49278 0.12811,-1.84368 -0.133101,-0.3509 -0.515212,-0.31476 -0.78929,-0.10793 -0.273966,0.20683 -0.444225,0.5843 -0.55725,1.14193 -0.113136,0.55606 -0.16804,1.29542 -0.266757,1.77788 -0.09872,0.48398 -0.239582,0.71425 -0.416496,0.78005 -0.17525,0.0656 -0.387102,-0.0333 -0.478609,-0.3024 -0.09151,-0.27244 -0.06378,-0.71895 -0.204643,-0.85213 -0.140866,-0.13313 -0.451435,0.0485 -0.732611,0.37419 -0.283395,0.3257 -0.537396,0.79889 -0.845914,1.36122 -0.310569,0.56234 -0.677873,1.21554 -0.966536,1.43796 -0.288941,0.22395 -0.500793,0.019 -0.500793,-0.35089 0,-0.36992 0.211852,-0.90073 0.537396,-1.71992 0.324988,-0.81923 0.761893,-1.92512 1.072462,-2.77721 0.31057,-0.85214 0.491365,-1.44895 0.590138,-1.9878 0.09872,-0.53885 0.113136,-1.01812 -0.129774,-1.19984 -0.241246,-0.18163 -0.741762,-0.0656 -1.180275,0.45407 -0.438679,0.52002 -0.818517,1.43953 -1.317313,2.26499 -0.498575,0.82551 -1.119936,1.55075 -1.498165,2.05042 -0.378229,0.49971 -0.515212,0.77225 -0.681478,0.84429 -0.166376,0.0723 -0.36381,-0.058 -0.394867,-0.33664 -0.03328,-0.27862 0.105927,-0.70797 0.37823,-1.27188 0.272302,-0.5639 0.681533,-1.26565 0.908082,-1.9721 0.228491,-0.70802 0.272303,-1.42227 0.257329,-1.98618 -0.01664,-0.5639 -0.08929,-0.97899 -0.286722,-1.08397 -0.197433,-0.10508 -0.515212,0.10317 -0.741817,0.63599 -0.226272,0.531 -0.36381,1.3878 -0.612044,2.20703 -0.250119,0.81766 -0.613873,1.59615 -0.946405,2.15378 -0.334416,0.55768 -0.637665,0.89602 -0.840423,0.97904 -0.204643,0.0846 -0.310569,-0.0846 -0.211852,-0.48089 0.09872,-0.39607 0.402076,-1.01817 0.657741,-1.68701 0.255666,-0.66885 0.469737,-1.38158 0.575497,-1.9345 0.105926,-0.5514 0.105926,-0.94143 -0.113136,-1.06362 -0.219063,-0.1222 -0.657742,0.019 -1.090764,0.44789 -0.433134,0.42935 -0.855065,1.14193 -1.3319,1.81078 -0.476945,0.66884 -1.006744,1.29071 -1.483579,1.6416 -0.476945,0.3509 -0.900706,0.42745 -1.076123,0.33854 -0.173586,-0.0908 -0.09872,-0.3509 0.166377,-0.6814 0.265093,-0.33045 0.719855,-0.73308 1.090709,-1.2531 0.371019,-0.52007 0.657741,-1.15449 0.999423,-2.31202 0.341626,-1.15757 0.734497,-2.83674 1.081613,-3.99275 0.347173,-1.15601 0.650422,-1.79352 0.666893,-2.14441 0.01664,-0.3509 -0.257884,-0.41509 -0.71076,-0.21444 -0.454763,0.20065 -1.090709,0.66884 -1.726545,1.33769 -0.63578,0.66889 -1.271615,1.53823 -1.801469,2.34335 -0.529631,0.80511 -0.953725,1.54446 -1.264294,1.99873 -0.31057,0.45407 -0.506339,0.62186 -0.657742,0.61716 -0.151957,-0.005 -0.257883,-0.18781 -0.159167,-0.56548 0.09872,-0.3761 0.402077,-0.94609 0.7198,-1.50529 0.317779,-0.55925 0.650477,-1.10432 0.802101,-1.43482 0.151403,-0.33045 0.120346,-0.44789 0.0055,-0.55297 -0.113136,-0.10318 -0.310569,-0.19399 -0.36381,-0.46691 -0.05546,-0.27245 0.03882,-0.72681 0.2357,-1.2202 0.19577,-0.49344 0.498575,-1.02445 0.484156,-1.26565 -0.01664,-0.24106 -0.348836,-0.18781 -0.681478,0.22727 -0.332753,0.41509 -0.666893,1.19357 -1.014009,1.84363 -0.347173,0.6485 -0.712535,1.16857 -1.006689,1.7262 -0.29615,0.55763 -0.522422,1.15443 -0.719855,1.42697 -0.197434,0.27245 -0.36381,0.2211 -0.37823,-0.0785 -0.01664,-0.29764 0.120346,-0.84429 0.392649,-1.50529 0.272303,-0.66261 0.681533,-1.4411 1.134632,-2.26347 0.453098,-0.82232 0.951895,-1.68696 1.351975,-2.34801 0.399858,-0.65943 0.70344,-1.11369 0.635835,-1.35337 -0.06932,-0.23964 -0.508002,-0.26627 -0.840423,-0.0594 -0.334416,0.20826 -0.56091,0.65006 -0.825837,0.8819 -0.265093,0.23346 -0.568231,0.26008 -0.665062,0.097 -0.09872,-0.16309 0.0055,-0.51222 -0.09151,-0.51222 -0.09872,0 -0.402077,0.35089 -0.824007,0.92887 -0.423706,0.57798 -0.968367,1.38157 -1.363012,1.95328 -0.392648,0.57018 -0.63578,0.90852 -0.833102,0.98527 -0.195215,0.0785 -0.347172,-0.10366 -0.241246,-0.56391 0.105926,-0.46073 0.469736,-1.20142 0.900762,-2.01124 0.430915,-0.81138 0.929934,-1.69485 1.560279,-2.53758 0.628514,-0.84272 1.384917,-1.64469 1.673581,-2.15064 0.286722,-0.50438 0.105926,-0.71273 -0.144193,-0.64849 -0.248456,0.0656 -0.568176,0.40272 -0.908028,0.61088 -0.341626,0.20683 -0.703439,0.28528 -1.11267,0.39464 -0.409286,0.10983 -0.862385,0.2539 -1.392238,0.61093 -0.529632,0.35708 -1.136407,0.92731 -1.642524,1.40815 -0.506339,0.48089 -0.915348,0.8694 -1.233238,0.99939 -0.317779,0.1298 -0.544606,0 -0.493029,-0.26008 0.05546,-0.26008 0.385439,-0.64849 0.816686,-1.06358 0.43147,-0.41508 0.961046,-0.85684 1.377598,-1.35024 0.416495,-0.49344 0.719855,-1.03852 1.119991,-1.52568 0.402076,-0.48717 0.900762,-0.91476 1.059707,-1.17479 0.159167,-0.26008 -0.02218,-0.3509 -0.317779,-0.23964 -0.29615,0.11126 -0.703385,0.42269 -1.158313,0.78476 -0.454763,0.36184 -0.953726,0.77849 -1.331955,1.17479 -0.378229,0.39464 -0.63578,0.77226 -0.86965,0.88818 -0.234036,0.11601 -0.447552,-0.0285 -0.440343,-0.31191 0.0055,-0.28671 0.2357,-0.71429 0.809422,-1.29698 0.575496,-0.58117 1.498164,-1.31577 2.186963,-1.82642 0.688799,-0.51066 1.143727,-0.79575 1.560279,-1.28134 0.418159,-0.48712 0.79661,-1.17479 1.468937,-1.95328 0.672383,-0.77849 1.642524,-1.6447 2.504909,-2.23528 0.862385,-0.59053 1.620618,-0.90063 1.90013,-1.16694 0.279513,-0.26626 0.08208,-0.48717 -0.423705,-0.41509 -0.506339,0.0704 -1.324634,0.43411 -2.172378,0.90226 -0.847743,0.46691 -1.724714,1.03852 -2.261888,1.49905 -0.536841,0.46073 -0.734441,0.81139 -1.10535,1.04475 -0.371019,0.23346 -0.915347,0.3509 -1.461617,0.7143 -0.544606,0.36326 -1.088934,0.97272 -1.543863,1.38157 -0.454762,0.40891 -0.816686,0.61716 -1.172954,0.79104 -0.356045,0.17402 -0.703439,0.31809 -0.939139,0.29764 -0.234037,-0.019 -0.356046,-0.20064 -0.05546,-0.49967 0.30336,-0.29764 1.02865,-0.71429 1.589561,-1.22809 0.55908,-0.51379 0.951895,-1.12467 1.370276,-1.78881 0.41816,-0.66413 0.855064,-1.38 1.461617,-2.15378 0.606609,-0.77382 1.377598,-1.60399 1.960414,-2.29794 0.582873,-0.6939 0.977518,-1.2531 0.908083,-1.51941 -0.06766,-0.26626 -0.597458,-0.23964 -1.26252,-0.058 -0.666837,0.18163 -1.468938,0.52007 -2.309361,1.0448 -0.840478,0.52477 -1.717449,1.24059 -2.316737,1.85932 -0.597402,0.6203 -0.915348,1.1466 -1.149162,1.30478 -0.2357,0.15976 -0.385439,-0.0485 -0.371019,-0.39939 0.01664,-0.3509 0.195769,-0.84429 0.628514,-1.35647 0.433134,-0.51222 1.112671,-1.04479 1.582185,-1.53823 0.469736,-0.4934 0.727176,-0.94766 1.165689,-1.55384 0.438679,-0.60622 1.059707,-1.36436 1.741185,-1.92513 0.681478,-0.56076 1.42324,-0.92417 2.218021,-1.29384 0.79478,-0.36992 1.642523,-0.74559 2.331322,-1.24526 0.688799,-0.49971 1.218652,-1.1231 1.264295,-1.42075 0.04437,-0.29764 -0.392649,-0.27244 -0.908027,-0.15643 -0.515213,0.11459 -1.10535,0.31952 -1.748506,0.59054 -0.644931,0.26959 -1.33922,0.60617 -1.869073,1.06671 -0.529632,0.45883 -0.893387,1.0448 -1.461618,1.55702 -0.568231,0.51218 -1.339219,0.95394 -1.989641,1.31106 -0.650421,0.35708 -1.180274,0.62966 -1.447031,0.65006 -0.265093,0.019 -0.265093,-0.21443 0.07653,-0.51693 0.341626,-0.3024 1.02133,-0.67355 1.598656,-1.06044 0.573722,-0.38703 1.043236,-0.7879 1.377597,-1.30169 0.332753,-0.51217 0.529632,-1.13561 0.968311,-1.71364 0.43868,-0.57798 1.119991,-1.10898 1.620618,-1.56481 0.500793,-0.45598 0.816687,-0.83022 0.719856,-1.0448 -0.09705,-0.21444 -0.613874,-0.26626 -1.278936,-0.10651 -0.666893,0.15976 -1.485409,0.52944 -2.309417,1.17013 -0.825782,0.64065 -1.657109,1.55227 -2.165001,2.20233 -0.508003,0.65006 -0.688799,1.04009 -0.900762,1.16228 -0.211853,0.12363 -0.454763,-0.019 -0.387103,-0.42126 0.06932,-0.40272 0.447553,-1.06515 0.999368,-1.8045 0.551815,-0.74093 1.278936,-1.55859 2.172378,-2.34178 0.893441,-0.7832 1.953093,-1.53349 2.892233,-2.12402 0.939084,-0.58896 1.755771,-1.01817 2.567022,-1.40663 0.811196,-0.38846 1.611412,-0.73935 1.975,-1.03224 0.36381,-0.29146 0.286722,-0.52473 -0.12811,-0.56391 -0.416496,-0.038 -1.174784,0.11744 -2.104773,0.47309 -0.929934,0.35708 -2.037114,0.91476 -2.974423,1.35024 -0.939085,0.43553 -1.710129,0.74715 -2.490268,1.28286 -0.780139,0.53572 -1.567599,1.29856 -2.059075,1.59463 -0.491365,0.29622 -0.688799,0.12838 -0.659572,-0.2035 0.03327,-0.33045 0.288941,-0.82394 0.856894,-1.36279 0.568231,-0.53885 1.445202,-1.1231 2.261888,-1.57737 0.818517,-0.45407 1.57492,-0.78005 2.006112,-1.19357 0.430916,-0.41651 0.537396,-0.9226 0.379893,-1.22024 -0.159166,-0.29765 -0.582816,-0.38989 -1.211331,-0.33045 -0.628515,0.058 -1.461617,0.26483 -2.179698,0.49496 -0.718026,0.23013 -1.324579,0.48089 -1.642469,0.50124 -0.317779,0.0238 -0.348836,-0.18638 -0.151957,-0.39321 0.197433,-0.20683 0.621194,-0.41509 1.423295,-0.77064 0.802046,-0.35565 1.984151,-0.85837 2.899498,-1.41443 0.915348,-0.55606 1.565769,-1.16699 2.550552,-1.7763 0.982952,-0.61089 2.300265,-1.22025 3.200972,-1.86869 0.900762,-0.6485 1.386748,-1.33774 1.415975,-1.66667 0.03327,-0.33045 -0.394867,-0.30525 -1.028595,-0.0984 -0.635835,0.20826 -1.485409,0.59676 -2.157792,1.02597 -0.672327,0.42935 -1.172954,0.89597 -1.51458,1.0448 -0.341627,0.14882 -0.522423,-0.019 -0.416496,-0.31191 0.105926,-0.29289 0.498575,-0.70802 1.134632,-1.19985 0.63578,-0.49187 1.514636,-1.05892 2.3697,-1.49278 0.855009,-0.4322 1.688167,-0.73151 2.2107,-1.16072 0.522422,-0.42935 0.734496,-0.98527 0.953725,-1.52564 0.219062,-0.53885 0.447553,-1.05735 0.568231,-1.5351 0.120346,-0.47775 0.136983,-0.91475 -0.06766,-0.98213 -0.204643,-0.0675 -0.628515,0.23346 -0.929989,0.63128 -0.303359,0.39607 -0.485819,0.8897 -0.87148,1.26095 -0.387102,0.36991 -0.977461,0.61716 -1.415974,1.00562 -0.43868,0.38988 -0.725346,0.92103 -0.968311,1.0573 -0.241246,0.13646 -0.43868,-0.12362 -0.241246,-0.59676 0.197433,-0.4731 0.78746,-1.16229 1.240558,-1.71364 0.454762,-0.5514 0.772819,-0.96649 0.931819,-1.30483 0.159167,-0.33854 0.159167,-0.59681 -0.09151,-0.65006 -0.250119,-0.0533 -0.749082,0.10317 -1.119935,0.45407 -0.37102,0.35089 -0.612099,0.89597 -0.982952,1.37529 -0.37102,0.47932 -0.871536,0.89598 -1.25703,1.27821 -0.385439,0.38227 -0.657742,0.73308 -0.893442,0.81139 -0.2357,0.0785 -0.430915,-0.11602 -0.334416,-0.40891 0.09872,-0.29289 0.493028,-0.68139 0.787404,-1.0777 0.293932,-0.39606 0.491365,-0.79726 0.460308,-1.07142 -0.03327,-0.27387 -0.286722,-0.41651 -0.506339,-0.29431 -0.219062,0.12219 -0.402076,0.51222 -0.70344,0.72523 -0.301141,0.21301 -0.72712,0.2539 -1.059651,0.46073 -0.332753,0.20683 -0.575552,0.5843 -0.758233,0.92731 -0.180796,0.34471 -0.30336,0.65477 -0.491366,0.80516 -0.188005,0.15024 -0.447552,0.13646 -0.575551,0.0143 -0.12811,-0.12362 -0.12811,-0.35708 -0.02218,-0.67512 0.108145,-0.31809 0.317779,-0.72052 0.159167,-0.94143 -0.159167,-0.22062 -0.688799,-0.26008 -1.172954,-0.34281 -0.485819,-0.0846 -0.924499,-0.21444 -1.401334,-0.17545 -0.476945,0.038 -0.992102,0.24582 -1.596826,0.28528 -0.606608,0.038 -1.302672,-0.0908 -1.936677,-0.27244 -0.634005,-0.18163 -1.207671,-0.41651 -1.774072,-0.44932 -0.566401,-0.0333 -1.125482,0.13456 -1.534712,0.42745 -0.409287,0.29289 -0.666893,0.70802 -0.908028,0.94143 -0.241246,0.23345 -0.469736,0.28528 -0.606608,0.21443 -0.13532,-0.0704 -0.18246,-0.26626 -0.24291,-0.57798 -0.06045,-0.31191 -0.135319,-0.73935 -0.371019,-0.93515 -0.234037,-0.19447 -0.628515,-0.15643 -1.067028,0 -0.43868,0.15643 -0.922669,0.42745 -1.256974,0.73308 -0.334417,0.30525 -0.515213,0.64221 -0.643156,0.96016 -0.129774,0.31809 -0.204644,0.61721 -0.379893,0.65477 -0.173587,0.038 -0.445889,-0.18163 -0.560911,-0.51375 -0.113136,-0.33045 -0.06766,-0.77225 0.136983,-1.28448 0.20298,-0.51222 0.568231,-1.09804 0.612099,-1.45988 0.04437,-0.36183 -0.226826,-0.50281 -0.621249,-0.45122 -0.392649,0.0533 -0.908028,0.29907 -1.346541,0.62344 -0.438679,0.32427 -0.802045,0.7268 -1.112614,1.00562 -0.308906,0.27862 -0.568232,0.4341 -0.749138,0.33663 -0.180796,-0.097 -0.288941,-0.44789 -0.166377,-0.8239 0.122564,-0.37609 0.469736,-0.77853 0.723516,-1.19675 0.252338,-0.41841 0.409286,-0.85366 0.34329,-1.14189 -0.06544,-0.28956 -0.352718,-0.43077 -0.655911,-0.41841 -0.30336,0.0143 -0.621195,0.18163 -0.833158,0.21444 -0.211853,0.0333 -0.317779,-0.0723 -0.279513,-0.28196 0.03882,-0.21158 0.221281,-0.52943 0.537396,-0.96021 0.316116,-0.43077 0.771044,-0.97742 1.098085,-1.46459 0.324989,-0.48716 0.522422,-0.91475 0.87148,-1.15444 0.348836,-0.23963 0.847744,-0.29288 1.392238,-0.33045 0.544606,-0.038 1.136407,-0.0642 1.589506,-0.20683 0.453098,-0.14264 0.771044,-0.40272 1.136462,-0.64849 0.365473,-0.24439 0.774649,-0.47618 1.324578,-0.46976 0.550152,0.005 1.235068,0.24582 1.81245,0.26008 0.577326,0.0143 1.045066,-0.20065 1.498165,-0.22727 0.453098,-0.0285 0.889781,0.13313 1.710128,0.33377 0.820347,0.20065 2.022528,0.44172 3.208293,0.28814 1.185765,-0.15358 2.358719,-0.70175 3.511597,-1.30478 1.154708,-0.60152 2.294775,-1.25781 3.513428,-2.15535 1.218596,-0.89603 2.515834,-2.03477 3.524352,-2.95894 1.008519,-0.92417 1.7266,-1.63376 2.234492,-2.329229 0.508003,-0.695517 0.803875,-1.378433 0.694289,-1.699565 -0.109809,-0.320942 -0.624855,-0.281954 -1.076123,0.08749 -0.453099,0.368013 -0.844139,1.063577 -1.319144,1.726191 -0.476946,0.662567 -1.037801,1.292278 -1.553013,1.813873 -0.515213,0.52164 -0.984783,0.93672 -1.280766,1.10432 -0.29615,0.16737 -0.420378,0.0875 -0.420378,-0.0941 0,-0.18163 0.124228,-0.46216 0.467518,-0.87876 0.34329,-0.41842 0.906197,-0.971151 1.326408,-1.536627 0.422042,-0.567045 0.70344,-1.146594 0.710761,-1.456743 0.01109,-0.310006 -0.257329,-0.350896 -0.725346,-0.156429 -0.467518,0.193991 -1.140067,0.621866 -1.615128,1.057301 -0.476945,0.43553 -0.758233,0.877193 -0.999368,1.318904 -0.242909,0.441714 -0.445888,0.883474 -0.725346,1.198284 -0.281176,0.31476 -0.641325,0.50285 -0.827667,0.50908 -0.188005,0.005 -0.202979,-0.16594 -0.08596,-0.39606 0.117018,-0.2287 0.367137,-0.51532 0.508003,-0.78477 0.140865,-0.26959 0.171922,-0.524727 -0.02218,-0.637508 -0.195215,-0.114588 -0.615704,-0.08749 -0.94463,0.18781 -0.328871,0.273878 -0.562685,0.795748 -0.882461,1.257808 -0.319443,0.46216 -0.72529,0.86312 -1.116275,1.18421 -0.390985,0.32094 -0.765554,0.56233 -0.982952,0.60308 -0.219063,0.038 -0.281176,-0.12077 -0.19577,-0.36183 0.08596,-0.24106 0.321661,-0.56234 0.445889,-0.94923 0.124228,-0.38846 0.140866,-0.84429 -0.117018,-1.05735 -0.257329,-0.21443 -0.78929,-0.18781 -1.209501,-0.0533 -0.420378,0.13456 -0.732612,0.37419 -1.02316,0.74406 -0.288941,0.36802 -0.55542,0.86621 -0.827612,1.15439 -0.272303,0.28814 -0.553479,0.36802 -0.694289,0.31476 -0.140866,-0.0532 -0.140866,-0.24106 0,-0.46833 0.140865,-0.2287 0.420378,-0.49497 0.591967,-0.82233 0.171922,-0.32712 0.234036,-0.71743 0.03328,-0.90382 -0.202979,-0.18781 -0.672327,-0.17402 -0.961046,-0.0333 -0.28894,0.13931 -0.398194,0.40748 -0.601062,0.7221 -0.20298,0.31476 -0.498575,0.67668 -0.836818,0.93044 -0.336081,0.2539 -0.710705,0.40082 -0.944575,0.40891 -0.234036,0.005 -0.327207,-0.12838 -0.202979,-0.30858 0.124227,-0.18021 0.467517,-0.40891 0.646816,-0.75029 0.179132,-0.34139 0.19577,-0.79575 0.03327,-0.97743 -0.164713,-0.18163 -0.506339,-0.0875 -0.803931,0.13313 -0.297814,0.22062 -0.546269,0.56857 -0.990273,0.83017 -0.445889,0.26151 -1.085218,0.43411 -1.412259,0.42127 -0.32887,-0.0143 -0.34329,-0.21444 -0.148075,-0.38846 0.193552,-0.17402 0.601118,-0.32094 0.851404,-0.55449 0.250119,-0.23346 0.34329,-0.55454 0.04437,-0.72994 -0.29615,-0.17402 -0.982952,-0.20065 -2.062735,-0.28528 -1.079784,-0.08464 -2.552382,-0.228707 -3.677863,-0.573279 -1.127256,-0.346142 -1.907395,-0.894405 -2.391606,-1.409767 -0.484156,-0.515361 -0.672328,-0.997772 -1.224087,-1.311059 -0.555421,-0.31476 -1.476259,-0.462156 -2.108434,-0.509084 -0.632175,-0.04755 -0.975632,0.0048 -1.171124,0.194466 -0.193551,0.187811 -0.241246,0.509085 -0.226827,0.769072 0.01664,0.261508 0.09483,0.462156 0.01664,0.548264 -0.07875,0.08749 -0.312233,0.06133 -0.53185,-0.0737 -0.219062,-0.134558 -0.422042,-0.374194 -0.515213,-0.635988 -0.09483,-0.261508 -0.07875,-0.54194 -0.06211,-0.762795 0.01664,-0.220618 0.03327,-0.380851 -0.117019,-0.434104 -0.148075,-0.05468 -0.460308,0 -0.655911,0.12077 -0.19577,0.120769 -0.272303,0.307153 -0.405404,0.415084 -0.131437,0.106505 -0.319997,0.133132 -0.484156,0.267689 -0.164712,0.133132 -0.305023,0.374195 -0.367137,0.615591 -0.06211,0.241062 -0.04437,0.482411 -0.1148,0.61559 -0.07154,0.134557 -0.226272,0.161184 -0.383775,0.0048 -0.155284,-0.153576 -0.312233,-0.488735 -0.312233,-0.789469 0,-0.300972 0.156949,-0.568614 0.164713,-0.872486 0.0055,-0.302398 -0.131438,-0.640647 -0.381557,-0.789469 -0.250119,-0.148822 -0.608439,-0.107932 -0.920838,0.07845 -0.312233,0.186384 -0.577327,0.52159 -0.655915,0.910048 -0.07875,0.388459 0.03328,0.830217 -0.0055,1.071423 -0.03882,0.241063 -0.226272,0.280527 -0.515213,0.12695 -0.28894,-0.153576 -0.679648,-0.50124 -0.889726,-1.184156 -0.2101887,-0.682964 -0.2412457,-1.699565 0.188006,-2.687923 0.429251,-0.989974 1.319146,-1.950185 2.583441,-2.705182 1.264295,-0.754998 2.904988,-1.304831 4.043281,-1.765323 1.140067,-0.462156 1.779507,-0.836493 2.607174,-0.910095 0.827668,-0.0737 1.841677,0.153576 2.738724,0.488687 0.898932,0.333779 1.679071,0.776964 3.007365,1.049503 1.326409,0.273871 3.199142,0.382278 5.358709,0.09082 2.159567,-0.291463 4.604136,-0.98056 6.869684,-1.92508 2.265549,-0.944567 4.353851,-2.142845 6.301509,-3.198577 1.947659,-1.055779 3.760053,-1.970535 5.37152,-2.681694 1.611467,-0.711112 3.025612,-1.220197 4.26617,-1.643127 1.238728,-0.421266 2.305756,-0.754998 3.104141,-1.124675 0.800271,-0.368013 1.331899,-0.772257 1.598656,-1.195187 0.266757,-0.421266 0.266757,-0.859934 -0.09095,-1.027537 -0.358264,-0.165938 -1.076179,-0.06133 -1.752166,0.158332 -0.675988,0.219191 -1.311823,0.554492 -1.803299,0.737785 -0.491366,0.183531 -0.840423,0.219192 -1.014009,0.165939 -0.173587,-0.05325 -0.173587,-0.194467 0.07154,-0.430775 0.246792,-0.236308 0.738102,-0.570183 1.540203,-0.925739 0.802045,-0.353749 1.918376,-0.729988 3.310614,-1.430116 1.392183,-0.700224 3.060274,-1.726191 4.048716,-2.371546 0.988443,-0.645354 1.295407,-0.908527 1.306333,-1.022877 0.01109,-0.114113 -0.275631,-0.07988 -0.440343,-0.140739 -0.164713,-0.06133 -0.204643,-0.219191 0.144193,-0.48398 0.348836,-0.262934 1.085273,-0.63285 1.752166,-1.036998 0.666892,-0.404149 1.260634,-0.844244 1.700977,-1.343962 0.440343,-0.50124 0.727176,-1.063577 0.604779,-1.246823 -0.122564,-0.184957 -0.655912,0.0095 -1.240614,0.430775 -0.584647,0.421266 -1.218597,1.071423 -2.234436,1.896885 -1.014009,0.82551 -2.408078,1.827989 -3.882506,2.529734 -1.476258,0.703314 -3.032877,1.107463 -3.995753,1.246871 -0.962876,0.140739 -1.331899,0.01902 -1.331899,-0.245818 0,-0.26341 0.368801,-0.667321 1.560279,-1.395645 1.191255,-0.728371 3.208293,-1.779444 4.922081,-2.858711 1.713789,-1.07922 3.127933,-2.186683 4.297227,-3.311358 1.167464,-1.124675 2.090132,-2.266562 2.746044,-3.206423 0.655911,-0.939812 1.045066,-1.677598 0.931763,-1.915665 -0.113136,-0.23821 -0.72712,0.02853 -1.476202,0.579549 -0.749083,0.554493 -1.629769,1.397214 -2.541456,2.222724 -0.911688,0.825462 -1.854433,1.633712 -2.714987,2.293188 -0.860555,0.657907 -1.638864,1.168561 -2.243587,1.361221 -0.604778,0.194467 -1.034141,0.07037 -1.004914,-0.175448 0.03328,-0.245818 0.522422,-0.61559 1.229633,-1.107463 0.707045,-0.491825 1.629713,-1.107415 2.808158,-2.288481 1.180274,-1.181066 2.618155,-2.929176 3.520692,-4.07577 0.902593,-1.146594 1.271671,-1.69172 1.436106,-2.139707 0.162495,-0.447892 0.122564,-0.798883 -0.113136,-0.844291 -0.2357,-0.04279 -0.665062,0.220618 -1.178444,0.632802 -0.513549,0.413659 -1.107235,0.975901 -1.73209,1.528824 -0.624855,0.554492 -1.280711,1.098049 -1.812394,1.414474 -0.533514,0.316662 -0.9428,0.404149 -1.158369,0.360405 -0.215735,-0.04279 -0.2357,-0.219191 0.255665,-0.693947 0.491366,-0.474518 1.49639,-1.246823 2.345964,-1.967397 0.849574,-0.720526 1.547468,-1.387799 2.307531,-2.23209 0.760063,-0.844291 1.58407,-1.862461 2.13949,-2.703614 0.557251,-0.839583 0.849574,-1.500628 0.734497,-1.715207 -0.1148,-0.214437 -0.634005,0.01902 -1.041461,0.347568 -0.405404,0.330451 -0.697894,0.758135 -0.957331,0.910048 -0.259547,0.15215 -0.489701,0.02853 -0.498574,-0.258656 -0.01109,-0.286707 0.197433,-0.731509 0.07321,-0.866209 -0.124227,-0.134558 -0.582872,0.04279 -1.03048,0.40082 -0.447553,0.357078 -0.884291,0.892836 -1.467108,1.276588 -0.582817,0.383703 -1.311823,0.61559 -1.708298,0.642216 -0.394867,0.02853 -0.456981,-0.151675 -0.115354,-0.509085 0.34329,-0.357077 1.092594,-0.892836 1.799639,-1.445759 0.70893,-0.552924 1.373936,-1.124675 1.989696,-1.86403 0.613873,-0.740876 1.176614,-1.650972 1.300842,-2.257148 0.124228,-0.607792 -0.188006,-0.911665 -0.686969,-0.90225 -0.498574,0.0095 -1.185765,0.330451 -1.635203,0.695469 -0.447553,0.366586 -0.655911,0.776916 -0.811252,0.938291 -0.156948,0.159757 -0.261211,0.07037 -0.281176,-0.178777 -0.02218,-0.250572 0.04437,-0.659476 -0.22849,-0.776964 -0.270639,-0.116966 -0.875196,0.06276 -1.363012,0.482791 -0.489701,0.41984 -0.864159,1.07922 -1.156483,1.614932 -0.290604,0.535711 -0.498574,0.946088 -0.760063,1.044796 -0.261211,0.09842 -0.571891,-0.116015 -0.697949,-0.545126 -0.124228,-0.427447 -0.06211,-1.071375 -0.394867,-1.07922 -0.332753,-0.0095 -1.061482,0.61559 -1.540202,1.221766 -0.47861,0.607792 -0.707045,1.196756 -0.988443,1.552312 -0.281176,0.357078 -0.613874,0.482459 -0.895216,0.642216 -0.281176,0.161185 -0.509667,0.357078 -0.644986,0.687672 -0.13532,0.330451 -0.176914,0.794128 -0.332753,1.016601 -0.156949,0.223946 -0.427588,0.205402 -0.53185,-0.142641 -0.104263,-0.34947 -0.03882,-1.026015 0,-1.517888 0.04437,-0.490257 0.06211,-0.794129 -0.1148,-0.919463 -0.177468,-0.125524 -0.551815,-0.07037 -0.70893,0.187811 -0.155285,0.258655 -0.09317,0.722142 -0.228491,1.250008 -0.135319,0.526297 -0.467518,1.115261 -0.822177,1.624346 -0.352718,0.509085 -0.727176,0.936722 -0.999368,1.062008 -0.270639,0.125524 -0.436461,-0.05325 -0.323325,-0.393213 0.115355,-0.338534 0.509667,-0.838015 0.70893,-1.257806 0.197434,-0.41984 0.197434,-0.758136 0.04991,-0.820803 -0.146411,-0.06276 -0.436461,0.15215 -0.79112,0.535711 -0.354382,0.383704 -0.769214,0.936722 -1.207671,1.392555 -0.438679,0.455975 -0.895272,0.812957 -1.227803,0.919462 -0.332753,0.106505 -0.540723,-0.03804 -0.447553,-0.311908 0.09317,-0.277198 0.489702,-0.687671 0.604779,-0.938291 0.1148,-0.249146 -0.04991,-0.338534 -0.396531,-0.195893 -0.34329,0.142641 -0.864215,0.51693 -1.49822,0.830217 -0.63578,0.311908 -1.384862,0.562337 -2.018867,0.794176 -0.634006,0.232029 -1.154709,0.446466 -1.591391,0.740876 -0.436461,0.294316 -0.792895,0.668843 -1.249654,0.686102 -0.456981,0.01902 -1.0195,-0.320941 -1.364842,-0.642216 -0.34329,-0.320942 -0.467518,-0.625004 -0.145856,-0.963348 0.323325,-0.338534 1.092594,-0.714298 2.14315,-1.271928 1.050557,-0.55763 2.378796,-1.300076 3.157105,-1.859323 0.778309,-0.559199 1.006688,-0.938243 1.397729,-1.364311 0.390984,-0.426021 0.946404,-0.902251 1.67175,-1.408198 0.725346,-0.505946 1.620618,-1.04161 2.068226,-1.48023 0.447553,-0.438383 0.447553,-0.780055 0.390985,-1.182635 -0.05657,-0.402723 -0.169704,-0.864641 -0.816687,-0.925739 -0.64676,-0.06133 -1.827035,0.280527 -3.00731,0.695469 -1.180274,0.415085 -2.360549,0.902251 -3.199198,1.328319 -0.838592,0.42602 -1.335559,0.792607 -1.713733,1.043227 -0.378229,0.250572 -0.634005,0.383703 -0.761893,0.354224 -0.12811,-0.02853 -0.12811,-0.225372 -0.36381,-0.322843 -0.234036,-0.09842 -0.703384,-0.09842 -1.1145,0.07227 -0.413169,0.170693 -0.769214,0.512223 -1.074293,0.718957 -0.305024,0.206829 -0.562741,0.280527 -0.668723,0.225373 -0.10759,-0.05468 -0.06378,-0.238211 0.06378,-0.482459 0.12811,-0.244391 0.341626,-0.548216 0.312233,-0.737738 -0.02773,-0.189712 -0.299477,-0.261508 -0.575496,-0.21301 -0.277849,0.0485 -0.562741,0.219191 -0.867875,0.408903 -0.305024,0.189712 -0.63212,0.396066 -0.803876,0.415085 -0.169704,0.01902 -0.184678,-0.153577 -0.109808,-0.338534 0.07487,-0.186384 0.241246,-0.387032 0.259547,-0.596809 0.02218,-0.210158 -0.109808,-0.429349 -0.33608,-0.458828 -0.226272,-0.02853 -0.555421,0.128376 -0.93914,0.329024 -0.383775,0.200649 -0.823952,0.44504 -1.165634,0.670412 -0.341626,0.225373 -0.582817,0.432202 -0.767328,0.445039 -0.184678,0.01426 -0.312233,-0.170693 -0.356046,-0.493394 -0.04437,-0.322844 0,-0.786331 -0.12811,-1.005618 -0.128109,-0.219191 -0.425923,-0.195893 -0.688798,-0.04279 -0.262875,0.153577 -0.491365,0.432202 -0.725346,0.543509 -0.234036,0.109834 -0.476946,0.0485 -0.553479,-0.122195 -0.07875,-0.170694 0.0055,-0.451221 0.03882,-0.6939 0.02773,-0.244392 0,-0.451221 -0.299478,-0.512223 -0.297813,-0.06134 -0.867819,0.02377 -1.571259,-0.05468 -0.70344,-0.07988 -1.542033,-0.32427 -2.324002,-0.737738 -0.781969,-0.413659 -1.507315,-0.999389 -1.911111,-1.553882 -0.405404,-0.554492 -0.491365,-1.079267 -0.270639,-1.36588 0.221281,-0.286708 0.747308,-0.335206 1.187595,-0.476183 0.440343,-0.139312 0.796611,-0.371341 1.236954,-0.554539 0.440343,-0.183056 0.966481,-0.318089 1.551128,-0.335206 0.582816,-0.01902 1.222312,0.07988 1.797808,0.27387 0.575552,0.194467 1.088934,0.488735 1.713789,0.396066 0.626685,-0.09081 1.366616,-0.566997 1.90562,-0.98056 0.520759,-0.388459 0.860555,-0.740877 1.57858,-1.28914 z"
       id="path562"
       style="fill:#000000;stroke:#000000;stroke-width:0.42292756;stroke-linecap:round;stroke-linejoin:round;fill-opacity:1" />
  </g>
</svg>
