<?xml version="1.0" encoding="UTF-8" standalone="no"?>
<!-- Created with Inkscape (http://www.inkscape.org/) -->

<svg
   xmlns:dc="http://purl.org/dc/elements/1.1/"
   xmlns:cc="http://creativecommons.org/ns#"
   xmlns:rdf="http://www.w3.org/1999/02/22-rdf-syntax-ns#"
   xmlns:svg="http://www.w3.org/2000/svg"
   xmlns="http://www.w3.org/2000/svg"
   xmlns:sodipodi="http://sodipodi.sourceforge.net/DTD/sodipodi-0.dtd"
   xmlns:inkscape="http://www.inkscape.org/namespaces/inkscape"
   width="210mm"
   height="297mm"
   viewBox="0 0 210 297"
   version="1.1"
   id="svg6274"
   inkscape:version="0.92.3 (2405546, 2018-03-11)"
   sodipodi:docname="boar.svg">
  <defs
     id="defs6268" />
  <sodipodi:namedview
     id="base"
     pagecolor="#ffffff"
     bordercolor="#666666"
     borderopacity="1.0"
     inkscape:pageopacity="0.0"
     inkscape:pageshadow="2"
     inkscape:zoom="0.35"
     inkscape:cx="-70"
     inkscape:cy="560"
     inkscape:document-units="mm"
     inkscape:current-layer="layer1"
     showgrid="false"
     inkscape:window-width="1825"
     inkscape:window-height="1051"
     inkscape:window-x="2391"
     inkscape:window-y="-9"
     inkscape:window-maximized="1" />
  <metadata
     id="metadata6271">
    <rdf:RDF>
      <cc:Work
         rdf:about="">
        <dc:format>image/svg+xml</dc:format>
        <dc:type
           rdf:resource="http://purl.org/dc/dcmitype/StillImage" />
        <dc:title></dc:title>
      </cc:Work>
    </rdf:RDF>
  </metadata>
  <g
     inkscape:label="Layer 1"
     inkscape:groupmode="layer"
     id="layer1">
    <path
       inkscape:connector-curvature="0"
       d="m 183.69744,48.805578 c -0.51832,-0.294661 -1.01327,-0.623602 -1.46602,-1.003962 -0.26815,-0.225062 -0.52191,-0.468206 -0.75699,-0.732881 -0.88701,-0.999669 -1.50946,-2.311107 -1.44742,-3.624723 0.0629,-1.31469 0.80973,-2.630421 1.8604,-3.408314 1.05067,-0.77786 2.40439,-1.017882 3.66105,-0.834645 1.25663,0.183106 2.41612,0.789666 3.16383,1.92538 0.74762,1.13682 1.08225,2.801883 0.78043,4.325471 -0.20706,1.042535 -0.71145,2.019698 -1.29999,2.896168 0.75244,0.316127 1.57258,0.648223 2.37875,0.987863 1.04016,0.43822 2.05925,0.891465 2.88063,1.34253 1.74923,0.961097 2.60801,1.922193 3.17672,3.015107 0.56861,1.092881 0.84479,2.319693 0.70901,3.552944 -0.13567,1.234293 -0.68446,2.477204 -1.45548,3.317216 -0.77112,0.838939 -1.76212,1.276085 -2.63972,1.459321 -0.87746,0.183106 -1.63917,0.113506 -2.23118,-0.02602 -0.59213,-0.1392 -1.01093,-0.3493 -0.9443,-0.462872 0.0668,-0.113506 0.61897,-0.131719 1.22036,-0.200343 0.60143,-0.0696 1.25084,-0.190587 1.78081,-0.425373 0.53011,-0.235794 0.94074,-0.585029 1.17358,-0.993229 0.23299,-0.408233 0.29017,-0.874324 0.19428,-1.081108 -0.0959,-0.206848 -0.34273,-0.15416 -0.54876,0.03448 -0.20599,0.188635 -0.36855,0.514291 -0.66926,0.843232 -0.30082,0.328941 -0.73944,0.661102 -1.39468,0.793959 -0.6564,0.133021 -1.52928,0.06732 -2.26524,-0.133996 -0.73475,-0.201319 -1.3338,-0.538944 -1.72817,-0.864665 -0.3943,-0.325721 -0.58498,-0.640741 -0.45162,-0.71896 0.13354,-0.07936 0.59088,0.07838 1.05074,0.216605 0.45979,0.138224 0.91961,0.258235 1.46489,0.276448 0.5441,0.01951 1.17348,-0.06635 1.67546,-0.469279 0.50202,-0.402866 0.87639,-1.125046 0.92899,-1.938259 0.0526,-0.813245 -0.21416,-1.716483 -0.94532,-2.734365 -0.73014,-1.018956 -1.92355,-2.151482 -3.14977,-2.953995 -0.56051,-0.36644 -1.12799,-0.664321 -1.69312,-0.935403 -0.68325,0.784332 -1.34669,1.433627 -1.982,1.980052 -0.83079,0.713594 -1.61466,1.251464 -2.1751,1.948992 -0.56044,0.697527 -0.89515,1.554679 -0.8776,2.454697 0.0178,0.900018 0.38971,1.845048 1.11506,2.887582 0.72544,1.042535 1.80421,2.185762 2.6443,3.887252 0.83896,1.701457 1.43921,3.964365 1.65327,6.707283 0.21309,2.744025 0.0412,5.968029 -0.49605,8.772026 -0.5359,2.803998 -1.43801,5.186916 -2.26287,7.231267 -0.82485,2.043244 -1.57371,3.745807 -1.91651,4.863341 -0.34166,1.117533 -0.27738,1.650038 0.0771,2.6647 0.35445,1.014662 1.00038,2.512556 1.45324,3.370781 0.45162,0.857185 0.71022,1.074668 1.50698,1.47864 0.79687,0.40394 2.13067,0.995377 3.12054,1.596437 0.98986,0.60109 1.63572,1.21182 1.9364,2.03043 0.30188,0.81858 0.25855,1.8429 0.21416,3.17258 -0.044,1.32965 -0.0891,2.9647 0.22446,4.26758 0.31361,1.30399 0.98518,2.27686 1.62521,3.14904 0.64003,0.87215 1.24615,1.64789 1.61466,2.61969 0.36855,0.9729 0.49854,2.14293 0.49854,2.89828 0,0.75431 -0.12999,1.09184 -0.34628,1.20112 -0.21665,0.10928 -0.5207,-0.01 -0.91031,-0.14896 -0.38968,-0.13822 -0.86705,-0.29791 -1.2356,-0.11903 -0.36855,0.17888 -0.62828,0.69431 -0.75812,1.23003 -0.12999,0.53572 -0.12999,1.09181 0.0536,1.70682 0.18504,0.61502 0.55348,1.29004 0.28662,2.2822 -0.26673,0.99215 -1.16656,2.30148 -2.15294,3.38044 -0.98518,1.07788 -2.05691,1.92541 -3.1649,2.53828 -1.10685,0.61287 -2.25121,0.99219 -3.10296,1.14859 -0.85302,0.15644 -1.41225,0.0888 -1.52107,-0.12326 -0.1101,-0.21205 0.23049,-0.56786 0.80383,-1.13682 0.57216,-0.56893 1.37475,-1.34894 1.70356,-2.09577 0.32887,-0.7468 0.18255,-1.46036 -0.29265,-1.67254 -0.47503,-0.21206 -1.27769,0.0784 -2.03237,0.53575 -0.75468,0.45643 -1.46141,1.08108 -2.11778,1.63823 -0.65751,0.55719 -1.26597,1.04791 -1.55847,0.96969 -0.29266,-0.0784 -0.26779,-0.7243 0.0611,-1.54932 0.32888,-0.82505 0.96177,-1.8279 1.77733,-2.66366 0.81555,-0.83572 1.81362,-1.50433 2.86081,-2.47827 1.04718,-0.97287 2.14228,-2.25114 2.83616,-3.88189 0.69377,-1.63075 0.98517,-3.61509 0.87983,-5.41942 -0.10512,-1.8054 -0.60956,-3.43079 -1.34317,-4.59656 -0.73362,-1.16573 -1.69777,-1.87181 -2.55186,-2.38932 -0.85295,-0.51644 -1.59719,-0.84431 -1.99607,-1.26112 -0.40023,-0.41572 -0.4552,-0.92038 -1.08348,-2.22219 -0.62838,-1.30181 -1.82882,-3.399726 -3.21064,-4.955479 -1.38182,-1.555753 -2.94388,-2.568268 -4.66726,-3.442593 -1.72348,-0.874291 -3.61076,-1.608245 -4.7715,-1.945772 -1.16069,-0.337494 -1.59473,-0.278725 -1.4754,0.218557 0.11933,0.497184 0.79208,1.430408 1.48595,2.214707 0.69384,0.7843 1.40991,1.420749 2.4723,1.926486 1.06243,0.506811 2.47227,0.883951 3.38375,1.250392 0.91152,0.367513 1.32339,0.725367 1.60528,1.400389 0.282,0.675013 0.43415,1.668243 0.62949,2.233993 0.19534,0.56571 0.43415,0.705 0.53121,1.1818 0.0973,0.47679 0.0536,1.29111 0.0863,2.28863 0.032,0.9986 0.14171,2.17935 0.43415,3.36652 0.29265,1.18609 0.76988,2.37863 1.4743,3.29149 0.70553,0.91397 1.63807,1.54935 2.29913,2.37007 0.66109,0.82073 1.05067,1.82791 1.20282,2.579 0.15094,0.7511 0.0639,1.24825 -0.16267,1.38647 -0.22801,0.1392 -0.5967,-0.0794 -1.13967,-0.30734 -0.54172,-0.22832 -1.25776,-0.46717 -1.81124,-0.28816 -0.55341,0.17888 -0.94298,0.77464 -1.2578,1.37037 -0.31467,0.59573 -0.55337,1.19146 -0.80259,1.94577 -0.24932,0.75539 -0.51015,1.66825 -1.37485,2.6808 -0.8646,1.01144 -2.33308,2.12146 -3.59901,2.94541 -1.26607,0.82395 -2.32839,1.3597 -3.11003,1.66718 -0.78042,0.30864 -1.28003,0.3868 -1.45313,0.24848 -0.17332,-0.1392 -0.0213,-0.49716 0.31467,-1.1218 0.33705,-0.62575 0.85643,-1.51933 1.1174,-2.25435 0.26105,-0.73503 0.26105,-1.31147 -0.17331,-1.4604 -0.43408,-0.14895 -1.30113,0.12977 -2.11782,0.51111 -0.81669,0.38143 -1.58298,0.86788 -2.33418,1.11109 -0.7512,0.24328 -1.4883,0.24328 -1.77846,0.0325 -0.29017,-0.21107 -0.13105,-0.63215 0.38254,-1.11538 0.51363,-0.48323 1.38303,-1.02754 2.08745,-1.65541 0.70549,-0.62789 1.24601,-1.33934 1.80645,-2.09255 0.56051,-0.75324 1.14201,-1.5472 1.93416,-2.13971 0.79208,-0.59143 1.79359,-0.98145 2.45824,-1.76146 0.66457,-0.78004 0.98866,-1.95221 1.08696,-2.94973 0.0973,-0.99753 -0.032,-1.8204 -0.38961,-3.02685 -0.35803,-1.20645 -0.94419,-2.79544 -1.69191,-3.76831 -0.74761,-0.97287 -1.65912,-1.33076 -2.71338,-1.96828 -1.05415,-0.63749 -2.2511,-1.55576 -3.08537,-2.70542 -0.83427,-1.14967 -1.30571,-2.53184 -2.17859,-3.460804 -0.87287,-0.928931 -2.14587,-1.403608 -3.85181,-1.93182 -1.7059,-0.528243 -3.84595,-1.108947 -5.36234,-1.760389 -1.51639,-0.651475 -2.41032,-1.373622 -3.04094,-2.107576 -0.63062,-0.733954 -0.99917,-1.479681 -1.76088,-1.720743 -0.76171,-0.240998 -1.91886,0.02277 -3.49612,0.421079 -1.57719,0.3975 -3.5745,0.926817 -5.36227,1.504301 -1.78674,0.57859 -3.36393,1.204338 -4.70476,1.697196 -1.34094,0.492859 -2.44425,0.853965 -3.08897,0.842159 -0.64472,-0.01301 -0.82833,-0.3975 -0.76171,-0.998596 0.0668,-0.601063 0.38141,-1.420748 0.0142,-1.901833 -0.36855,-0.481085 -1.41922,-0.625716 -3.66454,-0.833573 -2.24418,-0.208799 -5.68173,-0.481084 -8.77776,-0.810025 -3.09589,-0.328941 -5.84902,-0.713594 -8.14232,-1.081108 -2.29447,-0.367513 -4.12911,-0.717887 -5.10488,-0.402866 -0.97466,0.315151 -1.08931,1.295404 -1.1923,2.296146 -0.10194,1.00071 -0.19073,2.020739 0.16621,3.024701 0.3569,1.003962 1.15949,1.991858 1.50588,2.929375 0.34521,0.937517 0.23511,1.824688 0.1346,2.824356 -0.10051,0.99967 -0.19072,2.11076 -0.16373,3.16292 0.0284,1.05109 0.17332,2.04328 0.6341,3.0076 0.45986,0.96428 1.2356,1.90183 1.82996,2.86507 0.59557,0.96214 1.00979,1.95111 1.17594,2.7879 0.16621,0.83575 0.0828,1.5204 -0.11117,1.74862 -0.19427,0.22831 -0.49843,0 -1.0659,-0.18961 -0.56748,-0.19059 -1.39706,-0.34179 -1.97853,-0.22832 -0.58157,0.11351 -0.91261,0.49397 -1.07059,0.96539 -0.15804,0.47146 -0.13922,1.03395 0.0497,1.68325 0.18966,0.64932 0.5488,1.38435 0.39665,2.06793 -0.15201,0.68464 -0.81669,1.31787 -1.8545,1.9511 -1.03789,0.63323 -2.44893,1.26753 -3.69384,1.87507 -1.244976,0.60857 -2.323773,1.19146 -3.126362,1.67254 -0.80266,0.48109 -1.328047,0.86145 -1.674328,0.83572 -0.345215,-0.026 -0.512495,-0.45536 -0.248256,-1.12716 0.263173,-0.6718 0.954739,-1.58362 1.605285,-2.4333 0.650545,-0.84856 1.259004,-1.63393 1.259004,-2.0529 0,-0.41893 -0.609595,-0.46928 -1.272998,-0.12652 -0.664574,0.34182 -1.384198,1.07682 -2.213744,1.63398 -0.829546,0.55715 -1.771429,0.93754 -2.505046,1.12719 -0.732481,0.19059 -1.259005,0.19059 -1.370169,-0.0374 -0.1101,-0.22832 0.194272,-0.68468 0.761746,-1.36826 0.567473,-0.68361 1.397019,-1.59647 2.420837,-2.50829 1.023783,-0.9118 2.241802,-1.82469 2.905133,-2.61007 0.663438,-0.78537 0.774603,-1.44432 1.023783,-1.98967 0.249322,-0.54431 0.636552,-0.97505 0.732516,-1.57078 0.09696,-0.5957 -0.09696,-1.35538 0.08275,-2.01433 0.180066,-0.65893 0.732481,-1.21608 0.84354,-1.87504 0.111165,-0.65895 -0.221265,-1.4186 -0.787353,-2.13219 -0.566338,-0.7136 -1.365482,-1.38111 -1.966873,-2.37115 -0.601392,-0.99001 -1.000413,-2.30577 -1.050668,-3.44045 -0.04901,-1.134665 0.252518,-2.089322 0.04972,-2.998999 -0.202441,-0.909645 -0.90793,-1.77431 -1.801866,-2.675401 -0.893936,-0.901091 -1.972698,-1.83864 -2.524935,-2.865076 -0.55348,-1.026469 -0.581502,-2.141856 -0.829581,-2.799705 -0.249322,-0.658955 -0.719624,-0.861477 -1.106855,-0.545383 -0.387337,0.317102 -0.691531,1.152886 -0.760574,2.331466 -0.06855,1.178613 0.09731,2.699013 0.525352,3.788674 0.429459,1.089693 1.12099,1.748616 1.563199,2.597214 0.442315,0.848598 0.636552,1.887913 0.581573,2.86293 -0.0554,0.97501 -0.359243,1.88791 -0.152008,3.01507 0.207058,1.12719 0.926611,2.4708 1.631034,3.62154 0.704388,1.15181 1.39354,2.11076 1.777325,3.05901 0.38375,0.94929 0.460926,1.88681 0.405947,2.44078 -0.05363,0.55501 -0.241153,0.72536 -0.620108,0.59036 -0.380305,-0.13497 -0.95474,-0.57537 -1.358414,-0.62468 -0.40371,-0.0494 -0.636552,0.29141 -0.682119,0.9236 -0.04688,0.63216 0.09412,1.55683 -0.01421,2.47294 -0.108679,0.91609 -0.46572,1.82684 -1.01327,2.6647 -0.547584,0.83894 -1.284647,1.60503 -2.212501,2.3154 -0.927854,0.71038 -2.045256,1.36397 -3.077243,1.93293 -1.032058,0.56893 -1.978593,1.05109 -2.568265,1.17965 -0.589742,0.12749 -0.822584,-0.0995 -0.58271,-0.63963 0.241153,-0.54002 0.95474,-1.39291 1.435661,-2.05398 0.480851,-0.6611 0.730066,-1.13041 0.504256,-1.39291 -0.224461,-0.26344 -0.924267,-0.31938 -1.629792,-0.14245 -0.706767,0.1779 -1.42046,0.59036 -2.025438,1.01681 -0.60608,0.42644 -1.102167,0.86681 -1.807691,1.08754 -0.706732,0.22084 -1.62283,0.22084 -2.04174,0.0921 -0.41884,-0.12847 -0.341664,-0.38362 0.139222,-0.81003 0.482058,-0.42645 1.365446,-1.02325 2.041741,-1.6554 0.67633,-0.63216 1.140807,-1.30074 1.552686,-2.11828 0.411772,-0.81751 0.768636,-1.78397 1.257761,-2.53721 0.487883,-0.75324 1.109199,-1.29326 1.722275,-1.69824 0.613147,-0.40501 1.219262,-0.67502 1.451998,-1.98756 0.232985,-1.31362 0.09412,-3.66866 -0.108678,-4.98976 -0.202441,-1.32006 -0.465614,-1.60506 -0.924267,-1.96613 -0.458689,-0.36215 -1.110442,-0.80359 -1.766812,-1.72933 -0.657507,-0.92575 -1.318565,-2.335758 -1.50822,-3.529364 -0.189655,-1.193605 0.09483,-2.171842 -0.120399,-3.40724 C 79.536071,93.796217 78.823444,92.30691 77.82541,91.104718 76.827377,89.903632 75.547311,88.990735 74.775088,87.995359 74.001693,86.99891 73.738413,85.918876 73.540696,84.773502 73.342872,83.628096 73.213239,82.415236 72.405713,81.49268 71.598364,80.570156 70.113549,79.936927 68.484895,78.836533 66.856098,77.737213 65.083568,76.17076 63.699405,74.46501 62.315243,72.7603 61.31831,70.916326 59.599516,68.919134 57.880722,66.920869 55.438859,64.76724 52.803931,63.243653 c -2.634964,-1.52362 -5.461749,-2.418271 -9.15324,-3.461879 -3.691598,-1.043608 -8.24421,-2.235068 -11.534371,-3.300076 -3.290126,-1.065041 -5.315529,-2.003631 -6.637681,-2.407571 -1.322152,-0.403939 -1.942261,-0.273196 -2.705108,-0.17465 -0.762847,0.09855 -1.668503,0.163917 -2.550684,-0.02277 -0.881079,-0.185383 -1.739855,-0.621423 -2.275755,-0.99323 -0.5359,-0.370733 -0.751198,-0.676095 -0.487882,-0.926817 0.262107,-0.250755 1.000377,-0.447878 2.109611,-0.75324 1.109092,-0.305394 2.585738,-0.720001 3.944152,-1.014662 1.358414,-0.294661 2.597494,-0.469279 3.098269,-0.840012 0.500775,-0.370734 0.262108,-0.938591 -0.572091,-1.33183 -0.834269,-0.393207 -2.264106,-0.610723 -3.730097,-0.480012 -1.464891,0.13172 -2.967286,0.610723 -4.314051,1.069334 -1.346658,0.458579 -2.537827,0.894652 -3.527585,0.916085 -0.988764,0.02277 -1.776223,-0.370734 -2.65606,-1.426115 C 10.931522,47.04083 9.9579944,45.32542 9.2758752,43.915405 8.5925484,42.50643 8.2005945,41.402849 8.2520926,40.479251 c 0.052564,-0.923597 0.5498933,-1.66721 0.6153847,-2.494375 0.065705,-0.827133 -0.3018855,-1.738957 -0.144905,-2.350753 0.1569805,-0.611796 0.8378211,-0.923597 1.6099737,-0.93537 0.773466,-0.01301 1.636965,0.276448 2.266449,0.875365 0.629521,0.598949 1.021439,1.51074 1.413393,1.977905 0.393161,0.468238 0.785115,0.491785 1.492983,0.38358 0.707868,-0.108303 1.729307,-0.348227 2.154077,-0.875365 0.424736,-0.52717 0.253939,-1.344709 0.397744,-2.647593 0.143839,-1.302884 0.603771,-3.093292 1.595979,-4.447596 0.992245,-1.354336 2.520247,-2.275786 3.581535,-2.767571 1.061216,-0.491818 1.655575,-0.555011 1.794834,-0.418933 0.140287,0.135947 -0.174384,0.472499 -0.786252,1.084295 -0.611905,0.611796 -1.521077,1.498967 -2.128293,2.570415 -0.607323,1.072554 -0.911517,2.329352 -0.960671,3.289375 -0.04901,0.961097 0.15698,1.625418 0.482093,1.933999 0.325326,0.308647 0.771087,0.260187 1.318636,0.09204 0.548722,-0.16717 1.200475,-0.454318 1.460203,-0.908604 0.258556,-0.453212 0.12395,-1.072521 0.285548,-2.101136 0.161597,-1.028582 0.618972,-2.46647 1.430973,-3.549724 0.812072,-1.084295 1.97973,-1.812883 3.095996,-2.237182 1.116159,-0.424299 2.182064,-0.542163 2.479297,-0.397532 0.297268,0.144729 -0.174384,0.552896 -0.868188,1.044681 -0.693875,0.490744 -1.609973,1.067155 -2.180927,1.772196 -0.569853,0.706081 -0.794527,1.540759 -0.836614,2.282193 -0.04226,0.741434 0.09696,1.388616 0.456309,1.624312 0.358036,0.235794 0.933679,0.06017 1.718794,-0.267992 0.785116,-0.326794 1.779704,-0.804659 3.354517,-1.222519 1.574919,-0.41786 3.730097,-0.774673 5.689938,-0.842159 1.959805,-0.06635 3.724273,0.156437 4.904823,0.144729 1.180621,-0.01301 1.778461,-0.261487 2.60687,-0.658922 0.828338,-0.397533 1.886181,-0.943957 2.714519,-1.380062 0.828409,-0.434999 1.425113,-0.758574 1.953981,-1.478608 0.530004,-0.721074 0.991001,-1.839681 1.536313,-2.529696 0.545205,-0.690014 1.171138,-0.953583 1.987827,-1.320023 0.816689,-0.36644 1.820654,-0.840045 2.486436,-1.647924 0.664539,-0.807847 0.991001,-1.951106 1.468336,-3.481133 0.477369,-1.530059 1.10689,-3.445813 1.73055,-4.92442 0.623588,-1.479681 1.243697,-2.522216 1.884937,-3.304369 0.640033,-0.7821533 1.302228,-1.3050306 1.723482,-1.3553767 0.421184,-0.049435 0.600184,0.3739206 0.522937,0.9943027 -0.07707,0.620382 -0.412979,1.438962 -0.587291,2.3047 -0.175449,0.865738 -0.190721,1.777529 0.04404,2.772905 0.235116,0.995409 0.721862,2.07437 1.113887,3.010813 0.391954,0.937517 0.690323,1.732517 1.138463,2.080745 0.448141,0.348227 1.044844,0.248478 1.778461,0.135947 0.733618,-0.112531 1.601805,-0.235794 2.321322,-0.596803 0.719589,-0.361074 1.289442,-0.957877 2.355347,-2.229668 1.065869,-1.271824 2.627931,-3.21867 3.926678,-4.814069 1.299883,-1.594325 2.336558,-2.8361304 3.186029,-3.7608008 0.850607,-0.923597 1.512801,-1.5300593 1.960941,-1.5268395 0.448141,0.00172 0.679882,0.6139426 0.636553,1.3972016 -0.04333,0.7842998 -0.362725,1.7411027 -0.812001,2.4718367 -0.450485,0.730734 -1.030815,1.236439 -1.378339,1.992899 -0.348766,0.757533 -0.464477,1.766829 -0.421254,2.565081 0.04333,0.79822 0.246836,1.382176 0.609667,1.581446 0.362617,0.199368 0.884524,0.01301 1.517525,-0.526064 0.632965,-0.538944 1.377095,-1.431481 2.065145,-2.046497 0.687944,-0.616089 1.319808,-0.954657 2.045257,-1.265385 0.725342,-0.310598 1.542138,-0.593583 2.035845,-0.692161 0.493707,-0.09855 0.663402,-0.01301 0.65637,0.133996 -0.01065,0.148957 -0.192852,0.360001 -0.616628,0.57215 -0.424735,0.211076 -1.088066,0.423226 -1.580672,0.720034 -0.493779,0.296938 -0.817897,0.678241 -0.8787,0.904311 -0.06109,0.226037 0.139222,0.296937 0.423527,0.212052 0.285549,-0.08456 0.65637,-0.324583 1.064768,-0.543237 0.408292,-0.219533 0.855295,-0.416787 1.271791,-0.487525 0.416566,-0.07057 0.80266,-0.01301 1.095205,0.05692 0.292651,0.07058 0.493707,0.155461 0.539381,0.282953 0.0451,0.127491 -0.06215,0.296938 -0.38613,0.388946 -0.32426,0.09107 -0.863463,0.106026 -1.288234,0.212052 -0.424735,0.106026 -0.732481,0.303117 -1.026127,0.57215 -0.293717,0.268968 -0.570954,0.607503 -0.693875,0.868958 -0.122885,0.261488 -0.09199,0.444659 0.06215,0.522845 0.153429,0.07708 0.431803,0.04943 0.779291,-0.155461 0.34628,-0.204572 0.762847,-0.586103 1.148976,-0.812173 0.386094,-0.226037 0.74065,-0.296937 1.187582,-0.33216 0.447004,-0.03545 0.986385,-0.03545 1.310503,0.05692 0.324261,0.09204 0.431661,0.275472 0.424735,0.430738 -0.01065,0.155462 -0.131053,0.282953 -0.478612,0.373921 -0.347346,0.09204 -0.917306,0.148957 -1.357171,0.267992 -0.438835,0.120011 -0.747717,0.303117 -1.128022,0.573256 -0.381406,0.268968 -0.833027,0.623569 -0.942984,0.908571 -0.108679,0.284905 0.125016,0.499298 0.614284,0.526097 0.487882,0.02602 1.232012,-0.133996 2.121261,-0.411452 0.889248,-0.277424 1.925887,-0.670728 2.981279,-0.949291 1.056564,-0.277423 2.131773,-0.438251 3.07014,-0.491817 0.938402,-0.05366 1.739962,0 2.590569,-0.125215 0.850606,-0.12554 1.750368,-0.429665 2.345938,-0.563596 0.5967,-0.133996 0.88925,-0.09855 0.90906,0.116758 0.0213,0.214329 -0.23511,0.608577 -0.78156,0.894684 -0.54641,0.286205 -1.38885,0.466059 -2.267552,0.59999 -0.879837,0.133996 -1.798386,0.224086 -2.590462,0.277424 -0.792148,0.05366 -1.456722,0.07188 -2.101443,0.223761 -0.645858,0.152209 -1.270654,0.438219 -1.721138,0.742539 -0.450485,0.304419 -0.723069,0.62679 -0.655234,0.805733 0.06748,0.178878 0.478577,0.214329 1.084692,0.0631 0.60608,-0.152209 1.407568,-0.492858 2.473437,-0.74358 1.065905,-0.250755 2.395089,-0.41142 3.744127,-0.608577 1.349113,-0.197091 2.718073,-0.429665 3.802663,-0.55501 1.08469,-0.12554 1.88614,-0.143753 2.73675,-0.02602 0.8506,0.115783 1.75036,0.366441 2.7859,0.528212 1.03668,0.160665 2.21016,0.232541 2.72852,0.384653 0.51718,0.152209 0.38151,0.384653 -0.0781,0.590363 -0.45979,0.205873 -1.24142,0.384653 -2.32725,0.367513 -1.08459,-0.01951 -2.47348,-0.232541 -3.63644,-0.268967 -1.16305,-0.03545 -2.10141,0.108302 -2.99187,0.357886 -0.89038,0.249779 -1.73044,0.608576 -2.02299,0.894652 -0.29265,0.286205 -0.0387,0.501444 0.56627,0.581809 0.60612,0.08033 1.56441,0.02602 2.63969,-0.01951 1.07528,-0.04488 2.26748,-0.08033 3.45048,-0.02602 1.18286,0.05366 2.3541,0.197092 3.48784,0.214329 1.13385,0.01951 2.22781,-0.08879 3.29371,0.01951 1.06591,0.107002 2.10145,0.429666 2.63962,0.670728 0.53824,0.240998 0.57685,0.402867 0.32284,0.518585 -0.25394,0.116758 -0.80149,0.188635 -1.63338,0.116758 -0.83079,-0.07188 -1.94585,-0.28718 -2.80462,-0.340714 -0.86002,-0.05366 -1.4661,0.05366 -2.19972,0.232542 -0.73241,0.178878 -1.59239,0.429633 -2.00313,0.680355 -0.41067,0.250755 -0.37093,0.501445 0.0973,0.645035 0.46917,0.142452 1.36779,0.178878 2.41377,0.187334 1.04609,0.0098 2.2395,-0.0098 3.47037,0.09855 1.23205,0.108303 2.5027,0.340714 3.66574,0.55501 1.16308,0.215305 2.21957,0.41142 2.80576,0.600023 0.58616,0.187659 0.70439,0.36644 0.27383,0.501412 -0.43059,0.134972 -1.40757,0.224085 -2.42432,0.143753 -1.01685,-0.08033 -2.07221,-0.332128 -3.07024,-0.447846 -0.99807,-0.115783 -1.93523,-0.09855 -2.92275,-0.0098 -0.98752,0.08879 -2.02306,0.250755 -2.59046,0.474645 -0.56634,0.224086 -0.66465,0.510031 -0.38152,0.715741 0.28307,0.205872 0.94892,0.331087 1.94585,0.384653 0.9969,0.05366 2.32601,0.03643 3.72193,0.02277 1.39468,-0.01301 2.85374,-0.01951 4.01557,0.09529 1.16184,0.114482 2.02299,0.350373 2.80228,0.606429 0.77919,0.255959 1.47427,0.53361 1.72462,0.720034 0.25039,0.186359 0.0526,0.283929 -0.48444,0.318078 -0.53703,0.03415 -1.41339,0.0065 -2.35992,-0.02277 -0.94544,-0.02927 -1.95871,-0.05562 -2.83506,-0.08359 -0.87636,-0.02927 -1.61815,-0.05561 -1.98087,0.04196 -0.36272,0.09659 -0.34735,0.318078 0.0107,0.546457 0.35565,0.228313 1.05077,0.463945 1.86746,0.678208 0.81669,0.215305 1.75381,0.408233 2.63141,0.505738 0.87749,0.09757 1.69305,0.09757 2.48051,0.166194 0.78625,0.06862 1.54213,0.207824 1.94336,0.380393 0.40136,0.173674 0.44579,0.38036 0.29478,0.540017 -0.15094,0.159689 -0.4996,0.269943 -1.10451,0.297913 -0.60487,0.02927 -1.46724,-0.02602 -2.29096,-0.06212 -0.82486,-0.03415 -1.60997,-0.04814 -2.0195,0.02927 -0.4083,0.0761 -0.43873,0.243274 -0.20351,0.436072 0.23405,0.193839 0.73362,0.415746 1.47419,0.553937 0.7419,0.138225 1.72473,0.193839 2.68416,0.248479 0.96053,0.05594 1.89779,0.111555 2.9415,0.34608 1.04364,0.235794 2.19261,0.650401 3.25859,0.893611 1.0659,0.241973 2.0487,0.311898 2.87356,0.37392 0.82489,0.06212 1.48954,0.117735 1.72462,0.255959 0.23511,0.138224 0.0376,0.36 -0.49137,0.498224 -0.53007,0.138225 -1.39119,0.193839 -2.40446,0.111555 -1.01327,-0.08358 -2.17745,-0.305393 -2.76009,-0.297913 -0.58267,0.0065 -0.58267,0.242299 0.21061,0.560377 0.79328,0.318078 2.37865,0.720001 3.64472,0.951437 1.26593,0.230265 2.21371,0.289457 3.08069,0.325721 0.86705,0.03643 1.6544,0.05139 2.14353,0.183106 0.48909,0.131719 0.68211,0.382507 0.56981,0.544278 -0.11223,0.16164 -0.53007,0.235794 -1.26014,0.257259 -0.73124,0.02277 -1.77498,-0.0065 -2.60921,-0.0065 -0.83541,0 -1.46134,0.02927 -1.66147,0.198067 -0.19996,0.169447 0.0249,0.477865 0.43411,0.771453 0.40953,0.294662 1.00275,0.573224 1.69418,0.736068 0.69039,0.161641 1.47665,0.205547 2.34359,0.331087 0.86705,0.125215 1.81362,0.331088 2.47234,0.499298 0.65871,0.169447 1.02737,0.301166 1.05077,0.441439 0.0249,0.140501 -0.29727,0.287181 -0.79453,0.331088 -0.49726,0.04391 -1.17121,-0.01626 -1.70938,-0.0065 -0.53714,0.0065 -0.93961,0.08033 -1.08348,0.257259 -0.14526,0.176927 -0.032,0.455359 0.27276,0.617163 0.30401,0.161641 0.80259,0.205872 1.55737,0.161641 0.75465,-0.04391 1.76557,-0.176927 2.70507,-0.198393 0.93961,-0.02277 1.80659,0.06635 2.36007,0.146681 0.55451,0.08033 0.79553,0.15416 0.81311,0.277423 0.0178,0.123264 -0.18611,0.295637 -0.49261,0.449993 -0.3065,0.154161 -0.7149,0.289458 -0.89504,0.445732 -0.18006,0.157413 -0.13105,0.336454 0.2131,0.36644 0.34273,0.02927 0.98045,-0.09009 1.77377,-0.186358 0.79215,-0.09757 1.74106,-0.172374 2.29565,-0.09009 0.55575,0.08261 0.71962,0.32133 0.53121,0.493932 -0.18824,0.172373 -0.7278,0.276448 -1.38999,0.403939 -0.66106,0.127492 -1.44617,0.276448 -2.03471,0.418966 -0.58853,0.142452 -0.98056,0.277423 -1.07059,0.501412 -0.0902,0.22376 0.12288,0.538943 0.67036,0.651442 0.54766,0.111554 1.42984,0.02277 2.34484,-0.142453 0.91496,-0.164893 1.86387,-0.403939 2.63141,-0.598916 0.76878,-0.19514 1.35728,-0.343935 1.71645,-0.343935 0.36038,0 0.49022,0.149933 0.47389,0.31385 -0.0178,0.164894 -0.18042,0.343902 -0.40013,0.508925 -0.21984,0.164894 -0.4985,0.31385 -0.53948,0.448952 -0.0405,0.134972 0.15556,0.254983 0.4985,0.187334 0.34273,-0.06732 0.83427,-0.32133 1.43097,-0.553969 0.59671,-0.231566 1.29875,-0.441439 1.77377,-0.471426 0.47499,-0.02927 0.71959,0.120011 0.65403,0.31385 -0.0657,0.19514 -0.44111,0.433926 -0.89855,0.643929 -0.45752,0.210101 -0.9969,0.388947 -1.41347,0.621456 -0.41649,0.232542 -0.71014,0.516438 -0.65402,0.658955 0.0565,0.142452 0.46568,0.142452 1.07876,-0.01626 0.61315,-0.157413 1.42984,-0.471458 2.05115,-0.643961 0.62125,-0.172374 1.04719,-0.20132 1.53621,-0.08879 0.49022,0.111555 1.04605,0.36644 1.60997,0.441439 0.56399,0.07513 1.13619,-0.02927 1.70828,-0.08261 0.57216,-0.05236 1.14436,-0.05236 1.42277,0.05562 0.27845,0.109278 0.26424,0.325721 -0.0994,0.55823 -0.36273,0.232541 -1.07415,0.480011 -1.61466,0.733953 -0.54063,0.254007 -0.91028,0.514292 -0.96064,0.715741 -0.0497,0.201319 0.21984,0.345007 0.68915,0.319379 0.4692,-0.02602 1.13843,-0.221809 1.73524,-0.514324 0.59784,-0.293685 1.12323,-0.684648 1.69304,-0.840012 0.56975,-0.156437 1.18055,-0.07838 1.60763,-0.02602 0.42708,0.05139 0.66927,0.07806 0.62594,0.260187 -0.0433,0.18213 -0.36969,0.520731 -0.41302,0.748947 -0.0433,0.227012 0.19889,0.345007 0.56169,0.247502 0.36272,-0.09757 0.84702,-0.410379 1.30926,-0.520731 0.46213,-0.111555 0.90324,-0.01951 1.16652,0.116759 0.26317,0.135948 0.34876,0.319379 0.27738,0.514291 -0.0714,0.196116 -0.29834,0.40394 -0.29834,0.54753 0,0.143753 0.22695,0.221809 0.647,0.215305 0.41891,-0.0065 1.03085,-0.09757 1.52221,-0.05887 0.49147,0.0387 0.86123,0.207824 0.94664,0.338568 0.0856,0.130744 -0.11365,0.221809 -0.44814,0.345007 -0.33456,0.12424 -0.80383,0.280677 -1.01686,0.462872 -0.21274,0.182131 -0.17083,0.391093 0.33492,0.424299 0.50546,0.03317 1.4742,-0.108302 2.264,-0.32894 0.78984,-0.220834 1.40054,-0.518585 2.28282,-0.550718 0.88094,-0.03252 2.03347,0.202621 2.95788,0.249779 0.92426,0.04618 1.62162,-0.09432 2.44648,-0.491785 0.82606,-0.398605 1.77967,-1.053235 2.93681,-2.093623 0.20599,-0.169121 0.41657,-0.365367 0.62948,-0.570036 z"
       id="path322"
       style="fill:#000000;stroke:#000000;stroke-width:0.27991652;stroke-linecap:round;stroke-linejoin:round;fill-opacity:1" />
  </g>
</svg>
