<?xml version="1.0" encoding="UTF-8" standalone="no"?>
<!-- Created with Inkscape (http://www.inkscape.org/) -->

<svg
   xmlns:dc="http://purl.org/dc/elements/1.1/"
   xmlns:cc="http://creativecommons.org/ns#"
   xmlns:rdf="http://www.w3.org/1999/02/22-rdf-syntax-ns#"
   xmlns:svg="http://www.w3.org/2000/svg"
   xmlns="http://www.w3.org/2000/svg"
   xmlns:sodipodi="http://sodipodi.sourceforge.net/DTD/sodipodi-0.dtd"
   xmlns:inkscape="http://www.inkscape.org/namespaces/inkscape"
   width="210mm"
   height="297mm"
   viewBox="0 0 210 297"
   version="1.1"
   id="svg9104"
   inkscape:version="0.92.3 (2405546, 2018-03-11)"
   sodipodi:docname="buzzard.svg">
  <defs
     id="defs9098" />
  <sodipodi:namedview
     id="base"
     pagecolor="#ffffff"
     bordercolor="#666666"
     borderopacity="1.0"
     inkscape:pageopacity="0.0"
     inkscape:pageshadow="2"
     inkscape:zoom="0.35"
     inkscape:cx="-70"
     inkscape:cy="560"
     inkscape:document-units="mm"
     inkscape:current-layer="layer1"
     showgrid="false"
     inkscape:window-width="1825"
     inkscape:window-height="1051"
     inkscape:window-x="2391"
     inkscape:window-y="-9"
     inkscape:window-maximized="1" />
  <metadata
     id="metadata9101">
    <rdf:RDF>
      <cc:Work
         rdf:about="">
        <dc:format>image/svg+xml</dc:format>
        <dc:type
           rdf:resource="http://purl.org/dc/dcmitype/StillImage" />
        <dc:title></dc:title>
      </cc:Work>
    </rdf:RDF>
  </metadata>
  <g
     inkscape:label="Layer 1"
     inkscape:groupmode="layer"
     id="layer1">
    <path
       inkscape:connector-curvature="0"
       d="m 49.870462,48.545411 c 1.207339,0.559046 2.583313,1.248957 4.124194,2.463573 1.539639,1.214576 3.244186,2.955221 4.426421,3.857919 1.182089,0.902697 1.839345,0.968772 3.439203,0.623796 1.599858,-0.345016 4.142282,-1.100921 7.611631,-1.904487 3.469386,-0.803566 7.865625,-1.65736 12.038088,-2.544211 4.172318,-0.886811 8.119582,-1.805395 11.334974,-3.612074 3.215319,-1.805396 5.697597,-4.497642 7.150598,-6.799941 1.454169,-2.301014 1.877929,-4.212161 1.838179,-5.954089 -0.0387,-1.741969 -0.54055,-3.316043 -0.23606,-4.751389 0.30439,-1.435306 1.41562,-2.734531 3.18883,-3.717826 1.77321,-0.983295 4.20974,-1.652064 7.16624,-1.632246 2.95533,0.02006 6.43071,0.7269 11.05693,0.868317 4.62627,0.140012 10.4033,-0.286845 17.23369,-1.37188 6.83036,-1.08375 14.71524,-2.824395 20.86305,-4.838605 6.14789,-2.012887 10.56097,-4.301986 14.32049,-6.342634 3.75941,-2.040648 6.86412,-3.835452 8.00766,-3.9253165 1.14361,-0.089865 0.32631,1.5251705 -1.18454,3.6107505 -1.51073,2.08558 -3.71735,4.64299 -6.3729,6.773502 -2.65559,2.130553 -5.76147,3.835493 -8.6963,5.134678 -2.93484,1.299185 -5.69997,2.193939 -6.95313,2.797957 -1.25192,0.603978 -0.99197,0.915897 -0.25652,1.163065 0.73553,0.247127 1.94414,0.429544 2.44128,0.779775 0.49838,0.351435 0.28429,0.872289 -0.66332,1.248957 -0.94739,0.37671 -2.63144,0.611922 -3.92319,0.937039 -1.29167,0.325358 -2.19203,0.741463 -2.47734,1.104933 -0.28429,0.364674 0.0482,0.676673 2.47734,0.520734 2.42926,-0.15606 6.95683,-0.7811 11.56741,-1.860919 4.61048,-1.079779 9.30299,-2.615541 13.17801,-4.410345 3.87506,-1.796168 6.93267,-3.851339 8.42656,-4.488375 1.49276,-0.637035 1.42169,0.142821 0.77046,1.300509 -0.6524,1.157769 -1.88392,2.69353 -2.59537,3.708559 -0.71024,1.015068 -0.90051,1.509364 -1.00637,2.030097 -0.10706,0.520733 -0.13008,1.067904 -0.7945,1.640189 -0.66449,0.572285 -1.96705,1.170967 -4.33255,2.174121 -2.36421,1.003153 -5.79143,2.410697 -9.34146,3.452164 -3.54999,1.041466 -7.22404,1.718178 -10.37681,2.174161 -3.15272,0.454618 -5.78302,0.688587 -7.07477,1.092978 -1.29164,0.40443 -1.24465,0.975391 -0.61633,1.300549 0.62718,0.324956 1.837,0.403107 3.19975,0.403107 1.36271,0 2.88068,-0.07783 3.35373,0.169298 0.4743,0.248331 -0.0946,0.820776 -1.14964,1.431374 -1.05449,0.611922 -2.59537,1.262196 -3.18765,1.900556 -0.59225,0.638359 -0.23715,1.262196 0.93657,1.625626 1.17368,0.364674 3.16358,0.467857 6.41145,0.312119 3.24671,-0.15606 7.75009,-0.572285 11.74434,-1.444573 3.99415,-0.872288 7.47804,-2.199235 9.24401,-2.419965 1.76594,-0.22065 1.81293,0.663473 0.67531,2.06841 -1.13766,1.404936 -3.46098,3.330565 -5.2859,4.632398 -1.82494,1.300549 -3.15276,1.977222 -6.12132,2.564029 -2.96859,0.585524 -7.57918,1.081143 -11.33018,1.186855 -3.75112,0.104307 -6.64261,-0.182538 -8.92987,-0.44142 -2.28719,-0.260367 -3.97011,-0.494295 -4.64541,-0.312119 -0.67542,0.182537 -0.34422,0.779776 0.6753,1.509324 1.0196,0.729548 2.72659,1.587313 4.36135,2.186036 1.63603,0.598723 3.19975,0.935715 3.82807,1.404936 0.62725,0.467858 0.32046,1.06658 -1.19777,1.313708 -1.51673,0.248331 -4.24215,0.142821 -6.05624,0.02808 -1.81296,-0.117546 -2.71344,-0.247128 -2.93853,0.07783 -0.22509,0.324957 0.22509,1.106257 2.22821,2.016858 2.00313,0.910641 5.55922,1.952107 8.99601,2.459601 3.4369,0.507535 6.75457,0.481097 9.42219,0.07823 2.66644,-0.403067 4.68154,-1.184207 5.53502,-1.237042 0.85235,-0.05296 0.54541,0.62512 -0.11912,1.353384 -0.66445,0.728224 -1.68291,1.509324 -2.63151,2.041932 -0.94863,0.533972 -1.82495,0.820777 -2.37032,1.237082 -0.54529,0.416346 -0.75836,0.963477 -1.52882,1.366624 -0.77046,0.403107 -2.09823,0.663473 -4.84291,0.741423 -2.74468,0.07823 -6.90618,-0.02808 -10.81127,-0.808862 -3.90521,-0.781099 -7.55635,-2.238871 -10.00972,-3.383441 -2.45327,-1.14457 -3.71012,-1.978505 -4.13618,-2.003619 -0.42617,-0.02808 -0.0256,0.754662 0.61633,1.48421 0.64041,0.729547 1.51673,1.404936 2.33414,1.925669 0.81734,0.520733 1.57698,0.884203 1.9429,1.300509 0.3672,0.416306 0.34421,0.884203 -0.63913,0.963477 -0.98356,0.07823 -2.92771,-0.233889 -4.27832,-0.455943 -1.35073,-0.220649 -2.10909,-0.351434 -2.21619,-0.104307 -0.10706,0.247128 0.43816,0.872288 1.84899,1.76969 1.41087,0.897403 3.68604,2.06837 6.08043,3.045086 2.39312,0.975391 4.90671,1.756491 7.25288,2.108046 2.34624,0.351435 4.52753,0.273606 5.58202,0.481097 1.0546,0.209015 0.98352,0.70311 0.1542,1.444573 -0.8294,0.741463 -2.4172,1.731377 -4.74053,2.056494 -2.32215,0.324957 -5.37987,-0.01203 -8.26055,-0.62512 -2.87944,-0.610638 -5.58206,-1.496125 -8.07029,-2.536267 -2.48827,-1.040143 -4.7646,-2.237588 -5.80711,-2.484756 -1.0425,-0.248331 -0.85351,0.454659 0.35627,1.715531 1.20858,1.260872 3.43679,3.08079 5.46524,4.354902 2.0272,1.274071 3.85211,2.003619 5.54588,2.497914 1.69501,0.494295 3.25986,0.754662 3.93528,1.119456 0.67647,0.36347 0.4622,0.832651 -0.50923,1.222519 -0.97155,0.389948 -2.70259,0.70315 -4.70446,0.547171 -2.00312,-0.156059 -4.27833,-0.7811 -6.37656,-1.625626 -2.09699,-0.845891 -4.01706,-1.912471 -5.75424,-3.115172 -1.73703,-1.201377 -3.29117,-2.537591 -4.32516,-3.368918 -1.0341,-0.830004 -1.54816,-1.155121 -1.74558,-0.896079 -0.19732,0.257559 -0.0775,1.099638 0.73669,2.454346 0.81504,1.354669 2.32461,3.222167 4.16877,4.83989 1.84428,1.617723 4.02433,2.98563 6.41997,3.945175 2.39553,0.959505 5.00775,1.511972 6.38496,1.97325 1.37828,0.459914 1.52156,0.82868 0.95697,1.272747 -0.56452,0.445391 -1.83822,0.967448 -3.52471,1.149825 -1.6865,0.180933 -3.78598,0.02407 -6.00819,-0.613245 -2.22346,-0.637036 -4.56842,-1.751196 -6.74135,-3.194445 -2.17161,-1.444573 -4.1699,-3.220883 -5.3111,-3.951755 -1.14124,-0.730872 -1.42655,-0.41767 -1.01477,0.453335 0.41166,0.86964 1.52155,2.297043 2.93366,3.758786 1.41087,1.461744 3.12258,2.959193 5.07283,4.177781 1.95013,1.218547 4.13859,2.158274 5.05715,2.889146 0.91972,0.730871 0.57061,1.252929 -0.74521,1.37585 -1.31572,0.121558 -3.59816,-0.157263 -5.86609,-0.905345 -2.26676,-0.748042 -4.51788,-1.96663 -6.19838,-2.907641 -1.68047,-0.939726 -2.79039,-1.600552 -3.36097,-1.619046 -0.57062,-0.02006 -0.60194,0.609273 0.4273,1.774985 1.02928,1.165712 3.12269,2.871976 7.25529,5.491488 4.13271,2.618232 10.3046,6.151032 15.05594,9.346802 4.75145,3.19577 8.08355,6.05719 10.07111,7.91542 1.98744,1.85828 2.63271,2.71335 2.73981,3.3623 0.10707,0.64895 -0.32265,1.0917 -1.29646,1.96399 -0.97388,0.87232 -2.49309,2.17676 -3.16358,3.12837 -0.67176,0.9516 -0.49483,1.549 -0.25907,2.11599 0.23459,0.56566 0.52969,1.09963 0.43458,1.34279 -0.0968,0.24191 -0.58144,0.19297 -1.48783,-0.0646 -0.90533,-0.25916 -2.23069,-0.7269 -3.48988,-1.24499 -1.25915,-0.51808 -2.4521,-1.08246 -3.16599,-1.39831 -0.71389,-0.31453 -0.94976,-0.38072 -1.10389,-0.21022 -0.1542,0.1705 -0.22765,0.57493 -0.25761,1.0996 -0.0292,0.5247 -0.0146,1.17233 -0.19148,1.56091 -0.17576,0.38714 -0.54537,0.51676 -1.16287,0.42818 -0.61874,-0.0887 -1.48676,-0.39637 -2.14281,-0.55772 -0.65481,-0.16127 -1.09666,-0.17692 -1.25919,0.15325 -0.16261,0.33178 -0.0446,1.01106 0.36102,1.81069 0.40567,0.7996 1.09666,1.72211 1.67926,2.73185 0.58144,1.01105 1.05332,2.11069 1.20018,2.69224 0.14799,0.58151 -0.0292,0.64759 -0.4333,0.45334 -0.40454,-0.19418 -1.03892,-0.64631 -1.75274,-1.39832 -0.7139,-0.75205 -1.50964,-1.80275 -2.10551,-2.22307 -0.59708,-0.42027 -0.99434,-0.21021 -1.04609,0.60667 -0.0523,0.81677 0.243,2.23887 0.96661,4.0403 0.72358,1.80142 1.87677,3.98084 2.75436,5.37257 0.87756,1.3917 1.47822,1.99568 2.11991,2.22568 0.64282,0.22867 1.32653,0.083 2.01876,-0.53133 0.69215,-0.61324 1.39278,-1.69435 2.08504,-2.61028 0.69212,-0.9159 1.37583,-1.66659 2.26789,-1.96001 0.89324,-0.29327 1.99348,-0.12838 2.90235,0.63306 0.90891,0.75996 1.62752,2.11467 1.88517,3.37951 0.25871,1.26348 0.0588,2.43581 -0.35043,3.26846 -0.40932,0.83398 -1.02682,1.32827 -1.46023,1.56617 -0.43334,0.2379 -0.68375,0.21945 -0.70907,0.0831 -0.0256,-0.13761 0.17576,-0.39396 0.41777,-0.75073 0.2419,-0.35665 0.52604,-0.81544 0.6753,-1.41946 0.15055,-0.60402 0.16736,-1.35471 -0.0676,-1.849 -0.23349,-0.4943 -0.71747,-0.7322 -1.10148,-0.65951 -0.38283,0.0726 -0.6669,0.45731 -1.00877,0.75996 -0.34202,0.30249 -0.74277,0.52206 -1.35913,0.48503 -0.61758,-0.0361 -1.45176,-0.32897 -2.14271,-0.12838 -0.69222,0.20099 -1.24362,0.8974 -2.03571,1.76444 -0.79326,0.86831 -1.82977,1.90845 -2.94448,2.43846 -1.11592,0.53 -2.31127,0.55114 -3.43208,0.88023 -1.1207,0.32776 -2.16679,0.96347 -3.02629,1.70229 -0.85959,0.73881 -1.5312,1.57937 -1.88035,2.25873 -0.34786,0.68064 -0.37074,1.19873 -0.44539,1.81462 -0.0745,0.61589 -0.20097,1.32695 -0.47916,1.85695 -0.27807,0.52996 -0.70779,0.87891 -1.08098,1.22781 -0.37319,0.34903 -0.69098,0.69653 -0.64406,1.11814 0.0475,0.42027 0.45748,0.91192 0.96185,1.0758 0.50437,0.16529 1.10265,0 1.57823,-0.16368 0.47664,-0.16408 0.83181,-0.32776 0.90635,-0.18494 0.0746,0.14282 -0.13118,0.59475 -0.51394,0.91196 -0.38284,0.31854 -0.94377,0.50224 -1.64444,0.51279 -0.70055,0.012 -1.54088,-0.15325 -2.19569,-0.58416 -0.65367,-0.43087 -1.12073,-1.12868 -1.26043,-1.7948 -0.13958,-0.66612 0.0475,-1.30184 0.0475,-1.927 0,-0.62644 -0.18672,-1.24105 -0.17466,-1.8622 0.0146,-0.62119 0.22765,-1.24767 0.55976,-1.78293 0.33216,-0.53525 0.78369,-0.97936 1.32782,-1.19082 0.54296,-0.21263 1.17854,-0.19177 1.80814,-0.60928 0.62956,-0.41767 1.25316,-1.27539 1.55528,-1.92037 0.30219,-0.64366 0.28428,-1.07453 0.0599,-1.32033 -0.22509,-0.24713 -0.65364,-0.30811 -1.05573,-0.13359 -0.40209,0.17451 -0.77528,0.58416 -1.3543,0.91325 -0.57903,0.32776 -1.36388,0.5736 -2.05128,0.80621 -0.68613,0.23389 -1.276,0.45333 -1.97663,0.71635 -0.70063,0.26317 -1.51315,0.56831 -2.08618,1.0996 -0.57303,0.53132 -0.90646,1.28863 -1.25199,2.02083 -0.34531,0.73219 -0.7018,1.43931 -1.25309,1.84635 -0.55136,0.40708 -1.29533,0.51544 -1.76962,0.71503 -0.47551,0.19818 -0.679,0.49032 -0.74514,1.11945 -0.0658,0.63042 0.011,1.59787 0.30694,2.24814 0.30109,0.64895 0.82944,0.97937 1.33381,1.0917 0.5044,0.11233 0.98586,0.008 1.35905,-0.19819 0.37319,-0.205 0.63683,-0.50749 0.77528,-0.48242 0.13849,0.0281 0.15055,0.38313 -0.0724,0.75996 -0.22253,0.37671 -0.67899,0.77187 -1.27969,0.94366 -0.60065,0.1717 -1.34703,0.11915 -1.99584,-0.11915 -0.64882,-0.2379 -1.20263,-0.66083 -1.57465,-1.29389 -0.37308,-0.63307 -0.56576,-1.47763 -0.59583,-2.27061 -0.0292,-0.79169 0.10231,-1.53179 0.12022,-2.16489 0.0183,-0.63307 -0.0782,-1.16174 -0.0424,-1.75517 0.0365,-0.59475 0.20463,-1.25425 0.51047,-1.86088 0.30694,-0.60666 0.75237,-1.16174 1.33739,-1.46307 0.58509,-0.30128 1.31214,-0.35023 2.20895,-0.62648 0.89806,-0.27481 1.96823,-0.77978 2.86029,-1.21594 0.89196,-0.43612 1.60702,-0.80489 2.06809,-1.15644 0.4599,-0.35304 0.66457,-0.68859 0.64283,-0.90667 -0.0219,-0.21664 -0.27077,-0.31172 -0.65726,-0.32897 -0.38642,-0.0161 -0.91246,0.0473 -1.5601,-0.16007 -0.64769,-0.20741 -1.41811,-0.68727 -2.20782,-0.90138 -0.78968,-0.21543 -1.60103,-0.16649 -2.17519,0.0437 -0.57428,0.21022 -0.91374,0.58288 -1.25203,1.15649 -0.33946,0.57489 -0.67772,1.35073 -1.11957,1.74722 -0.4417,0.39637 -0.98707,0.41233 -1.65032,0.25916 -0.66332,-0.15325 -1.4446,-0.47712 -2.02844,-0.36467 -0.58385,0.11113 -0.97144,0.6595 -1.08826,1.28069 -0.11693,0.62119 0.0329,1.31636 0.3672,1.84371 0.33216,0.52735 0.845,0.88553 1.10864,1.19215 0.26346,0.3065 0.27917,0.56302 -0.0628,0.6053 -0.34202,0.0421 -1.04133,-0.12838 -1.64685,-0.58813 -0.60551,-0.45996 -1.11828,-1.21197 -1.36746,-2.0975 -0.2492,-0.88681 -0.23239,-1.9111 0.0629,-2.72129 0.29489,-0.81018 0.87033,-1.40622 1.33622,-2.07234 0.46593,-0.66612 0.82344,-1.39964 1.33509,-1.9164 0.5116,-0.5168 1.1785,-0.81681 1.93563,-0.86968 0.75719,-0.0517 1.60468,0.14523 2.46061,-0.008 0.85589,-0.15204 1.72022,-0.6542 2.69052,-0.91324 0.97026,-0.25917 2.04642,-0.27762 3.12269,-0.0991 1.07612,0.17973 2.15238,0.55512 3.32724,0.69124 1.17496,0.136 2.45092,0.0321 3.35742,-0.18775 0.90647,-0.21945 1.44577,-0.55379 1.58905,-1.07718 0.14324,-0.52205 -0.10707,-1.23178 -0.54296,-2.58781 -0.43575,-1.356 -1.05336,-3.35966 -1.65884,-4.69848 -0.60551,-1.33886 -1.19893,-2.01288 -1.53722,-2.10672 -0.33947,-0.0927 -0.42376,0.39516 -0.45508,1.05864 -0.0292,0.66347 -0.011,1.50009 -0.12753,1.89658 -0.11693,0.39516 -0.37077,0.34903 -0.70907,-0.24432 -0.33836,-0.59343 -0.76318,-1.7327 -1.41927,-2.80458 -0.65605,-1.07183 -1.54571,-2.07499 -2.1115,-2.25608 -0.56576,-0.18093 -0.80773,0.4626 -1.01726,1.35868 -0.20828,0.8974 -0.38276,2.04859 -0.75478,3.03189 -0.37195,0.98333 -0.93895,1.79877 -1.40119,2.29704 -0.46223,0.49827 -0.81975,0.68069 -1.0015,0.63836 -0.18197,-0.0421 -0.19038,-0.3065 0.0398,-0.92777 0.22984,-0.62119 0.69705,-1.59658 0.8294,-2.73188 0.13374,-1.13531 -0.0676,-2.42924 -0.40082,-2.96582 -0.33361,-0.53658 -0.80053,-0.31733 -1.38554,-0.13359 -0.58509,0.18374 -1.29047,0.33057 -1.83219,0.31051 -0.54295,-0.02 -0.92338,-0.20741 -1.21709,-0.72557 -0.29488,-0.51809 -0.50196,-1.36791 -0.88958,-1.80143 -0.38642,-0.43351 -0.95218,-0.44936 -1.96465,-0.42424 -1.01243,0.0241 -2.47018,0.0899 -3.67635,0.0979 -1.20628,0.008 -2.15849,-0.0409 -2.54725,-1.25954 -0.38882,-1.21727 -0.21303,-3.6055 -0.30474,-5.325 -0.0917,-1.72079 -0.45015,-2.77545 -1.028,-3.49842 -0.57785,-0.72293 -1.375938,-1.11681 -1.8635,-1.15248 -0.487561,-0.0361 -0.668072,0.28565 -1.001542,0.41102 -0.333616,0.12556 -0.822237,0.0541 -1.834595,-0.61855 -1.012431,-0.6727 -2.549658,-1.94544 -3.953366,-2.99221 -1.403598,-1.04676 -2.672435,-1.86882 -3.637875,-2.28781 -0.965439,-0.41895 -1.626276,-0.43877 -1.879101,-0.13359 -0.252861,0.30529 -0.09683,0.93575 0.451423,1.88073 0.54895,0.94498 1.486765,2.20453 2.070501,3.33189 0.582677,1.1274 0.809009,2.11996 0.973954,3.35175 0.164798,1.23179 0.26967,2.70147 0.68616,3.82883 0.417732,1.1274 1.148362,1.90983 1.893571,3.22221 0.7451,1.31242 1.507155,3.15613 2.007944,4.80952 0.500825,1.6521 0.741555,3.11517 0.897985,4.2465 0.156394,1.13133 0.226187,1.93362 0.134835,2.25079 -0.09172,0.31573 -0.344212,0.14683 -0.589838,-0.47845 -0.245553,-0.62512 -0.483981,-1.70494 -0.877596,-2.69221 -0.393689,-0.98726 -0.94136,-1.88202 -1.320542,-2.23626 -0.379292,-0.35545 -0.589948,-0.1693 -0.576721,0.18494 0.01462,0.35545 0.252862,0.87891 0.358829,1.40362 0.105968,0.5247 0.07747,1.04941 -0.03654,1.21858 -0.111815,0.1693 -0.309499,-0.016 -0.74035,-0.68593 -0.430923,-0.67142 -1.099069,-1.82787 -1.881513,-2.71472 -0.782517,-0.88681 -1.681745,-1.50403 -2.153631,-1.58863 -0.470643,-0.0846 -0.512811,0.36226 -0.230937,1.13401 0.281728,0.77184 0.884722,1.86618 1.369835,3.03057 0.48515,1.16434 0.849935,2.39878 1.011189,3.33983 0.161509,0.94101 0.119122,1.58864 0.01096,1.80407 -0.111814,0.21664 -0.294883,0 -0.632007,-0.62516 -0.336904,-0.62516 -0.829399,-1.65736 -1.560138,-2.66051 -0.730703,-1.00312 -1.699724,-1.97458 -2.373862,-2.53759 -0.675307,-0.56302 -1.053356,-0.71764 -1.265182,-0.61722 -0.210839,0.10029 -0.252861,0.45466 -0.203531,1.18685 0.04933,0.73352 0.190376,1.84371 0.190376,2.89974 0,1.05599 -0.141046,2.05914 -0.32375,2.78344 -0.183068,0.72557 -0.406806,1.17229 -0.554942,1.27274 -0.147989,0.1003 -0.217782,-0.14683 -0.408086,-0.87096 -0.188915,-0.72562 -0.498377,-1.92832 -1.117119,-2.99225 -0.618779,-1.06526 -1.545632,-1.99042 -2.363082,-2.39882 -0.817341,-0.40841 -1.526375,-0.30009 -2.377479,0.21944 -0.851068,0.51809 -1.845411,1.44458 -2.906003,2.67107 -1.059313,1.2252 -2.184873,2.75037 -2.691692,3.74823 -0.506782,0.99786 -0.393688,1.47234 0.150548,1.82257 0.544126,0.35023 1.520418,0.57625 2.298003,0.40178 0.778863,-0.17451 1.360297,-0.75201 1.904424,-1.28727 0.54409,-0.53529 1.050908,-1.02959 1.791294,-1.20539 0.741519,-0.17451 1.716532,-0.0321 2.514726,0.41238 0.796951,0.44274 1.416862,1.1842 1.744339,2.08028 0.328501,0.89608 0.365918,1.94681 0.244457,2.56403 -0.122776,0.61854 -0.403262,0.80357 -0.5537,0.75201 -0.150547,-0.0517 -0.168452,-0.3398 -0.234591,-0.80356 -0.06468,-0.46389 -0.178318,-1.10092 -0.637999,-1.36923 -0.4599,-0.26839 -1.266425,-0.16529 -1.726325,0.1031 -0.459827,0.26839 -0.57303,0.7005 -0.957035,0.93708 -0.385175,0.2367 -1.041262,0.27762 -1.669688,0.14402 -0.628316,-0.13359 -1.229007,-0.44278 -1.951305,-0.55643 -0.722299,-0.11234 -1.566095,-0.0321 -2.485822,-0.14403 -0.919728,-0.11353 -1.914071,-0.42292 -2.868695,-0.28002 -0.955793,0.14282 -1.873109,0.73616 -3.035977,1.00712 -1.162869,0.2708 -2.573739,0.21945 -4.089371,0.41366 -1.515559,0.19297 -3.137085,0.63306 -4.513059,1.09699 -1.374695,0.46521 -2.502667,0.95553 -3.114174,1.43266 -0.611581,0.47712 -0.705453,0.94105 -0.904052,1.34151 -0.199877,0.40038 -0.505649,0.73484 -1.034099,0.96745 -0.528451,0.23148 -1.280822,0.36066 -1.633585,0.72164 -0.351521,0.36066 -0.305845,0.95421 -0.02558,1.45777 0.281728,0.50356 0.799326,0.9159 1.386753,1.12343 0.587537,0.20621 1.246036,0.20621 1.551734,0.36066 0.304384,0.15446 0.257612,0.46521 -0.187818,0.65818 -0.446673,0.19297 -1.292917,0.2708 -2.174058,0.0782 -0.88125,-0.19297 -1.798529,-0.65818 -2.35106,-1.26484 -0.551361,-0.60663 -0.740386,-1.35471 -0.752371,-1.92303 -0.01096,-0.56831 0.15274,-0.95553 0.234591,-1.49608 0.08222,-0.54192 0.08222,-1.23973 0.3285,-1.80672 0.247014,-0.56831 0.740386,-1.00712 1.492757,-1.18685 0.752335,-0.18094 1.763524,-0.10311 2.456918,-0.34903 0.693395,-0.24432 1.068996,-0.81283 1.656423,-1.25165 0.587427,-0.43877 1.38679,-0.74804 1.962232,-0.97138 0.575441,-0.22345 0.928131,-0.36066 0.59711,-0.63178 -0.331058,-0.27079 -1.34707,-0.67667 -2.90476,-0.77712 -1.557727,-0.1003 -3.657241,0.1019 -5.064421,0.39235 -1.407289,0.29206 -2.122315,0.67142 -2.618318,1.16571 -0.495966,0.4943 -0.772834,1.10092 -1.327776,1.3428 -0.5537,0.2407 -1.384378,0.11353 -2.110258,-0.0887 -0.727122,-0.20219 -1.350614,-0.48109 -1.950136,-0.31733 -0.600691,0.16529 -1.177376,0.77187 -1.510845,1.44457 -0.334712,0.67142 -0.427306,1.40494 -0.289037,2.07636 0.138489,0.67137 0.507988,1.27936 0.611508,1.62165 0.10341,0.34221 -0.0581,0.41767 -0.473055,0.29086 -0.415321,-0.12678 -1.083393,-0.45598 -1.487898,-1.2159 -0.403262,-0.75996 -0.542957,-1.95079 -0.438158,-2.91298 0.10341,-0.96348 0.450144,-1.69699 1.002784,-2.2164 0.553663,-0.51941 1.315718,-0.82339 1.91524,-1.43138 0.600655,-0.60795 1.038813,-1.51987 1.684048,-2.02608 0.645271,-0.50621 1.499992,-0.60795 2.318612,-0.44275 0.818473,0.16529 1.603439,0.59604 2.376309,0.67138 0.772761,0.0766 1.53361,-0.2022 2.192036,-0.36748 0.658462,-0.16529 1.211102,-0.21544 1.75395,-0.34221 0.542957,-0.12677 1.073855,-0.32897 1.71909,-0.41763 0.646403,-0.0887 1.407179,-0.0634 1.810514,-0.21543 0.403263,-0.15205 0.450144,-0.4811 0.03654,-0.95028 -0.415321,-0.46786 -1.291748,-1.07585 -2.434117,-1.88732 -1.142369,-0.81018 -2.549658,-1.82389 -3.692028,-2.21644 -1.142479,-0.39276 -2.01876,-0.16529 -2.607465,0.26558 -0.58867,0.43087 -0.888413,1.06393 -1.419275,1.4816 -0.530862,0.41763 -1.292917,0.62115 -2.181292,0.4943 -0.888412,-0.12678 -1.903255,-0.58288 -2.723007,-0.4943 -0.818583,0.0887 -1.442185,0.7216 -1.731076,1.4948 -0.287574,0.77183 -0.241898,1.68508 -0.01096,2.3565 0.229841,0.67142 0.646404,1.10096 0.657256,1.35471 0.01096,0.25234 -0.380351,0.32897 -0.876317,-0.0401 -0.495966,-0.36748 -1.09673,-1.17759 -1.4302,-2.19133 -0.334712,-1.01371 -0.403262,-2.22961 -0.01096,-3.69536 0.392446,-1.46572 1.245926,-3.18253 2.514762,-4.18039 1.268837,-0.99786 2.952921,-1.27672 4.55636,-1.23841 1.604681,0.0401 3.126233,0.39236 4.591329,0.9754 1.465023,0.58283 2.872275,1.39302 4.349357,2.31818 1.477008,0.92517 3.022713,1.96266 4.29155,2.54554 1.268763,0.58283 2.260695,0.70973 3.171981,0.69649 0.911324,-0.012 1.741892,-0.16529 2.57257,-0.11354 0.830605,0.0502 1.661173,0.3041 2.453264,0.0281 0.792128,-0.27641 1.544572,-1.07977 2.649634,-2.12389 1.103892,-1.04411 2.558062,-2.32613 3.897861,-3.58832 1.339908,-1.2622 2.561753,-2.50321 3.411651,-3.42441 0.849825,-0.92119 1.32774,-1.52388 1.374695,-1.88996 0.04823,-0.36748 -0.333616,-0.49698 -1.084635,-0.30129 -0.751129,0.19578 -1.87183,0.72028 -2.814469,1.49216 -0.942528,0.77183 -1.705716,1.79348 -2.289598,2.27855 -0.583846,0.4837 -0.98952,0.43215 -1.217095,0.20861 -0.226187,-0.22185 -0.27442,-0.61461 0.02558,-1.2437 0.298537,-0.62909 0.942639,-1.49216 1.479493,-3.08476 0.536892,-1.59261 0.965477,-3.91212 1.120738,-5.70031 0.154201,-1.78955 0.03654,-3.04512 -0.310596,-3.49051 -0.345674,-0.4454 -0.918558,-0.0794 -1.359128,0.66744 -0.44057,0.7454 -0.751129,1.87279 -0.894405,2.95919 -0.143239,1.0864 -0.119122,2.13449 -0.27442,2.64463 -0.154201,0.51018 -0.488731,0.48374 -0.727122,-0.053 -0.238244,-0.53658 -0.381593,-1.58466 -0.405674,-2.8812 -0.02558,-1.29525 0.07235,-2.84024 0.04823,-4.43815 -0.02558,-1.59654 -0.167356,-3.24732 -0.464651,-4.28084 -0.29744,-1.03352 -0.751202,-1.45384 -1.168861,-1.32165 -0.417769,0.13199 -0.799363,0.81147 -0.98952,1.7406 -0.191473,0.93046 -0.191473,2.10805 -0.143239,3.11646 0.04823,1.00845 0.143239,1.84507 -0.04823,2.26403 -0.190011,0.41895 -0.668182,0.41895 -0.941396,-0.63969 -0.27442,-1.05996 -0.34677,-3.1786 -0.715027,-5.37651 -0.369608,-2.19923 -1.03768,-4.47646 -2.39922,-7.77268 -1.361467,-3.29623 -3.417572,-7.611454 -6.460784,-11.576448 -3.043213,-3.964953 -7.071085,-7.582363 -9.72799,-9.884702 -2.657929,-2.302298 -3.942405,-3.289605 -4.633388,-3.625314 -0.690983,-0.335788 -0.787267,-0.01605 -0.931712,0.494336 -0.144336,0.511466 -0.33727,1.217224 -0.594662,1.375851 -0.257612,0.158466 -0.57789,-0.228674 -1.076268,-1.428727 -0.498195,-1.198488 -1.17226,-3.208727 -2.167882,-5.347183 -0.996682,-2.138416 -2.313642,-4.405089 -3.212869,-5.309071 -0.899338,-0.904061 -1.380797,-0.445431 -1.750406,0.647587 -0.369499,1.093018 -0.627183,2.821748 -0.610338,4.091887 0.01462,1.268776 0.304749,2.080285 0.22509,2.450334 -0.08039,0.369889 -0.529729,0.300084 -0.883552,-0.652882 -0.352982,-0.952925 -0.610338,-2.786083 -0.658498,-4.286179 -0.04823,-1.498733 0.113276,-2.663121 0.113276,-3.773309 0,-1.111513 -0.161145,-2.17019 -0.417769,-3.210332 -0.256516,-1.040143 -0.610265,-2.063114 -1.027998,-2.151655 -0.417769,-0.08706 -0.899228,0.758633 -1.225426,1.818594 -0.326308,1.059961 -0.495966,2.332748 -0.821031,3.218235 -0.325212,0.885527 -0.804186,1.383794 -1.00516,1.979869 -0.200973,0.596075 -0.125334,1.28727 -0.214493,1.63357 -0.08806,0.346219 -0.340559,0.346219 -0.541715,-0.124366 -0.202069,-0.470506 -0.352617,-1.41284 -0.251399,-2.188684 0.09976,-0.77448 0.453798,-1.383754 0.781275,-2.242844 0.327404,-0.857765 0.630728,-1.965306 0.845075,-2.935402 0.214128,-0.968772 0.340558,-1.8001 0.706622,-2.409414 0.365955,-0.609273 0.971469,-0.996534 0.857097,-1.274071 -0.114372,-0.277617 -0.946219,-0.442743 -1.602306,-0.318538 -0.65605,0.12557 -1.135098,0.540552 -1.513147,1.066581 -0.378013,0.526028 -0.656051,1.163064 -0.92086,1.356032 -0.26492,0.194172 -0.517635,-0.05536 -0.428585,-0.637035 0.08806,-0.581553 0.517634,-1.494801 0.996755,-2.520421 0.479047,-1.024256 1.008777,-2.159598 1.602306,-3.08737 0.59225,-0.927811 1.248337,-1.648132 1.36143,-2.022153 0.113276,-0.373901 -0.315345,-0.401783 -0.83181,-0.192969 -0.517635,0.207411 -1.123149,0.651559 -1.639614,1.218588 -0.517635,0.568273 -0.94611,1.260832 -1.273587,1.426039 -0.327404,0.16649 -0.554943,-0.192968 -0.327404,-0.983295 0.227648,-0.790367 0.907632,-2.007631 1.867079,-3.105905 0.958205,-1.098273 2.194557,-2.074989 2.597819,-2.661796 0.403263,-0.585524 -0.02558,-0.779776 -0.693395,-0.752015 -0.668072,0.02808 -1.576947,0.276013 -2.270341,0.679321 -0.694638,0.401782 -1.173722,0.955573 -1.526412,1.06658 -0.352617,0.111127 -0.580265,-0.222255 -0.125334,-0.872288 0.453834,-0.650275 1.588932,-1.620371 2.710912,-2.270606 1.123149,-0.650274 2.231865,-0.983335 3.405586,-1.315071 1.173685,-0.331777 2.408794,-0.664798 2.887915,-1.052058 0.479084,-0.38714 0.200973,-0.831287 -0.781275,-1.190786 -0.983528,-0.359458 -2.673678,-0.637035 -4.665982,-1.288634 -1.993437,-0.651558 -4.289138,-1.675854 -6.495643,-2.437135 -2.206652,-0.761281 -4.326446,-1.259548 -6.028728,-1.426079 -1.7033042,-0.165286 -2.9889495,0 -3.5824788,-0.109522 -0.5934197,-0.111127 -0.4923118,-0.498267 0.3405586,-0.968772 0.8318473,-0.470546 2.3968092,-1.024296 4.5154712,-1.24635 2.118625,-0.222254 4.792339,-0.111127 7.088003,0.179729 2.295591,0.290857 4.212074,0.762606 5.561556,1.205389 1.349445,0.442744 2.131889,0.85909 2.447344,0.73352 0.315346,-0.124366 0.163702,-0.789043 -0.854721,-1.930965 -1.018461,-1.141882 -2.904761,-2.760929 -5.23777,-4.156598 -2.33173,-1.395669 -5.10889,-2.568001 -7.952335,-3.140286 -2.844541,-0.572284 -5.7554035,-0.545847 -7.6236524,-0.296071 -1.8694912,0.249936 -2.6989268,0.722968 -3.2659642,0.89347 -0.5681701,0.169299 -0.8751478,0.03611 -0.7523713,-0.740139 0.1227764,-0.77448 0.6754168,-2.189967 2.0561042,-3.572438 1.3807969,-1.381146 3.590993,-2.729235 5.6771701,-3.487869 2.0874196,-0.758633 4.0508206,-0.926487 5.8769016,-0.77448 1.826227,0.152048 3.513965,0.623797 4.771949,1.26348 1.257911,0.639683 2.087346,1.448545 2.562923,1.685121 0.476635,0.235093 0.598243,-0.1019 0.736695,-0.691235 0.138489,-0.589455 0.291229,-1.431334 0.798084,-1.752519 0.505649,-0.319742 1.365157,-0.117547 4.434825,0.992562 3.069704,1.110229 8.348362,3.129694 12.106638,5.348788 3.758239,2.219053 5.993794,4.639018 7.096444,7.076153 1.101444,2.437135 1.068959,4.892805 0.756026,6.554137 -0.313154,1.661331 -0.904052,2.528323 -1.530066,3.177274 -0.626014,0.648911 -1.283233,1.083751 -1.43009,1.570103 -0.14799,0.487716 0.214128,1.029591 0.914867,1.514659 0.700557,0.483704 1.740649,0.910601 2.94934,1.469687 z"
       id="path402"
       style="fill:#000000;stroke:#000000;stroke-width:0.31533897;stroke-linecap:round;stroke-linejoin:round;fill-opacity:1" />
  </g>
</svg>
