<?xml version="1.0" encoding="UTF-8" standalone="no"?>
<!-- Created with Inkscape (http://www.inkscape.org/) -->

<svg
   xmlns:dc="http://purl.org/dc/elements/1.1/"
   xmlns:cc="http://creativecommons.org/ns#"
   xmlns:rdf="http://www.w3.org/1999/02/22-rdf-syntax-ns#"
   xmlns:svg="http://www.w3.org/2000/svg"
   xmlns="http://www.w3.org/2000/svg"
   xmlns:sodipodi="http://sodipodi.sourceforge.net/DTD/sodipodi-0.dtd"
   xmlns:inkscape="http://www.inkscape.org/namespaces/inkscape"
   width="210mm"
   height="297mm"
   viewBox="0 0 210 297"
   version="1.1"
   id="svg5708"
   inkscape:version="0.92.3 (2405546, 2018-03-11)"
   sodipodi:docname="donkey.svg">
  <defs
     id="defs5702" />
  <sodipodi:namedview
     id="base"
     pagecolor="#ffffff"
     bordercolor="#666666"
     borderopacity="1.0"
     inkscape:pageopacity="0.0"
     inkscape:pageshadow="2"
     inkscape:zoom="0.35"
     inkscape:cx="-70"
     inkscape:cy="560"
     inkscape:document-units="mm"
     inkscape:current-layer="layer1"
     showgrid="false"
     inkscape:window-width="1825"
     inkscape:window-height="1051"
     inkscape:window-x="2391"
     inkscape:window-y="-9"
     inkscape:window-maximized="1" />
  <metadata
     id="metadata5705">
    <rdf:RDF>
      <cc:Work
         rdf:about="">
        <dc:format>image/svg+xml</dc:format>
        <dc:type
           rdf:resource="http://purl.org/dc/dcmitype/StillImage" />
        <dc:title></dc:title>
      </cc:Work>
    </rdf:RDF>
  </metadata>
  <g
     inkscape:label="Layer 1"
     inkscape:groupmode="layer"
     id="layer1">
    <path
       inkscape:connector-curvature="0"
       d="m 18.147255,11.828732 c 0.971484,0.0076 1.74881,-0.02682 2.318492,-0.170464 0.568479,-0.144032 0.927952,-0.39877 1.35102,-0.808917 0.424313,-0.410145 0.910738,-0.9755096 1.451331,-1.1534431 0.539307,-0.1765925 1.13158,0.034476 1.688062,0.1991931 0.557765,0.166633 1.079902,0.287681 1.509511,0.249758 0.429649,-0.03908 0.766732,-0.2386486 1.044311,-0.5262534 0.278862,-0.2876811 0.499625,-0.6650375 0.806334,-0.830368 0.308152,-0.1666328 0.701932,-0.1225805 1.097154,0.022983 0.394019,0.144032 0.789122,0.387431 1.160551,0.4543139 0.371549,0.067036 0.719145,-0.044052 1.068104,-0.2827013 0.34908,-0.2386488 0.696635,-0.6044749 1.155255,-0.8366884 0.458739,-0.233286 1.025734,-0.3332656 1.333807,-0.3267536 0.308152,0.00766 0.354296,0.1160684 0.325407,0.3156448 -0.02808,0.1995762 -0.133614,0.4871041 -0.05297,0.7041866 0.08185,0.215665 0.34908,0.3596972 0.660844,0.3937131 0.31337,0.034476 0.674126,-0.044052 0.958445,-0.2321367 0.28408,-0.1880845 0.493006,-0.4884066 0.815524,-0.7142995 0.322598,-0.227157 0.757463,-0.3811488 1.06012,-0.4378805 0.302536,-0.056694 0.473264,-0.015323 0.50099,0.085806 0.02808,0.1011292 -0.08506,0.2635481 -0.107132,0.4795196 -0.02006,0.2156651 0.04976,0.4871426 0.318586,0.6360395 0.269634,0.1490119 0.737642,0.1754433 1.197626,0.094617 0.459982,-0.080826 0.913425,-0.2712093 1.267682,-0.4404087 0.355499,-0.1693144 0.609364,-0.3179431 0.95046,-0.3784673 0.339852,-0.060525 0.764044,-0.034476 1.082549,0.1693143 0.318586,0.2018748 0.531445,0.5817594 0.857895,0.72311 0.32661,0.1424998 0.765407,0.047883 1.083913,-0.1011292 0.318586,-0.149012 0.518163,-0.3520358 0.807658,-0.3861286 0.289696,-0.034476 0.672842,0.1022782 1.027098,0.304153 0.354296,0.2030238 0.679462,0.4732372 1.139446,0.5956645 0.461267,0.1221974 1.056228,0.094617 1.488405,0.2574191 0.432297,0.1628018 0.700567,0.5136118 0.756059,0.8682138 0.05536,0.353186 -0.10312,0.710507 -0.118767,1.015885 -0.01606,0.305302 0.112347,0.564101 0.381981,0.617117 0.269634,0.05439 0.679462,-0.09462 1.054823,-0.195744 0.375562,-0.101128 0.716498,-0.156675 0.921411,0.04022 0.205035,0.195745 0.276054,0.642322 0.346271,0.980567 0.07102,0.338247 0.141638,0.569119 0.404452,0.642322 0.26161,0.07432 0.716497,-0.0076 1.168535,0.01532 0.452159,0.01915 0.906846,0.142499 1.465976,0.50733 0.560454,0.365826 1.225351,0.974247 2.040954,1.427259 0.81428,0.453089 1.777901,0.750883 2.508842,1.018453 0.731022,0.267379 1.229364,0.507291 1.570459,0.897251 0.341055,0.389959 0.526028,0.930079 0.752127,1.316246 0.227103,0.386167 0.495694,0.615814 0.822143,0.662508 0.325006,0.04789 0.708513,-0.08849 1.062769,-0.263547 0.354296,-0.176592 0.680827,-0.392488 0.978186,-0.257419 0.29732,0.135221 0.567114,0.622173 0.92137,1.129503 0.354296,0.507291 0.794418,1.034809 1.317878,1.373016 0.5235,0.338244 1.132865,0.487105 1.73553,0.533799 0.602825,0.04673 1.197625,-0.0076 1.885031,0.156674 0.687407,0.161652 1.465976,0.541383 2.46262,1.14084 0.995399,0.600722 2.208794,1.422241 3.218718,1.874027 1.011208,0.450521 1.817624,0.532573 2.477184,0.566627 0.658317,0.03448 1.168535,0.01915 1.73565,0.175443 0.566993,0.156674 1.190926,0.480823 1.714388,0.805164 0.523502,0.324455 0.949095,0.648641 1.374688,0.710468 0.425715,0.06206 0.850072,-0.141351 1.418435,-0.450521 0.568396,-0.309133 1.278195,-0.724375 1.795106,-0.884649 0.51945,-0.160121 0.844619,-0.06704 1.163206,0.306835 0.317375,0.373487 0.627856,1.027224 0.905438,1.292266 0.276051,0.265081 0.522143,0.140201 0.79049,-0.162802 0.269632,-0.304153 0.561821,-0.786201 0.847304,-0.972983 0.285672,-0.186934 0.563181,-0.07814 0.856598,0.218347 0.293311,0.295342 0.60407,0.778654 1.083923,0.995698 0.481123,0.218347 1.132862,0.171613 1.744875,0.240948 0.610653,0.06934 1.181702,0.257419 1.670766,0.28768 0.489081,0.03065 0.896219,-0.09347 1.263752,0.0076 0.367533,0.101127 0.69258,0.427806 1.16585,0.444202 0.47318,0.01532 1.093186,-0.280021 1.516216,-0.482048 0.42423,-0.203025 0.65302,-0.311815 0.88169,-0.163952 0.22709,0.147479 0.45597,0.552723 0.66084,0.926286 0.20383,0.373487 0.38318,0.715525 0.70069,0.86446 0.31858,0.14748 0.77455,0.101127 1.21467,0 0.44028,-0.102278 0.8646,-0.257419 1.2955,-0.163951 0.43221,0.09347 0.87245,0.436654 1.25568,0.474501 0.38318,0.03831 0.70992,-0.226007 1.03115,-0.440409 0.3226,-0.214515 0.64239,-0.377317 0.96366,-0.256269 0.32099,0.121048 0.64363,0.527479 1.04555,0.844235 0.40044,0.316793 0.87768,0.545176 1.21737,0.439183 0.34106,-0.10611 0.54461,-0.545178 0.69804,-0.975511 0.15327,-0.430335 0.25519,-0.853084 0.571,-0.983058 0.31459,-0.13139 0.84338,0.03065 1.48183,0.219495 0.63846,0.186936 1.38922,0.397507 1.93386,0.365827 0.54586,-0.03448 0.88559,-0.309133 1.1407,-0.731957 0.25518,-0.42275 0.42572,-0.991906 0.72443,-1.268286 0.29893,-0.276573 0.72437,-0.260102 1.17649,-0.162802 0.45067,0.09845 0.92786,0.276571 1.24252,0.252438 0.31457,-0.02298 0.46797,-0.252438 0.50228,-0.609532 0.0361,-0.358548 -0.0498,-0.845537 0.24836,-1.090353 0.29732,-0.243628 0.97955,-0.243628 1.6867,-0.2601 0.70723,-0.01532 1.44082,-0.04788 1.76205,-0.371189 0.32099,-0.322923 0.22871,-0.938891 0.33062,-1.34398 0.10071,-0.403865 0.39643,-0.598193 0.83804,-0.729431 0.44281,-0.132541 1.03232,-0.203024 1.47388,-0.484614 0.44277,-0.281552 0.7376,-0.773599 1.17114,-1.001982 0.4323,-0.228305 1.00335,-0.193062 1.31663,-0.272741 0.31337,-0.07968 0.36875,-0.272742 0.39643,-0.536366 0.0281,-0.263547 0.0281,-0.598154 0.2576,-0.721845 0.22991,-0.123731 0.69005,-0.03448 1.17383,-0.06321 0.48249,-0.02682 0.98613,-0.172763 1.13676,-0.578006 0.15046,-0.406317 -0.053,-1.075184 0,-1.540836 0.0553,-0.466955 0.36753,-0.730696 0.86588,-0.791258 0.49693,-0.06206 1.17904,0.0793 1.6576,0.07048 0.47973,-0.0076 0.7561,-0.166633 0.79302,-0.430335 0.0361,-0.263547 -0.16531,-0.633511 -0.97679,-1.090353 -0.81034,-0.45803 -2.23006,-1.003206 -3.5109,-1.829782 -1.28084,-0.826613 -2.42293,-1.93589 -3.04948,-3.103202 -0.62657,-1.1686122 -0.73763,-2.396524 -0.58026,-3.573948 0.15727,-1.1773856 0.58026,-2.3030959 0.99523,-3.041337 0.41509,-0.7382409 0.81958,-1.0903534 1.1699,-0.7837106 0.35028,0.3079834 0.64504,1.2758714 1.09708,2.3397169 0.45215,1.0638454 1.06015,2.2248741 1.87046,3.0602986 0.81035,0.8354243 1.82421,1.3452821 2.91077,1.9005331 1.08792,0.553988 2.24852,1.152181 2.95703,1.362941 0.70979,0.210685 0.96755,0.03448 0.91201,-0.334414 -0.0553,-0.369657 -0.42294,-0.932569 -0.74546,-1.56608 -0.32259,-0.6335112 -0.59885,-1.3376979 -0.52486,-2.1112957 0.0742,-0.7735979 0.49705,-1.6191351 0.92137,-2.4015434 0.42295,-0.7836725 0.8473,-1.5042542 1.22535,-1.7768426 0.37796,-0.2727416 0.70987,-0.097298 0.97686,0.3344149 0.26682,0.4303342 0.46925,1.1168232 0.73624,1.7326754 0.26723,0.615852 0.59885,1.1610287 0.64516,1.8387073 0.0457,0.6776786 -0.193,1.4865949 -0.0742,2.0582801 0.11917,0.571684 0.59886,0.906099 0.99942,1.119389 0.40044,0.213366 0.72043,0.30645 0.9411,0.528743 0.21949,0.222176 0.33826,0.574213 0.46396,0.821558 0.12559,0.247459 0.25399,0.39375 0.47592,0.357015 0.22189,-0.03831 0.53666,-0.253588 0.81816,-0.357015 0.28168,-0.103428 0.53009,-0.09348 0.75217,0.04673 0.22189,0.138669 0.41637,0.408883 0.62265,0.656228 0.20624,0.248608 0.42295,0.475765 0.70979,0.559043 0.28689,0.08198 0.64504,0.01915 1.02309,-0.113771 0.37958,-0.133688 0.77997,-0.342076 1.10514,-0.382297 0.32501,-0.04175 0.57498,0.08198 0.79177,0.367358 0.21668,0.283851 0.40044,0.72943 0.67156,0.966662 0.27083,0.237117 0.62911,0.268912 1.02838,0.206855 0.40184,-0.06168 0.84601,-0.217197 1.19762,-0.212218 0.3515,0.0038 0.61202,0.170464 0.74683,0.50101 0.13482,0.330584 0.14686,0.826576 0.23273,1.148387 0.0859,0.320625 0.24836,0.465691 0.63845,0.522462 0.39001,0.0567 1.00727,0.02681 1.48977,0.185403 0.48253,0.16012 0.82881,0.512348 0.89891,0.941457 0.0702,0.429032 -0.13643,0.935097 -0.20745,1.354092 -0.0711,0.418957 -0.012,0.749618 0.29892,1.008301 0.31056,0.258568 0.86978,0.446729 1.10767,0.658755 0.23794,0.213367 0.15327,0.454315 -0.13361,0.874536 -0.28688,0.420259 -0.7758,1.020942 -1.03497,1.455068 -0.2592,0.434127 -0.28688,0.700395 -0.20342,1.027263 0.0851,0.326753 0.28006,0.714262 0.89621,1.174896 0.61458,0.460596 1.64966,0.994435 2.21008,1.582514 0.55916,0.586816 0.6425,1.227912 1.40249,2.266512 0.75875,1.039866 2.19428,2.475973 3.22671,4.013056 1.03231,1.535819 1.66555,3.170084 1.90878,4.376544 0.24597,1.207725 0.10192,1.985077 -0.14164,2.55929 -0.24595,0.574213 -0.59078,0.943947 -0.65302,1.391939 -0.0606,0.448033 0.16371,0.972982 0.10392,1.865215 -0.0594,0.892234 -0.4018,2.149143 -0.8804,3.050187 -0.47844,0.901043 -1.08909,1.44622 -1.7316,1.689771 -0.6411,0.243629 -1.31522,0.184254 -1.81357,0.398808 -0.49971,0.213367 -0.82614,0.700395 -1.36542,0.855612 -0.54071,0.156673 -1.29412,-0.01915 -2.56838,-0.642359 -1.27427,-0.622135 -3.0681,-1.692302 -4.28025,-2.35481 -1.21215,-0.662548 -1.84531,-0.914949 -2.3952,-0.749618 -0.54983,0.165483 -1.01916,0.749618 -1.62058,0.856875 -0.60138,0.106109 -1.3351,-0.262398 -2.58556,-0.920005 -1.25176,-0.65749 -3.02043,-1.602701 -4.26038,-2.531517 -1.24125,-0.928814 -1.95497,-1.843725 -2.6569,-2.213496 -0.70321,-0.369657 -1.3972,-0.194214 -1.90614,-0.427806 -0.50894,-0.234818 -0.83539,-0.875799 -1.3958,-1.177424 -0.56053,-0.301472 -1.35495,-0.262399 -1.94714,0.03907 -0.59228,0.301471 -0.97815,0.865725 -1.18178,1.400788 -0.20342,0.535102 -0.22469,1.041131 -0.44939,1.216574 -0.22349,0.175443 -0.65174,0.01915 -1.04961,-0.06818 -0.39803,-0.08696 -0.76404,-0.107257 -0.91736,0.169315 -0.15327,0.276188 -0.0923,0.849291 -0.24595,1.200101 -0.15328,0.350887 -0.52082,0.480822 -0.93454,0.493463 -0.41372,0.01149 -0.87639,-0.09079 -1.08656,0.0452 -0.21025,0.136371 -0.16932,0.512348 -0.17574,0.940154 -0.012,0.427806 -0.0606,0.907363 -0.29892,1.095409 -0.23795,0.188085 -0.65832,0.08466 -1.08657,-0.05171 -0.427,-0.136371 -0.86182,-0.305303 -1.13415,-0.272742 -0.27244,0.03064 -0.38078,0.265079 -0.4138,0.654963 -0.0361,0.389959 0.012,0.933872 -0.14284,1.264494 -0.14926,0.330584 -0.48912,0.446729 -0.96366,0.272741 -0.47451,-0.175443 -1.08656,-0.642359 -1.41173,-0.745826 -0.32661,-0.103426 -0.36633,0.156673 -0.4138,0.526254 -0.0477,0.368507 -0.10192,0.849291 -0.35269,1.070128 -0.25117,0.219496 -0.69928,0.181572 -1.19498,-0.02681 -0.49577,-0.206856 -1.03901,-0.583024 -1.43953,-0.615815 -0.40044,-0.03448 -0.65832,0.27887 -0.72043,0.885874 -0.0618,0.605778 0.0742,1.508085 -0.0762,1.972474 -0.15087,0.464426 -0.58433,0.48967 -1.03243,0.172762 -0.44811,-0.317944 -0.90938,-0.979304 -1.23719,-1.148388 -0.325,-0.167782 -0.51551,0.156673 -0.58296,0.603211 -0.069,0.446768 -0.0161,1.018413 -0.0754,1.303644 -0.0606,0.285382 -0.23794,0.285382 -0.59746,0.136371 -0.3595,-0.149012 -0.90419,-0.446768 -1.22265,-0.37617 -0.31859,0.07202 -0.41385,0.512348 -0.41385,1.297285 0,0.784936 0.0955,1.913175 0.0321,3.369469 -0.0606,1.457598 -0.27766,3.243289 -0.83411,4.673114 -0.55651,1.428561 -1.45145,2.499953 -2.49174,3.618077 -1.04163,1.118126 -2.22866,2.284174 -3.60736,3.764486 -1.37871,1.481539 -2.95033,3.281135 -4.15719,4.479972 -1.2042,1.200179 -2.04359,1.800861 -2.84207,2.370017 -0.798316,0.570422 -1.558462,1.109277 -1.960269,1.786957 -0.404493,0.677678 -0.452031,1.495442 -0.446816,3.313924 0,1.819785 0.0646,4.642812 0.205031,6.494162 0.140027,1.85131 0.362317,2.733431 0.312167,3.784635 -0.05216,1.051242 -0.375565,2.275361 -0.675533,3.637 -0.29892,1.361717 -0.572285,2.862178 -0.68865,4.574661 -0.115161,1.711269 -0.07418,3.634509 -0.02006,5.118579 0.05543,1.48284 0.124389,2.5265 0.354294,3.47298 0.229912,0.94647 0.623892,1.79328 0.991352,2.40533 0.367533,0.6108 0.708513,0.98685 0.836742,1.57368 0.128401,0.5868 0.04249,1.38691 0.229913,2.1037 0.187789,0.71678 0.649089,1.35409 1.202929,1.92957 0.55259,0.5767 1.19899,1.09414 1.87175,1.53961 0.67421,0.44673 1.37341,0.82152 1.87841,1.37555 0.50364,0.55398 0.81023,1.28846 1.23859,2.0305 0.42688,0.74204 0.97414,1.49166 1.06798,2.0217 0.0935,0.53005 -0.26441,0.84048 -0.75075,0.86446 -0.48647,0.023 -1.10242,-0.23711 -1.38405,-0.12258 -0.28167,0.11339 -0.23152,0.60321 -0.41765,0.93763 -0.18898,0.33441 -0.61607,0.51365 -1.34962,0.39881 -0.7337,-0.11493 -1.77661,-0.52247 -2.85259,-1.10929 -1.07468,-0.5868 -2.186401,-1.35409 -2.827505,-2.02296 -0.639736,-0.66883 -0.81023,-1.23925 -0.871057,-1.9977 -0.05936,-0.75845 -0.01204,-1.70491 -0.264408,-2.48737 -0.255197,-0.78366 -0.819581,-1.40205 -1.514929,-1.95983 -0.693988,-0.55777 -1.518744,-1.05376 -1.879587,-1.76423 -0.359501,-0.71051 -0.256384,-1.63553 -0.08266,-2.47095 0.172942,-0.83417 0.415088,-1.57746 0.588227,-3.46666 0.173335,-1.88915 0.277656,-4.92168 0.300131,-7.197047 0.02399,-2.274062 -0.03611,-3.788424 -0.351493,-4.901494 -0.31577,-1.113069 -0.88686,-1.822312 -1.316514,-2.887384 -0.429646,-1.065148 -0.715088,-2.48486 -1.071994,-4.616343 -0.357102,-2.131446 -0.785184,-4.974699 -0.958323,-6.955983 -0.173335,-1.980058 -0.09149,-3.096881 -0.233925,-3.782145 -0.144047,-0.685263 -0.514274,-0.941417 -0.820981,-0.725637 -0.308155,0.215665 -0.55383,0.901043 -0.749477,2.116312 -0.195401,1.21531 -0.338245,2.958098 -0.482407,4.613817 -0.144048,1.655679 -0.2869,3.223062 -0.174548,4.44718 0.112345,1.22412 0.482531,2.10624 0.799718,2.850801 0.317374,0.744562 0.584321,1.351566 0.526147,1.97121 -0.05732,0.61838 -0.440159,1.2481 -0.569764,1.871498 -0.129596,0.623437 -0.01204,1.241778 -0.231116,1.755429 -0.22229,0.512349 -0.789114,0.917439 -1.304634,1.641811 -0.515511,0.724369 -0.982198,1.768028 -1.259698,3.379575 -0.278868,1.61156 -0.368737,3.79096 -0.312168,5.53628 0.05732,1.74532 0.261608,3.05777 0.79049,4.25792 0.52875,1.20013 1.382638,2.28669 1.838681,3.50322 0.454733,1.21785 0.510222,2.56435 0.547305,3.64586 0.03611,1.0815 0.05535,1.89674 0.306542,2.7751 0.251177,0.87834 0.733675,1.81722 1.228078,2.68926 0.49437,0.87201 0.999294,1.67591 1.188358,2.19458 0.187787,0.51993 0.05617,0.75337 -0.212661,0.81524 -0.269632,0.0616 -0.67677,-0.0467 -1.14209,-0.21835 -0.465279,-0.1716 -0.987414,-0.40509 -1.272979,-0.28003 -0.285287,0.12489 -0.334234,0.60701 -0.285287,1.11435 0.04896,0.50729 0.195811,1.03606 -0.0321,1.23166 -0.228701,0.19574 -0.83273,0.0544 -1.689222,-0.33557 -0.856655,-0.38996 -1.966968,-1.02852 -2.766726,-1.61281 -0.798432,-0.58428 -1.288791,-1.11429 -1.435517,-1.71375 -0.146856,-0.60072 0.04896,-1.26956 0.306545,-2.15547 0.257604,-0.88591 0.577754,-1.98886 0.705909,-2.77254 0.127189,-0.78497 0.06255,-1.25316 -0.321002,-1.50176 -0.38318,-0.24976 -1.085315,-0.28002 -1.607407,-0.30415 -0.522097,-0.023 -0.865841,-0.039 -0.995362,-0.3823 -0.130804,-0.34208 -0.04895,-1.01336 0.02808,-1.7693 0.07543,-0.7559 0.144046,-1.5989 0.06139,-2.58702 -0.08386,-0.98815 -0.315777,-2.12516 -0.274851,-3.24455 0.04254,-1.11936 0.359512,-2.22362 0.533973,-4.6201 0.173336,-2.39649 0.20383,-6.086504 0.218274,-8.417371 0.01606,-2.332133 0.01606,-3.305115 -0.18096,-4.661734 -0.195805,-1.356623 -0.58822,-3.096882 -0.953108,-5.126126 -0.364728,-2.029281 -0.701851,-4.347508 -0.803647,-6.241722 -0.101915,-1.894251 0.03211,-3.365715 0.148058,-4.371488 0.113552,-1.005811 0.20343,-1.547196 0.113552,-1.807143 -0.09028,-0.2601 -0.362321,-0.237117 -0.789122,-0.08198 -0.426961,0.156288 -1.008519,0.445465 -1.602076,0.483311 -0.593557,0.03831 -1.19899,-0.178124 -1.628519,-0.352035 -0.429649,-0.175444 -0.683474,-0.309133 -1.083913,-0.357016 -0.401924,-0.04673 -0.95046,-0.0076 -1.492417,0.09462 -0.541957,0.10074 -1.075969,0.262399 -2.034374,0.389959 -0.958325,0.127559 -2.338315,0.222177 -3.596769,0.133689 -1.259697,-0.08696 -2.399142,-0.355867 -3.313852,-0.584288 -0.914791,-0.228307 -1.604725,-0.416467 -2.083286,-0.275039 -0.47848,0.141349 -0.745507,0.610794 -1.070672,0.994433 -0.325006,0.383639 -0.703215,0.678943 -1.443465,0.618381 -0.738887,-0.06052 -1.837446,-0.477029 -3.284844,-0.974247 -1.447439,-0.497219 -3.243796,-1.075223 -4.733565,-1.679699 -1.488365,-0.604475 -2.671465,-1.23676 -3.446102,-1.8551 -0.774556,-0.618381 -1.139445,-1.222856 -1.562393,-1.404581 -0.42307,-0.181573 -0.90151,0.06052 -1.217447,0.416428 -0.317382,0.355865 -0.4719,0.826613 -0.823508,1.236761 -0.353093,0.410147 -0.901549,0.759692 -1.492417,1.075184 -0.590909,0.315644 -1.225351,0.598193 -1.795115,1.183745 -0.571046,0.584287 -1.077333,1.472728 -1.578283,2.226137 -0.50099,0.753372 -0.996643,1.374281 -1.518778,2.151671 -0.522176,0.777352 -1.073401,1.708697 -1.403864,2.824293 -0.330622,1.115597 -0.440162,2.41541 -0.578911,3.814935 -0.13883,1.399525 -0.305345,2.901288 -0.327814,4.05094 -0.02006,1.150917 0.101915,1.951023 0.34908,2.575684 0.248368,0.623438 0.619878,1.070167 0.832736,1.615343 0.212658,0.545177 0.26843,1.187498 0.405856,1.706204 0.137626,0.518671 0.358308,0.912384 0.818171,1.328851 0.459983,0.416468 1.161956,0.856877 1.533385,1.699877 0.371549,0.842976 0.412476,2.091077 0.385994,3.114543 -0.02808,1.02347 -0.124385,1.82484 0.124385,2.71071 0.247164,0.88591 0.838073,1.85763 1.492417,2.81675 0.654303,0.95911 1.370761,1.90559 1.837365,2.5656 0.466562,0.65999 0.68207,1.03355 0.641102,1.32885 -0.04012,0.29534 -0.335838,0.51488 -0.741533,0.5212 -0.404492,0.008 -0.916075,-0.19919 -1.225431,-0.1743 -0.310561,0.0268 -0.417653,0.28386 -0.384792,0.61713 0.03211,0.33441 0.209048,0.74582 0.16772,1.055 -0.04132,0.30913 -0.296116,0.51487 -1.037611,0.45683 -0.741493,-0.0583 -1.966925,-0.37999 -3.1936,-1.02864 -1.226715,-0.64864 -2.452026,-1.62794 -3.058744,-2.45708 -0.606716,-0.82912 -0.593556,-1.51184 -0.491761,-2.20592 0.101916,-0.6941 0.289697,-1.40205 0.392415,-2.1378 0.101914,-0.73571 0.119168,-1.50046 -0.08587,-1.94597 -0.206238,-0.4442 -0.634524,-0.56662 -1.179129,-0.73698 -0.544605,-0.17046 -1.202921,-0.38996 -1.616642,-0.66254 -0.415084,-0.2739 -0.586855,-0.60194 -0.528675,-1.284678 0.05618,-0.684001 0.343864,-1.72134 0.512867,-3.279867 0.168922,-1.558534 0.220683,-3.638304 0,-5.924967 C 31.172428,88.321223 30.672843,85.826289 30.099148,83.815969 29.525454,81.804386 28.879053,80.276113 28.409801,79.380125 27.94059,78.4841 27.647162,78.220361 27.59821,77.79382 c -0.04895,-0.426543 0.146855,-1.01715 0.667546,-1.56865 0.520811,-0.551457 1.365464,-1.063845 2.333098,-1.896741 0.967554,-0.83416 2.056803,-1.990132 3.024356,-3.080486 0.967675,-1.090353 1.813653,-2.115088 2.452107,-3.233175 0.638456,-1.116861 1.070633,-2.327075 1.311217,-3.159972 0.241949,-0.832934 0.292104,-1.287248 0.08827,-1.645644 -0.205034,-0.357015 -0.663613,-0.617078 -1.284895,-0.933832 -0.621242,-0.316794 -1.403743,-0.690321 -1.906097,-0.707979 -0.50099,-0.01532 -0.723078,0.325604 -0.842085,0.836687 -0.118768,0.512349 -0.136022,1.19382 -0.467848,1.730185 -0.331826,0.536329 -0.978186,0.926288 -1.643083,1.365433 -0.663614,0.439183 -1.34432,0.926288 -1.651029,1.568647 -0.306549,0.641058 -0.237936,1.437372 -0.297319,2.29804 -0.05939,0.861932 -0.247165,1.78822 -0.783786,2.550479 -0.535376,0.763484 -1.421076,1.365432 -2.084569,2.027978 -0.663612,0.663813 -1.106423,1.38945 -1.233296,2.149143 -0.128397,0.759693 0.06059,1.552252 0.06902,2.330868 0.01204,0.778654 -0.165312,1.54214 -0.50099,2.560554 -0.337043,1.018414 -0.839317,2.290493 -1.098439,3.583985 -0.257596,1.29353 -0.27485,2.609776 -0.08587,4.061054 0.188984,1.451276 0.580275,3.038847 1.213394,4.509045 0.633159,1.470201 1.506982,2.824294 2.060816,3.980266 0.555117,1.155971 0.790486,2.113817 0.852598,3.042595 0.06179,0.92882 -0.04774,1.8261 0,2.86597 0.04774,1.03987 0.251176,2.22234 0.470616,3.33667 0.219478,1.11557 0.454686,2.16301 0.831372,3.06911 0.375561,0.9061 0.893644,1.66959 1.191004,2.26778 0.298925,0.59815 0.376766,1.03228 0.227504,1.33265 -0.148058,0.29916 -0.524783,0.46439 -1.074684,0.23214 -0.548537,-0.23214 -1.270331,-0.86072 -1.842662,-1.25696 -0.57241,-0.39624 -0.995359,-0.56156 -1.222782,-0.40382 -0.227504,0.15782 -0.257598,0.63604 -0.117565,1.24178 0.141238,0.60573 0.454688,1.34023 0.40044,1.70747 -0.05537,0.36735 -0.478561,0.36735 -1.239957,0.0452 -0.759992,-0.32177 -1.857186,-0.9667 -2.987403,-1.86394 -1.128812,-0.89852 -2.288079,-2.0507 -2.963609,-2.94167 -0.674124,-0.89097 -0.86307,-1.51942 -0.744182,-2.26778 0.117564,-0.74836 0.540673,-1.61656 1.156619,-2.4583 0.615945,-0.84176 1.42236,-1.65698 1.685455,-2.50755 0.262812,-0.85059 -0.01606,-1.73776 -0.485181,-2.881094 -0.467969,-1.143366 -1.124882,-2.542889 -1.386692,-3.915905 -0.260405,-1.373018 -0.127995,-2.719563 -0.227102,-4.376507 -0.100711,-1.655718 -0.433581,-3.621909 -0.757503,-5.166538 -0.323802,-1.545932 -0.637051,-2.670339 -1.089211,-3.467917 -0.452037,-0.796314 -1.041542,-1.265759 -1.24782,-1.921985 -0.206238,-0.656227 -0.02808,-1.501765 0.04895,-2.140332 0.07985,-0.638529 0.05818,-1.070128 0,-1.482803 -0.05818,-0.412674 -0.157287,-0.806389 -0.04012,-1.347772 0.117564,-0.541423 0.45216,-1.230441 0.893565,-1.949758 0.441526,-0.719356 0.991468,-1.4702 1.580972,-2.742279 0.589623,-1.272079 1.217446,-3.069109 1.925998,-4.651662 0.707148,-1.582513 1.492417,-2.951738 1.687942,-4.066071 0.194603,-1.114333 -0.20062,-1.973738 -0.92125,-3.344226 -0.720429,-1.370527 -1.764739,-3.250873 -2.339719,-4.511576 -0.575058,-1.261965 -0.680786,-1.903061 -0.942475,-2.363658 -0.263215,-0.461898 -0.683395,-0.742071 -0.798471,-1.113069 -0.114755,-0.371189 0.07422,-0.831631 0.146855,-1.253155 0.07422,-0.420222 0.0321,-0.801332 -0.161299,-1.102957 -0.191794,-0.30147 -0.532608,-0.523725 -0.790486,-0.788729 -0.257598,-0.265079 -0.426881,-0.57042 -0.395223,-0.970454 0.0321,-0.400072 0.26843,-0.894761 0.326611,-1.306171 0.05939,-0.411373 -0.05858,-0.736978 -0.31979,-1.018414 -0.26161,-0.281553 -0.668909,-0.516141 -0.828804,-0.846764 -0.160096,-0.330584 -0.07543,-0.760956 0.08065,-1.177423 0.154879,-0.417732 0.379575,-0.824087 0.272443,-1.113069 -0.107131,-0.288831 -0.544645,-0.463126 -0.774556,-0.754676 -0.229911,-0.291511 -0.251177,-0.699129 -0.149261,-1.010829 0.101914,-0.311814 0.326609,-0.524988 0.469211,-0.869479 0.142842,-0.343225 0.205035,-0.817765 0.02006,-1.21278 -0.182564,-0.395016 -0.610609,-0.711771 -0.91467,-0.971718 -0.30414,-0.26125 -0.486425,-0.464428 -0.533972,-0.678943 -0.04774,-0.214517 0.03612,-0.439183 0.320994,-0.647379 0.282874,-0.209536 0.765448,-0.403864 0.886984,-0.612059 0.12278,-0.209536 -0.112348,-0.434127 -0.515516,-0.710508 -0.401802,-0.276189 -0.970201,-0.604475 -1.21873,-0.931343 -0.247165,-0.326755 -0.171731,-0.653699 0.175744,-0.985586 0.347475,-0.331733 0.96631,-0.668867 1.350939,-0.938927 0.385994,-0.270061 0.535377,-0.474502 0.373957,-0.678943 -0.160094,-0.204557 -0.63051,-0.40762 -0.929234,-0.628455 -0.300129,-0.219496 -0.428366,-0.456842 -0.390007,-0.676414 0.03612,-0.220646 0.240745,-0.424013 0.470536,-0.58808 0.229911,-0.163951 0.486425,-0.286531 0.512866,-0.45937 0.02808,-0.174294 -0.175743,-0.397505 -0.416368,-0.649906 -0.240745,-0.252439 -0.518203,-0.530046 -0.658317,-0.792521 -0.138829,-0.262399 -0.138829,-0.508595 0.171732,-0.877063 0.31056,-0.368509 0.931883,-0.859404 1.436885,-1.32004 0.504922,-0.460634 0.893565,-0.892194 1.081266,-1.256909 0.188984,-0.365826 0.178552,-0.66634 0.04774,-0.921269 -0.132008,-0.25627 -0.383185,-0.465652 -0.57229,-0.721847 -0.188986,-0.256268 -0.314574,-0.555251 -0.357105,-0.882119 -0.04254,-0.325605 0,-0.676415 -0.231517,-0.836689 -0.229911,-0.16012 -0.734954,-0.129858 -1.265033,-0.04022 -0.53004,0.09079 -1.086562,0.239797 -1.590201,0.460634 -0.503597,0.220646 -0.955636,0.511084 -1.2544,0.536328 C 11.043143,20.910462 10.89653,20.669137 10.81861,20.357399 10.7391,20.045625 10.72827,19.665894 10.174757,19.183808 9.6209358,18.701797 8.5224971,18.118773 7.8047164,17.814619 7.0869549,17.509265 6.7485078,17.483983 6.5118556,17.322407 6.2739194,17.160753 6.1391024,16.8643 6.0928392,16.514754 6.0450915,16.166549 6.0808019,15.765136 5.8284212,15.397892 5.5708242,15.029385 5.0168302,14.693706 4.6175548,14.093023 4.2183196,13.49234 3.9751674,12.626616 3.9143392,11.741969 3.8537517,10.85732 3.9749266,9.9537479 4.2184802,9.4363437 4.4616325,8.9189008 4.8266017,8.7901913 5.0169505,8.9264855 c 0.1889847,0.1352216 0.2022257,0.5363662 0.4731439,1.1105405 0.2708379,0.575477 0.7984302,1.323832 1.5360725,1.839972 0.7376019,0.517404 1.6840099,0.801332 2.6847059,0.801332 1.0005762,0 2.0567632,-0.283851 2.9226432,-0.490896 0.865758,-0.206856 1.542532,-0.335565 2.462538,-0.377319 0.912142,-0.03448 2.077989,0.01532 3.049595,0.01915 z"
       id="path550"
       style="fill:#000000;fill-opacity:1;stroke:#000000;stroke-width:0.32289255;stroke-linecap:round;stroke-linejoin:round" />
  </g>
</svg>
