<?xml version="1.0" encoding="UTF-8" standalone="no"?>
<!-- Created with Inkscape (http://www.inkscape.org/) -->

<svg
   xmlns:dc="http://purl.org/dc/elements/1.1/"
   xmlns:cc="http://creativecommons.org/ns#"
   xmlns:rdf="http://www.w3.org/1999/02/22-rdf-syntax-ns#"
   xmlns:svg="http://www.w3.org/2000/svg"
   xmlns="http://www.w3.org/2000/svg"
   xmlns:sodipodi="http://sodipodi.sourceforge.net/DTD/sodipodi-0.dtd"
   xmlns:inkscape="http://www.inkscape.org/namespaces/inkscape"
   width="210mm"
   height="297mm"
   viewBox="0 0 210 297"
   version="1.1"
   id="svg7972"
   inkscape:version="0.92.3 (2405546, 2018-03-11)"
   sodipodi:docname="fox.svg">
  <defs
     id="defs7966" />
  <sodipodi:namedview
     id="base"
     pagecolor="#ffffff"
     bordercolor="#666666"
     borderopacity="1.0"
     inkscape:pageopacity="0.0"
     inkscape:pageshadow="2"
     inkscape:zoom="0.35"
     inkscape:cx="-70"
     inkscape:cy="560"
     inkscape:document-units="mm"
     inkscape:current-layer="layer1"
     showgrid="false"
     inkscape:window-width="1825"
     inkscape:window-height="1051"
     inkscape:window-x="2391"
     inkscape:window-y="-9"
     inkscape:window-maximized="1" />
  <metadata
     id="metadata7969">
    <rdf:RDF>
      <cc:Work
         rdf:about="">
        <dc:format>image/svg+xml</dc:format>
        <dc:type
           rdf:resource="http://purl.org/dc/dcmitype/StillImage" />
        <dc:title></dc:title>
      </cc:Work>
    </rdf:RDF>
  </metadata>
  <g
     inkscape:label="Layer 1"
     inkscape:groupmode="layer"
     id="layer1">
    <path
       inkscape:connector-curvature="0"
       d="m 93.644505,50.037201 c -0.870994,1.442863 -2.164064,3.458924 -4.095344,5.876072 -1.931381,2.4171 -4.501023,5.2337 -6.038379,7.486429 -1.539071,2.251144 -2.044342,3.938371 -2.087579,5.315187 -0.04036,1.376815 0.37889,2.441681 0.922504,3.251501 0.543463,0.809774 1.208362,1.362963 1.590532,1.823985 0.382421,0.460835 0.481811,0.831276 0.315826,0.92349 -0.165986,0.09235 -0.598304,-0.09235 -1.163511,-0.307379 -0.565006,-0.215026 -1.263152,-0.460836 -1.763479,-0.599273 -0.49846,-0.13853 -0.797688,-0.168848 -0.930627,-0.01399 -0.133696,0.153456 -0.09989,0.491713 0.381917,1.198545 0.483829,0.706879 1.414507,1.784058 2.793949,2.798223 1.381209,1.014164 3.209569,1.966853 4.746924,3.508086 1.537507,1.54128 2.785726,3.671011 3.467173,5.212245 0.681448,1.541233 0.796124,2.495507 0.892486,3.30682 0.09485,0.81136 0.171535,1.482883 0.649915,2.311127 0.476766,0.829737 1.354621,1.817781 2.784011,3.282193 1.429339,1.464412 3.410566,3.403652 6.169607,5.971358 2.75742,2.56767 6.29437,5.76236 9.07661,9.6039 2.7824,3.84158 4.81513,8.32545 6.18136,11.93806 1.36622,3.61107 2.06598,6.34782 2.68921,8.37769 0.62323,2.03141 1.17174,3.35598 1.69209,3.98291 0.52177,0.62698 1.01715,0.55473 1.23818,0.24115 0.22098,-0.31344 0.16952,-0.86817 -0.052,-1.45821 -0.22097,-0.59008 -0.61333,-1.21702 -0.66489,-1.5674 -0.0535,-0.34889 0.23459,-0.42119 0.65158,-0.36102 0.41723,0.0602 0.96564,0.25374 1.31642,0.22902 0.35216,-0.0233 0.50856,-0.26587 0.4687,-0.57777 -0.0404,-0.31344 -0.27446,-0.69914 -0.57348,-0.96346 -0.30069,-0.26447 -0.66475,-0.41046 -0.69144,-0.57777 -0.0252,-0.16885 0.28606,-0.36102 0.5984,-0.45804 0.3123,-0.0965 0.625,-0.0965 0.63822,-0.25374 0.0151,-0.15672 -0.27396,-0.47021 -0.76782,-0.81901 -0.49544,-0.34889 -1.19843,-0.73449 -1.87655,-1.08487 -0.67811,-0.3489 -1.32964,-0.66229 -1.49916,-0.9158 -0.16952,-0.25374 0.14278,-0.44544 0.80773,-0.38574 0.66485,0.0602 1.68043,0.37315 2.43665,0.67456 0.75617,0.30131 1.25155,0.59008 1.56404,0.57777 0.3123,-0.014 0.44398,-0.32557 0.0151,-1.2047 -0.43035,-0.87895 -1.41935,-2.32494 -2.50138,-3.51737 -1.08032,-1.19239 -2.25382,-2.13281 -3.25775,-2.7951 -1.00383,-0.66229 -1.83648,-1.04798 -2.16396,-1.38451 -0.32592,-0.33817 -0.14278,-0.62693 0.5086,-0.567 0.65153,0.0602 1.77175,0.47021 2.87876,1.01263 1.10685,0.54241 2.20225,1.21701 3.12798,1.60117 0.92584,0.38574 1.68034,0.48247 1.99455,0.37314 0.31229,-0.10774 0.18263,-0.42119 -0.20786,-0.89126 -0.39049,-0.47021 -1.04212,-1.0956 -1.98123,-1.80705 -0.93733,-0.70991 -2.16229,-1.50592 -3.15291,-2.20506 -0.99061,-0.69918 -1.74521,-1.30153 -2.34523,-1.89162 -0.60002,-0.59003 -1.04213,-1.1678 -1.08203,-1.42136 -0.0404,-0.25374 0.32591,-0.18144 0.97739,0.15672 0.65153,0.33817 1.59063,0.93889 2.68427,1.5182 1.09525,0.57777 2.3468,1.13249 3.52696,1.57351 1.18162,0.44077 2.29357,0.7683 2.71247,0.53014 0.42026,-0.23834 0.14782,-1.04187 -0.53025,-2.09596 -0.67968,-1.05568 -1.76681,-2.36029 -2.92028,-3.54041 -1.15518,-1.18012 -2.37671,-2.2358 -3.47701,-3.3391 -1.10034,-1.10483 -2.07759,-2.26037 -2.55294,-3.07631 -0.47525,-0.81593 -0.44902,-1.29229 -0.0252,-1.23082 0.42077,0.063 1.235,0.66537 2.10428,1.4813 0.86928,0.81593 1.7934,1.84549 2.86544,2.74901 1.07376,0.90353 2.29529,1.68261 3.27263,2.1851 0.9773,0.50249 1.71026,0.72838 1.99616,0.51475 0.28405,-0.21362 0.12159,-0.86509 -0.54356,-1.50587 -0.66475,-0.64079 -1.83325,-1.26772 -2.59441,-1.84549 -0.76126,-0.57777 -1.11367,-1.10484 -1.20847,-1.63191 -0.0948,-0.52707 0.0681,-1.05568 -0.0681,-1.55662 -0.13621,-0.50244 -0.5701,-0.97881 -1.4809,-1.8224 -0.9109,-0.84364 -2.29538,-2.051417 -3.42227,-3.183915 -1.12693,-1.132499 -1.99616,-2.18659 -2.52635,-2.977986 -0.52848,-0.791349 -0.71964,-1.318418 -0.48837,-1.3937 0.23107,-0.0751 0.88244,0.301315 1.69683,1.02951 0.81454,0.728381 1.7934,1.808639 2.92043,2.812029 1.12688,1.004975 2.40331,1.933082 3.42217,2.524702 1.01892,0.59004 1.77847,0.84051 2.17234,0.75292 0.39403,-0.0877 0.42026,-0.51476 0.17607,-1.08021 -0.24468,-0.565505 -0.76126,-1.267719 -1.54906,-2.248114 -0.78784,-0.978808 -1.84652,-2.234258 -2.82391,-3.4405 -0.97725,-1.204702 -1.87483,-2.360242 -2.25377,-3.088623 -0.3804,-0.728335 -0.24418,-1.02951 0.0252,-1.004929 0.27243,0.02799 0.67983,0.376411 1.52918,1.213937 0.85101,0.835894 2.1457,2.157391 3.32248,3.320627 1.17668,1.163236 2.2355,2.166626 2.99676,2.75671 0.76116,0.590084 1.22153,0.766769 1.41269,0.57777 0.1897,-0.188905 0.10797,-0.740648 -0.5035,-1.70719 -0.61178,-0.966541 -1.75188,-2.347975 -2.97356,-3.753989 -1.22163,-1.406015 -2.52635,-2.83661 -3.67977,-4.256431 -1.15363,-1.419868 -2.15917,-2.824343 -2.79733,-3.879973 -0.63821,-1.054138 -0.90919,-1.757938 -0.88265,-2.095962 0.0303,-0.339562 0.35215,-0.314842 0.84274,0.213627 0.48887,0.527068 1.1402,1.556578 2.09091,2.586135 0.9507,1.029557 2.19892,2.059067 3.27268,2.799715 1.07361,0.740649 1.96957,1.192435 2.45814,1.230869 0.48888,0.03732 0.57011,-0.339563 0.40715,-0.854364 -0.16296,-0.514802 -0.5701,-1.167854 -1.4809,-2.495508 -0.90919,-1.326115 -2.32198,-3.328323 -3.49038,-5.33361 -1.16841,-2.005287 -2.09096,-4.013699 -2.44493,-5.218402 -0.35266,-1.204702 -0.13622,-1.607326 0.16296,-1.531998 0.29918,0.0751 0.67812,0.628472 1.12688,1.442863 0.44902,0.815977 0.96403,1.896235 1.68367,3.025608 0.71974,1.129467 1.64385,2.309588 2.35028,2.96264 0.70642,0.653053 1.19494,0.779083 1.45431,0.614665 0.25932,-0.16465 0.28404,-0.614665 0.0151,-1.15554 -0.27243,-0.539382 -0.84269,-1.167854 -1.4809,-2.134395 -0.63816,-0.966542 -1.34458,-2.272647 -1.99611,-3.715556 -0.65158,-1.444402 -1.24983,-3.025608 -1.72534,-4.557653 -0.47525,-1.531998 -0.82932,-3.013294 -0.82932,-3.816958 0,-0.802124 0.35216,-0.928107 0.63832,-0.777543 0.28555,0.150658 0.5035,0.57777 0.74794,1.306151 0.24418,0.728335 0.51682,1.757892 1.04545,2.938013 0.5302,1.180121 1.31628,2.510853 2.07759,3.4405 0.76126,0.929693 1.49422,1.456716 1.96957,1.519731 0.47526,0.06297 0.69306,-0.339563 0.48837,-1.313801 -0.20432,-0.975777 -0.82937,-2.523167 -1.38453,-4.050548 -0.55679,-1.527426 -1.04546,-3.034843 -1.33127,-4.503873 -0.28605,-1.469029 -0.36728,-2.899625 -0.42026,-3.99215 -0.0535,-1.092525 -0.0812,-1.845487 0.0303,-2.134395 0.10796,-0.288722 0.35215,-0.111944 0.55693,0.339563 0.20433,0.451973 0.36577,1.180167 0.62322,2.185096 0.25781,1.003437 0.61163,2.28496 1.01877,3.251502 0.40714,0.966542 0.86766,1.619594 1.24822,1.945351 0.38091,0.325569 0.67983,0.325569 0.81454,-0.0751 0.13622,-0.402531 0.10796,-1.206241 0.0202,-2.460106 -0.0883,-1.25545 -0.23763,-2.9611 -0.25781,-4.391696 -0.0202,-1.430595 0.0893,-2.586135 0.26588,-3.214607 0.17608,-0.626932 0.42026,-0.728381 0.58509,-0.488634 0.16447,0.239746 0.24418,0.81593 0.35215,1.694876 0.10796,0.878945 0.24418,2.059066 0.46213,3.025608 0.21593,0.966542 0.51683,1.719504 0.84093,1.996098 0.32591,0.276595 0.67988,0.0751 0.9507,-0.514801 0.27093,-0.590037 0.46062,-1.568846 0.53691,-2.873458 0.0747,-1.304612 0.0353,-2.933442 0.28606,-4.261095 0.25074,-1.327607 0.7945,-2.358703 1.06533,-3.451229 0.27244,-1.092571 0.27244,-2.248111 0.46213,-3.22692 0.19121,-0.978856 0.57,-1.782519 0.90904,-2.059067 0.34054,-0.276594 0.63836,-0.02799 0.70642,0.414659 0.0681,0.439379 -0.0948,1.066451 -0.24419,1.719503 -0.14782,0.653053 -0.28404,1.330733 -0.32591,2.083695 -0.0404,0.752915 0.0151,1.582699 0.12259,2.246526 0.10797,0.665366 0.27093,1.167854 0.59669,1.356852 0.32592,0.188905 0.81439,0.06297 1.26477,-1.072561 0.45053,-1.135577 0.86433,-3.280701 1.15186,-4.880331 0.28757,-1.599631 0.45053,-2.653769 0.8443,-3.583416 0.39403,-0.928154 1.01887,-1.731817 1.46607,-2.297273 0.447,-0.565457 0.71964,-0.891213 0.90903,-0.941961 0.1897,-0.05084 0.29918,0.175379 0.17608,0.628518 -0.1226,0.451507 -0.47526,1.129373 -0.80107,1.845487 -0.32592,0.716067 -0.62323,1.468983 -0.8826,2.360242 -0.25932,0.891213 -0.47525,1.92077 -0.54341,2.762867 -0.0681,0.840512 0.0151,1.493564 0.23107,1.833174 0.21795,0.339563 0.5701,0.364284 1.00393,-0.138531 0.4354,-0.502488 0.95071,-1.531998 1.43938,-2.901164 0.48837,-1.36912 0.95071,-3.07477 1.34463,-4.431623 0.39403,-1.355313 0.71964,-2.360242 0.99218,-2.812029 0.27244,-0.451973 0.48887,-0.35169 0.58508,0.05084 0.0948,0.402532 0.0681,1.104839 -0.12259,2.046753 -0.19121,0.941961 -0.54357,2.120543 -0.84108,3.489709 -0.29918,1.36912 -0.54346,2.925745 -0.48837,3.75399 0.055,0.828244 0.40714,0.928107 0.90914,0.677633 0.50199,-0.250474 1.15508,-0.852825 1.80661,-1.996098 0.65153,-1.143227 1.30311,-2.824296 2.1458,-4.055119 0.84097,-1.230869 1.87321,-2.009951 2.74249,-2.624569 0.86923,-0.614665 1.57565,-1.067991 1.96957,-1.167854 0.39403,-0.09982 0.47525,0.150657 0.23107,0.565503 -0.24419,0.415125 -0.81439,0.992661 -1.4809,1.670295 -0.66651,0.677633 -1.42606,1.456715 -2.051,2.410943 -0.62484,0.954275 -1.11357,2.083695 -1.42606,3.001028 -0.3123,0.917379 -0.44902,1.61964 -0.27244,1.93313 0.17608,0.313442 0.66475,0.238347 1.24983,-0.175379 0.58347,-0.415125 1.26321,-1.167854 1.96468,-2.257301 0.69971,-1.087954 1.42268,-2.513932 2.39831,-3.761685 0.97568,-1.247754 2.20559,-2.318777 2.78401,-2.613795 0.58014,-0.295252 0.50855,0.186106 0.27244,0.765229 -0.23611,0.57777 -0.63821,1.25545 -1.17017,2.031454 -0.53181,0.776004 -1.19333,1.650332 -1.71353,2.689077 -0.52021,1.037206 -0.8992,2.240416 -0.8992,2.828914 0,0.590084 0.37889,0.568581 0.86262,0.241145 0.48534,-0.327435 1.07537,-0.961877 1.91473,-1.7932 0.83936,-0.829783 1.92634,-1.856262 2.86045,-2.599988 0.93415,-0.743727 1.71358,-1.201624 2.09252,-1.158619 0.37889,0.04198 0.35417,0.590084 -0.29565,1.419821 -0.64991,0.82983 -1.92633,1.945397 -2.8953,2.862777 -0.96912,0.918872 -1.63054,1.639557 -2.07931,2.240369 -0.44901,0.600858 -0.68639,1.081797 -0.64991,1.376816 0.0353,0.295251 0.34256,0.40393 0.87432,0.305979 0.53181,-0.09842 1.28813,-0.40393 2.15069,-1.004929 0.86262,-0.600812 1.83159,-1.496689 2.88371,-2.086773 1.05216,-0.590037 2.1857,-0.874327 2.77735,-0.863553 0.59013,0.0093 0.63831,0.316708 0.39049,0.600812 -0.24771,0.284524 -0.79279,0.545493 -1.44261,0.895877 -0.64996,0.350291 -1.40613,0.786732 -2.12748,1.32145 -0.72136,0.534765 -1.40613,1.169393 -2.08092,1.894696 -0.67494,0.725256 -1.33969,1.542773 -1.43605,2.10515 -0.0959,0.562425 0.37586,0.866679 1.14182,0.845176 0.7662,-0.02332 1.82664,-0.370347 2.87542,-0.948117 1.04884,-0.57777 2.08587,-1.384512 3.28924,-1.906963 1.20165,-0.522451 2.56964,-0.76369 3.28923,-0.76369 0.71979,0 0.78956,0.239746 0.60178,0.458036 -0.1897,0.218291 -0.6366,0.415125 -1.23838,0.676141 -0.60158,0.261202 -1.35618,0.588545 -2.11079,1.121724 -0.7546,0.533226 -1.5092,1.275413 -2.33363,1.93924 -0.82427,0.663827 -1.72024,1.252325 -2.46319,1.722536 -0.74284,0.468671 -1.33302,0.817516 -1.61545,1.209366 -0.28253,0.391804 -0.25932,0.828198 0.06,1.001851 0.31734,0.173513 0.93077,0.08769 1.73184,-0.194969 0.80117,-0.284524 1.79178,-0.76369 2.81721,-1.100221 1.02558,-0.338164 2.08601,-0.534765 2.9004,-0.610047 0.81277,-0.0751 1.37959,-0.03265 1.66202,0.119873 0.28253,0.153456 0.28253,0.414658 -0.0827,0.610047 -0.36577,0.194969 -1.09696,0.32557 -2.0626,0.673062 -0.96741,0.347492 -2.16901,0.909684 -3.2412,1.539694 -1.072,0.630011 -2.01443,1.327654 -2.60446,1.982245 -0.58836,0.653053 -0.82437,1.2631 -0.58836,1.60117 0.23611,0.338164 0.94238,0.402532 1.87321,0.250475 0.93239,-0.153457 2.08596,-0.523991 3.21779,-0.894338 1.13183,-0.370348 2.24045,-0.740649 2.86539,-0.795968 0.62499,-0.05364 0.76625,0.207563 0.63659,0.479447 -0.12966,0.273329 -0.53019,0.55622 -1.27319,0.883516 -0.74295,0.327436 -1.82821,0.697643 -2.93521,0.96962 -1.10857,0.27333 -2.2404,0.447309 -2.91201,0.686869 -0.6714,0.239746 -0.88421,0.544 -0.76444,0.7837 0.11755,0.239746 0.56506,0.415125 1.42601,0.348892 0.86101,-0.06623 2.1342,-0.370348 3.18283,-0.654592 1.04884,-0.282658 1.87483,-0.544 2.31037,-0.554728 0.4354,-0.0093 0.48383,0.229018 0.22451,0.686868 -0.25932,0.458037 -0.82614,1.132499 -1.62716,1.744039 -0.80122,0.610047 -1.83824,1.154047 -2.794,1.525887 -0.95575,0.370348 -1.82826,0.567042 -2.43998,0.882024 -0.61324,0.316708 -0.96725,0.752962 -1.03708,1.134038 -0.0696,0.381075 0.14127,0.708371 0.743,0.838972 0.60163,0.130601 1.5922,0.06437 2.63927,-0.250474 1.04883,-0.316708 2.1574,-0.882024 2.88879,-1.067944 0.72963,-0.186107 1.08365,0.0093 1.19,0.261202 0.10393,0.251874 -0.0353,0.556268 -0.5418,0.894338 -0.50698,0.338164 -1.37959,0.708371 -2.38181,1.106378 -1.00222,0.397867 -2.13414,0.822088 -3.21779,1.154001 -1.08536,0.3321 -2.12244,0.571613 -2.71086,0.909683 -0.58841,0.338164 -0.72962,0.772926 -0.38898,1.001851 0.34055,0.229018 1.16679,0.250474 2.28702,0.03265 1.11861,-0.21829 2.53306,-0.674554 3.44063,-0.871249 0.90742,-0.196835 1.30962,-0.130601 1.3912,0.06437 0.0827,0.194968 -0.15287,0.522451 -0.78961,0.882024 -0.6366,0.359619 -1.67363,0.751423 -2.6876,1.057169 -1.01382,0.304114 -2.00444,0.522451 -2.67584,0.894338 -0.67156,0.371747 -1.02558,0.894338 -0.99062,1.243136 0.0353,0.348892 0.4586,0.522451 1.30806,0.610047 0.84919,0.08769 2.12082,0.08769 3.54845,-0.07696 1.42616,-0.162785 3.00513,-0.490221 3.81781,-0.490221 0.81443,0 0.861,0.32557 0.37737,0.63155 -0.48383,0.30598 -1.49583,0.588545 -2.63941,0.849794 -1.14359,0.261202 -2.41663,0.500902 -3.56021,1.024892 -1.14343,0.522451 -2.1574,1.329193 -2.31022,1.797864 -0.15287,0.468672 0.55345,0.599273 1.5092,0.674602 0.9556,0.0751 2.15726,0.09842 3.47701,-0.07696 1.31966,-0.173513 2.75743,-0.544001 3.52363,-0.544001 0.76621,0 0.86101,0.370348 0.48383,0.751423 -0.37737,0.382475 -1.22657,0.774465 -2.25043,1.067991 -1.02558,0.293386 -2.22718,0.490174 -2.99344,0.708371 -0.7662,0.218291 -1.09696,0.458037 -1.02542,0.697597 0.0696,0.239746 0.54184,0.479446 1.36784,0.633089 0.82599,0.152057 2.00443,0.21829 2.75742,0.370347 0.7546,0.153456 1.08364,0.391804 0.91907,0.622361 -0.16447,0.229019 -0.82604,0.448708 -1.66207,0.742188 -0.83603,0.293386 -1.84985,0.665366 -2.99343,1.024939 -1.14344,0.359619 -2.41663,0.708371 -3.08803,1.100221 -0.67156,0.391803 -0.743,0.828244 -0.22451,1.132498 0.51843,0.30598 1.62705,0.4794 2.78224,0.534719 1.15519,0.05364 2.35684,-0.0093 3.31259,-0.04198 0.95404,-0.03265 1.66202,-0.03265 1.76681,0.194969 0.10696,0.229018 -0.38898,0.686868 -1.24822,1.046441 -0.861,0.35962 -2.08601,0.620822 -3.31259,0.785239 -1.22662,0.162785 -2.45164,0.229019 -3.09984,0.468672 -0.6482,0.239746 -0.71958,0.653052 -0.17607,0.948071 0.54356,0.295252 1.69703,0.468671 2.88703,0.57777 1.1902,0.109145 2.41678,0.152057 3.4306,0.07696 1.01382,-0.07696 1.81504,-0.27193 2.05105,-0.08769 0.23611,0.186107 -0.0949,0.75296 -0.7546,1.26469 -0.65986,0.51167 -1.65042,0.96957 -2.72423,1.29687 -1.07199,0.32557 -2.22718,0.52245 -3.25265,0.8052 -1.02553,0.28452 -1.92139,0.65459 -2.28702,1.06794 -0.36577,0.41326 -0.2013,0.8713 0.5186,1.05722 0.71963,0.18424 1.99283,0.0965 3.25426,0.0965 1.26159,0 2.51142,0.0877 3.1348,0.2612 0.62484,0.17352 0.62484,0.43658 0.26588,0.72992 -0.35921,0.29339 -1.07537,0.62078 -1.90646,0.87125 -0.83093,0.25048 -1.77336,0.42399 -2.76393,0.6746 -0.99061,0.25048 -2.02779,0.57777 -2.4982,0.96958 -0.47223,0.3918 -0.37738,0.84979 0.15287,1.12331 0.53019,0.27193 1.49745,0.35962 2.74566,0.28265 1.24999,-0.077 2.7824,-0.3167 3.46541,-0.23974 0.68483,0.0751 0.51864,0.46867 0.11907,0.90352 -0.40059,0.43659 -1.03718,0.91585 -2.02618,1.29692 -0.99057,0.38248 -2.33343,0.66537 -3.08803,0.96039 -0.75461,0.29338 -0.91923,0.59927 -0.75461,0.89433 0.16448,0.29339 0.65981,0.57623 1.47263,0.71915 0.81262,0.14273 1.9446,0.14133 2.52298,0.25047 0.57842,0.10915 0.60163,0.32744 0.33096,0.567 -0.27093,0.23975 -0.83598,0.50095 -1.69699,0.68687 -0.861,0.1861 -2.01442,0.29525 -2.59285,0.52245 -0.57676,0.22902 -0.57676,0.57777 -0.0949,0.80674 0.48383,0.22902 1.45099,0.33816 2.40502,0.41466 0.95404,0.077 1.89819,0.11987 2.56965,0.20756 0.6714,0.0877 1.0736,0.21829 1.24978,0.37035 0.17607,0.15206 0.12966,0.32743 -0.28556,0.54241 -0.41572,0.21503 -1.20003,0.46868 -2.169,0.66229 -0.96897,0.19357 -2.12416,0.32417 -2.97351,0.5962 -0.84763,0.27193 -1.3912,0.68691 -1.66207,1.25237 -0.27093,0.56545 -0.27093,1.28614 -0.35215,1.87468 -0.0827,0.58855 -0.24772,1.04644 -0.0827,1.34146 0.16447,0.29525 0.65985,0.42399 1.54406,0.38108 0.88421,-0.042 2.15741,-0.2612 2.75743,-0.20756 0.60163,0.055 0.53019,0.38107 0.27092,0.66536 -0.25932,0.28406 -0.70642,0.52245 -1.62721,0.6761 -0.91907,0.15205 -2.31022,0.21829 -2.99343,0.53322 -0.68307,0.31484 -0.65981,0.88357 -0.40059,1.18782 0.25932,0.30598 0.7546,0.34889 1.74522,0.33816 0.99061,-0.009 2.47484,-0.0751 3.72467,-0.20569 1.24994,-0.1306 2.26376,-0.32744 2.74577,-0.22902 0.48383,0.0965 0.43691,0.49017 -0.29766,0.9066 -0.73467,0.41653 -2.1574,0.85591 -3.36728,1.111 -1.21179,0.25514 -2.21229,0.32417 -2.95686,0.37641 -0.74471,0.0522 -1.23661,0.0877 -1.61399,0.22762 -0.37738,0.13993 -0.64154,0.38434 -0.90585,0.74065 -0.26437,0.35822 -0.52848,0.82824 -0.48181,1.16015 0.0454,0.3321 0.40562,0.524 1.32137,0.53323 0.91413,0.009 2.38675,-0.16605 3.63336,-0.2015 1.2465,-0.0327 2.26542,0.069 2.77397,0.25374 0.51032,0.18424 0.51032,0.44544 0.1226,0.62847 -0.38747,0.18284 -1.16008,0.28732 -2.14242,0.37501 -0.98234,0.0877 -2.17078,0.15673 -3.19953,0.21829 -1.02881,0.0616 -1.89642,0.11381 -2.548,0.13061 -0.65153,0.0187 -1.08536,0 -1.4244,0.1306 -0.33903,0.1306 -0.58508,0.41046 -0.68815,0.6377 -0.10393,0.22576 -0.0666,0.40114 0.54689,0.54088 0.61324,0.13993 1.80167,0.24441 2.91534,0.27053 1.11356,0.028 2.15074,-0.028 2.67922,0.11381 0.52858,0.13993 0.54846,0.47021 0.3688,0.72376 -0.17961,0.25374 -0.55678,0.42726 -1.39614,0.52245 -0.83936,0.0966 -2.14247,0.11381 -3.14293,0.0966 -1.0006,-0.0187 -1.69875,-0.069 -2.03939,0.11381 -0.34105,0.18424 -0.32087,0.60235 0.0151,0.94196 0.33046,0.34096 0.97059,0.60235 1.89642,0.72376 0.92573,0.12267 2.13243,0.10448 3.34074,0.17538 1.20831,0.069 2.41668,0.22575 3.29261,0.42725 0.87751,0.19963 1.4244,0.44544 1.6704,0.76826 0.2457,0.32277 0.18919,0.72376 -0.22602,0.84672 -0.41572,0.12313 -1.19,-0.0373 -2.0394,-0.22576 -0.8492,-0.19217 -1.77332,-0.41932 -2.93521,-0.49787 -1.16175,-0.0784 -2.55784,-0.009 -3.69981,0.014 -1.14187,0.0233 -2.02608,0 -2.61606,0.15065 -0.59003,0.15206 -0.88597,0.47945 -0.73795,0.90661 0.14782,0.42725 0.73795,0.95577 2.01604,1.61959 1.2799,0.66383 3.24776,1.46441 5.06769,2.25581 1.82009,0.79135 3.49371,1.57346 4.05383,2.02833 0.56011,0.45477 0.0151,0.58239 -1.10191,0.42725 -1.11195,-0.15532 -2.78401,-0.59162 -4.34967,-1.16477 -1.56405,-0.57316 -3.01997,-1.28153 -4.26996,-1.77329 -1.24983,-0.49017 -2.29196,-0.76369 -2.78396,-0.59157 -0.4919,0.17351 -0.43186,0.79135 0.0151,1.34607 0.44346,0.55473 1.26986,1.04645 2.59774,1.60117 1.32808,0.55473 3.15806,1.17397 4.76201,1.87469 1.60385,0.70067 2.98168,1.48284 3.80782,2.10977 0.82599,0.62847 1.10191,1.10022 0.95404,1.2923 -0.14783,0.1903 -0.71803,0.0998 -1.55406,-0.21829 -0.83603,-0.31951 -1.9397,-0.8651 -2.92199,-1.31073 -0.98234,-0.44544 -1.84986,-0.79135 -2.73583,-1.08333 -0.88578,-0.29199 -1.79163,-0.52703 -2.34186,-0.55473 -0.55183,-0.028 -0.74794,0.15532 -0.6099,0.44544 0.13773,0.29059 0.6099,0.69149 0.91413,1.06337 0.30422,0.37175 0.44346,0.71915 0.28555,1.00032 -0.15791,0.28125 -0.60991,0.50094 -0.68972,0.85441 -0.0787,0.35495 0.21593,0.84667 0.7878,1.50126 0.57171,0.65459 1.41778,1.4736 2.02446,2.1989 0.60668,0.7253 0.97563,1.35839 0.88421,1.65649 -0.0923,0.29805 -0.64154,0.2612 -1.56737,-0.26587 -0.92573,-0.52707 -2.2239,-1.54585 -3.38403,-2.55693 -1.16174,-1.00955 -2.18394,-2.00991 -2.82387,-2.41864 -0.63982,-0.41046 -0.89586,-0.22762 -0.95403,0.19963 -0.06,0.42725 0.0787,1.10022 0.35417,1.8009 0.27597,0.70072 0.68795,1.42751 0.7662,1.7917 0.0777,0.36429 -0.17607,0.36429 -0.5701,0.20897 -0.39403,-0.15533 -0.92417,-0.46411 -1.49588,-1.02798 -0.57011,-0.56396 -1.18016,-1.38297 -1.51425,-1.59198 -0.3355,-0.20896 -0.39403,0.19217 -0.10797,0.82825 0.28606,0.63616 0.91585,1.50895 0.9839,1.96382 0.0696,0.45477 -0.42227,0.49171 -0.9839,0.0816 -0.56011,-0.40859 -1.19005,-1.26463 -1.67206,-1.95458 -0.48181,-0.69149 -0.8161,-1.21856 -1.14182,-1.2923 -0.32591,-0.0737 -0.63992,0.30878 -0.70803,0.94653 -0.0681,0.63771 0.10796,1.52897 0.28404,2.27423 0.17759,0.74527 0.35417,1.34608 0.84607,2.00991 0.4919,0.66383 1.29801,1.39216 1.46592,1.81013 0.168,0.41792 -0.30423,0.52861 -1.08204,0.19963 -0.7778,-0.32743 -1.85984,-1.09098 -2.83723,-2.0176 -0.97568,-0.92657 -1.84824,-2.01601 -2.38166,-2.18659 -0.53353,-0.17071 -0.72978,0.5747 -0.86767,1.36604 -0.13823,0.79135 -0.21593,1.62883 -0.11755,2.47401 0.0974,0.84513 0.37385,1.70103 0.30422,2.15585 -0.0696,0.45477 -0.48181,0.51019 -1.00383,0.18144 -0.52192,-0.32743 -1.15185,-1.0372 -1.72195,-2.03756 -0.57011,-1.00031 -1.08204,-2.29266 -1.53403,-3.01945 -0.45205,-0.72684 -0.84602,-0.89126 -1.13198,-0.72838 -0.28555,0.16278 -0.46213,0.65459 -0.52177,1.29076 -0.0585,0.6377 0,1.41986 -0.0202,2.30189 -0.0202,0.88202 -0.11755,1.86391 -0.29564,2.37409 -0.17608,0.51014 -0.43237,0.5455 -0.67812,0.30878 -0.2462,-0.23648 -0.48181,-0.74527 -0.67983,-1.40144 -0.19626,-0.65459 -0.35417,-1.45518 -0.71803,-1.84703 -0.36375,-0.3904 -0.93416,-0.37361 -1.64053,-0.47632 -0.70632,-0.10308 -1.54739,-0.32744 -2.12244,-0.7545 -0.57504,-0.42725 -0.88421,-1.05563 -1.18339,-1.43675 -0.29917,-0.38108 -0.5868,-0.51322 -0.89591,-0.34283 -0.30927,0.17211 -0.63821,0.64848 -1.12356,1.05721 -0.48534,0.4086 -1.12355,0.75292 -1.42111,1.28461 -0.29918,0.53476 -0.25781,1.25699 -0.38394,2.23887 -0.12814,0.98035 -0.42228,2.21733 -1.14181,3.08247 -0.71803,0.86514 -1.8599,1.35685 -4.33136,1.70873 -2.47151,0.35169 -6.27611,0.56242 -9.81472,1.08949 -3.536845,0.52702 -6.809527,1.3722 -10.765221,1.82856 -3.955745,0.45803 -8.596267,0.52861 -12.058496,0.93272 -3.462077,0.40393 -5.744146,1.14328 -6.902561,1.12485 -1.160131,-0.0187 -1.198423,-0.79139 -0.704807,-1.93462 0.495433,-1.14327 1.522574,-2.65531 2.700968,-3.95684 1.178394,-1.30154 2.511421,-2.39252 3.61333,-3.53425 1.10191,-1.14169 1.977848,-2.33874 2.946818,-2.72598 0.970735,-0.38574 2.036068,0.0373 3.723214,0.41793 1.688609,0.38247 3.997266,0.72684 5.375094,0.82367 1.377828,0.0966 1.8217,-0.0522 1.700314,-0.37035 -0.121588,-0.3181 -0.807677,-0.80366 -2.092523,-1.46749 -1.284796,-0.66382 -3.162951,-1.50434 -4.913212,-2.40175 -1.748394,-0.89588 -3.365715,-1.85011 -4.356329,-2.40176 -0.990563,-0.55011 -1.354469,-0.70067 -1.627058,-0.58854 -0.272438,0.11241 -0.455577,0.4856 -0.646586,0.6162 -0.192724,0.1306 -0.394025,0.0187 -0.535138,-0.54241 -0.141264,-0.56089 -0.222995,-1.56889 -0.505372,-1.9162 -0.282528,-0.34703 -0.76782,-0.028 -1.10196,0.42119 -0.333988,0.44871 -0.516824,1.02648 -0.757931,1.24313 -0.242672,0.21503 -0.546742,0.0644 -0.757781,-0.52399 -0.212905,-0.58849 -0.333988,-1.61651 -0.354169,-2.67219 -0.02018,-1.05717 0.06155,-2.1405 -0.09081,-2.6353 -0.152868,-0.49479 -0.53529,-0.40113 -0.807879,0.009 -0.273951,0.41186 -0.433882,1.14015 -0.718025,1.49515 -0.282528,0.35496 -0.686391,0.33677 -0.95227,-0.67922 -0.265879,-1.0157 -0.390494,-3.03022 -0.433882,-4.74665 -0.04036,-1.71792 0,-3.13778 -0.142778,-4.03515 -0.141264,-0.89737 -0.465162,-1.2708 -0.757932,-1.17705 -0.294131,0.0938 -0.555167,0.6546 -0.708035,1.35527 -0.151354,0.70072 -0.191211,1.54123 -0.272438,2.18664 -0.08123,0.6454 -0.202814,1.09252 -0.364259,1.29845 -0.162958,0.2057 -0.363755,0.16885 -0.586649,-0.29805 -0.222995,-0.46713 -0.465667,-1.3645 -0.576811,-2.63376 -0.110993,-1.26925 -0.09081,-2.91194 -0.252762,-3.9184 -0.162958,-1.00806 -0.50522,-1.38144 -0.82932,-1.23237 -0.322385,0.14926 -0.626607,0.82209 -0.787849,1.63494 -0.161445,0.8129 -0.181121,1.76559 -0.210887,2.41099 -0.03027,0.64382 -0.07215,0.98189 -0.284042,1.03721 -0.211391,0.0569 -0.595074,-0.16745 -0.9109,-1.29999 -0.314313,-1.13096 -0.558397,-3.17007 -0.530194,-5.02628 0.03027,-1.85626 0.330961,-3.53272 0.191211,-4.24263 -0.139751,-0.70841 -0.721355,-0.4501 -1.603851,0.5378 -0.882597,0.98804 -2.067701,2.70755 -3.394019,5.60717 -1.324703,2.89958 -2.792284,6.98087 -3.977337,10.22775 -1.186719,3.24539 -2.09096,5.65634 -2.870484,8.03351 -0.779424,2.37717 -1.42939,4.72053 -1.957869,5.88988 -0.526864,1.17093 -0.929164,1.16785 -1.308155,0.96808 -0.37889,-0.19824 -0.734572,-0.59466 -1.316277,-0.86817 -0.58337,-0.2752 -1.391198,-0.42865 -2.055997,-0.0326 -0.664848,0.39646 -1.186819,1.33992 -1.745165,2.05291 -0.558497,0.71452 -1.151856,1.19705 -2.233888,1.65802 -1.080316,0.46084 -2.649305,0.90045 -3.944141,1.47211 -1.294785,0.57162 -2.31688,1.27388 -3.043179,1.70565 -0.728064,0.43192 -1.158566,0.59312 -1.633869,0.67148 -0.475252,0.077 -0.993945,0.069 -1.514149,-0.13666 -0.52192,-0.20617 -1.048784,-0.61005 -1.63054,-0.74219 -0.581705,-0.132 -1.219915,0.009 -1.788452,-0.042 -0.568386,-0.0508 -1.068662,-0.29199 -1.221631,-0.72069 -0.152868,-0.42865 0.03532,-1.04336 0.427324,-1.61343 0.392512,-0.57008 0.985669,-1.09869 1.35462,-1.64726 0.369305,-0.54857 0.510317,-1.12023 1.650569,-2.00379 1.141211,-0.88566 3.280302,-2.08118 5.512475,-3.1307 2.232122,-1.04952 4.560808,-1.94997 6.342601,-3.56345 1.781743,-1.61344 3.016642,-3.94145 3.983998,-6.44922 0.96897,-2.50624 1.670295,-5.19224 2.433171,-7.99657 0.763027,-2.80438 1.592398,-5.72551 2.293723,-8.4269 0.704806,-2.70293 1.283182,-5.18454 1.738506,-6.79802 0.454062,-1.61344 0.78129,-2.36024 0.71974,-2.65223 -0.06256,-0.29059 -0.518591,-0.1278 -1.274756,0.7115 -0.756368,0.83897 -1.816756,2.35562 -2.925376,4.09201 -1.108569,1.73639 -2.270314,3.69559 -3.013312,5.27064 -0.742947,1.57505 -1.071992,2.76282 -1.462586,3.7893 -0.390494,1.02494 -0.844456,1.88854 -1.938092,3.54041 -1.09192,1.65187 -2.823766,4.09048 -3.890864,6.09273 -1.067098,2.00221 -1.469246,3.56494 -2.13243,5.12157 -0.66157,1.55658 -1.585688,3.10551 -2.562932,4.21958 -0.977396,1.11403 -2.007917,1.79171 -3.38065,2.54463 -1.37132,0.75296 -3.081523,1.5812 -4.22339,2.44788 -1.140252,0.86509 -1.710353,1.77016 -2.090908,2.37251 -0.380908,0.6024 -0.570152,0.90357 -1.397858,1.11715 -0.829371,0.21363 -2.293723,0.33957 -4.126876,0.41513 -1.833303,0.0751 -4.032229,0.0998 -5.662718,0.32557 -1.630539,0.22575 -2.687648,0.65305 -3.585178,0.76677 -0.8958159,0.11241 -1.6288246,-0.0877 -2.5928504,0.063 -0.9640258,0.15065 -2.1590181,0.65305 -2.838851,0.45197 -0.6798329,-0.2015 -0.8409748,-1.10484 -0.6515297,-2.17278 0.1896974,-1.06795 0.7329583,-2.29728 1.3579505,-3.10094 0.6249922,-0.80362 1.3296472,-1.18012 2.0094801,-1.88388 0.679732,-0.7038 1.3296472,-1.73177 2.2005396,-2.37255 0.8676639,-0.64079 1.9546399,-0.89126 3.0134639,-0.60235 1.058672,0.28872 2.090757,1.1171 3.149581,1.59501 1.058672,0.47786 2.1458,0.60235 3.23101,0.40113 1.087127,-0.19963 2.172388,-0.72838 4.193471,-2.61841 2.01952,-1.89008 4.974612,-5.14466 7.07556,-8.13645 2.102563,-2.99179 3.349067,-5.72392 4.234994,-7.68159 0.885826,-1.95766 1.411076,-3.14086 2.087579,-5.40278 0.676402,-2.26192 1.502544,-5.60255 2.501382,-8.16565 0.997273,-2.56309 2.165677,-4.35172 3.295941,-5.76846 1.131827,-1.41679 2.225462,-2.46323 2.51808,-3.15472 0.292619,-0.69149 -0.219463,-1.02956 -0.711365,-0.80977 -0.491901,0.21969 -0.967355,0.99415 -1.386253,1.48437 -0.418747,0.48864 -0.78452,0.69149 -0.947327,0.55627 -0.164471,-0.13527 -0.128146,-0.60856 0.107966,-1.41679 0.237627,-0.80982 0.674738,-1.95613 0.802783,-2.86735 0.128147,-0.91122 -0.05449,-1.58578 -0.438927,-1.70411 -0.383935,-0.11847 -0.967355,0.31951 -1.587303,1.18166 -0.619896,0.86052 -1.278136,2.14205 -1.751875,2.6645 -0.473739,0.52245 -0.766205,0.28732 -0.784469,-0.35356 -0.02018,-0.64074 0.237626,-1.68723 0.766206,-2.7659 0.528579,-1.08026 1.331362,-2.19279 2.024464,-3.20542 0.693051,-1.01262 1.276522,-1.9223 1.221631,-2.39559 -0.05499,-0.47175 -0.747892,-0.50557 -1.477521,-0.23649 -0.729779,0.27054 -1.495985,0.84359 -2.189036,1.6196 -0.693102,0.776 -1.31315,1.75486 -1.841578,2.1774 -0.52863,0.42119 -0.967406,0.28732 -0.920789,-0.50403 0.04541,-0.78981 0.575045,-2.23734 1.258208,-3.58952 0.683062,-1.35378 1.520808,-2.61534 2.084249,-3.63412 0.561726,-1.01883 0.849249,-1.79325 0.693051,-2.157438 -0.156399,-0.365683 -0.754551,-0.320906 -1.557334,0.05551 -0.801219,0.376408 -1.806766,1.084828 -2.561368,1.903878 -0.754602,0.81901 -1.256493,1.74866 -1.675391,2.21271 -0.418747,0.4641 -0.754552,0.4641 -0.814388,-0.0891 -0.06004,-0.55318 0.154381,-1.66106 0.646637,-2.8443 0.490388,-1.184738 1.256493,-2.446298 2.225463,-3.463541 0.96897,-1.017243 2.14247,-1.793247 2.64436,-2.357164 0.503506,-0.563963 0.335502,-0.918918 -0.168003,-0.885102 -0.503505,0.03265 -1.341402,0.453372 -2.285399,1.018782 -0.945762,0.565456 -1.999491,1.273874 -2.680938,1.825524 -0.683164,0.553189 -0.993944,0.952689 -1.208312,1.02951 -0.215933,0.07696 -0.335502,-0.16605 -0.372332,-0.453372 -0.03532,-0.287323 0.01514,-0.617697 0.538468,-1.347618 0.52525,-0.731413 1.532413,-1.859293 2.72912,-3.131628 1.198423,-1.272335 2.58614,-2.689077 3.184595,-3.597222 0.598253,-0.906605 0.407143,-1.306151 -0.09586,-1.538201 -0.503505,-0.231817 -1.316479,-0.29805 -2.179047,0 -0.862568,0.29805 -1.771753,0.961971 -2.657731,1.870115 -0.885776,0.906605 -1.74678,2.057527 -2.321825,2.599942 -0.575046,0.542461 -0.86272,0.476367 -0.742999,-0.152057 0.120075,-0.626932 0.646636,-1.81475 1.244889,-2.695234 0.598405,-0.880485 1.269863,-1.456716 1.580644,-2.02068 0.312295,-0.563917 0.264366,-1.118645 0.634982,-1.682609 0.370313,-0.563917 1.16013,-1.140148 2.202255,-2.039103 1.040359,-0.898909 2.33358,-2.120543 3.290795,-3.34059 0.957366,-1.220095 1.580744,-2.437111 1.68876,-2.979525 0.106957,-0.542461 -0.299177,-0.410461 -0.909185,0.0093 -0.611622,0.419323 -1.424445,1.127881 -2.454815,1.54893 -1.03052,0.419323 -2.275409,0.553189 -3.041615,1.018782 -0.766307,0.4641 -1.05388,1.26156 -1.652134,1.891571 -0.598404,0.63001 -1.509203,1.095603 -2.022748,1.195513 -0.513646,0.09982 -0.634982,-0.16605 -0.382422,-0.476368 0.250743,-0.310644 0.874172,-0.665366 1.329647,-1.329193 0.453558,-0.663826 0.741232,-1.638018 1.148527,-2.401754 0.407143,-0.76369 0.934008,-1.316879 1.783357,-1.925387 0.84935,-0.608508 2.022699,-1.272335 3.015028,-1.890032 0.993943,-0.617743 1.808381,-1.189357 1.999491,-1.685687 0.19121,-0.496331 -0.241158,-0.915841 -0.96897,-1.071023 -0.729629,-0.155322 -1.76015,-0.04664 -2.669284,0.419323 -0.910951,0.4655 -1.700365,1.284602 -2.27541,1.816288 -0.575096,0.531687 -0.934159,0.774465 -1.196709,0.806742 -0.262851,0.03265 -0.43035,-0.144594 -0.250743,-0.72992 0.179607,-0.586959 0.706371,-1.582699 1.221531,-2.269568 0.51526,-0.686868 1.017252,-1.061834 1.963014,-1.516652 0.945611,-0.453373 2.333479,-0.985012 3.196047,-1.406015 0.862719,-0.419322 1.196708,-0.72992 1.220067,-1.006514 0.02523,-0.276595 -0.262852,-0.519373 -0.84935,-0.563917 -0.586699,-0.04664 -1.472626,0.110544 -2.346849,0.487095 -0.872557,0.376411 -1.735175,0.974238 -2.393365,1.406015 -0.658239,0.431916 -1.113664,0.697643 -1.316479,0.514755 -0.204328,-0.182842 -0.155895,-0.812853 0.46718,-1.536616 0.623277,-0.725256 1.819985,-1.542772 3.136414,-2.421718 1.316277,-0.877406 2.752327,-1.814749 4.010585,-2.248065 1.256493,-0.434716 2.33358,-0.368949 3.207802,-0.600859 0.872608,-0.231817 1.544167,-0.76369 1.76015,-1.306104 0.215932,-0.542461 -0.02523,-1.095651 -0.683062,-1.295377 -0.65819,-0.198234 -1.735327,-0.04664 -2.644361,0.353556 -0.910901,0.399733 -1.652133,1.040285 -2.549714,1.482836 -0.897531,0.442644 -1.95131,0.685329 -2.740723,0.740648 -0.789565,0.05504 -1.316429,-0.07696 -1.447653,-0.276594 -0.133696,-0.198234 0.130669,-0.464101 0.980574,-0.840512 0.8494,-0.376411 2.285399,-0.8636 3.267587,-1.438292 0.980725,-0.57623 1.507589,-1.240057 2.189037,-1.803974 0.683061,-0.563964 1.520807,-1.029557 2.46657,-1.372245 0.945762,-0.342828 1.99949,-0.565456 2.441596,-0.863553 0.441955,-0.298051 0.275969,-0.674602 -0.275969,-0.774465 -0.551838,-0.09982 -1.48423,0.07696 -2.393416,0.397867 -0.909134,0.320906 -1.796726,0.785193 -2.370157,0.984966 -0.575045,0.198234 -0.837645,0.132 -0.65824,-0.282658 0.178094,-0.415125 0.801219,-1.178582 1.592399,-1.870069 0.791128,-0.691626 1.746779,-1.312401 2.873662,-1.776455 1.125269,-0.4641 2.418389,-0.774465 3.016793,-1.09565 0.598253,-0.320906 0.503506,-0.653052 0.01514,-0.918872 -0.490388,-0.265867 -1.376214,-0.4655 -2.453301,-0.298051 -1.076987,0.16605 -2.346849,0.697644 -3.051504,0.885103 -0.706421,0.187506 -0.850964,0.03265 -0.382422,-0.464101 0.46718,-0.49787 1.544066,-1.338381 2.549613,-2.002208 1.003933,-0.663827 1.939655,-1.150923 2.202255,-1.604249 0.264365,-0.453372 -0.142778,-0.874327 -0.837645,-1.074101 -0.693051,-0.199633 -1.675391,-0.176778 -2.154074,-0.29805 -0.478784,-0.123138 -0.453558,-0.387139 0.120075,-0.63155 0.573481,-0.24441 1.698749,-0.465499 3.028397,-0.553189 1.329697,-0.08769 2.860494,-0.04664 3.807821,-0.09842 0.944047,-0.05551 1.304724,-0.210361 1.148526,-0.53164 -0.156399,-0.321372 -0.826142,-0.808281 -1.509204,-1.264685 -0.683162,-0.456171 -1.376213,-0.881978 -1.99949,-0.918873 -0.623227,-0.03731 -1.17345,0.319507 -1.939656,0.528608 -0.766205,0.208962 -1.74683,0.276595 -2.202255,0.155323 -0.453558,-0.121273 -0.382421,-0.431917 0.08526,-0.663827 0.46718,-0.231817 1.328083,-0.387139 2.011095,-0.697644 0.681447,-0.310177 1.185104,-0.774418 1.926336,-0.885055 0.742998,-0.110545 1.723723,0.132 2.812314,0.387139 1.088691,0.255138 2.287013,0.520958 3.543506,0.365683 1.256644,-0.155322 2.574687,-0.729874 3.914223,-1.283063 1.341402,-0.553189 2.704297,-1.084876 3.015027,-1.710268 0.312294,-0.626979 -0.430351,-1.347618 -1.577263,-2.292657 -1.145146,-0.945039 -2.697637,-2.111307 -4.263296,-3.171601 -1.567223,-1.060248 -3.151297,-2.014523 -4.482559,-3.355983 -1.331413,-1.342999 -2.410114,-3.073278 -2.84218,-4.181149 -0.431865,-1.109456 -0.215932,-1.598091 0.347105,-1.598091 0.563442,0 1.475957,0.487096 2.448257,1.186231 0.970735,0.699183 2.00282,1.607327 3.442199,2.295735 1.439379,0.688408 3.287667,1.152462 4.66711,1.908502 1.379543,0.754502 2.290343,1.796326 3.094841,2.317238 0.804398,0.520912 1.499215,0.520912 1.74012,-0.03265 0.241158,-0.553189 0.02523,-1.664185 -1.259822,-3.48663 -1.284796,-1.822399 -3.634975,-4.356294 -5.471608,-6.499925 -1.834868,-2.143584 -3.154526,-3.895319 -4.043783,-5.459594 -0.887591,-1.564321 -1.343016,-2.939598 -1.547395,-4.316414 -0.204328,-1.376815 -0.156399,-2.7551703 0.335502,-3.6878956 0.491901,-0.9327253 1.427775,-1.4213601 2.13581,-1.3983183 0.707985,0.023322 1.186668,0.5547283 1.607282,1.1755034 0.42026,0.6208218 0.78119,1.3307323 1.831588,1.9361615 1.052114,0.60543 2.795564,1.104839 4.231613,1.980706 1.437765,0.875867 2.571206,2.1267 3.440585,3.288397 0.869278,1.161697 1.477571,2.234259 2.291958,2.796636 0.814437,0.560886 1.836633,0.611587 3.12148,0.344228 1.28303,-0.267266 2.830425,-0.855904 4.279794,-1.034175 1.451033,-0.178177 2.803888,0.05084 4.377972,0.408595 1.573933,0.357754 3.369045,0.842051 4.86155,1.519684 1.49089,0.676141 2.679323,1.544312 3.618426,2.41253 0.939052,0.868171 1.628774,1.736388 2.52126,2.427875 0.892637,0.689947 1.986272,1.203163 3.274398,1.780933 1.28641,0.576231 2.769076,1.217016 3.668222,1.830141 0.897429,0.61154 1.213254,1.193928 1.859844,1.472062 0.64648,0.277993 1.62388,0.247209 2.66423,0.02799 1.0388,-0.218291 2.14419,-0.626933 3.46718,-0.568535 1.32299,0.0583 2.86877,0.582388 4.55415,0.81593 1.68528,0.233683 3.51364,0.175379 5.42166,-0.116608 1.90646,-0.291987 3.89263,-0.81593 4.82169,-0.714528 0.92916,0.101216 0.80278,0.831323 -0.20584,2.1267 -1.00893,1.295376 -2.90025,3.162366 -4.58568,4.385539 -1.68538,1.223126 -3.1679,1.807053 -4.5707,2.841227 -1.4028,1.034128 -2.72579,2.520043 -4.30144,3.540364 -1.57565,1.020321 -3.40401,1.57351 -5.37363,1.880843 -1.96942,0.305979 -4.081972,0.364284 -5.295379,0.800585 -1.213256,0.436581 -1.529081,1.252325 -1.911402,2.094422 -0.357196,0.848208 -0.806113,1.717965 -1.676955,3.160827 z"
       id="path404"
       style="fill:#000000;stroke:#000000;stroke-width:0.3995311;stroke-linecap:round;stroke-linejoin:round;fill-opacity:1" />
  </g>
</svg>
