<?xml version="1.0" encoding="UTF-8" standalone="no"?>
<!-- Created with Inkscape (http://www.inkscape.org/) -->

<svg
   xmlns:dc="http://purl.org/dc/elements/1.1/"
   xmlns:cc="http://creativecommons.org/ns#"
   xmlns:rdf="http://www.w3.org/1999/02/22-rdf-syntax-ns#"
   xmlns:svg="http://www.w3.org/2000/svg"
   xmlns="http://www.w3.org/2000/svg"
   xmlns:sodipodi="http://sodipodi.sourceforge.net/DTD/sodipodi-0.dtd"
   xmlns:inkscape="http://www.inkscape.org/namespaces/inkscape"
   width="210mm"
   height="297mm"
   viewBox="0 0 210 297"
   version="1.1"
   id="svg8538"
   inkscape:version="0.92.3 (2405546, 2018-03-11)"
   sodipodi:docname="hare.svg">
  <defs
     id="defs8532" />
  <sodipodi:namedview
     id="base"
     pagecolor="#ffffff"
     bordercolor="#666666"
     borderopacity="1.0"
     inkscape:pageopacity="0.0"
     inkscape:pageshadow="2"
     inkscape:zoom="0.35"
     inkscape:cx="-70"
     inkscape:cy="560"
     inkscape:document-units="mm"
     inkscape:current-layer="layer1"
     showgrid="false"
     inkscape:window-width="1825"
     inkscape:window-height="1051"
     inkscape:window-x="2391"
     inkscape:window-y="-9"
     inkscape:window-maximized="1" />
  <metadata
     id="metadata8535">
    <rdf:RDF>
      <cc:Work
         rdf:about="">
        <dc:format>image/svg+xml</dc:format>
        <dc:type
           rdf:resource="http://purl.org/dc/dcmitype/StillImage" />
        <dc:title></dc:title>
      </cc:Work>
    </rdf:RDF>
  </metadata>
  <g
     inkscape:label="Layer 1"
     inkscape:groupmode="layer"
     id="layer1">
    <path
       inkscape:connector-curvature="0"
       d="m 48.707925,127.8177 c 1.905208,-3.25936 3.967744,-7.36866 5.815525,-11.7607 1.847781,-4.39368 3.480983,-9.06857 4.259125,-12.56013 0.776338,-3.48999 0.695871,-5.793431 0.410191,-7.250109 -0.285679,-1.455095 -0.776338,-2.063326 -1.286197,-3.654282 -0.509685,-1.590956 -1.035137,-4.164587 -1.123343,-7.058951 -0.08786,-2.894364 0.262407,-6.109413 1.002497,-8.951649 0.739857,-2.843818 1.868843,-5.314727 2.48413,-7.551895 0.615346,-2.237121 0.718795,-4.238824 0.0768,-6.103083 -0.642051,-1.865842 -2.027858,-3.595824 -4.31853,-5.344796 -2.290555,-1.748924 -5.485742,-3.516791 -7.479331,-5.703366 -1.993414,-2.188157 -2.783134,-4.796557 -2.831193,-7.21222 -0.04655,-2.415614 0.651826,-4.641705 1.650424,-6.155211 1.000634,-1.515137 2.304112,-2.320853 2.442006,-3.221427 C 49.95025,34.387772 48.926401,33.390853 47.11126,32.83475 45.296004,32.278646 42.691085,32.163311 39.46122,31.555031 36.23153,30.9468 32.380618,29.844041 28.997441,27.698516 25.61438,25.55304 22.698821,22.363264 20.876001,19.195548 19.051146,16.02788 18.315187,12.880737 18.219243,10.536194 c -0.09542,-2.3461263 0.448592,-3.8912834 1.086862,-4.4378911 0.638211,-0.5482383 1.364684,-0.097831 2.244646,1.2970783 0.881592,1.3950535 1.912888,3.7348488 4.209262,5.4427228 2.294337,1.707873 5.855846,2.782194 8.861414,4.18986 3.005394,1.407666 5.455138,3.14556 8.138663,4.690717 2.683524,1.545109 5.597047,2.895899 8.136801,3.68742 2.539754,0.791522 4.705739,1.025357 6.626307,0.769414 1.920743,-0.256088 3.59799,-0.998502 4.541022,-1.570383 0.943033,-0.571928 1.150107,-0.971645 0.417756,-2.524667 C 61.749799,20.528977 60.07645,17.825815 57.994656,15.59186 55.913039,13.357856 53.423206,11.589989 50.99656,10.26289 48.567995,8.9342081 46.202616,8.0462943 45.019926,7.414324 43.837295,6.7839843 43.837295,6.4111229 44.900069,6.0666996 c 1.061901,-0.3443274 3.183667,-0.6588259 5.87877,-0.6445828 2.695045,0.014387 5.965114,0.3587143 9.026305,1.1469746 3.060959,0.7883563 5.913215,2.0206934 7.931589,3.5989886 2.018491,1.576712 3.19926,3.497896 3.914157,5.463248 0.713035,1.963817 0.958451,3.970267 1.079123,5.390594 0.121603,1.420326 0.121603,2.251364 0.607607,2.881703 0.486993,0.630388 1.460631,1.060126 2.606897,1.485116 1.148071,0.424894 2.466909,0.845233 3.431062,1.330264 0.962292,0.485032 1.569899,1.034805 2.144923,1.309739 0.57485,0.274791 1.121306,0.274791 1.681028,0.187989 0.561468,-0.0868 1.136725,-0.262321 1.500777,-0.150103 0.362482,0.112218 0.515503,0.511888 0.711231,0.949539 0.197241,0.437842 0.438702,0.911556 0.818521,1.211763 0.379355,0.298769 0.89317,0.424895 1.723095,0.349123 0.830041,-0.07577 1.976308,-0.350561 2.622258,-0.257526 0.647811,0.09304 0.795422,0.556103 0.90469,1.05063 0.109384,0.494479 0.176295,1.019027 0.448592,1.477203 0.272298,0.457984 0.751436,0.853098 0.887526,1.396588 0.135567,0.543491 -0.06924,1.237085 -0.283352,2.061744 -0.214696,0.824708 -0.442774,1.780576 -0.283934,2.464627 0.158841,0.684099 0.705355,1.096476 1.205672,1.508806 0.500376,0.412425 0.956415,0.824707 1.217076,1.368198 0.262406,0.54349 0.329899,1.218094 0.670852,2.113872 0.341535,0.895827 0.956648,2.011198 1.489431,3.254566 0.534703,1.241832 0.990918,2.609982 1.309122,3.913391 0.318262,1.303408 0.500375,2.53891 0.477102,3.384143 -0.02327,0.84365 -0.25077,1.293913 -0.694009,1.595655 -0.442774,0.301646 -1.104026,0.456546 -1.512297,0.805765 -0.408446,0.349123 -0.567286,0.891079 -0.899047,1.229172 -0.329317,0.336654 -0.829925,0.467575 -1.14807,0.655661 -0.318262,0.187989 -0.454411,0.431128 -0.318262,0.758335 0.135566,0.327063 0.54634,0.740975 0.613425,1.022192 0.06924,0.281025 -0.203059,0.42969 -0.784018,0.505557 -0.580668,0.07433 -1.468311,0.07433 -2.275254,0.140512 -0.807,0.06618 -1.535279,0.197581 -2.012672,0.431129 -0.477102,0.234027 -0.705355,0.571929 -0.54634,0.936877 0.15884,0.364949 0.705355,0.758336 1.646409,1.292331 0.943091,0.533995 2.28113,1.208647 3.193384,2.066492 0.912429,0.857893 1.393487,1.902193 1.934183,3.180328 0.540522,1.279719 1.138529,2.79639 1.828523,3.981298 0.690111,1.184956 1.472151,2.038101 2.420886,3.047633 0.94891,1.009531 2.06638,2.177079 2.88676,3.294081 0.82032,1.118537 1.3456,2.186527 1.93796,2.982796 0.59405,0.796269 1.25542,1.319234 3.03623,2.252946 1.78064,0.933713 4.6788,2.275055 7.39683,3.344628 2.71797,1.069573 5.25772,1.865842 7.30304,2.170749 2.04327,0.305003 3.59211,0.118452 5.21944,-0.05371 1.62732,-0.172164 3.33331,-0.329941 4.97792,-0.131401 1.64472,0.199019 3.23172,0.758384 4.67123,1.537244 1.44149,0.780492 2.73909,1.780528 3.71296,2.944911 0.97166,1.164383 1.62145,2.489899 2.58194,3.598988 0.96025,1.109089 2.23493,2.000168 4.15753,3.145564 1.92441,1.14702 4.49867,2.54835 6.43646,3.83757 1.93802,1.28916 3.24331,2.46304 4.39527,3.68747 1.15395,1.22437 2.15255,2.49939 2.68353,3.42361 0.53121,0.92421 0.59236,1.49931 0.39506,1.82474 -0.19724,0.32562 -0.65165,0.39996 -1.25926,0.32562 -0.60778,-0.0743 -1.36486,-0.3002 -1.68306,-0.12468 -0.31826,0.17552 -0.19724,0.75047 -0.0291,1.28605 0.1664,0.53716 0.37761,1.03797 0.36248,1.36186 -0.0175,0.32371 -0.25659,0.47573 -0.62099,0.53716 -0.36248,0.0633 -0.84918,0.0384 -1.39535,-0.33809 -0.54634,-0.37454 -1.15395,-1.09959 -1.62366,-1.41241 -0.46954,-0.31268 -0.8031,-0.21341 -0.89515,0.13763 -0.0908,0.35056 0.0617,0.94949 -0.16698,1.27497 -0.22634,0.32563 -0.83377,0.37454 -1.47018,0.0882 -0.63826,-0.28774 -1.30342,-0.91318 -2.16796,-1.46301 -0.86443,-0.54977 -1.92447,-1.02377 -3.66862,-1.82474 -1.74433,-0.80102 -4.1711,-1.92435 -6.04948,-3.4742 -1.88042,-1.54986 -3.21451,-3.52629 -4.43356,-5.577 -1.21911,-2.05067 -2.3232,-4.17725 -3.918,-5.727108 -1.59474,-1.549857 -3.6802,-2.524668 -5.94207,-2.968601 -2.26175,-0.444077 -4.69416,-0.358714 -7.02318,-0.02877 -2.32884,0.328502 -4.55428,0.902109 -6.86788,1.03164 -2.3136,0.129482 -4.71138,-0.186551 -6.45007,-0.587707 -1.73845,-0.401395 -2.81572,-0.887866 -3.58053,-0.729897 -0.76476,0.157777 -1.21708,0.960568 -1.33793,1.8058 -0.11985,0.845233 0.0861,1.733147 1.06004,2.406168 0.9737,0.673075 2.71221,1.131205 4.31271,1.432995 1.5987,0.3002 3.05933,0.44407 4.25919,0.97476 1.19997,0.5293 2.13916,1.44718 3.13008,2.67952 0.99109,1.23229 2.03373,2.78061 3.41971,4.17403 1.38761,1.39506 3.11472,2.63684 5.03145,3.58005 1.91493,0.94321 4.01761,1.58621 5.88849,2.21976 1.87274,0.63192 3.51543,1.25444 4.87627,2.19919 1.36102,0.9432 2.43817,2.20868 2.96345,3.00811 0.52539,0.79944 0.49863,1.13278 0.28393,1.37765 -0.21644,0.24506 -0.61918,0.39948 -0.98527,0.62247 -0.36248,0.22252 -0.68627,0.51031 -0.61913,0.93213 0.0675,0.42202 0.52539,0.97798 0.87595,1.38714 0.35084,0.41099 0.59422,0.67782 0.4579,0.9211 -0.13557,0.24314 -0.64595,0.46614 -1.56222,0.58929 -0.91615,0.12325 -2.23679,0.14387 -3.3812,-0.2134 -1.14429,-0.3568 -2.11426,-1.09331 -2.85796,-0.98268 -0.74369,0.11222 -1.26129,1.07116 -1.69446,1.7189 -0.43347,0.64617 -0.78391,0.97952 -1.63303,0.91319 -0.84913,-0.0662 -2.19677,-0.53241 -4.09627,-1.34292 -1.89951,-0.81047 -4.35117,-1.96535 -6.25068,-3.34305 -1.89951,-1.37764 -3.24697,-2.97493 -4.40481,-4.94028 -1.15779,-1.9654 -2.12765,-4.29733 -3.20107,-6.42545 -1.07342,-2.12807 -2.24831,-4.05083 -3.37736,-5.06195 -1.12898,-1.01111 -2.21014,-1.10592 -3.34873,-1.1533 -1.138528,-0.048 -2.334542,-0.048 -2.953669,0.38221 -0.617323,0.42969 -0.657528,1.28917 -1.042817,2.14864 -0.385173,0.85948 -1.119328,1.71732 -1.255418,2.48199 -0.133822,0.76313 0.327571,1.43299 0.92581,2.35562 0.597891,0.92268 1.332046,2.09968 1.891826,4.4869 0.557977,2.38718 0.941171,5.98305 0.747538,9.11753 -0.19375,3.13453 -0.966016,5.80768 -1.97049,8.14594 -1.002438,2.33821 -2.238772,4.34466 -3.609335,5.83922 -1.370563,1.49461 -2.877042,2.48204 -3.919859,3.2609 -1.04078,0.77891 -1.621623,1.35242 -1.774936,1.86114 -0.154185,0.50872 0.116948,0.95424 1.100186,1.48037 0.983412,0.52608 2.683583,1.12961 4.130773,2.166 1.449052,1.0348 2.645181,2.50098 2.76021,4.15667 0.116948,1.65575 -0.849184,3.50107 -2.259893,5.42695 -1.408906,1.92588 -3.262505,3.92917 -5.075668,5.52171 -1.813278,1.59095 -3.590251,2.76795 -5.135189,3.89756 -1.544996,1.12962 -2.855979,2.21185 -3.590134,3.05555 -0.734156,0.84365 -0.887468,1.44871 -0.212951,1.51192 0.676554,0.0647 2.181229,-0.41386 4.613693,-1.18966 2.432406,-0.77727 5.790681,-1.85481 8.861414,-2.09018 3.068814,-0.23546 5.848108,0.36831 7.971909,1.29075 2.12194,0.92268 3.59025,2.16447 4.42018,3.35729 0.8319,1.19282 1.02356,2.33821 1.31296,3.15031 0.28917,0.81204 0.67661,1.28916 1.38965,1.82949 0.71309,0.54032 1.75771,1.14544 2.27729,1.92588 0.51957,0.77886 0.51957,1.73473 0.30837,2.29083 -0.21295,0.55615 -0.63822,0.7157 -1.31297,0.54033 -0.67475,-0.17552 -1.60056,-0.6841 -2.27711,-0.90686 -0.67661,-0.223 -1.10024,-0.15969 -1.44911,0.28582 -0.34677,0.44552 -0.61727,1.27339 -1.17705,1.68735 -0.55972,0.41386 -1.40873,0.41386 -2.31545,-0.0336 -0.90853,-0.44552 -1.87269,-1.33659 -2.721871,-1.66999 -0.849126,-0.33329 -1.583281,-0.11222 -1.968453,0.42969 -0.386919,0.54033 -0.42532,1.3998 -0.753414,1.78216 -0.327572,0.38221 -0.946873,0.28582 -2.219514,-0.3333 -1.274677,-0.62089 -3.204962,-1.76633 -5.809823,-2.531 -2.606839,-0.76308 -5.888487,-1.14539 -9.227503,-1.30499 -3.33919,-0.15969 -6.737612,-0.0964 -9.210222,0.26089 -2.472669,0.35679 -4.021447,1.00641 -4.10971,1.55777 -0.08786,0.5514 1.288233,1.00483 3.44648,1.11858 2.158305,0.11222 5.10633,-0.11366 7.931763,0 2.829157,0.11222 5.537526,0.5656 7.402704,1.06799 1.865004,0.50239 2.886584,1.05221 3.492329,2.00487 0.605745,0.95424 0.7974,2.30824 1.226792,3.55319 0.429392,1.24495 1.098382,2.37773 1.863142,3.64004 0.764818,1.26236 1.629187,2.65424 1.981835,3.57688 0.354918,0.9211 0.197823,1.37611 -0.411937,1.55302 -0.607607,0.17696 -1.669508,0.0806 -3.220148,-0.21005 -1.552676,-0.29253 -3.593974,-0.77728 -4.811166,-1.0032 -1.217251,-0.22731 -1.610104,-0.19422 -1.709888,0.14531 -0.09717,0.33953 0.09833,0.98742 0.04073,1.53724 -0.05818,0.54978 -0.371791,1.0032 -0.707333,1.06799 -0.335717,0.0647 -0.686155,-0.25896 -1.613943,-0.85947 -0.925811,-0.59879 -2.426588,-1.47562 -4.761304,-2.30186 -2.336637,-0.82495 -5.51082,-1.60065 -9.453719,-2.39217 -3.94482,-0.79152 -8.656202,-1.60045 -13.48849,-2.31927 -4.832287,-0.72045 -9.785246,-1.34925 -13.099476,-1.73003 -3.314114,-0.38077 -4.991302,-0.51342 -6.507498,-0.96057 -1.516195,-0.44695 -2.869478,-1.20859 -3.956339,-1.98592 -1.086804,-0.77728 -1.907187,-1.57197 -1.989516,-2.08702 -0.0832,-0.51505 0.573104,-0.752 0.969797,-1.06641 0.395064,-0.31603 0.528885,-0.70779 0.354918,-1.25128 -0.17455,-0.54349 -0.663347,-1.23703 -0.417756,-1.78052 0.243206,-0.54508 1.219054,-0.94005 2.313596,-0.95429 1.092564,-0.0144 2.305916,0.35536 3.241269,0.30165 0.935352,-0.0523 1.596721,-0.52609 1.803736,-1.23229 0.207132,-0.70621 -0.03491,-1.6462 -1.117466,-2.52937 -1.082963,-0.88317 -3.001728,-1.70946 -4.722961,-2.33035 -1.719371,-0.62089 -3.241443,-1.03485 -4.33965,-1.61306 -1.098382,-0.57826 -1.773133,-1.32077 -2.576235,-1.65733 -0.801299,-0.33665 -1.728913,-0.26712 -2.794654,-0.0772 -1.065797,0.18943 -2.267629,0.49928 -2.999748,0.64147 -0.732294,0.14243 -0.996794,0.11365 -1.071618,-0.0758 -0.07564,-0.18943 0.04073,-0.54349 0.312444,-0.93688 0.272297,-0.39324 0.701514,-0.82787 0.783902,-1.12017 0.0832,-0.29205 -0.182114,-0.44072 -0.63443,-0.42825 -0.452083,0.0144 -1.096345,0.18943 -1.663806,0.44072 -0.569031,0.25129 -1.063763,0.57668 -1.408731,0.80102 -0.346771,0.22443 -0.544594,0.34576 -0.684408,0.29877 -0.140222,-0.048 -0.22226,-0.26377 -0.123349,-0.63826 0.100075,-0.37454 0.379355,-0.90215 0.939193,-1.43298 0.559722,-0.52925 1.399189,-1.05855 2.100704,-1.51356 0.699711,-0.4551 1.259433,-0.83574 1.449226,-1.10746 0.189677,-0.27191 0,-0.43448 -0.402627,-0.48978 -0.410192,-0.0551 -1.054163,0 -1.803737,0.16929 -0.749399,0.16929 -1.606205,0.45511 -2.438166,0.71254 -0.831903,0.25609 -1.638846,0.48503 -2.035538,0.48503 -0.39681,0 -0.377609,-0.22731 -0.187932,-0.58459 0.189677,-0.35728 0.553904,-0.84048 1.167329,-1.32552 0.613483,-0.48503 1.477853,-0.97006 2.346295,-1.40296 0.868209,-0.43113 1.740433,-0.81363 1.979973,-1.20385 0.239715,-0.39037 -0.154185,-0.78994 -1.071443,-0.88317 -0.918247,-0.0949 -2.35764,0.11845 -3.438742,0.28294 -1.079182,0.16449 -1.7979184,0.27959 -2.2714713,0.36495 -0.4736111,0.0854 -0.7015146,0.14387 -0.8319031,0.0662 -0.1309121,-0.0772 -0.15884,-0.29205 0.1687313,-0.63039 0.3298986,-0.33953 1.0158782,-0.80413 1.8305591,-1.17383 0.814623,-0.36974 1.755677,-0.64304 2.595319,-0.86264 0.841445,-0.22108 1.58328,-0.38701 1.813278,-0.62564 0.228078,-0.2369 -0.05818,-0.54819 -0.630531,-0.76936 -0.573104,-0.223 -1.437706,-0.35728 -2.305915,-0.41866 -0.868384,-0.0633 -1.740492,-0.0523 -2.40186,0 -0.66131,0.0537 -1.1097277,0.15154 -1.3263437,0.0633 -0.2187688,-0.0868 -0.2071321,-0.36015 0.1186937,-0.6525 0.3240803,-0.29205 0.9603133,-0.60194 1.80362,-0.82154 0.843424,-0.21964 1.893804,-0.34432 2.852256,-0.48028 0.958451,-0.13572 1.824857,-0.28103 2.286832,-0.48503 0.463719,-0.20382 0.521321,-0.46614 0.406118,-0.70938 -0.115203,-0.24313 -0.404373,-0.46613 -1.038802,-0.66673 -0.634546,-0.20046 -1.613943,-0.37742 -2.566693,-0.4882 -0.954611,-0.10886 -1.880422,-0.15154 -2.5647144,-0.23691 -0.686096,-0.0854 -1.1308482,-0.21484 -1.1807112,-0.42009 -0.046547,-0.20526 0.2914977,-0.48504 0.9775355,-0.75517 0.6862701,-0.27 1.7155311,-0.53242 2.6606001,-0.67461 0.946873,-0.14051 1.809439,-0.16257 2.614578,-0.17072 0.804964,-0.01 1.550639,-0.005 1.966591,-0.1597 0.417755,-0.1549 0.506194,-0.46901 0.235642,-0.80101 -0.26997,-0.33186 -0.902712,-0.68103 -1.809439,-1.15499 -0.906552,-0.47381 -2.089299,-1.07432 -3.030529,-1.58462 -0.941054,-0.51031 -1.636867,-0.93055 -2.0144758,-1.28447 -0.3776088,-0.35392 -0.4293918,-0.64142 -0.2414602,-0.81838 0.1879317,-0.17696 0.617324,-0.24314 1.334082,-0.10406 0.718911,0.13763 1.725248,0.48028 2.779469,0.74572 1.052359,0.26568 2.154406,0.45367 2.946163,0.50872 0.791582,0.0551 1.274619,-0.024 1.236276,-0.36015 -0.04073,-0.33665 -0.603767,-0.93529 -1.286197,-1.64308 -0.682431,-0.70779 -1.481693,-1.52775 -2.265711,-2.12337 -0.783902,-0.59562 -1.55064,-0.9669 -2.330702,-1.24653 -0.782156,-0.27815 -1.579441,-0.4647 -1.729088,-0.71254 -0.14953,-0.24794 0.346772,-0.55769 1.044679,-0.63825 0.699653,-0.0806 1.60254,0.0681 2.488029,0.46469 0.885606,0.3966 1.757714,1.04114 2.442006,1.47399 0.684235,0.43305 1.180712,0.65725 1.451031,0.60037 0.270551,-0.0566 0.315934,-0.39036 0.02327,-0.88 -0.293243,-0.48978 -0.923833,-1.13436 -1.414608,-2.07124 -0.488738,-0.93688 -0.835743,-2.166 -0.943033,-2.96702 -0.107638,-0.8026 0.02327,-1.17862 0.258916,-1.23075 0.235641,-0.0523 0.577177,0.21484 0.91813,0.69043 0.341535,0.47572 0.682431,1.15805 1.153947,1.77578 0.471284,0.61614 1.073421,1.16596 1.648388,1.53408 0.577177,0.3683 1.129042,0.55615 1.454926,0.49447 0.325826,-0.0599 0.423573,-0.3683 0.187931,-0.99058 -0.235641,-0.62243 -0.805138,-1.56089 -1.092503,-2.56097 -0.289752,-1.00167 -0.297316,-2.06491 -0.112293,-2.76009 0.183859,-0.69513 0.563795,-1.02056 0.82806,-1.0759 0.264734,-0.0551 0.411937,0.16257 0.502121,0.60511 0.09077,0.44072 0.124512,1.10751 0.354918,1.86743 0.229823,0.7615 0.659331,1.61622 1.086803,2.20235 0.429392,0.58459 0.856864,0.89582 1.251753,0.91002 0.395064,0.0144 0.753239,-0.27 0.975499,-0.91947 0.22226,-0.64933 0.30488,-1.66361 0.44452,-2.62739 0.141385,-0.96215 0.340953,-1.87529 0.707391,-2.57838 0.364226,-0.70304 0.89701,-1.19599 1.253556,-1.36815 0.358409,-0.17216 0.540522,-0.0192 0.51783,0.28774 -0.02327,0.30788 -0.258915,0.77411 -0.416009,1.35079 -0.159422,0.57509 -0.24146,1.26073 -0.17455,2.00803 0.06633,0.74731 0.281607,1.55619 0.548086,1.96065 0.266479,0.40428 0.582646,0.40428 1.02158,-0.23211 0.439283,-0.63671 1.000634,-1.9101 1.495075,-3.10134 0.496302,-1.19124 0.925811,-2.30033 1.374403,-2.83116 0.448592,-0.53083 0.916268,-0.48503 1.102222,-0.0537 0.185604,0.42969 0.09367,1.24653 -0.01746,2.09335 -0.102984,0.84681 -0.214696,1.72365 -0.279861,2.55469 -0.06458,0.83103 -0.08437,1.61623 0.17804,1.9559 0.260661,0.33809 0.803103,0.23067 1.382084,-0.18655 0.578922,-0.41722 1.196013,-1.14386 1.71169,-1.62256 0.517831,-0.48028 0.931513,-0.71412 1.242037,-0.72198 0.312443,-0.01 0.519575,0.21005 0.377609,0.8705 -0.141386,0.66041 -0.632568,1.76634 -1.067604,2.75376 -0.43521,0.98742 -0.810782,1.85951 -0.868383,2.50884 -0.05818,0.65091 0.203059,1.07907 0.751377,1.08065 0.548086,0.003 1.382141,-0.42201 2.608875,-1.50722 1.228655,-1.08693 2.846438,-2.83432 4.531306,-4.91185 1.688651,-2.06807 3.436822,-4.47429 5.342147,-7.73202 z"
       id="path420"
       style="fill:#000000;stroke:#000000;stroke-width:0.43505254;stroke-linecap:round;stroke-linejoin:round;fill-opacity:1" />
  </g>
</svg>
