<?xml version="1.0" encoding="UTF-8" standalone="no"?>
<!-- Created with Inkscape (http://www.inkscape.org/) -->

<svg
   xmlns:dc="http://purl.org/dc/elements/1.1/"
   xmlns:cc="http://creativecommons.org/ns#"
   xmlns:rdf="http://www.w3.org/1999/02/22-rdf-syntax-ns#"
   xmlns:svg="http://www.w3.org/2000/svg"
   xmlns="http://www.w3.org/2000/svg"
   xmlns:sodipodi="http://sodipodi.sourceforge.net/DTD/sodipodi-0.dtd"
   xmlns:inkscape="http://www.inkscape.org/namespaces/inkscape"
   width="210mm"
   height="297mm"
   viewBox="0 0 210 297"
   version="1.1"
   id="svg6840"
   inkscape:version="0.92.3 (2405546, 2018-03-11)"
   sodipodi:docname="moose.svg">
  <defs
     id="defs6834" />
  <sodipodi:namedview
     id="base"
     pagecolor="#ffffff"
     bordercolor="#666666"
     borderopacity="1.0"
     inkscape:pageopacity="0.0"
     inkscape:pageshadow="2"
     inkscape:zoom="0.35"
     inkscape:cx="-70"
     inkscape:cy="560"
     inkscape:document-units="mm"
     inkscape:current-layer="layer1"
     showgrid="false"
     inkscape:window-width="1825"
     inkscape:window-height="1051"
     inkscape:window-x="2391"
     inkscape:window-y="-9"
     inkscape:window-maximized="1" />
  <metadata
     id="metadata6837">
    <rdf:RDF>
      <cc:Work
         rdf:about="">
        <dc:format>image/svg+xml</dc:format>
        <dc:type
           rdf:resource="http://purl.org/dc/dcmitype/StillImage" />
        <dc:title></dc:title>
      </cc:Work>
    </rdf:RDF>
  </metadata>
  <g
     inkscape:label="Layer 1"
     inkscape:groupmode="layer"
     id="layer1">
    <path
       inkscape:connector-curvature="0"
       d="m 54.328919,80.890548 c 1.395254,1.200034 3.373709,2.781966 5.855963,3.921793 2.480873,1.138738 5.465409,1.834212 9.14911,2.003172 3.683702,0.167905 8.067995,-0.192144 13.318955,-0.851718 5.250825,-0.65961 11.37126,-1.618956 17.938163,-2.022808 6.56846,-0.403887 13.5848,-0.252209 18.42149,0.193197 4.83677,0.445513 7.49375,1.184965 9.69098,1.728867 2.19741,0.542743 3.93498,0.888742 5.63576,0.754522 1.70088,-0.134184 3.36355,-0.747566 4.83527,-1.65366 1.47024,-0.90497 2.74953,-2.101527 3.57799,-3.037724 0.82832,-0.936198 1.20875,-1.61316 1.50836,-1.762448 0.2996,-0.149289 0.51999,0.227972 0.39813,0.747567 -0.11904,0.519594 -0.57869,1.180363 -0.87834,1.628229 -0.29961,0.448989 -0.43915,0.685076 -0.35979,0.747531 0.0789,0.06358 0.37896,-0.04742 0.74905,-0.196709 0.37004,-0.149289 0.80938,-0.337919 0.97969,-0.244131 0.17031,0.09484 0.0695,0.472138 -0.25993,0.849399 -0.32903,0.37842 -0.8886,0.755681 -1.4981,1.093601 -0.60951,0.337919 -1.26749,0.63762 -1.54814,0.8899 -0.28043,0.25221 -0.18057,0.457104 0.15872,0.527674 0.33929,0.0706 0.9195,0.007 1.46873,-0.06253 0.54936,-0.07166 1.06935,-0.149289 1.28816,-0.03934 0.2189,0.109947 0.13955,0.409648 -0.37004,0.63762 -0.50974,0.227973 -1.44836,0.385376 -2.47638,0.71634 -1.0297,0.330893 -2.14738,0.834365 -2.8436,1.341208 -0.69774,0.506879 -0.97095,1.0172 -1.25874,1.242854 -0.28801,0.225513 -0.59051,0.165447 -1.06484,0.186171 -0.47303,0.02108 -1.11781,0.11908 -1.77288,0.09941 -0.65654,-0.02108 -1.32481,-0.159827 -1.76695,-0.114513 -0.44227,0.04531 -0.65502,0.273286 -0.61834,0.432831 0.0402,0.158422 0.32904,0.247644 0.50523,0.327381 0.1761,0.07974 0.23941,0.149289 0.15292,0.21884 -0.0896,0.06955 -0.32903,0.140156 -0.40972,0.243077 -0.0825,0.104326 -0.0134,0.243077 0.27196,0.309115 0.27776,0.06463 0.75779,0.05445 1.2616,0.08465 0.50535,0.03161 1.03558,0.09941 1.29261,0.209356 0.25993,0.108893 0.24655,0.258181 0.0508,0.337919 -0.19527,0.07974 -0.57423,0.08922 -0.9972,0.134184 -0.4231,0.04531 -0.89017,0.123646 -1.12949,0.259235 -0.23941,0.135238 -0.25279,0.322815 -0.0495,0.521878 0.20285,0.199168 0.61833,0.407364 1.11625,0.638814 0.49791,0.231485 1.0796,0.484854 1.36306,0.716304 0.28356,0.231486 0.27196,0.439752 0.14534,0.599438 -0.12617,0.159827 -0.36559,0.268368 -0.66247,0.268368 -0.29648,0 -0.64915,-0.109946 -1.02227,-0.189684 -0.37138,-0.07974 -0.76368,-0.128564 -1.01494,-0.05901 -0.25101,0.06955 -0.36559,0.258181 -0.31566,0.437433 0.0517,0.179498 0.26572,0.348457 0.61259,0.487173 0.34641,0.13875 0.82689,0.248697 1.18668,0.383056 0.35979,0.134185 0.59926,0.292606 0.58606,0.392296 -0.0134,0.09941 -0.27776,0.140155 -0.66827,0.114513 -0.39234,-0.02459 -0.90911,-0.114513 -1.18089,-0.09941 -0.27152,0.01405 -0.29649,0.134184 -0.15694,0.283473 0.13955,0.149288 0.44228,0.328786 0.62422,0.497605 0.18235,0.16896 0.24521,0.328786 0.15114,0.398091 -0.0945,0.06955 -0.34642,0.04988 -0.65503,-0.07974 -0.30986,-0.129617 -0.67566,-0.367987 -0.92092,-0.447865 -0.24522,-0.07868 -0.37139,0 -0.38476,0.144722 -0.0134,0.144722 0.0896,0.352953 0.31877,0.612188 0.22916,0.259236 0.589,0.568175 0.97238,0.892219 0.38342,0.325274 0.7902,0.664246 0.95913,0.893378 0.16897,0.22902 0.0981,0.34845 -0.0401,0.36219 -0.13955,0.014 -0.34954,-0.0776 -0.71673,-0.32528 -0.36737,-0.247635 -0.89003,-0.651487 -1.28072,-0.835516 -0.391,-0.184064 -0.64629,-0.14683 -0.70505,0.0281 -0.0588,0.173526 0.0816,0.486049 0.31431,0.817006 0.23229,0.3309 0.5582,0.67928 0.87987,1.05075 0.32011,0.37146 0.63452,0.76608 0.72698,1.02763 0.0932,0.26134 -0.0357,0.38998 -0.21444,0.39462 -0.18057,0.004 -0.41285,-0.11452 -0.76368,-0.37147 -0.34954,-0.25678 -0.81522,-0.65153 -1.17064,-0.82049 -0.35534,-0.17001 -0.59925,-0.11451 -0.70942,0.10081 -0.1119,0.21533 -0.0883,0.59136 0.0178,0.96746 0.10611,0.37723 0.29248,0.75333 0.57438,1.16186 0.28177,0.40964 0.6594,0.85055 0.74468,1.08545 0.086,0.23359 -0.12037,0.26134 -0.35979,0.1665 -0.23941,-0.0948 -0.5141,-0.31123 -0.81807,-0.46403 -0.30273,-0.1528 -0.63452,-0.24307 -0.8005,-0.15736 -0.16452,0.0857 -0.16452,0.34599 -0.0223,0.6353 0.14266,0.28804 0.42889,0.60291 0.75935,1.07737 0.33036,0.4733 0.70349,1.10632 0.7285,1.46619 0.0267,0.36107 -0.30272,0.44902 -0.6404,0.30314 -0.33795,-0.14577 -0.68583,-0.52767 -1.06921,-0.77184 -0.38343,-0.24413 -0.8005,-0.35056 -1.07073,-0.25326 -0.27018,0.0973 -0.39501,0.39921 -0.37183,0.7684 0.0223,0.36798 0.19082,0.8031 0.354,1.33541 0.16317,0.53234 0.32145,1.16189 0.28623,1.52987 -0.0312,0.36799 -0.25859,0.47562 -0.48316,0.3865 -0.22471,-0.0892 -0.45096,-0.37262 -0.70942,-0.69663 -0.25859,-0.32387 -0.55231,-0.6874 -0.85628,-0.77188 -0.30406,-0.0843 -0.6199,0.111 -0.71535,0.45247 -0.0954,0.34143 0.0267,0.82973 0.19662,1.3528 0.16763,0.52307 0.38208,1.08085 0.36425,1.47083 -0.0178,0.38997 -0.26439,0.61215 -0.47878,0.66077 -0.21446,0.0485 -0.39368,-0.0752 -0.46123,-0.31474 -0.0674,-0.23956 -0.0223,-0.5948 -0.13063,-0.85172 -0.10611,-0.25677 -0.36559,-0.4166 -0.54642,-0.31017 -0.18056,0.10644 -0.28177,0.4791 -0.33171,0.83437 -0.0494,0.35527 -0.0494,0.692 -0.0134,0.98478 0.0401,0.2926 0.11903,0.54042 -0.0674,0.68739 -0.18502,0.14578 -0.63603,0.19109 -0.86653,0.54506 -0.2305,0.35412 -0.24254,1.02068 0.30273,2.26353 0.54486,1.24402 1.64354,3.06432 2.60704,4.31529 0.96493,1.25097 1.79339,1.93025 2.58939,2.34337 0.79614,0.41313 1.55696,0.5601 2.15773,0.6006 0.60067,0.0393 1.03983,-0.0281 1.47171,0.0938 0.43202,0.12048 0.85485,0.427 1.17644,0.7927 0.32145,0.36683 0.54049,0.79386 0.48173,1.20004 -0.0588,0.40617 -0.39814,0.7927 -0.82833,1.68492 -0.43201,0.89222 -0.95619,2.289 -1.20885,4.05373 -0.25413,1.7648 -0.23807,3.89755 -0.13954,6.39714 0.099,2.49961 0.27775,5.36606 0.51998,7.0984 0.24253,1.73354 0.54638,2.33298 0.66542,2.86645 0.11903,0.53347 0.0517,0.99985 0.0602,1.32617 0.0134,0.32633 0.0932,0.51264 0.27775,0.82626 0.18637,0.31368 0.47433,0.7522 0.49934,1.18615 0.0267,0.43396 -0.21132,0.85984 -0.32903,1.18848 -0.11903,0.32879 -0.11814,0.55894 -0.058,0.81006 0.0601,0.2501 0.18056,0.52191 0.16452,0.85056 -0.0134,0.32984 -0.16318,0.71862 -0.29069,0.87139 -0.12617,0.1528 -0.23184,0.0706 -0.36559,-0.0474 -0.13509,-0.11803 -0.29961,-0.27083 -0.53024,-0.24062 -0.23184,0.0281 -0.53023,0.24062 -0.77701,0.73597 -0.24655,0.49532 -0.44048,1.2718 -0.46264,1.87819 -0.0223,0.6064 0.12795,1.04151 0.0312,1.52521 -0.0967,0.48257 -0.44093,1.01259 -1.05459,1.55646 -0.614,0.5439 -1.49824,1.10052 -2.36633,1.49745 -0.86796,0.39578 -1.71987,0.63186 -2.11502,0.64921 -0.39635,0.0176 -0.33616,-0.18301 -0.17922,-0.48836 0.15737,-0.3056 0.4115,-0.71862 0.43335,-0.93616 0.0223,-0.21744 -0.1868,-0.24168 -0.52292,-0.10644 -0.33617,0.13559 -0.79908,0.43048 -1.15888,0.58901 -0.35979,0.15842 -0.61245,0.18266 -0.76225,0.0822 -0.14979,-0.10081 -0.19393,-0.32387 0.0745,-0.71862 0.27019,-0.39461 0.85179,-0.9605 1.38946,-1.531 0.53755,-0.57169 1.03101,-1.14797 1.68166,-1.74277 0.65067,-0.59484 1.45705,-1.20699 2.0255,-1.86892 0.56835,-0.66309 0.89747,-1.37595 0.96355,-2.02632 0.0673,-0.6515 -0.12618,-1.23938 -0.1498,-1.76937 -0.0223,-0.53003 0.12617,-1.00101 0.32189,-1.42917 0.19394,-0.42819 0.43336,-0.81237 0.49341,-1.19311 0.0601,-0.3807 -0.0602,-0.75796 -0.10388,-1.104 -0.0446,-0.346 -0.0133,-0.66193 0.0745,-1.04035 0.0896,-0.37838 0.23942,-0.81929 0.21,-1.83186 -0.0312,-1.01256 -0.23942,-2.59449 -0.39681,-4.32339 -0.15693,-1.72887 -0.26126,-3.60474 -0.51998,-5.23181 -0.25724,-1.6282 -0.66822,-3.00878 -1.23078,-4.37546 -0.56256,-1.36667 -1.28085,-2.71831 -1.94319,-3.59434 -0.66247,-0.87715 -1.26904,-1.27756 -2.17084,-1.72539 -0.90184,-0.44786 -2.09593,-0.94199 -3.12706,-1.60856 -1.0311,-0.66656 -1.8962,-1.50556 -2.42786,-2.52968 -0.5318,-1.02416 -0.72856,-2.23459 -1.03409,-2.93357 -0.30539,-0.69896 -0.71967,-0.88527 -1.35865,-1.19308 -0.64031,-0.30912 -1.50697,-0.74065 -2.137,-1.17345 -0.63014,-0.43279 -1.02377,-0.86791 -1.31317,-1.23474 -0.28801,-0.36686 -0.46853,-0.66656 -0.78138,-0.79386 -0.31298,-0.12716 -0.75788,-0.0822 -1.40127,0.0485 -0.64321,0.12962 -1.48629,0.34495 -1.91969,0.52539 -0.43336,0.18056 -0.45534,0.32282 -0.44941,0.6006 0,0.27785 0.0402,0.68856 -0.0134,0.93852 -0.0446,0.25115 -0.17031,0.34038 -0.29069,0.46634 -0.11904,0.12505 -0.23362,0.28699 -0.17031,0.67696 0.0615,0.39001 0.30273,1.00912 0.75931,2.01013 0.45672,0.99981 1.13101,2.38156 1.96664,3.60474 0.83577,1.22202 1.83454,2.28668 2.67468,3.09789 0.84023,0.81122 1.52027,1.37016 1.79784,1.89091 0.27777,0.52072 0.15293,1.00329 -0.15291,1.47315 -0.30541,0.46866 -0.7932,0.9246 -1.61127,1.88279 -0.81816,0.95818 -1.96522,2.41974 -2.89501,4.03293 -0.92976,1.61316 -1.6406,3.37909 -2.31039,5.0397 -0.66978,1.65946 -1.29686,3.21245 -1.64497,4.43215 -0.34819,1.21971 -0.41863,2.10501 -0.47878,2.82942 -0.0615,0.72442 -0.11324,1.288 -0.17031,1.73814 -0.058,0.45015 -0.12037,0.78923 -0.12037,1.15722 0,0.36799 0.0615,0.7638 0.0312,0.99869 -0.0312,0.23605 -0.15738,0.31017 -0.34508,0.29295 -0.18948,-0.0176 -0.44049,-0.1261 -0.67571,-0.22691 -0.2363,-0.0994 -0.45672,-0.19109 -0.64335,-0.0927 -0.18948,0.0994 -0.34642,0.38766 -0.5713,0.69319 -0.2247,0.3042 -0.51704,0.62491 -0.81522,0.92113 -0.29826,0.29612 -0.60219,0.56937 -0.75935,0.91884 -0.15738,0.35057 -0.16764,0.77999 -0.40839,1.26948 -0.24075,0.4895 -0.7108,1.03803 -1.23373,1.44884 -0.52292,0.41081 -1.1001,0.68276 -1.759631,0.95935 -0.659397,0.27644 -1.404122,0.55662 -1.969624,0.72673 -0.56551,0.16896 -0.951693,0.22692 -1.15152,0.17704 -0.199734,-0.0499 -0.209989,-0.20724 -0.01783,-0.45826 0.193936,-0.25221 0.59194,-0.59828 0.769691,-0.8957 0.177893,-0.29612 0.136424,-0.5439 -0.03565,-0.59016 -0.171644,-0.0453 -0.475978,0.111 -0.843209,0.30104 -0.365589,0.18968 -0.796008,0.41312 -1.17795,0.50684 -0.383425,0.0948 -0.716736,0.0625 -0.812145,-0.0822 -0.09452,-0.14472 0.05306,-0.40037 0.439153,-0.8089 0.387881,-0.40848 1.016335,-0.96974 1.575954,-1.46039 0.559609,-0.49068 1.05316,-0.91192 1.771316,-1.30306 0.716824,-0.3923 1.65981,-0.75565 2.508695,-1.4384 0.84896,-0.68276 1.60248,-1.68609 2.28252,-2.74611 0.68146,-1.06117 1.28816,-2.17905 2.00052,-3.5897 0.71228,-1.41066 1.52892,-3.11293 2.33531,-5.29082 0.80639,-2.1779 1.60248,-4.83256 1.94319,-6.89475 0.34062,-2.06331 0.22604,-3.53645 -0.24834,-4.93555 -0.47445,-1.39794 -1.31009,-2.72295 -2.29861,-3.75287 -0.98851,-1.02991 -2.12981,-1.76592 -2.87,-2.65466 -0.73879,-0.88874 -1.07666,-1.93025 -1.23671,-2.95904 -0.16005,-1.02876 -0.14267,-2.04248 -0.38476,-2.74839 -0.24388,-0.70475 -0.7446,-1.10052 -1.41438,-1.08085 -0.669784,0.0211 -1.506942,0.45711 -2.548327,0.9466 -1.041348,0.48952 -2.288453,1.03227 -3.256321,1.31809 -0.967875,0.28593 -1.655358,0.31474 -1.943192,0.23395 -0.288012,-0.0797 -0.177891,-0.27083 -0.158719,-0.49761 0.01783,-0.22692 -0.05528,-0.49065 -0.566929,-0.62374 -0.51267,-0.13208 -1.45999,-0.13208 -3.268001,-0.38998 -1.806674,-0.25818 -4.473907,-0.77303 -7.028164,-1.32505 -2.552785,-0.55198 -4.993889,-1.13754 -6.907698,-1.62704 -1.912383,-0.48836 -3.298898,-0.88066 -4.094899,-0.84708 -0.796135,0.0351 -1.003272,0.48834 -1.672967,2.29824 -0.669784,1.80874 -1.802215,4.97145 -2.853816,7.3588 -1.053161,2.38732 -2.025536,4.00167 -3.237238,5.80462 -1.211835,1.80295 -2.662997,3.79453 -3.523645,5.56394 -0.860737,1.77052 -1.131005,3.31891 -1.3924,4.65548 -0.263046,1.33777 -0.518422,2.46607 -0.590381,3.36637 -0.07178,0.90149 0.04013,1.57498 0.160057,2.22651 0.121713,0.65149 0.251007,1.28103 0.223365,1.75085 -0.02675,0.4687 -0.214449,0.77651 -0.231836,1.28107 -0.01784,0.50453 0.130631,1.20699 0.09184,1.77053 -0.03567,0.56358 -0.259924,0.98829 -0.446508,1.18616 -0.186361,0.19776 -0.334825,0.16896 -0.566929,0 -0.231836,-0.16896 -0.549318,-0.47677 -0.892971,-0.31473 -0.343742,0.16193 -0.715305,0.79154 -1.097255,1.39793 -0.383422,0.6064 -0.775493,1.1908 -1.050085,1.97307 -0.274637,0.78227 -0.428898,1.76245 -0.862208,2.54588 -0.432019,0.78343 -1.139877,1.369 -1.918268,1.82494 -0.778435,0.45595 -1.624459,0.78343 -2.203203,0.9466 -0.5787,0.16298 -0.889984,0.16298 -0.950261,-0.007 -0.06153,-0.17001 0.129292,-0.51032 0.353995,-0.91881 0.224703,-0.40852 0.483156,-0.88526 0.458279,-1.08896 -0.02675,-0.20479 -0.336609,-0.13665 -0.768181,0.0351 -0.432018,0.17002 -0.985572,0.44207 -1.4953,0.57861 -0.509594,0.13664 -0.9767,0.13664 -1.028149,-0.0892 -0.05306,-0.22446 0.309858,-0.67465 0.76818,-1.17805 0.458278,-0.50452 1.010584,-1.06233 1.589282,-1.57265 0.580171,-0.51033 1.185309,-0.97323 1.962317,-1.44305 0.777009,-0.46985 1.728741,-0.94663 2.366202,-1.58193 0.638844,-0.63533 0.96493,-1.4292 1.098682,-2.07606 0.13509,-0.64689 0.07669,-1.1445 0.02675,-1.56458 -0.05306,-0.42008 -0.09808,-0.7626 0.09184,-1.1387 0.192157,-0.3761 0.622704,-0.78575 1.05597,-1.46619 0.432019,-0.68044 0.866534,-1.63055 1.329315,-3.25526 0.462647,-1.62591 0.951732,-3.92531 1.199886,-5.67968 0.246996,-1.75433 0.252791,-2.96364 0.147127,-4.00051 -0.103881,-1.03687 -0.320112,-1.90362 -0.33215,-2.78892 -0.01338,-0.88526 0.179228,-1.78904 0.537548,-2.63616 0.358455,-0.84708 0.884144,-1.63862 1.587767,-2.93701 0.703534,-1.29839 1.581882,-3.10366 2.203204,-4.85687 0.621276,-1.75321 0.984011,-3.45317 1.179378,-4.4796 0.19394,-1.02648 0.218907,-1.37943 0.09541,-1.47663 -0.124835,-0.0984 -0.398134,0.059 -0.697783,0.1377 -0.298266,0.0776 -0.621276,0.0776 -0.897429,-0.0464 -0.275975,-0.12399 -0.505225,-0.37146 -0.701974,-0.4108 -0.197061,-0.0393 -0.359792,0.12856 -0.668402,0.70822 -0.306737,0.57861 -0.760825,1.56802 -1.236713,2.97292 -0.475844,1.40486 -0.979643,3.22168 -1.451162,4.7909 -0.471475,1.56802 -0.914996,2.88727 -1.135374,3.97736 -0.220244,1.08896 -0.220244,1.9476 -0.605137,2.74954 -0.383422,0.80198 -1.151513,1.54955 -1.784516,2.26473 -0.633091,0.71514 -1.129489,1.39906 -1.840424,2.78657 -0.710846,1.3875 -1.642026,3.47515 -2.307441,5.10682 -0.666842,1.63168 -1.069211,2.80396 -1.338052,4.05605 -0.268842,1.25213 -0.402593,2.58178 -0.594884,3.84083 -0.192156,1.25792 -0.442272,2.44292 -0.68735,3.19628 -0.243873,0.75333 -0.481773,1.07622 -0.705094,1.22203 -0.22292,0.14472 -0.434693,0.11451 -0.751997,0 -0.316991,-0.11452 -0.7388,-0.31263 -1.148571,-0.24413 -0.409726,0.0685 -0.804873,0.40037 -1.28366,0.92228 -0.478831,0.52192 -1.037022,1.23362 -1.614205,1.98463 -0.577272,0.75104 -1.17064,1.54143 -1.915325,2.00897 -0.746112,0.4675 -1.643586,0.61331 -2.620285,0.73249 -0.976746,0.12049 -2.031289,0.21287 -2.777534,0.19777 -0.746112,-0.0176 -1.180805,-0.14121 -1.286603,-0.2754 -0.10611,-0.13523 0.119039,-0.28136 0.487659,-0.47793 0.370046,-0.19776 0.884233,-0.44667 1.114732,-0.59828 0.232282,-0.15034 0.179227,-0.20233 -0.07891,-0.21884 -0.257249,-0.014 -0.719674,0.007 -1.128062,0.0832 -0.408388,0.0776 -0.765194,0.21287 -0.937065,0.21287 -0.171648,0 -0.158719,-0.13524 -0.01338,-0.39461 0.15114,-0.25924 0.442273,-0.64458 1.022265,-1.06578 0.580215,-0.42124 1.451162,-0.87835 2.329465,-1.21163 0.876965,-0.3323 1.761065,-0.54042 2.84218,-1.03687 1.079465,-0.49645 2.355948,-1.2822 3.51183,-2.24618 1.155927,-0.96395 2.195847,-2.10497 2.977225,-3.58854 0.781378,-1.48471 1.305729,-3.3108 1.919739,-5.21098 0.613875,-1.90015 1.317499,-3.87322 1.769892,-5.4424 0.452392,-1.56805 0.650657,-2.73222 0.631576,-3.69849 -0.01783,-0.96514 -0.258587,-1.73354 -0.239416,-2.45912 0.01783,-0.72673 0.296483,-1.41297 0.822529,-2.14663 0.524351,-0.73369 1.298417,-1.51364 1.862359,-2.54475 0.56412,-1.03108 0.919544,-2.31327 1.225032,-3.96697 0.3054,-1.65366 0.559617,-3.67994 0.628633,-5.34172 0.06866,-1.66177 -0.05171,-2.95904 -0.346862,-4.02598 -0.295147,-1.06581 -0.768181,-1.90018 -0.83577,-2.81323 -0.06733,-0.9142 0.271961,-1.9071 0.29247,-2.63499 0.02229,-0.72674 -0.270179,-1.18844 -0.785747,-1.73119 -0.516326,-0.54151 -1.255126,-1.16294 -2.472713,-1.67558 -1.219014,-0.51264 -2.915565,-0.91536 -4.676586,-1.81798 -1.761064,-0.902649 -3.585348,-2.305188 -5.145161,-4.242392 -1.561329,-1.937204 -2.858186,-4.409036 -3.523601,-7.079896 -0.666841,-2.670861 -0.702107,-5.540784 -0.782938,-7.670061 -0.08025,-2.128152 -0.206869,-3.516817 -0.337946,-4.639327 -0.130631,-1.12135 -0.267057,-1.977669 -0.461221,-2.29128 -0.193939,-0.313682 -0.446507,-0.08431 -0.931179,0.359873 -0.484717,0.443229 -1.201448,1.10052 -2.153269,1.482418 -0.951734,0.381862 -2.134188,0.488331 -3.171077,0.42008 -1.038492,-0.06955 -1.930082,-0.313681 -2.492507,-0.343539 -0.56256,-0.03161 -0.796136,0.152801 -1.291106,0.282419 -0.493544,0.129617 -1.251426,0.207247 -1.725755,0.474456 -0.474461,0.267315 -0.669784,0.725613 -1.195651,1.120227 -0.525778,0.394613 -1.385133,0.723259 -2.185592,0.982459 -0.800505,0.259235 -1.542113,0.445547 -2.139939,0.495287 -0.59787,0.05093 -1.053162,-0.03513 -1.423342,-0.233944 -0.371384,-0.199169 -0.658014,-0.510321 -0.737284,-0.732498 -0.07891,-0.222352 0.04949,-0.354112 0.405268,-0.510356 0.355334,-0.156314 0.938581,-0.33546 1.314557,-0.513798 0.374505,-0.179498 0.543433,-0.35875 0.524441,-0.517277 -0.02229,-0.159826 -0.227825,-0.299631 -0.662473,-0.273286 -0.434694,0.0281 -1.097165,0.222353 -1.709615,0.413126 -0.612583,0.191089 -1.176569,0.377261 -1.63623,0.549698 -0.459705,0.171418 -0.815261,0.327381 -1.151557,0.303144 -0.336163,-0.02459 -0.652085,-0.225514 -0.956192,-0.73717 -0.3054,-0.51148 -0.5978259,-1.330811 -0.5507453,-2.185971 0.04815,-0.855195 0.4360303,-1.745095 1.0133923,-2.442923 0.577318,-0.696633 1.340995,-1.201193 2.076808,-1.526361 0.735992,-0.326328 1.440908,-0.474457 2.545519,-1.102839 1.104478,-0.628382 2.608472,-1.735822 3.601355,-2.600291 0.993018,-0.864433 1.476173,-1.48586 1.799273,-1.986943 0.324571,-0.501083 0.489174,-0.880662 0.453908,-1.224342 -0.03567,-0.342485 -0.270177,-0.649212 -0.288012,-1.092406 -0.01783,-0.443229 0.182349,-1.024154 0.540492,-1.518282 0.358454,-0.494128 0.87692,-0.902651 1.487943,-1.22666 0.612494,-0.325274 1.317544,-0.565892 1.818266,-0.579767 0.5009,-0.01405 0.794709,0.199169 1.248528,0.222352 0.453909,0.02459 1.064842,-0.144722 1.819781,-0.439751 0.75494,-0.296118 1.652414,-0.7221 2.63656,-1.116714 0.984055,-0.395773 2.054783,-0.761442 2.809723,-0.99521 0.754983,-0.233944 1.192709,-0.33546 1.367433,-0.452503 0.173431,-0.116971 0.08382,-0.248697 -0.15426,-0.421204 -0.238078,-0.172472 -0.625691,-0.386499 -0.831402,-0.639939 -0.206869,-0.254668 -0.232282,-0.548539 -0.193939,-0.843638 0.03567,-0.294011 0.142668,-0.589005 0.06465,-0.788068 -0.07802,-0.197764 -0.336609,-0.299631 -0.760869,-0.259235 -0.424439,0.04039 -1.019278,0.223406 -1.731684,0.469855 -0.712362,0.246589 -1.543763,0.554299 -2.482254,0.747567 -0.938626,0.193197 -1.984341,0.27188 -3.284141,0.130671 -1.301401,-0.142316 -2.856844,-0.503419 -4.38741,-0.997547 -1.530432,-0.494127 -3.034426,-1.122509 -4.407744,-2.070263 -1.373318,-0.947754 -2.611548,-2.214916 -3.294574,-3.469361 -0.681464,-1.253251 -0.806255,-2.494981 -0.660911,-3.602421 0.147127,-1.108635 0.564076,-2.083015 1.191148,-2.722954 0.627207,-0.639938 1.46155,-0.944311 1.871232,-1.005642 0.409726,-0.06147 0.395014,0.121538 0.161394,0.444388 -0.231837,0.322814 -0.680039,0.785749 -0.973758,1.504372 -0.293808,0.719817 -0.433355,1.694197 -0.286228,2.655861 0.146681,0.962788 0.580125,1.912861 1.29106,2.847899 0.710847,0.933879 1.700787,1.852724 2.968398,2.58754 1.267475,0.734851 2.812665,1.285708 4.274081,1.573853 1.461461,0.288039 2.837722,0.315789 3.717586,0.254668 0.879774,-0.06147 1.264532,-0.21076 1.683176,-0.351794 0.417306,-0.141209 0.868094,-0.276447 1.054588,-0.459422 0.18636,-0.18301 0.108338,-0.416603 -0.381638,-0.539266 -0.489175,-0.122592 -1.390974,-0.134184 -2.687831,-0.73601 -1.295475,-0.600596 -2.987523,-1.790233 -4.103771,-3.168465 -1.116293,-1.378268 -1.661286,-2.943971 -1.667171,-4.568722 0,-1.624752 0.525867,-3.306198 1.373318,-4.503914 0.846025,-1.197715 2.006411,-1.911736 2.943475,-2.248496 0.938536,-0.337919 1.652414,-0.296118 1.835966,-0.18301 0.183686,0.114513 -0.163178,0.303143 -0.747628,0.615631 -0.584495,0.312627 -1.405642,0.748726 -2.075426,1.517123 -0.668268,0.767238 -1.183747,1.866599 -1.370375,3.136078 -0.185024,1.26948 -0.04013,2.709043 0.581686,3.99707 0.621321,1.287992 1.71706,2.420899 2.798041,3.189296 1.0796,0.769556 2.144443,1.174567 2.746637,1.326174 0.600769,0.152801 0.741743,0.05199 0.753513,-0.08676 0.01338,-0.140156 -0.101652,-0.319302 -0.533179,-0.71518 -0.430235,-0.394614 -1.179512,-1.004449 -1.874174,-1.929089 -0.694796,-0.925765 -1.335199,-2.166301 -1.614161,-3.40803 -0.275974,-1.241695 -0.190819,-2.483389 0.130631,-3.353619 0.323233,-0.86907 0.881291,-1.366675 1.166181,-1.522919 0.286229,-0.156314 0.300942,0.0281 0.190819,0.520754 -0.109675,0.49065 -0.343741,1.289151 -0.300941,2.353807 0.04458,1.06462 0.367372,2.393113 0.945937,3.550363 0.578699,1.156055 1.412909,2.13855 2.188535,2.764578 0.775449,0.626064 1.490797,0.893378 2.021033,1.040348 0.530237,0.145776 0.873845,0.171419 1.257223,0.01054 0.383421,-0.16088 0.804873,-0.505684 1.361638,-0.591323 0.555114,-0.08571 1.242508,0.08676 1.830035,0.160881 0.586056,0.07271 1.070772,0.04847 1.571627,-0.19109 0.500857,-0.240618 1.016336,-0.696633 1.68612,-0.906094 0.669784,-0.209355 1.493784,-0.172472 2.256035,-0.07623 0.762385,0.0959 1.464358,0.248698 1.887371,0.223406 0.423101,-0.02459 0.565502,-0.230431 0.793192,-0.471014 0.227824,-0.240618 0.539064,-0.517276 0.962077,-0.711667 0.4231,-0.194602 0.95619,-0.30771 1.417322,-0.354113 0.46122,-0.04637 0.851909,-0.02459 1.009023,-0.143668 0.155598,-0.118026 0.07802,-0.373784 -0.299603,-0.660804 -0.377626,-0.286985 -1.053028,-0.604145 -1.954871,-1.07976 -0.901933,-0.475616 -2.028435,-1.108635 -2.645298,-1.646741 -0.616907,-0.538106 -0.724132,-0.982495 -0.812274,-1.720788 -0.08828,-0.738293 -0.156935,-1.77404 -0.149802,-2.736828 0.01338,-0.962824 0.09184,-1.853883 0.484716,-2.764614 0.393676,-0.91189 1.092796,-1.842291 1.611218,-2.661622 0.518467,-0.819296 0.854896,-1.525202 0.938492,-2.094571 0.08471,-0.569334 -0.08382,-0.999847 -0.189482,-1.342368 -0.103881,-0.341432 -0.146681,-0.59596 0,-0.678121 0.148465,-0.08325 0.484716,0.007 0.785881,0.314735 0.300941,0.309115 0.566929,0.839002 0.659395,1.379427 0.09095,0.540424 0,1.092405 -0.252344,1.771686 -0.259924,0.679316 -0.694796,1.484736 -1.114865,2.221871 -0.419981,0.737169 -0.826899,1.404893 -0.994266,2.21495 -0.167636,0.810058 -0.09898,1.758971 0.03567,2.564391 0.133752,0.80658 0.329029,1.468508 0.574331,1.843451 0.245211,0.376102 0.539108,0.464059 1.395386,0.774193 0.854763,0.311223 2.270749,0.844762 3.218113,1.377108 0.948745,0.533469 1.429092,1.06578 1.819781,1.320378 0.390555,0.254669 0.691853,0.231485 1.148615,0.007 0.459661,-0.22446 1.075097,-0.651496 1.480498,-0.976699 0.405268,-0.325273 0.600679,-0.550822 0.383422,-0.793864 -0.217569,-0.243077 -0.848967,-0.503401 -1.661241,-1.060054 -0.812186,-0.556618 -1.805159,-1.409495 -2.35889,-2.331782 -0.552172,-0.921163 -0.665282,-1.912896 -0.544861,-2.733386 0.120377,-0.820455 0.475845,-1.468508 0.685968,-1.627035 0.209991,-0.158421 0.274637,0.171419 0.290688,0.762601 0.01783,0.591324 -0.01783,1.443041 0.314316,2.30751 0.330367,0.864433 1.023647,1.741618 1.822725,2.364204 0.797562,0.623745 1.700786,0.991733 2.258977,1.188477 0.55663,0.19671 0.766755,0.222353 1.064842,0.09484 0.298267,-0.127159 0.685924,-0.406171 1.201447,-0.781113 0.515569,-0.374943 1.161768,-0.844763 1.499625,-1.150295 0.337947,-0.305603 0.370047,-0.444353 0,-0.686236 -0.371383,-0.240618 -1.145628,-0.584403 -2.153135,-1.306503 -1.007642,-0.7221 -2.24587,-1.82262 -3.069825,-2.840979 -0.824,-1.018359 -1.232389,-1.953397 -1.35281,-2.859491 -0.120377,-0.906094 0.04726,-1.783278 0.222028,-2.083015 0.176106,-0.299631 0.362912,-0.02108 0.603621,0.636497 0.240753,0.65845 0.537549,1.695321 1.132431,2.630359 0.593323,0.936197 1.484868,1.768209 2.514578,2.536641 1.029576,0.767238 2.19879,1.469667 3.015433,1.885111 0.816554,0.416603 1.279291,0.548503 1.780192,0.453626 0.500721,-0.09484 1.039829,-0.416603 2.075291,-0.990573 1.036977,-0.575165 2.570352,-1.401416 3.51192,-1.975387 0.939918,-0.574006 1.285086,-0.893378 1.398196,-1.117873 0.113244,-0.225513 -0.01338,-0.355271 -0.135089,-0.592517 -0.127956,-0.237106 -0.263046,-0.579767 -0.367372,-0.987096 -0.106109,-0.407365 -0.181902,-0.876026 -0.346862,-1.149136 -0.164515,-0.273286 -0.419981,-0.347052 -1.095605,-0.568175 -0.67567,-0.220947 -1.772836,-0.58788 -2.94352,-1.189636 -1.17064,-0.601756 -2.414665,-1.43844 -3.310579,-2.435968 -0.896047,-0.998688 -1.443849,-2.15938 -1.653929,-3.213604 -0.20999,-1.054223 -0.08248,-2.003136 0.271962,-2.692849 0.353996,-0.688554 0.931179,-1.119032 1.211701,-1.213945 0.280879,-0.09484 0.265721,0.144722 0.09541,0.511516 -0.167635,0.366828 -0.489175,0.859797 -0.514097,1.644422 -0.02675,0.784591 0.248332,1.858485 0.804874,2.829387 0.555247,0.969744 1.393826,1.834212 2.304497,2.520448 0.909245,0.685077 1.890314,1.19192 2.667322,1.527521 0.777009,0.33546 1.349867,0.499923 1.68768,0.534628 0.3375,0.03513 0.440489,-0.05901 0.487569,-0.284526 0.04726,-0.22446 0.04013,-0.580926 0.07312,-1.048427 0.03567,-0.467537 0.109675,-1.044985 0.273299,-1.509044 0.161394,-0.462865 0.409726,-0.813535 0.575756,-0.970903 0.165853,-0.157368 0.251008,-0.123997 0.259924,-0.007 0.01338,0.118026 -0.06019,0.319302 -0.149801,0.661928 -0.08962,0.342485 -0.201074,0.82625 -0.255466,1.334288 -0.05439,0.508003 -0.05529,1.03803 -0.01338,1.378232 0.04458,0.340378 0.127956,0.487208 0.273299,0.557778 0.145344,0.0706 0.349538,0.06358 0.631576,-0.04988 0.282216,-0.11346 0.640404,-0.336866 1.019278,-0.453627 0.378963,-0.118026 0.779995,-0.130671 1.172199,-0.06358 0.392339,0.06709 0.776876,0.215327 1.097166,0.285931 0.320113,0.07061 0.575757,0.06358 0.906168,-0.296118 0.330367,-0.359908 0.734431,-1.073894 1.101669,-1.776323 0.365588,-0.702464 0.694662,-1.393302 0.938492,-2.06914 0.243873,-0.674644 0.403929,-1.335412 0.339282,-1.889747 -0.06464,-0.5543 -0.355333,-1.000971 -0.684407,-1.397903 -0.329029,-0.395773 -0.696222,-0.739453 -1.42615,-1.201194 -0.729972,-0.460581 -1.824285,-1.040348 -2.65417,-1.733539 -0.829841,-0.693155 -1.399712,-1.498576 -2.148766,-2.028603 -0.749054,-0.529992 -1.678852,-0.78459 -2.446989,-0.963947 -0.76818,-0.179498 -1.37626,-0.283473 -1.991652,-0.223406 -0.616952,0.05901 -1.244025,0.283472 -1.557004,0.298577 -0.312979,0.01405 -0.312979,-0.179498 0.03121,-0.418922 0.340621,-0.239564 1.02378,-0.523072 1.840468,-0.613312 0.816643,-0.09028 1.763963,0.01405 2.723141,0.298577 0.959134,0.284878 1.927006,0.747567 2.737765,1.344721 0.810758,0.597119 1.465919,1.326175 2.204674,1.92793 0.7388,0.601756 1.561373,1.076213 2.172262,1.478906 0.612494,0.402728 1.012011,0.734851 1.254413,0.718657 0.242091,-0.01756 0.320112,-0.379579 0.01338,-0.86215 -0.306737,-0.482536 -1.00024,-1.083132 -1.524591,-1.681446 -0.522925,-0.598278 -0.876922,-1.193079 -1.367389,-1.856166 -0.490601,-0.663087 -1.117808,-1.39562 -1.911,-1.878191 -0.794575,-0.483695 -1.753709,-0.718622 -2.651049,-0.744089 -0.897474,-0.02459 -1.728831,0.159826 -2.348636,0.303143 -0.619851,0.143669 -1.02378,0.243077 -1.185263,0.167906 -0.160057,-0.07517 -0.07446,-0.327381 0.459704,-0.622588 0.534606,-0.295064 1.515809,-0.630665 2.64668,-0.747567 1.132431,-0.118025 2.411722,-0.01756 3.47224,0.409683 1.060473,0.427003 1.900567,1.179206 2.573294,1.927932 0.672771,0.747567 1.176569,1.492816 1.621517,2.015888 0.44361,0.523037 0.826897,0.82625 1.319059,0.808898 0.491984,-0.01756 1.088294,-0.352953 1.586207,-1.040348 0.496531,-0.687395 0.893105,-1.725425 0.925428,-2.85373 0.0312,-1.128267 -0.301392,-2.345689 -0.931317,-3.366367 C 77.91488,10.987068 76.986509,10.161977 76.059788,9.6099604 75.132977,9.0579791 74.20474,8.7755953 73.93153,8.5418621 73.656893,8.3068644 74.03764,8.1206225 75.002258,8.2699813 c 0.961987,0.1492886 2.508691,0.6364611 3.851114,1.5182472 1.343937,0.8806625 2.485196,2.1547785 3.103575,3.6429575 0.618334,1.489338 0.712362,3.193934 0.392338,5.011953 -0.320112,1.816824 -1.05753,3.745913 -2.178192,5.993251 -1.122176,2.246143 -2.627597,4.810569 -3.777729,6.567221 -1.151513,1.756688 -1.946087,2.70676 -2.729025,3.404553 -0.782805,0.697827 -1.555444,1.144499 -1.82852,1.466224 -0.274637,0.320707 -0.05306,0.514958 0.627073,0.816978 0.680082,0.302089 1.815457,0.710543 3.025732,1.070451 1.210274,0.359874 2.493934,0.671167 3.432559,0.759124 0.938492,0.08782 1.531949,-0.04848 2.386712,-0.661928 0.854896,-0.613348 1.972659,-1.704595 2.964027,-2.901151 0.991457,-1.197751 1.855047,-2.500777 2.263436,-3.950773 0.408389,-1.449996 0.358455,-3.044644 -0.160056,-4.309487 -0.519983,-1.264843 -1.50707,-2.198722 -2.308956,-2.840979 -0.803447,-0.642292 -1.420265,-0.991768 -1.642159,-1.264843 -0.221583,-0.273286 -0.04949,-0.466377 0.345079,-0.466377 0.395014,0 1.01201,0.194602 1.680367,0.57397 0.666842,0.37958 1.382147,0.943153 1.927007,1.43036 0.543478,0.486014 0.913613,0.894502 1.283794,1.012563 0.370045,0.118026 0.740226,-0.05796 1.290971,-0.700146 0.55088,-0.642257 1.282233,-1.750856 1.634848,-2.938174 0.353996,-1.186159 0.329029,-2.451002 -0.01784,-3.346699 -0.346417,-0.895696 -1.011921,-1.421051 -1.49365,-1.808745 -0.481775,-0.388818 -0.778436,-0.642257 -0.493455,-0.768397 0.283553,-0.126105 1.148481,-0.126105 2.013587,0.388853 0.863725,0.516117 1.728875,1.547191 2.123934,2.763419 0.395013,1.216263 0.320112,2.616484 0.173431,3.833906 -0.148465,1.216228 -0.370047,2.247303 -0.753424,3.093259 -0.383422,0.845922 -0.926854,1.50785 -1.173627,2.003137 -0.246549,0.495287 -0.198399,0.82741 0.01338,0.973221 0.20999,0.145776 0.580126,0.106434 1.18825,-0.215327 0.608081,-0.321761 1.452678,-0.9258 2.115017,-1.595807 0.662472,-0.670042 1.142728,-1.408371 1.371931,-2.085333 0.227823,-0.678121 0.202858,-1.296106 0.391896,-1.534476 0.189479,-0.239564 0.594886,-0.09941 0.702103,0.509162 0.106111,0.608711 -0.08472,1.687242 -0.496393,2.677816 -0.412846,0.989449 -1.044331,1.890906 -1.905069,2.636155 -0.860648,0.746407 -1.949074,1.338925 -2.80678,1.874713 -0.857839,0.535788 -1.485045,1.014881 -2.285505,1.981147 -0.800505,0.966301 -1.774262,2.419775 -3.319451,3.962365 -1.545189,1.542555 -3.66025,3.17542 -5.991142,4.658962 -2.329509,1.483577 -4.874894,2.820149 -7.333697,3.926465 -2.457242,1.107476 -4.82933,1.986943 -7.097136,2.687054 -2.266289,0.700146 -4.428296,1.222024 -6.436134,1.562261 -2.006409,0.340378 -3.86003,0.497605 -4.988003,0.710543 -1.128062,0.211815 -1.530521,0.477935 -1.953533,0.690873 -0.424439,0.212868 -0.86952,0.373783 -1.473097,0.473297 -0.605183,0.100814 -1.36895,0.14121 -2.013722,0.162988 -0.644818,0.02459 -1.170685,0.0281 -1.536362,0.167906 -0.365588,0.13875 -0.571387,0.410807 -0.995826,0.769556 -0.424439,0.358714 -1.070728,0.800784 -1.742072,1.145623 -0.672593,0.344945 -1.371758,0.58904 -2.018047,0.99637 -0.646199,0.407364 -1.242643,0.979016 -1.584824,1.439598 -0.342405,0.460582 -0.433356,0.810057 -0.284891,1.163011 0.146681,0.352953 0.530237,0.709384 0.935548,0.881821 0.405269,0.172472 0.828459,0.161934 1.213262,0.01054 0.383423,-0.151747 0.72556,-0.443229 1.233727,-0.604074 0.506785,-0.161934 1.179512,-0.194602 1.966685,-0.318248 0.788779,-0.123998 1.693565,-0.340378 2.441193,-0.72326 0.747539,-0.383057 1.336492,-0.935038 1.713984,-1.069292 0.376289,-0.135238 0.540491,0.145776 0.336608,0.648053 -0.205532,0.502242 -0.781377,1.22666 -1.336625,1.749732 -0.555248,0.523037 -1.089854,0.84824 -1.508497,1.069257 -0.418643,0.220948 -0.719673,0.340378 -0.768136,0.447831 -0.04726,0.107488 0.15738,0.204789 0.56256,0.141209 0.403929,-0.06463 1.009023,-0.291551 1.721384,-0.550822 0.712362,-0.259235 1.534935,-0.550822 2.413284,-0.729055 0.878302,-0.178092 1.809526,-0.243077 2.214839,-0.150342 0.40393,0.09133 0.280433,0.340378 -0.17789,1.060019 -0.459705,0.719782 -1.254413,1.910578 -2.054873,2.68477 -0.800504,0.772999 -1.609702,1.130589 -2.363259,1.29839 -0.75494,0.167905 -1.454105,0.145775 -2.037173,0.21638 -0.581686,0.0706 -1.048703,0.232539 -1.260209,0.423558 -0.211328,0.192143 -0.168973,0.414285 0.165852,0.828569 0.334825,0.414285 0.962076,1.020642 1.468729,1.831894 0.505224,0.811217 0.888602,1.824939 1.339567,2.980994 0.450877,1.156056 0.967872,2.453321 1.302787,3.622092 0.336608,1.168807 0.489175,2.210314 0.67567,3.00878 0.188144,0.7985 0.409725,1.353959 0.92681,2.039036 0.496397,0.67928 1.308671,1.495133 2.704059,2.694008 z"
       id="path510"
       style="fill:#000000;fill-opacity:1;stroke:#000000;stroke-width:0.32593226;stroke-linecap:round;stroke-linejoin:round" />
  </g>
</svg>
