<svg xmlns="http://www.w3.org/2000/svg" xmlns:xlink="http://www.w3.org/1999/xlink" viewBox="0 0 60 61.25" version="1.1" x="0px" y="0px"><title>018.Explode</title><desc>Created with Sketch.</desc><g stroke="none" stroke-width="1" fill="none" fill-rule="evenodd" stroke-linecap="round" stroke-linejoin="round"><g transform="translate(1.000000, 1.000000)" stroke="#000000" stroke-width="2"><polygon points="12 47 37.997 47 37.997 21 12 21"/><path d="M46,22 L46,43.114"/><path d="M58,9 L46,22"/><path d="M58,30 L46,43.114"/><path d="M58,9.2174 L58,30.0004"/><path d="M0,23 L0,44"/><path d="M12,31 L0,44"/><path d="M13,9 L0,23"/><path d="M13,9 L13,20.113"/><path d="M51,0 L39,14"/><path d="M18,14 L39,14"/><path d="M30,0 L17.995,13.662"/><path d="M29.8862,0 L51.0002,0"/><path d="M23,14 L23,20"/><path d="M47.9999,4 L47.9989,19.219"/><path d="M38,31 L45.779,31"/></g></g><text x="0" y="64" fill="#000000" font-size="5px" font-weight="bold" font-family="'Helvetica Neue', Helvetica, Arial-Unicode, Arial, Sans-serif">Created by Creaticca Creative Agency</text><text x="0" y="69" fill="#000000" font-size="5px" font-weight="bold" font-family="'Helvetica Neue', Helvetica, Arial-Unicode, Arial, Sans-serif">from the Noun Project</text></svg>