<?xml version="1.0" encoding="UTF-8" standalone="no"?>
<!-- Created with Inkscape (http://www.inkscape.org/) -->

<svg
   xmlns:dc="http://purl.org/dc/elements/1.1/"
   xmlns:cc="http://creativecommons.org/ns#"
   xmlns:rdf="http://www.w3.org/1999/02/22-rdf-syntax-ns#"
   xmlns:svg="http://www.w3.org/2000/svg"
   xmlns="http://www.w3.org/2000/svg"
   xmlns:sodipodi="http://sodipodi.sourceforge.net/DTD/sodipodi-0.dtd"
   xmlns:inkscape="http://www.inkscape.org/namespaces/inkscape"
   width="210mm"
   height="297mm"
   viewBox="0 0 210 297"
   version="1.1"
   id="svg9670"
   inkscape:version="0.92.3 (2405546, 2018-03-11)"
   sodipodi:docname="rooster.svg">
  <defs
     id="defs9664" />
  <sodipodi:namedview
     id="base"
     pagecolor="#ffffff"
     bordercolor="#666666"
     borderopacity="1.0"
     inkscape:pageopacity="0.0"
     inkscape:pageshadow="2"
     inkscape:zoom="0.35"
     inkscape:cx="-70"
     inkscape:cy="560"
     inkscape:document-units="mm"
     inkscape:current-layer="layer1"
     showgrid="false"
     inkscape:window-width="1825"
     inkscape:window-height="1051"
     inkscape:window-x="2391"
     inkscape:window-y="-9"
     inkscape:window-maximized="1" />
  <metadata
     id="metadata9667">
    <rdf:RDF>
      <cc:Work
         rdf:about="">
        <dc:format>image/svg+xml</dc:format>
        <dc:type
           rdf:resource="http://purl.org/dc/dcmitype/StillImage" />
        <dc:title></dc:title>
      </cc:Work>
    </rdf:RDF>
  </metadata>
  <g
     inkscape:label="Layer 1"
     inkscape:groupmode="layer"
     id="layer1">
    <path
       inkscape:connector-curvature="0"
       d="m 95.062585,66.62293 c -1.966278,3.914079 -3.916806,7.861831 -5.35018,10.989626 -1.433427,3.127749 -2.34623,5.437049 -2.759548,7.733217 -0.41161,2.297587 -0.323522,4.582042 0.05979,6.755407 0.383315,2.173364 1.060576,4.23271 2.615351,5.244149 1.554721,1.011395 3.988878,0.974838 7.798377,0.61823 3.809555,-0.356697 8.992635,-1.030427 12.550635,-1.790448 3.55628,-0.760021 5.48567,-1.607708 6.23314,-2.100251 0.74922,-0.492587 0.31818,-0.63287 -0.32886,-0.741033 -0.64726,-0.109582 -1.50903,-0.188552 -2.0367,-0.368231 -0.52746,-0.179679 -0.71757,-0.457495 -0.57508,-0.657715 0.14254,-0.200087 0.6226,-0.318542 1.71301,-0.467698 1.09048,-0.150399 2.79121,-0.328747 5.69672,-1.045024 2.90721,-0.716188 7.02101,-1.968752 11.14181,-3.664214 4.12261,-1.695418 8.25045,-3.83369 12.08985,-6.359314 3.8394,-2.525625 7.38864,-5.439978 9.77528,-7.929046 2.38664,-2.489112 3.60727,-4.554314 4.36002,-6.448488 0.75275,-1.895682 1.03767,-3.621801 1.20125,-5.176936 0.16336,-1.556599 0.20394,-2.945098 0.58741,-4.064655 0.38332,-1.121021 1.10804,-1.974608 2.02084,-2.705393 0.9128,-0.730784 2.01203,-1.340274 2.25654,-1.74657 0.24451,-0.406386 -0.3657,-0.60949 -1.66913,-0.591966 -1.30322,0.01775 -3.29944,0.254213 -5.41702,0.06743 -2.11752,-0.187221 -4.35821,-0.795069 -6.16977,-2.332636 -1.81151,-1.536146 -3.19566,-4.000369 -3.8482,-6.544982 -0.65073,-2.544613 -0.56633,-5.166688 -0.12119,-7.274259 0.44311,-2.107615 1.24695,-3.699263 1.79218,-4.386214 0.54524,-0.686952 0.83016,-0.467699 1.03768,0.115349 0.20927,0.583137 0.34114,1.53171 0.73518,2.39843 0.39399,0.866719 1.05348,1.650121 1.70074,2.188005 0.6472,0.53784 1.28389,0.830162 1.84316,0.675239 0.55933,-0.154835 1.04296,-0.757093 1.54773,-2.177757 0.50664,-1.420664 1.03591,-3.658313 1.5055,-5.138915 0.4714,-1.480601 0.88114,-2.201137 1.32788,-2.486139 0.44685,-0.284825 0.92514,-0.133096 1.43871,0.407716 0.51358,0.540813 1.06229,1.471817 1.55473,2.67762 0.49062,1.205803 0.92513,2.686405 1.35783,3.494651 0.43456,0.806782 0.86881,0.939789 1.30322,0.722 0.43456,-0.217834 0.86886,-0.787794 1.45099,-1.832817 0.58388,-1.04356 1.31384,-2.562138 1.954,-3.398156 0.63844,-0.836019 1.18715,-0.988014 1.55301,-0.798042 0.3657,0.189883 0.55047,0.722044 0.75979,1.80358 0.21088,1.083044 0.45005,2.715641 0.68415,3.702191 0.23384,0.988014 0.46233,1.33007 0.8284,1.490805 0.3657,0.160602 0.86881,0.1433 1.67965,-0.436997 0.81078,-0.578789 1.93109,-1.718843 2.66099,-2.11782 0.73166,-0.397512 1.07462,-0.05723 1.07462,0.627014 0,0.684024 -0.34274,1.708594 -0.5029,2.52558 -0.16016,0.817031 -0.1372,1.423592 0.14788,1.699855 0.28508,0.276395 0.83363,0.217833 1.62156,-0.198756 0.78793,-0.41659 1.81685,-1.195555 2.35328,-1.425012 0.53642,-0.228037 0.58212,0.09494 0.46766,0.637218 -0.11425,0.540812 -0.38865,1.300833 -0.54876,1.841601 -0.16016,0.540768 -0.20554,0.863792 0.048,0.948573 0.25145,0.08474 0.80026,-0.06566 1.39296,-0.238241 0.59451,-0.170806 1.23291,-0.361133 1.57586,-0.293698 0.34114,0.06566 0.38866,0.38864 0.20394,0.815567 -0.18472,0.426793 -0.59798,0.954429 -0.83892,1.427984 -0.24077,0.47351 -0.30964,0.891564 0.0966,1.455712 0.40627,0.564193 1.28389,1.275944 1.57587,2.107615 0.29202,0.831627 -0.003,1.786056 -0.13561,2.508056 -0.12812,0.723464 -0.0913,1.214588 0.0651,1.753892 0.15642,0.537884 0.43456,1.122485 0.32352,1.669153 -0.11051,0.546624 -0.61032,1.053764 -1.10452,1.448392 -0.49435,0.394407 -0.9814,0.675239 -1.20653,1.007047 -0.22689,0.331852 -0.18845,0.714724 0.41855,0.90616 0.60679,0.191658 1.7869,0.191658 3.11307,0.397513 1.32607,0.205855 2.79996,0.619694 3.83235,1.240896 1.03063,0.619693 1.61985,1.446972 1.94343,2.066666 0.32352,0.619694 0.37798,1.033311 0.28508,1.232111 -0.0913,0.198757 -0.33046,0.184116 -0.91985,-0.06877 -0.58917,-0.252882 -1.52834,-0.742496 -2.93887,-1.102032 -1.40881,-0.359359 -3.28893,-0.588993 -4.54997,-0.489615 -1.2628,0.09938 -1.90654,0.527636 -2.73664,1.248172 -0.8284,0.720536 -1.84146,1.73051 -2.26535,2.5329 -0.42389,0.803898 -0.25839,1.400212 0.26746,1.914671 0.52426,0.51304 1.40882,0.941253 2.46758,1.302297 1.05882,0.359359 2.29343,0.650395 3.48064,0.815567 1.18716,0.165038 2.32685,0.205854 2.73136,0.401949 0.40253,0.195651 0.0721,0.548088 -0.76684,0.884244 -0.83892,0.336288 -2.1826,0.657714 -3.67582,0.780473 -1.49322,0.122892 -3.1324,0.04525 -4.46728,-0.12999 -1.33669,-0.177018 -2.36731,-0.451638 -2.98468,-0.268854 -0.6173,0.184116 -0.81959,0.827235 -0.49596,1.69981 0.32192,0.872576 1.16959,1.976073 2.83162,2.961159 1.66385,0.986594 4.1437,1.857661 6.18216,3.241812 2.03664,1.384107 3.63359,3.282674 4.18763,5.54814 0.554,2.265423 0.0667,4.897746 -1.08166,6.995113 -1.14845,2.097367 -2.95825,3.658314 -5.13386,4.526497 -2.1756,0.868184 -4.71531,1.040676 -6.97884,0.622666 -2.26177,-0.419251 -4.24743,-1.432376 -5.53314,-2.458411 -1.28741,-1.027455 -1.88011,-2.06813 -2.34793,-3.167235 -0.47141,-1.099104 -0.81783,-2.255218 -1.27162,-2.676156 -0.45378,-0.421026 -1.00953,-0.100709 -1.60047,0.608026 -0.59093,0.708868 -1.21705,1.807972 -1.44394,2.978727 -0.2269,1.172174 -0.0534,2.415954 0.6015,4.299924 0.65602,1.885434 1.79042,4.411059 2.28815,7.148616 0.49756,2.738973 0.36036,5.688463 -0.18098,8.545813 -0.54172,2.85889 -1.48441,5.62418 -2.56602,7.45992 -1.08167,1.83575 -2.30224,2.74045 -2.9108,3.07811 -0.61031,0.33762 -0.61031,0.10692 -0.22155,-0.75709 0.38865,-0.86384 1.16431,-2.36192 1.8168,-4.17136 0.65254,-1.80943 1.1784,-3.93023 1.4,-5.95887 0.22156,-2.02869 0.13881,-3.96381 -0.1388,-5.24269 -0.27815,-1.27887 -0.74923,-1.90149 -1.23467,-1.88982 -0.48528,0.0133 -0.98488,0.65625 -1.46856,1.84306 -0.48528,1.18824 -0.95679,2.91582 -1.61456,5.193 -0.65778,2.27713 -1.50022,5.10382 -2.4623,7.49644 -0.96202,2.39257 -2.04368,4.35258 -3.20799,6.01145 -1.16607,1.6589 -2.41307,3.01963 -3.18867,3.58378 -0.77565,0.56419 -1.08166,0.33451 -0.84596,-0.28793 0.23543,-0.62263 1.01306,-1.63695 1.94167,-3.08831 0.92865,-1.45279 2.01026,-3.34261 2.73136,-5.26753 0.72114,-1.92341 1.08166,-3.88343 1.13617,-5.48528 0.0566,-1.60189 -0.19326,-2.84718 -0.54166,-3.37628 -0.34648,-0.53052 -0.7897,-0.34649 -1.16431,0.34472 -0.37477,0.69134 -0.67891,1.88982 -1.28923,3.30756 -0.61026,1.41773 -1.52482,3.05472 -2.49566,4.52942 -0.97088,1.47475 -1.99799,2.78871 -2.95478,3.72265 -0.95674,0.93397 -1.84317,1.48645 -2.32861,1.6136 -0.48528,0.12733 -0.56809,-0.17258 -0.0844,-0.88717 0.48528,-0.71472 1.53892,-1.84306 2.4412,-3.36457 0.90223,-1.5215 1.64975,-3.43471 2.2196,-5.2544 0.56985,-1.81964 0.95674,-3.55015 1.08161,-4.6902 0.12492,-1.14147 -0.016,-1.69395 -0.4997,-1.72905 -0.48368,-0.0355 -1.31731,0.44871 -2.81576,1.46303 -1.49851,1.01437 -3.66002,2.55779 -5.64391,4.39061 -1.98214,1.83135 -3.78489,3.95357 -6.20677,6.04654 -2.42006,2.09444 -5.45925,4.15969 -8.58983,5.85657 -3.13064,1.69688 -6.34744,3.02256 -9.23186,3.75481 -2.8826,0.73224 -5.43106,0.87253 -7.10894,1.55801 -1.67965,0.68549 -2.49219,1.91907 -4.2422,3.3675 -1.74996,1.4484 -4.43562,3.11316 -6.964753,4.24443 -2.529131,1.13127 -4.896448,1.72904 -6.99112,2.07106 -2.094726,0.34205 -3.911521,0.42989 -5.645674,0.48375 -1.734154,0.0528 -3.383903,0.0701 -4.240436,0.21917 -0.856532,0.14907 -0.919849,0.4299 -0.898708,0.7381 0.02135,0.30701 0.126526,0.64166 -0.02135,0.95882 -0.147881,0.31589 -0.550522,0.61384 -0.613838,1.01872 -0.063,0.40328 0.213012,0.91348 1.07814,2.00819 0.86705,1.09471 2.32685,2.77261 3.192191,3.99012 0.86705,1.21747 1.141457,1.9731 1.670837,2.52705 0.529594,0.55394 1.312027,0.90474 1.734154,1.42359 0.422287,0.51739 0.485283,1.20434 0.708759,1.95562 0.221553,0.75124 0.601505,1.56827 1.312079,2.23179 0.706997,0.66357 1.744671,1.17369 2.230114,1.78025 0.487419,0.60651 0.423889,1.30957 0.561039,1.79187 0.137203,0.48233 0.476741,0.74688 1.310317,0.87989 0.837154,0.13177 2.166798,0.13177 3.468307,0.0444 1.301509,-0.0879 2.569545,-0.26309 3.862242,-0.11979 1.29446,0.1433 2.61178,0.60656 3.55277,1.20727 0.94269,0.60217 1.50726,1.34169 1.88363,2.13827 0.37638,0.79658 0.56456,1.65158 0.55575,2.42039 -0.0107,0.76876 -0.21461,1.45278 -0.43616,1.85766 -0.22316,0.40506 -0.46233,0.53349 -0.57337,0.48376 -0.11051,-0.0497 -0.095,-0.27773 -0.0598,-0.68256 0.0374,-0.40639 0.086,-0.98948 -0.0598,-1.38118 -0.14574,-0.39174 -0.48742,-0.59046 -0.90752,-0.79653 -0.42015,-0.20586 -0.91632,-0.41925 -1.16606,-0.79658 -0.24772,-0.3771 -0.24772,-0.91787 -0.3673,-1.43672 -0.11959,-0.51886 -0.36036,-1.01872 -0.81431,-1.39582 -0.45378,-0.37711 -1.12213,-0.63434 -1.94348,-0.76149 -0.821295,-0.12866 -1.797467,-0.12866 -2.184359,-0.0133 -0.384917,0.11402 -0.179379,0.34206 0.334199,0.75417 0.513578,0.41215 1.33664,1.00997 1.93638,2.04182 0.59974,1.03189 0.97612,2.49785 0.98493,3.68027 0.0107,1.18243 -0.35182,2.07838 -0.84773,2.73317 -0.49596,0.65478 -1.130881,1.06694 -1.918812,1.27448 -0.787931,0.20763 -1.73063,0.20585 -2.363794,0.0861 -0.633163,-0.12112 -0.958554,-0.3638 -0.993736,-0.47063 -0.03737,-0.10692 0.223156,-0.0776 0.624355,-0.063 0.402534,0.0133 0.951508,0.0133 1.48265,-0.12112 0.531195,-0.13442 1.04472,-0.40505 1.336691,-0.73956 0.290422,-0.33452 0.358757,-0.73225 0.239171,-1.10346 -0.119586,-0.37 -0.427626,-0.71179 -0.58218,-1.0889 -0.153219,-0.3771 -0.153219,-0.79072 0.05979,-1.18096 0.214614,-0.39174 0.641973,-0.76148 0.787931,-1.23796 0.145746,-0.47795 0.01068,-1.06109 -0.172438,-1.55949 -0.179379,-0.49839 -0.402534,-0.91055 -0.805495,-1.23064 -0.402534,-0.31988 -0.984928,-0.54809 -1.361302,-0.50572 -0.377977,0.0444 -0.54876,0.35669 -0.61907,0.7995 -0.06887,0.44432 -0.03737,1.02018 0.02669,1.70855 0.06139,0.68842 0.154821,1.49081 -0.02135,2.2026 -0.175642,0.7118 -0.620832,1.33589 -1.308556,1.75536 -0.687672,0.41925 -1.621562,0.6358 -2.692655,0.62701 -1.071093,-0.009 -2.281151,-0.244 -3.162295,-0.66059 -0.879382,-0.41659 -1.429903,-1.01437 -1.50726,-1.25554 -0.07581,-0.24268 0.32192,-0.12733 0.842438,0.0701 0.520519,0.19742 1.164306,0.47648 1.690216,0.50864 0.529594,0.0311 0.942699,-0.18411 1.310265,-0.42102 0.365697,-0.23514 0.689433,-0.48962 1.086949,-0.60949 0.399331,-0.12112 0.872335,-0.10825 1.308503,-0.063 0.436167,0.0444 0.835445,0.12112 1.1256,-0.0453 0.292024,-0.16504 0.47514,-0.57294 0.467666,-1.12542 -0.0053,-0.55394 -0.205538,-1.25256 -0.48208,-1.8825 -0.276008,-0.62994 -0.627879,-1.18975 -1.405239,-1.63699 -0.775599,-0.44578 -1.97861,-0.77901 -3.241414,-0.78921 -1.262804,-0.009 -2.585401,0.3039 -3.651262,0.36823 -1.065808,0.0643 -1.873065,-0.12112 -2.50799,-0.009 -0.636688,0.11535 -1.099228,0.52906 -1.720113,0.72932 -0.61907,0.20009 -1.391145,0.18545 -2.070061,0.0133 -0.678863,-0.1708 -1.262804,-0.49986 -1.959284,-0.49254 -0.69648,0.009 -1.501975,0.34916 -1.968039,0.85647 -0.464463,0.50719 -0.583942,1.17803 -0.387052,1.63553 0.196996,0.45745 0.712282,0.70008 1.289176,0.78633 0.57508,0.0861 1.210005,0.0133 1.528349,0.0714 0.318183,0.0572 0.318183,0.24268 -0.07741,0.39308 -0.395594,0.1504 -1.185393,0.26442 -1.924102,0.17835 -0.738655,-0.0861 -1.428089,-0.37134 -1.795708,-0.88429 -0.369434,-0.51446 -0.420152,-1.25696 -0.265865,-1.8562 0.154821,-0.6007 0.51518,-1.05673 1.065862,-1.45717 0.550468,-0.39885 1.289176,-0.7425 2.001459,-1.06987 0.712336,-0.32742 1.400007,-0.64312 2.138663,-0.76441 0.738708,-0.12112 1.530163,-0.0497 2.165089,0.0918 0.634872,0.14197 1.116791,0.35803 1.667313,0.5291 0.550468,0.17081 1.167829,0.29947 2.001459,0.29947 0.833684,0 1.881927,-0.12866 2.543226,-0.28483 0.661298,-0.15661 0.935651,-0.34339 0.902231,-0.71472 -0.03203,-0.37134 -0.377976,-0.92812 -0.907517,-1.74804 -0.529593,-0.81996 -1.243478,-1.903 -2.057782,-2.40872 -0.814304,-0.50567 -1.730629,-0.43389 -3.285404,-0.57728 -1.554721,-0.1433 -3.747945,-0.50279 -5.49443,-1.02604 -1.744671,-0.52324 -3.040895,-1.21312 -3.601933,-1.65744 -0.561039,-0.44578 -0.388654,-0.64604 0.225291,-0.54516 0.613838,0.0994 1.667313,0.50279 2.807008,0.78926 1.139694,0.2866 2.365555,0.45892 3.549187,0.437 1.183685,-0.0222 2.32338,-0.23691 2.901982,-0.54521 0.578657,-0.30833 0.596221,-0.71028 0.483682,-1.16924 -0.112646,-0.45896 -0.355554,-0.97635 -1.222337,-2.13539 -0.86705,-1.15753 -2.358508,-2.95823 -3.607218,-4.21811 -1.247002,-1.25842 -2.247731,-1.9775 -3.422608,-2.57235 -1.174876,-0.59489 -2.522084,-1.06844 -3.213279,-1.60043 -0.691195,-0.53202 -0.724615,-1.1196 -0.282948,-1.95855 0.441506,-0.83894 1.357778,-1.92633 2.268819,-2.50219 0.91104,-0.57587 1.813272,-0.63873 2.60478,-0.47356 0.789639,0.16371 1.468555,0.55541 2.493896,0.59485 1.025394,0.0399 2.400737,-0.27462 3.809553,-1.04502 1.408762,-0.77027 2.850945,-1.99946 4.159501,-2.96848 1.308503,-0.96903 2.485141,-1.67936 2.933641,-2.23912 0.448446,-0.5598 0.172438,-0.96756 -0.640211,-1.03042 -0.812542,-0.0612 -2.159804,0.22227 -3.26074,0.71033 -1.101043,0.48815 -1.95576,1.18096 -2.629391,1.76702 -0.673631,0.58611 -1.164306,1.06552 -1.505499,1.24383 -0.341139,0.17834 -0.534719,0.0523 -0.416948,-0.32032 0.117984,-0.37267 0.546944,-0.99534 1.069331,-1.59897 0.524255,-0.60363 1.143218,-1.18974 1.816796,-1.65158 0.67363,-0.46185 1.400007,-0.79951 1.700733,-1.09325 0.298964,-0.29237 0.170837,-0.54228 -0.172438,-0.73664 -0.34114,-0.19565 -0.896947,-0.33762 -1.560007,-0.0803 -0.66306,0.25731 -1.431665,0.91494 -2.500997,1.7144 -1.067569,0.79951 -2.435918,1.74076 -4.029345,2.68201 -1.591718,0.94272 -3.408513,1.88397 -5.366036,2.61183 -1.95576,0.72932 -4.050486,1.24382 -5.844432,1.59023 -1.795708,0.34649 -3.292451,0.52324 -4.841887,0.57732 -1.54949,0.0528 -3.151778,-0.0177 -4.189451,0.24845 -1.037674,0.26752 -1.507261,0.87107 -1.698972,1.61649 -0.191657,0.74538 -0.107307,1.63406 0.364096,3.27979 0.471403,1.64573 1.32612,4.04855 2.017315,6.485 0.691195,2.43645 1.222337,4.90507 1.588141,6.88407 0.365698,1.97895 0.566378,3.46541 0.638449,4.68727 0.07367,1.2204 0.01602,2.1763 0.200733,2.76822 0.183116,0.59196 0.601506,0.81996 1.637471,0.84627 1.034149,0.0266 2.682083,-0.14597 3.999448,-0.18989 1.317312,-0.0453 2.302239,0.0399 3.264264,0.34073 0.962078,0.30124 1.904776,0.81849 2.613535,1.46157 0.710574,0.64458 1.187209,1.4148 1.361302,2.24501 0.17404,0.83016 0.04271,1.72173 -0.332598,2.44373 -0.376374,0.72204 -0.998968,1.27599 -1.584671,1.5829 -0.585649,0.30701 -1.136171,0.3669 -1.412286,0.33186 -0.276008,-0.0355 -0.276008,-0.16371 -0.09503,-0.28217 0.18098,-0.11978 0.543475,-0.22803 0.768605,-0.44431 0.223156,-0.21651 0.311244,-0.54224 0.232232,-0.87258 -0.07901,-0.33185 -0.327259,-0.66792 -0.376375,-1.01725 -0.04805,-0.34916 0.09503,-0.71033 0.318183,-1.01725 0.225291,-0.30701 0.529594,-0.5598 0.615547,-0.95736 0.08595,-0.39618 -0.04271,-0.93832 -0.485284,-1.37093 -0.441506,-0.43256 -1.195964,-0.75856 -1.767573,-0.87258 -0.571555,-0.11401 -0.962024,-0.0177 -1.15902,0.22937 -0.195395,0.24579 -0.195395,0.64308 -0.01602,1.13708 0.18098,0.49406 0.543474,1.08305 0.754511,1.72178 0.209275,0.63868 0.267466,1.32416 -0.03737,1.97895 -0.304303,0.65625 -0.969071,1.2818 -1.846692,1.62528 -0.87762,0.34205 -1.962807,0.40328 -2.657525,0.3669 -0.694719,-0.0355 -0.998968,-0.16815 -1.093943,-0.28216 -0.09343,-0.11402 0.02135,-0.2103 0.290423,-0.24712 0.269067,-0.0355 0.689433,-0.0133 1.071093,-0.0963 0.38545,-0.0847 0.731608,-0.2764 0.905755,-0.60217 0.17404,-0.32431 0.17404,-0.78194 0.399331,-1.10785 0.225291,-0.32431 0.673577,-0.51743 1.035911,-0.69134 0.362494,-0.17524 0.636687,-0.33185 0.58565,-0.81264 -0.05339,-0.48087 -0.427626,-1.28765 -0.810781,-1.93073 -0.383315,-0.64458 -0.773837,-1.12541 -1.375342,-1.34759 -0.601506,-0.22227 -1.41234,-0.18545 -1.990943,-0.11402 -0.580418,0.0714 -0.926896,0.18145 -1.108036,0.40905 -0.18098,0.22803 -0.195395,0.57732 -0.126526,1.18535 0.06887,0.60802 0.218351,1.47181 0.121187,2.28884 -0.09503,0.81699 -0.437769,1.58287 -1.194202,2.18211 -0.756273,0.59928 -1.924103,1.02896 -3.047995,1.04795 -1.123839,0.0178 -2.203687,-0.37577 -2.810478,-0.87985 -0.606791,-0.50426 -0.738709,-1.11809 -0.701765,-1.35194 0.03737,-0.23381 0.24451,-0.0861 0.5029,0.14773 0.258391,0.23381 0.569848,0.55244 0.932182,0.63283 0.362494,0.0803 0.775599,-0.079 1.18187,-0.14153 0.406271,-0.0612 0.807257,-0.0266 1.183632,0.0311 0.377976,0.0555 0.733423,0.12866 1.095757,-0.0311 0.362494,-0.15927 0.733424,-0.55248 1.006015,-1.02603 0.272805,-0.47351 0.450048,-1.02604 0.569847,-1.68956 0.119586,-0.66357 0.177777,-1.43819 -0.03203,-1.89861 -0.205538,-0.46038 -0.680625,-0.60803 -1.190679,-0.81699 -0.509841,-0.20896 -1.057053,-0.47941 -1.73063,-0.58904 -0.671869,-0.11091 -1.470371,-0.0612 -2.508044,0.0555 -1.035911,0.11712 -2.311047,0.29946 -3.294213,0.27063 -0.984874,-0.0311 -1.676069,-0.27196 -2.228352,-0.374 -0.553991,-0.10249 -0.967309,-0.063 -1.283891,0.12112 -0.314981,0.18544 -0.529594,0.51738 -0.805549,0.76002 -0.278144,0.24267 -0.615546,0.39618 -1.028864,0.47209 -0.414813,0.0776 -0.907517,0.0776 -1.213582,0.26885 -0.307506,0.19166 -0.430829,0.5744 -0.337403,0.84915 0.09343,0.27462 0.400933,0.44144 0.814358,0.45457 0.413211,0.0133 0.937413,-0.12733 1.213528,-0.14774 0.276008,-0.0222 0.30804,0.0834 0.170837,0.23691 -0.138805,0.15351 -0.446845,0.35803 -1.046482,0.4531 -0.599744,0.0963 -1.491458,0.0834 -1.966331,-0.38287 -0.476741,-0.46623 -0.538189,-1.38557 -0.23063,-2.14559 0.30804,-0.76002 0.983166,-1.36073 1.790476,-1.76268 0.807257,-0.40194 1.744671,-0.60656 2.536125,-0.59631 0.791455,0.009 1.436951,0.23691 2.235399,0.39884 0.798502,0.16238 1.753533,0.26176 2.759548,0.21651 1.006015,-0.0466 2.066537,-0.23824 2.796437,-0.55102 0.7299,-0.31277 1.129124,-0.74689 1.370111,-1.26574 0.240773,-0.51885 0.320319,-1.12249 0.253052,-2.06227 -0.06673,-0.93979 -0.281347,-2.21725 -0.487419,-3.062 -0.205538,-0.84627 -0.402534,-1.26135 -0.928604,-1.46162 -0.525857,-0.20008 -1.384205,-0.18544 -2.678614,-0.31144 -1.295743,-0.12556 -3.029896,-0.39308 -4.422803,-0.92808 -1.39296,-0.53495 -2.446489,-1.33588 -3.098979,-2.17483 -0.65249,-0.83894 -0.902285,-1.71445 -0.919849,-2.10029 -0.01602,-0.38598 0.196996,-0.28216 0.580364,0.0963 0.384917,0.37844 0.937467,1.03185 1.723636,1.56534 0.78617,0.53349 1.802755,0.95004 3.044418,1.17217 1.241716,0.22227 2.70504,0.25155 3.651262,0.22227 0.947984,-0.031 1.375343,-0.11978 1.537157,-0.38597 0.161761,-0.2662 0.05445,-0.71176 -0.232231,-1.86348 -0.285084,-1.15172 -0.749226,-3.00942 -1.368296,-5.18133 -0.620884,-2.1719 -1.394722,-4.6595 -2.242446,-6.08016 -0.847724,-1.42213 -1.769334,-1.77581 -2.420116,-2.32244 -0.652489,-0.54662 -1.030626,-1.28472 -1.028864,-1.89129 0.0028,-0.60656 0.390255,-1.08158 0.986689,-1.40602 0.597982,-0.32608 1.405239,-0.49986 2.070061,-0.82874 0.664822,-0.32875 1.18897,-0.81118 1.818557,-0.9208 0.62617,-0.10958 1.35607,0.15483 2.022601,0.49844 0.666583,0.34339 1.264565,0.76291 2.316332,0.81259 1.053529,0.0497 2.559028,-0.27062 4.759246,-1.02306 2.200217,-0.75274 5.095206,-1.93663 7.195163,-3.01089 2.099958,-1.07426 3.40499,-2.0345 4.266808,-2.90415 0.861765,-0.86965 1.280369,-1.64719 1.341923,-2.00526 0.0614,-0.35803 -0.233833,-0.29681 -0.787931,-0.0612 -0.553992,0.23514 -1.366534,0.64454 -2.154465,1.16632 -0.787931,0.52178 -1.551251,1.15611 -2.068353,1.45279 -0.517315,0.2968 -0.787931,0.25554 -0.775599,0.051 0.01068,-0.20453 0.30804,-0.57294 0.849486,-1.04356 0.541659,-0.47063 1.329591,-1.04356 2.154465,-1.54489 0.824875,-0.50133 1.686693,-0.93101 2.154519,-1.26862 0.469801,-0.33762 0.543474,-0.58319 0.381713,-0.69574 -0.161761,-0.11269 -0.553992,-0.0918 -1.206535,0.1535 -0.652489,0.24534 -1.56353,0.71619 -2.47457,1.26867 -0.91104,0.55248 -1.822081,1.18677 -2.43768,1.52297 -0.615546,0.33762 -0.935652,0.37844 -0.960263,0.20453 -0.02669,-0.17392 0.246112,-0.56273 0.80021,-1.07431 0.554045,-0.51153 1.391198,-1.14586 2.302239,-1.67785 0.91104,-0.53203 1.895968,-0.96175 2.179129,-1.22776 0.282949,-0.26619 -0.135601,-0.36823 -0.837153,-0.23514 -0.701765,0.1331 -1.686693,0.50133 -2.659288,0.99241 -0.972595,0.49112 -1.932911,1.10496 -2.486902,1.31982 -0.554045,0.21473 -0.701766,0.0311 -0.543475,-0.32742 0.16016,-0.35802 0.627879,-0.8901 1.366587,-1.36072 0.738656,-0.47063 1.748194,-0.87985 2.56079,-1.19702 0.812542,-0.31721 1.428089,-0.54228 1.600474,-0.82874 0.172438,-0.2866 -0.09823,-0.63434 -0.590936,-0.65479 -0.492757,-0.0222 -1.206534,0.2866 -2.080684,0.74689 -0.874097,0.46038 -1.908247,1.07426 -2.523793,1.31978 -0.6156,0.24578 -0.812596,0.12289 -0.726377,-0.1433 0.08595,-0.26619 0.455387,-0.67524 1.280368,-1.15612 0.824875,-0.48083 2.105243,-1.03331 2.720843,-1.46303 0.615546,-0.4299 0.566324,-0.73664 0.01068,-0.83895 -0.554045,-0.10248 -1.612806,0 -4.423337,0.52471 -2.812294,0.52617 -7.374596,1.47621 -12.142597,2.07106 -4.768053,0.59485 -9.736627,0.83895 -14.722765,1.36512 -4.986084,0.52617 -9.989839,1.33734 -14.390271,2.34874 -4.40225,1.01144 -8.202941,2.22744 -11.303681,3.65689 -3.102503,1.43087 -5.5049479,3.0766 -6.8697734,3.83374 -1.3648255,0.75709 -1.688401,0.62115 -1.0394349,-0.24268 0.6506211,-0.86375 2.2739974,-2.4569 4.7749943,-4.14354 2.500943,-1.68668 5.87956,-3.4698 9.875485,-4.92702 3.994217,-1.45718 8.607502,-2.59138 12.927002,-3.22567 4.319607,-0.63433 8.348953,-0.7688 12.181301,-0.94418 3.832403,-0.17524 7.471279,-0.39174 10.946633,-0.71472 3.475353,-0.32431 6.788892,-0.75563 8.964498,-1.09325 2.175606,-0.33762 3.216803,-0.58026 3.39442,-0.86379 0.177777,-0.2835 -0.502901,-0.60803 -3.118305,-0.57294 -2.613535,0.0355 -7.161744,0.42813 -11.076735,0.77462 -3.913283,0.34472 -7.195164,0.64308 -10.686373,0.8448 -3.491156,0.2032 -7.195164,0.30967 -10.929014,0.67231 -3.735666,0.36114 -7.502935,0.97489 -10.686318,1.90296 -3.183383,0.92812 -5.782877,2.17048 -7.161744,2.6294 -1.380681,0.45896 -1.542442,0.13443 -0.552283,-0.55248 0.990213,-0.68842 3.134161,-1.74072 5.76526,-2.82083 2.631153,-1.08012 5.749458,-2.18654 9.110509,-2.87496 3.362761,-0.68837 6.966509,-0.95878 10.345126,-1.13415 3.378618,-0.17525 6.52858,-0.25599 10.216732,-0.48673 3.686391,-0.22937 7.909208,-0.60799 10.865699,-0.93101 2.95649,-0.32298 4.644944,-0.59338 5.439922,-0.8901 0.794979,-0.2968 0.698242,-0.6212 -1.104513,-0.78047 -1.802755,-0.1606 -5.311528,-0.15484 -9.094655,-0.12556 -3.783126,0.0311 -7.844129,0.0834 -12.197103,0.35226 -4.352974,0.27063 -8.997919,0.75563 -12.684309,1.38992 -3.68639,0.63434 -6.414278,1.41774 -8.10444,1.94391 -1.688455,0.52617 -2.339183,0.79658 -2.646956,0.76881 -0.309641,-0.0266 -0.276008,-0.35093 1.039435,-1.11956 1.31555,-0.76881 3.915045,-1.98339 7.713972,-3.10441 3.798982,-1.12103 8.802684,-2.1456 13.642863,-2.86178 4.840125,-0.71615 9.51849,-1.12103 12.960424,-1.43087 3.441933,-0.30967 5.650959,-0.52617 6.788892,-0.85066 1.136171,-0.32298 1.202958,-0.75563 0.292024,-1.96871 -0.909278,-1.21459 -2.792967,-3.209646 -4.806759,-4.437366 -2.013792,-1.227719 -4.157739,-1.686678 -5.408265,-1.632596 -1.250471,0.05412 -1.609282,0.621158 -1.623322,1.160506 -0.01602,0.540768 0.30804,1.053807 0.292024,1.349014 -0.01602,0.298134 -0.372638,0.378435 -1.136172,0.09494 -0.763319,-0.283494 -1.932911,-0.931004 -2.646955,-1.917599 -0.714098,-0.985085 -0.974357,-2.307835 -0.536427,-3.49607 0.437769,-1.188278 1.575862,-2.240622 2.891412,-2.928993 1.31555,-0.688416 2.810531,-1.011439 3.971314,-1.087437 1.160782,-0.07586 1.992704,0.09938 2.569545,0.07897 0.578656,-0.02218 0.902285,-0.236911 0.62617,-1.005583 -0.276008,-0.768805 -1.153789,-2.091511 -2.599495,-3.212532 -1.445706,-1.121065 -3.459498,-2.038893 -5.489145,-2.591418 -2.029648,-0.5539 -4.076859,-0.742452 -5.506709,-0.378436 -1.429904,0.36557 -2.240738,1.281801 -2.581931,1.943908 -0.34114,0.660643 -0.210877,1.065476 0.08115,1.498125 0.292024,0.432562 0.747518,0.8901 1.56006,1.22772 0.810781,0.337619 1.980372,0.55248 2.516799,0.768805 0.536428,0.214728 0.439905,0.43123 -0.210876,0.526172 -0.650728,0.09494 -1.851977,0.06743 -2.891412,-0.0803 -1.039435,-0.149067 -1.917109,-0.417921 -2.388458,-0.216502 -0.471403,0.203192 -0.536374,0.876923 -0.372638,1.701274 0.161761,0.822842 0.552283,1.794796 1.363064,2.632278 0.812542,0.836019 2.047211,1.539031 2.729651,2.024298 0.682386,0.485222 0.81078,0.755629 0.357155,0.836018 -0.455386,0.08163 -1.494981,-0.02662 -2.940687,-0.660642 -1.443945,-0.634335 -3.295922,-1.796261 -4.287896,-3.171627 -0.991921,-1.375323 -1.120316,-2.968435 -0.694719,-4.739895 0.425491,-1.771415 1.410578,-3.721179 1.698972,-5.073121 0.290422,-1.351986 -0.112645,-2.106151 -0.657775,-2.933386 -0.545183,-0.827278 -1.229384,-1.727626 -2.457006,-2.480327 -1.225861,-0.754165 -2.995196,-1.363655 -3.995925,-2.505128 -1.00073,-1.141518 -1.236431,-2.817947 -0.534666,-4.997168 0.701765,-2.179177 2.340944,-4.861189 4.636136,-7.458419 2.296953,-2.59723 5.249974,-5.109678 8.308485,-6.81388 3.058459,-1.704203 6.222516,-2.598695 9.261702,-2.888089 3.040894,-0.289262 5.960494,0.03105 8.566982,0.428124 2.606542,0.398844 4.896449,0.881316 5.951739,0.809711 1.057,-0.07143 0.877621,-0.69862 -0.772128,-2.202602 -1.649749,-1.505446 -4.769816,-3.889279 -8.929317,-5.334787 -4.161263,-1.445509 -9.360199,-1.951184 -13.523224,-1.923411 -4.163025,0.03106 -7.288377,0.593385 -9.245899,1.230647 -1.959284,0.638682 -2.750739,1.351942 -3.164057,2.215734 -0.413211,0.862371 -0.448446,1.876694 -0.198598,2.829615 0.251451,0.95443 0.787931,1.848922 0.860003,2.354641 0.07207,0.505675 -0.323522,0.62555 -1.021817,0.387309 -0.700004,-0.239573 -1.704257,-0.834555 -2.421878,-1.534683 -0.715806,-0.700083 -1.146688,-1.505401 -1.345446,-2.250826 -0.196996,-0.745381 -0.16016,-1.430868 -0.518917,-1.714406 -0.358757,-0.282163 -1.11156,-0.163708 -2.882657,0.643074 -1.771096,0.806782 -4.560487,2.301979 -6.583087,4.150901 -2.022601,1.848877 -3.278358,4.055871 -3.834164,6.379766 -0.555754,2.325405 -0.41161,4.769131 0.08969,6.661886 0.502901,1.892754 1.36301,3.233028 2.47457,4.261991 1.11156,1.028919 2.474624,1.743643 2.850999,2.176249 0.376375,0.43123 -0.233833,0.580253 -1.470371,0.358027 -1.238193,-0.223601 -3.102449,-0.819914 -4.69769,-2.071014 -1.59695,-1.2511 -2.92307,-3.158495 -3.4436955,-5.423917 -0.5205182,-2.265467 -0.2338328,-4.887542 0.5575685,-7.114988 0.789693,-2.225981 2.085917,-4.057334 3.466545,-5.695743 1.380628,-1.638453 2.847475,-3.086889 4.500694,-4.528006 1.653273,-1.441116 3.492918,-2.871984 5.373083,-3.84833 1.880112,-0.976346 3.797167,-1.496661 4.657221,-2.081262 0.860057,-0.584645 0.664822,-1.236504 1.598712,-2.962622 0.932181,-1.727583 2.993434,-4.533818 5.812774,-7.171997 2.817579,-2.639599 6.389668,-5.114071 9.938855,-6.751015 3.550949,-1.636987 7.07734,-2.436449 10.582537,-2.930456 3.50525,-0.495471 6.985888,-0.685487 9.803467,-0.628478 2.817525,0.05723 4.970282,0.361133 5.749404,0.152173 0.777414,-0.20896 0.183116,-0.932513 -1.809748,-1.903003 -1.992704,-0.97049 -5.383654,-2.189425 -9.597663,-2.569457 -4.214009,-0.38021 -9.252945,0.07586 -13.857423,1.103496 -4.602716,1.0275 -8.771026,2.626467 -11.702852,4.415451 -2.931932,1.788983 -4.62738,3.769403 -5.703759,5.539354 -1.076325,1.769996 -1.533633,3.330987 -2.107002,4.054451 -0.573371,0.723464 -1.25928,0.60949 -1.581147,-0.894492 -0.320319,-1.503981 -0.274407,-4.396418 1.398245,-7.708372 1.670835,-3.311953 4.97028,-7.041872 9.639836,-10.042515 4.669555,-2.9991352 10.712745,-5.2675302 16.984536,-6.0538598 6.271791,-0.7863295 12.772237,-0.086069 18.152313,1.7056663 5.381892,1.7933765 9.639838,4.6814205 12.445138,7.6586835 2.807008,2.978682 4.159501,6.046539 5.265776,8.348517 1.106275,2.302024 1.964516,3.838126 3.547425,5.729416 1.582909,1.89271 3.893957,4.140653 5.395932,8.320746 1.501976,4.180138 2.198454,10.288079 1.556537,15.283738 -0.633164,4.983992 -2.613536,8.865951 -4.578105,12.780075 z"
       id="path410"
       style="fill:#000000;stroke:#000000;stroke-width:0.4008266;stroke-linecap:round;stroke-linejoin:round;fill-opacity:1" />
  </g>
</svg>
