<?xml version="1.0" encoding="UTF-8" standalone="no"?>
<!-- Created with Inkscape (http://www.inkscape.org/) -->

<svg
   xmlns:dc="http://purl.org/dc/elements/1.1/"
   xmlns:cc="http://creativecommons.org/ns#"
   xmlns:rdf="http://www.w3.org/1999/02/22-rdf-syntax-ns#"
   xmlns:svg="http://www.w3.org/2000/svg"
   xmlns="http://www.w3.org/2000/svg"
   xmlns:sodipodi="http://sodipodi.sourceforge.net/DTD/sodipodi-0.dtd"
   xmlns:inkscape="http://www.inkscape.org/namespaces/inkscape"
   width="210mm"
   height="297mm"
   viewBox="0 0 210 297"
   version="1.1"
   id="svg8"
   inkscape:version="0.92.3 (2405546, 2018-03-11)"
   sodipodi:docname="wolf.svg">
  <defs
     id="defs2" />
  <sodipodi:namedview
     id="base"
     pagecolor="#ffffff"
     bordercolor="#666666"
     borderopacity="1.0"
     inkscape:pageopacity="0.0"
     inkscape:pageshadow="2"
     inkscape:zoom="0.35"
     inkscape:cx="-70"
     inkscape:cy="560"
     inkscape:document-units="mm"
     inkscape:current-layer="layer1"
     showgrid="false"
     inkscape:window-width="1825"
     inkscape:window-height="1051"
     inkscape:window-x="2391"
     inkscape:window-y="-9"
     inkscape:window-maximized="1" />
  <metadata
     id="metadata5">
    <rdf:RDF>
      <cc:Work
         rdf:about="">
        <dc:format>image/svg+xml</dc:format>
        <dc:type
           rdf:resource="http://purl.org/dc/dcmitype/StillImage" />
        <dc:title></dc:title>
      </cc:Work>
    </rdf:RDF>
  </metadata>
  <g
     inkscape:label="Layer 1"
     inkscape:groupmode="layer"
     id="layer1">
    <path
       inkscape:connector-curvature="0"
       d="m 93.914479,25.55474 c 0.571406,0.684169 1.424196,1.638931 2.1715,2.155043 0.747238,0.516076 1.386855,0.595962 2.985848,0.755662 1.600123,0.15847 4.159533,0.396934 6.417323,0.337201 2.2578,-0.0597 4.21286,-0.417159 6.73719,-0.914204 2.5243,-0.497009 5.61783,-1.132335 8.85206,-1.470838 3.23532,-0.337201 6.61244,-0.377831 10.49483,0.108541 3.88238,0.486299 8.27,1.497068 12.33045,3.431557 4.06143,1.934525 7.79571,4.791575 10.94037,7.779743 3.14476,2.988204 5.69995,6.108647 7.38851,8.18858 1.68847,2.079934 2.51145,3.115703 3.39201,3.914311 0.87942,0.797414 1.81643,1.356436 2.73216,2.019151 0.91463,0.662715 1.81006,1.430316 2.19489,1.908258 0.38484,0.476784 0.26016,0.662714 -0.0421,0.640066 -0.30158,-0.02171 -0.78031,-0.256157 -1.14485,-0.371862 -0.36351,-0.116862 -0.61399,-0.116862 -0.48825,0.220338 0.12458,0.337201 0.62363,1.011964 1.48814,1.919004 0.86453,0.907076 2.09041,2.047733 3.004,2.923803 0.91359,0.87607 1.51056,1.488747 1.74822,1.874936 0.23654,0.387346 0.11196,0.550664 -0.0754,0.597156 -0.18767,0.04667 -0.43706,-0.02533 -0.44663,0.163173 -0.01,0.185967 0.21841,0.628126 0.68653,1.11685 0.46796,0.488687 1.17582,1.023866 1.99771,1.593598 0.82188,0.569731 1.7578,1.174051 2.06051,1.523299 0.30157,0.348055 -0.0324,0.442196 -0.52019,0.313321 -0.48824,-0.127716 -1.13317,-0.476784 -1.34213,-0.430292 -0.20903,0.04667 0.0226,0.488687 0.78565,1.390988 0.76435,0.902301 2.06484,2.26467 2.95077,3.313574 0.88582,1.048903 1.35809,1.784304 1.54353,2.232469 0.18444,0.446972 0.0822,0.609096 -0.19512,0.482754 -0.2773,-0.126269 -0.73022,-0.539955 -1.09903,-0.872488 -0.36985,-0.333582 -0.65767,-0.586447 -0.80057,-0.539955 -0.14399,0.04667 -0.14399,0.390964 0.0822,0.780699 0.22586,0.390964 0.67796,0.827226 0.8837,1.137111 0.20482,0.309703 0.16405,0.493463 -0.0227,0.505366 -0.18443,0.01085 -0.51274,-0.149063 -0.73979,-0.11433 -0.22586,0.03618 -0.34963,0.264478 -0.11293,0.723534 0.23654,0.458875 0.8325,1.149014 1.46794,1.961913 0.63635,0.8129 1.31331,1.749752 1.72264,2.421983 0.40929,0.672266 0.55218,1.081103 0.47009,1.227706 -0.0822,0.14653 -0.38587,0.03256 -0.79099,-0.306447 -0.40615,-0.340819 -0.91245,-0.907077 -1.22804,-1.134723 -0.31452,-0.226489 -0.43602,-0.113245 -0.41573,0.158469 0.0194,0.271715 0.18217,0.703237 0.58842,1.383825 0.40512,0.680624 1.05535,1.611507 1.57554,2.413697 0.51915,0.802153 0.91042,1.476771 1.3698,2.139486 0.45951,0.662751 0.98714,1.312332 1.34851,1.852287 0.36137,0.541113 0.55539,0.973793 0.57251,1.170469 0.0194,0.196821 -0.14076,0.157384 -0.39554,-0.02171 -0.25595,-0.17656 -0.60762,-0.492269 -0.75682,-0.511336 -0.15046,-0.01809 -0.0971,0.256156 0.0162,0.522081 0.1139,0.265926 0.28992,0.522046 0.5628,0.817639 0.27277,0.295593 0.64279,0.629357 0.80059,0.885622 0.15791,0.256156 0.10549,0.43268 -0.0786,0.43268 -0.18443,0 -0.50212,-0.17656 -0.81017,-0.374285 -0.30805,-0.196821 -0.60658,-0.413614 -0.72171,-0.373055 -0.11519,0.04052 -0.0437,0.335029 0.39655,0.825996 0.44032,0.492269 1.24936,1.181215 2.00628,1.750946 0.75578,0.570925 1.46037,1.023866 1.95395,1.377891 0.49252,0.353843 0.77394,0.610253 0.77394,0.758049 0,0.147978 -0.28151,0.187053 -0.89757,-0.117947 -0.61616,-0.305 -1.56596,-0.954726 -2.35805,-1.535203 -0.79202,-0.580477 -1.4252,-1.093007 -1.75139,-1.200282 -0.32627,-0.108541 -0.34332,0.187052 -0.0194,0.570925 0.32516,0.383837 0.99458,0.855809 1.77699,1.407704 0.78355,0.550664 1.68112,1.179984 2.53818,1.762849 0.8581,0.582865 1.67682,1.119238 2.23965,1.531657 0.56289,0.412383 0.87094,0.698461 0.97325,0.947562 0.10355,0.247836 0,0.458911 -0.38476,0.344437 -0.38483,-0.11433 -1.05114,-0.554246 -1.65876,-0.936853 -0.60758,-0.382607 -1.15449,-0.706818 -1.4881,-0.78428 -0.33364,-0.07634 -0.45308,0.09515 -0.22165,0.430292 0.23038,0.33503 0.81227,0.831966 1.45293,1.309908 0.64175,0.477978 1.34217,0.936853 1.77809,1.348078 0.43605,0.411226 0.60658,0.773573 0.52132,0.917793 -0.0858,0.14291 -0.42748,0.0666 -0.91463,-0.19176 -0.48721,-0.257606 -1.12042,-0.697269 -1.76961,-1.185957 -0.65023,-0.487493 -1.31648,-1.022672 -1.77803,-1.309944 -0.46162,-0.287272 -0.71854,-0.324176 -0.82086,-0.181263 -0.10225,0.142912 -0.0514,0.468426 0.27407,0.879651 0.32517,0.411226 0.92317,0.908235 1.5734,1.367146 0.65033,0.458917 1.35175,0.879657 1.74402,1.290877 0.39331,0.41119 0.47861,0.81286 0.38483,1.09894 -0.0938,0.28727 -0.36777,0.45891 -1.06065,0.30645 -0.69184,-0.15268 -1.80369,-0.63051 -2.86435,-1.39573 -1.06068,-0.76525 -2.06912,-1.816541 -2.88143,-2.724775 -0.81227,-0.908234 -1.42743,-1.67229 -1.72696,-1.826056 -0.29931,-0.153767 -0.28249,0.306447 -0.22165,0.870136 0.0608,0.563762 0.16211,1.23364 0.0686,1.519718 -0.0938,0.286186 -0.38476,0.19067 -0.62363,-0.239514 -0.23977,-0.430292 -0.42744,-1.194312 -0.73549,-2.122843 -0.30805,-0.927338 -0.73549,-2.016763 -1.09483,-2.915446 -0.35923,-0.898755 -0.64913,-1.605537 -0.84638,-1.845123 -0.19706,-0.238428 -0.29963,-0.01085 -0.28993,0.315854 0.01,0.325261 0.12782,0.746147 0.0857,0.965435 -0.0427,0.2207 -0.24851,0.239514 -0.43592,0.01809 -0.18768,-0.2207 -0.35924,-0.6782 -0.56393,-1.175245 -0.20483,-0.497009 -0.4445,-1.032188 -0.58953,-0.974987 -0.14593,0.05716 -0.19706,0.708012 -0.13623,1.414831 0.0599,0.708012 0.23007,1.472032 0.4701,2.323065 0.23977,0.851033 0.54681,1.787886 0.80373,2.561457 0.25692,0.774765 0.46155,1.386212 0.40185,1.624604 -0.0599,0.239514 -0.38483,0.104923 -0.71743,-0.324175 -0.33361,-0.430256 -0.67583,-1.156178 -1.07768,-2.351684 -0.40188,-1.194312 -0.8635,-2.858244 -1.15449,-4.130018 -0.28993,-1.270616 -0.41046,-2.151462 -0.51274,-2.370787 -0.10226,-0.219253 -0.18768,0.2207 -0.21421,0.688945 -0.0259,0.468427 0.01,0.965472 0.0427,1.44345 0.0343,0.477942 0.0686,0.936853 -0.01,1.09894 -0.077,0.162088 -0.26533,0.02894 -0.41042,-0.315854 -0.14497,-0.344436 -0.24722,-0.898718 -0.34222,-1.510166 -0.0938,-0.611483 -0.17926,-1.281325 -0.26533,-1.386212 -0.0857,-0.104923 -0.17053,0.353843 -0.20483,0.889167 -0.0343,0.535179 -0.0162,1.146663 -0.0427,1.596022 -0.0259,0.449323 -0.0938,0.736595 -0.21421,0.765214 -0.12037,0.02894 -0.28993,-0.200077 -0.49672,-1.135917 -0.20677,-0.935659 -0.44878,-2.576979 -0.57028,-4.238523 -0.12037,-1.661545 -0.12037,-3.344544 -0.13752,-4.481655 -0.0162,-1.137111 -0.0514,-1.730685 -0.15467,-1.95001 -0.10225,-0.219252 -0.27278,-0.06657 -0.43602,0.439808 -0.16308,0.506597 -0.31646,1.367145 -0.35069,2.561493 -0.0343,1.194312 0.0514,2.724739 0.13655,3.899984 0.0857,1.175245 0.17149,1.997696 0.17149,2.609143 0,0.612641 -0.0864,1.013157 -0.23136,1.138305 -0.14496,0.125184 -0.35066,-0.02894 -0.53833,-0.688946 -0.18768,-0.659132 -0.35921,-1.82602 -0.44551,-3.53051 -0.0864,-1.704454 -0.0887,-3.948864 -0.13331,-5.834509 -0.0437,-1.886803 -0.13008,-3.416072 -0.26663,-4.506691 -0.13655,-1.089425 -0.3251,-1.739043 -0.47012,-1.711618 -0.14497,0.02894 -0.24722,0.736631 -0.28993,1.63535 -0.0427,0.898719 -0.0259,1.988144 0.0343,2.991749 0.0599,1.003606 0.16211,1.921392 0.11099,2.399334 -0.0515,0.477978 -0.25692,0.516112 -0.42745,0.40171 -0.1715,-0.11433 -0.30805,-0.382643 -0.40188,-1.166924 -0.0938,-0.78428 -0.14594,-2.084673 -0.18444,-3.519765 -0.0395,-1.436286 -0.0667,-3.007235 -0.18865,-3.964385 -0.12166,-0.955919 -0.33791,-1.298004 -0.48184,-1.298004 -0.14399,0 -0.21647,0.341904 -0.29737,0.643647 -0.0812,0.301382 -0.17052,0.563798 -0.29639,0.613835 -0.12588,0.04993 -0.28896,-0.110711 -0.34209,-0.634096 -0.0547,-0.523275 0,-1.408861 -0.0447,-2.526905 -0.0446,-1.116849 -0.18864,-2.464928 -0.38699,-3.301633 -0.19836,-0.835548 -0.44987,-1.157372 -0.57669,-1.066777 -0.12587,0.09045 -0.12587,0.593574 -0.0624,1.1967 0.0624,0.604283 0.18865,1.308714 0.28799,2.093031 0.099,0.78428 0.17149,1.650799 0.17149,2.395787 0,0.744953 -0.0728,1.368339 -0.21647,1.630538 -0.14399,0.262307 -0.36034,0.161003 -0.44133,-0.221785 -0.0812,-0.382607 -0.0259,-1.046515 -0.0194,-1.630538 0.01,-0.584059 -0.0259,-1.087037 -0.11714,-1.257483 -0.0906,-0.170409 -0.23459,-0.01085 -0.41473,0.02171 -0.17894,0.02895 -0.39544,-0.07055 -0.50416,-0.473202 -0.10775,-0.401674 -0.10775,-1.106104 -0.20159,-2.096612 -0.0938,-0.990509 -0.28152,-2.264671 -0.47327,-3.003653 -0.19285,-0.737825 -0.39014,-0.939277 -0.50743,-0.818869 -0.11714,0.12048 -0.15338,0.563798 -0.17182,1.044127 -0.0194,0.480366 -0.0194,0.99883 -0.17053,1.27655 -0.1524,0.277865 -0.45938,0.314769 -0.63961,-0.07851 -0.18024,-0.39451 -0.2346,-1.219349 -0.28799,-2.156202 -0.054,-0.935659 -0.10872,-1.982174 -0.18023,-2.747388 -0.0728,-0.765213 -0.16211,-1.247967 -0.30578,-1.368339 -0.144,-0.121566 -0.34219,0.120481 -0.44133,0.563762 -0.099,0.443426 -0.099,1.087073 -0.2333,1.348078 -0.13526,0.262307 -0.40512,0.140741 -0.54905,-0.201524 -0.14399,-0.341904 -0.16211,-0.905847 -0.14723,-1.772401 0.0162,-0.867712 0.065,-2.038182 -0.0324,-2.858244 -0.0961,-0.821257 -0.33688,-1.292071 -0.63004,-1.342109 -0.29316,-0.04993 -0.63962,0.319472 -0.84318,0.891555 -0.20256,0.572119 -0.26339,1.345691 -0.39118,1.716394 -0.12813,0.370667 -0.32412,0.336115 -0.45948,0.02533 -0.13525,-0.31115 -0.21097,-0.899913 -0.36137,-1.144274 -0.15046,-0.244217 -0.37629,-0.142913 -0.53406,-0.02533 -0.15791,0.117948 -0.24851,0.252539 -0.16535,0.437457 0.0832,0.184881 0.33895,0.42074 0.42848,0.605477 0.0906,0.184881 0.0162,0.319472 -0.15758,0.302829 -0.17376,-0.01809 -0.4446,-0.184881 -0.78251,-0.412419 -0.33791,-0.226489 -0.74507,-0.513688 -0.99345,-0.563762 -0.24851,-0.04993 -0.33791,0.134591 -0.19609,0.379025 0.1427,0.244217 0.51909,0.545925 0.64706,0.756892 0.12781,0.209846 0.01,0.327794 -0.22618,0.311151 -0.23362,-0.01809 -0.57882,-0.167877 -0.93275,-0.235896 -0.35393,-0.06802 -0.71426,-0.04993 -0.85809,0.109627 -0.14302,0.159917 -0.0667,0.462456 0.15014,0.756892 0.21874,0.294507 0.57881,0.58044 0.94019,0.849839 0.36137,0.269543 0.72274,0.522045 0.82088,0.698461 0.098,0.17656 -0.0676,0.277864 -0.37629,0.226488 -0.30804,-0.04993 -0.76008,-0.251453 -1.15132,-0.470814 -0.39127,-0.219253 -0.72171,-0.454099 -0.9253,-0.505366 -0.20256,-0.04993 -0.27828,0.08466 -0.27084,0.235895 0.01,0.151234 0.0981,0.319472 0.33147,0.572119 0.2333,0.252539 0.60975,0.588835 0.9488,0.884428 0.33892,0.295593 0.64062,0.54947 0.96468,0.82719 0.32403,0.277865 0.67052,0.581671 0.75365,0.766444 0.0832,0.184881 -0.0981,0.252538 -0.33895,0.244217 -0.24107,-0.0072 -0.54157,-0.09298 -0.93275,-0.387383 -0.39127,-0.294507 -0.87307,-0.798608 -1.28667,-1.093007 -0.4136,-0.294507 -0.76009,-0.379025 -0.94022,-0.244217 -0.18023,0.134591 -0.19609,0.487494 0.01,0.874876 0.20353,0.387383 0.62473,0.808124 1.03832,1.194312 0.4136,0.386189 0.82076,0.740177 0.97857,0.99286 0.15791,0.251453 0.0676,0.404098 -0.1427,0.39574 -0.21097,-0.0072 -0.5416,-0.17656 -0.94032,-0.404061 -0.39861,-0.227574 -0.86553,-0.513724 -1.08411,-0.538761 -0.21842,-0.02533 -0.18865,0.210931 0,0.454135 0.18767,0.244217 0.53416,0.497045 0.82729,0.665103 0.29316,0.167876 0.53407,0.252538 0.56383,0.37783 0.0291,0.12627 -0.15014,0.294508 -0.36881,0.294508 -0.21841,0 -0.47436,-0.168238 -0.76753,-0.319472 -0.29316,-0.151234 -0.62463,-0.286186 -0.78241,-0.261222 -0.1579,0.02533 -0.1427,0.209846 -0.01,0.404062 0.13526,0.193203 0.39124,0.395704 0.73019,0.613835 0.33791,0.219253 0.76009,0.454135 0.91786,0.64723 0.15758,0.194288 0.0521,0.345521 -0.23362,0.327793 -0.28572,-0.01809 -0.75261,-0.201524 -1.29412,-0.504172 -0.54151,-0.30283 -1.1588,-0.723534 -1.47539,-0.791445 -0.31548,-0.06802 -0.3315,0.219253 -0.01,0.640066 0.32406,0.421935 0.9861,0.977375 1.62562,1.47442 0.63962,0.497009 1.25691,0.934465 1.48283,1.237222 0.22489,0.302829 0.0599,0.472008 -0.19609,0.454135 -0.25595,-0.01809 -0.60227,-0.219253 -1.12146,-0.48753 -0.51905,-0.269181 -1.21202,-0.605477 -1.53502,-0.555404 -0.32293,0.04993 -0.27827,0.488688 -0.12781,1.001218 0.15046,0.51253 0.40612,1.101329 0.79739,1.743782 0.39118,0.642454 0.91777,1.337333 1.1289,1.803408 0.21097,0.466038 0.10549,0.700848 -0.26339,0.650775 -0.36881,-0.04993 -1.00099,-0.387383 -1.46681,-0.588798 -0.46686,-0.201525 -0.76753,-0.269182 -0.82823,0 -0.0599,0.269543 0.12037,0.874876 0.62567,1.970271 0.5064,1.094164 1.33676,2.679441 2.15762,3.942893 0.82188,1.263453 1.63419,2.206275 2.35907,2.852311 0.72702,0.645999 1.36664,0.995248 1.73331,1.483935 0.36671,0.488688 0.46052,1.11685 0.51491,2.183626 0.054,1.065583 0.0702,2.569815 0.0226,4.307664 -0.0469,1.737812 -0.15564,3.710471 -0.33263,5.610408 -0.177,1.898742 -0.42104,3.724798 -0.60545,4.994188 -0.18444,1.27061 -0.31031,1.98695 -0.23136,2.66753 0.0786,0.68063 0.35924,1.32663 0.40616,2.06803 0.0472,0.74257 -0.14076,1.5805 -0.47654,2.31352 -0.33577,0.73305 -0.81975,1.3624 -1.30369,1.64132 -0.48398,0.27895 -0.96795,0.20984 -1.50629,0.15738 -0.53834,-0.0525 -1.13207,-0.0868 -1.68642,0.0441 -0.55436,0.13097 -1.06924,0.42791 -1.67041,0.53279 -0.60124,0.10493 -1.28778,0.0181 -1.89753,-0.13929 -0.60975,-0.15739 -1.13951,-0.3838 -1.6086,-0.39335 -0.46896,-0.0109 -0.87411,0.20043 -1.39753,0.12265 -0.52336,-0.0774 -1.16298,-0.44578 -1.39747,-0.77712 -0.2346,-0.33141 -0.0624,-0.62816 0.25789,-1.11804 0.32099,-0.48989 0.78885,-1.16928 1.31971,-1.7724 0.53083,-0.60313 1.12463,-1.12637 1.85799,-1.48398 0.73345,-0.35746 1.6087,-0.54947 2.28022,-0.32309 0.67155,0.22758 1.13951,0.87249 1.54567,1.21342 0.40615,0.34082 0.74947,0.37544 1.05434,0.20984 0.30481,-0.1657 0.57028,-0.53163 0.70246,-1.23009 0.13234,-0.69846 0.13331,-1.7283 0.16405,-3.1288 0.0324,-1.40173 0.0938,-3.17294 0.19512,-4.364864 0.10128,-1.191924 0.24204,-1.802213 0.0702,-2.745036 -0.1715,-0.942786 -0.65554,-2.216984 -1.14065,-3.462564 -0.48397,-1.245543 -0.96895,-2.462504 -1.25577,-3.57816 -0.28669,-1.115656 -0.37516,-2.131164 -0.65127,-2.773618 -0.2773,-0.643648 -0.7419,-0.916628 -1.68222,-1.572179 -0.94018,-0.655551 -2.3569,-1.694939 -3.25868,-2.816528 -0.90081,-1.121626 -1.28781,-2.326647 -1.58411,-3.407751 -0.2964,-1.081068 -0.50527,-2.039376 -0.92214,-2.893991 -0.41676,-0.854615 -1.0425,-1.605537 -1.42416,-1.954785 -0.38159,-0.34914 -0.52122,-0.298126 -0.4743,0.01447 0.0453,0.31115 0.27828,0.880845 0.44023,1.333787 0.16211,0.452941 0.25465,0.79025 0.17376,0.945174 -0.0812,0.154852 -0.33587,0.128802 -0.59066,-0.129887 -0.25466,-0.258689 -0.50947,-0.750886 -0.7408,-1.256289 -0.23136,-0.505367 -0.44032,-1.022673 -0.62473,-1.114426 -0.18541,-0.09045 -0.34752,0.24675 -0.39441,0.790214 -0.0453,0.543537 0.0226,1.294459 0.11519,1.981017 0.0929,0.686557 0.20904,1.30752 0.12782,1.592404 -0.0812,0.284739 -0.35924,0.232277 -0.6481,-0.25869 -0.28895,-0.492269 -0.59056,-1.424346 -0.78781,-1.618634 -0.19706,-0.194288 -0.28896,0.34914 -0.31226,0.905846 -0.0226,0.556634 0.0227,1.126402 -0.0812,1.32069 -0.10452,0.194288 -0.35924,0.01447 -0.50957,-0.375479 -0.15144,-0.388577 -0.19739,-0.984539 -0.19739,-1.70923 0,-0.724692 0.0463,-1.579307 -0.0925,-1.916616 -0.13849,-0.336115 -0.46369,-0.154852 -0.70676,0.582865 -0.24301,0.738983 -0.40512,2.033442 -0.48711,3.859462 -0.0812,1.826056 -0.0812,4.182479 0,5.970402 0.0812,1.786692 0.24397,3.004846 0.48711,3.948863 0.24301,0.944017 0.5671,1.618635 0.52132,2.214597 -0.0463,0.595962 -0.46379,1.114462 -1.49354,2.391047 -1.03079,1.27655 -2.67567,3.312344 -3.93778,5.003701 -1.26322,1.690163 -2.14264,3.038238 -2.79183,4.112178 -0.6482,1.07514 -1.06606,1.87849 -1.58625,2.40889 -0.52021,0.5304 -1.14705,0.79025 -1.77168,1.4899 -0.62577,0.6985 -1.25041,1.83796 -2.00415,2.60321 -0.75254,0.76402 -1.63307,1.1526 -2.66599,1.30278 -1.03403,0.15015 -2.22055,0.0633 -3.20339,-0.0951 -0.9818,-0.15847 -1.75894,-0.38738 -2.50514,-0.46723 -0.74611,-0.08 -1.46141,-0.0109 -1.9934,0.0691 -0.53193,0.08 -0.87942,0.1715 -1.06283,0.10239 -0.18444,-0.0691 -0.2045,-0.29668 0.0515,-0.60551 0.25595,-0.30862 0.78672,-0.69727 0.89971,-0.9607 0.11196,-0.26339 -0.19415,-0.39928 -0.55219,-0.34335 -0.35813,0.0572 -0.76642,0.30862 -0.9807,0.29668 -0.21517,-0.0108 -0.23556,-0.28619 -0.01,-0.71992 0.22488,-0.43387 0.69507,-1.02864 1.3389,-1.73784 0.64389,-0.70802 1.4615,-1.53163 2.24819,-1.8749 0.78671,-0.34336 1.54362,-0.20515 2.42201,0.15991 0.87942,0.36589 1.88144,0.9607 2.61703,1.1657 0.7355,0.20622 1.20559,0.0253 1.75781,-0.57093 0.55222,-0.59477 1.18539,-1.6008 2.15652,-3.09783 0.97112,-1.497069 2.27912,-3.486407 3.50716,-5.785666 1.22801,-2.299222 2.37506,-4.908365 2.7961,-6.885763 0.42004,-1.977435 0.11293,-3.325513 -0.31322,-4.916723 -0.42641,-1.591246 -0.97436,-3.428012 -1.19394,-4.836873 -0.21971,-1.408861 -0.10969,-2.38743 0.1427,-3.509056 0.25174,-1.120431 0.64602,-2.383848 0.66735,-3.54122 0.0226,-1.157371 -0.32834,-2.209857 -0.55853,-2.994137 -0.23039,-0.784317 -0.33905,-1.298005 -0.0437,-2.380302 0.29543,-1.082262 0.99669,-2.733097 1.69711,-4.327889 0.70032,-1.594828 1.40174,-3.134806 1.88358,-4.259978 0.48184,-1.125207 0.74516,-1.835571 0.74516,-2.288513 0,-0.452941 -0.26339,-0.648423 -0.7771,-0.722303 -0.51488,-0.07381 -1.28137,-0.02533 -2.00411,-0.134591 -0.72275,-0.109626 -1.40184,-0.379061 -1.74079,-0.367122 -0.33904,0.01085 -0.33904,0.306448 -0.12037,0.685364 0.21842,0.379025 0.65664,0.845063 0.73336,1.163305 0.077,0.318387 -0.20774,0.489882 -0.6236,0.294508 -0.41677,-0.196821 -0.96368,-0.759244 -1.30373,-0.905846 -0.33895,-0.147978 -0.47113,0.122651 -0.41573,0.550664 0.054,0.427905 0.29542,1.016703 0.27407,1.346884 -0.0226,0.330327 -0.30708,0.404062 -0.57985,0.147616 -0.2731,-0.256157 -0.5362,-0.845063 -0.97009,-1.407667 -0.43389,-0.562604 -1.03619,-1.101329 -1.64481,-1.435092 -0.60872,-0.333582 -1.22384,-0.463651 -1.42417,-0.259775 -0.19932,0.205143 0.0162,0.743795 0.39972,1.385019 0.3827,0.642453 0.93165,1.386212 1.32188,2.008441 0.39014,0.622156 0.6236,1.125171 0.59056,1.421958 -0.0333,0.296679 -0.3326,0.390965 -0.6897,0.15847 -0.3572,-0.232278 -0.77293,-0.79025 -1.17265,-1.218155 -0.39975,-0.427904 -0.78141,-0.724691 -1.10648,-1.059649 -0.32516,-0.335029 -0.59056,-0.706818 -0.84004,-0.762825 -0.24947,-0.05608 -0.48294,0.203695 -0.43278,0.594768 0.0505,0.390964 0.38269,0.911852 0.63211,1.46845 0.24948,0.557828 0.41573,1.152596 0.44877,1.553112 0.0333,0.40048 -0.0667,0.604284 -0.24948,0.622193 -0.18347,0.01809 -0.44877,-0.149063 -0.68971,-0.426711 -0.24074,-0.27895 -0.45734,-0.669878 -0.63214,-0.743794 -0.17473,-0.07489 -0.30804,0.166791 -0.33264,0.42671 -0.0259,0.261222 0.0583,0.539955 -0.10872,0.613871 -0.16632,0.07381 -0.58199,-0.05608 -1.12246,-0.344436 -0.54047,-0.288357 -1.20568,-0.734243 -1.72904,-0.810511 -0.52345,-0.07634 -0.90501,0.218167 -1.0468,0.492269 -0.14303,0.275332 -0.0463,0.530403 0.17796,0.815287 0.22392,0.283653 0.57568,0.595962 0.9509,0.920174 0.37516,0.32309 0.77387,0.657938 0.94022,0.946368 0.16632,0.288357 0.099,0.529245 -0.0592,0.660363 -0.15791,0.129887 -0.40726,0.149063 -0.65667,0.05608 -0.24948,-0.09298 -0.49886,-0.298125 -0.87522,-0.578089 -0.37625,-0.280035 -0.87942,-0.63652 -1.27813,-0.866554 -0.39971,-0.231192 -0.69501,-0.337201 -0.78455,-0.145445 -0.0896,0.19067 0.0259,0.679394 -0.13234,0.820063 -0.15985,0.140741 -0.59587,-0.06802 -1.13317,-0.343351 -0.53724,-0.275332 -1.17685,-0.619805 -1.78557,-1.002412 -0.60871,-0.382607 -1.18856,-0.806965 -1.65866,-1.083492 -0.47012,-0.276417 -0.83046,-0.406449 -1.01804,-0.255071 -0.18864,0.151234 -0.20353,0.585253 0.1139,1.089426 0.31775,0.504208 0.97009,1.076327 1.71519,1.717587 0.74517,0.64126 1.58298,1.354048 2.0798,1.8749 0.49672,0.520888 0.65136,0.849875 0.64382,1.106104 -0.01,0.255071 -0.17797,0.43865 -0.44984,0.476784 -0.2718,0.03944 -0.64388,-0.06549 -1.28454,-0.364733 -0.64062,-0.299211 -1.5478,-0.793796 -2.34733,-1.249125 -0.79946,-0.45533 -1.49027,-0.871295 -1.95182,-1.027449 -0.46162,-0.156299 -0.69398,-0.05246 -0.67909,0.263393 0.0162,0.315854 0.27827,0.842712 0.68123,1.54356 0.40291,0.700849 0.94656,1.578113 1.31117,2.233664 0.36454,0.655587 0.55111,1.089425 0.49989,1.323041 -0.0505,0.233725 -0.33678,0.269182 -0.7408,-0.01809 -0.40402,-0.286186 -0.92427,-0.893943 -1.46364,-1.518523 -0.53937,-0.624545 -1.098,-1.266999 -1.41989,-1.406474 -0.32196,-0.138208 -0.40729,0.225404 -0.31128,0.71637 0.0971,0.491076 0.37625,1.106105 0.67906,1.679418 0.30287,0.572119 0.62894,1.102522 0.59373,1.34569 -0.0353,0.243132 -0.43062,0.198992 -0.79526,-0.100219 -0.36454,-0.299211 -0.69818,-0.854615 -1.10971,-1.439832 -0.41146,-0.586446 -0.90074,-1.201475 -1.23762,-1.392182 -0.33791,-0.19067 -0.52335,0.04414 -0.58629,0.320558 -0.0624,0.276417 0,0.595962 0.21842,0.998829 0.22068,0.402868 0.60117,0.889168 0.7408,1.226513 0.13946,0.338648 0.0385,0.529209 -0.12491,0.563761 -0.16308,0.03618 -0.388,-0.08683 -0.71099,-0.442195 -0.32293,-0.353844 -0.74297,-0.942823 -1.18857,-1.570985 -0.44563,-0.629321 -0.91573,-1.298005 -1.29519,-1.590016 -0.37849,-0.293061 -0.66734,-0.208399 -0.7419,0.113244 -0.0744,0.321643 0.0641,0.884391 0.32617,1.547106 0.2621,0.662715 0.64596,1.427964 0.74193,1.922585 0.0958,0.495852 -0.0961,0.722304 -0.28248,0.76525 -0.18768,0.04161 -0.36881,-0.101305 -0.63635,-0.632938 -0.2676,-0.531597 -0.619327,-1.451771 -1.126762,-2.364781 -0.507435,-0.913046 -1.169411,-1.821281 -1.607568,-2.466122 -0.438092,-0.644842 -0.651362,-1.027449 -0.833634,-1.057225 -0.181204,-0.02894 -0.331473,0.29306 -0.283454,0.769953 0.04789,0.477978 0.294132,1.110916 0.58202,1.737849 0.288955,0.626968 0.619393,1.247967 0.715301,1.642477 0.0961,0.394546 -0.04271,0.56141 -0.278277,0.543537 -0.234594,-0.01809 -0.566003,-0.221785 -0.897573,-0.752116 -0.331506,-0.531598 -0.661976,-1.390988 -0.955105,-1.977399 -0.294132,-0.585252 -0.55005,-0.895137 -0.748339,-0.877264 -0.198353,0.01809 -0.336812,0.36354 -0.315488,0.829579 0.02265,0.466038 0.20353,1.051291 0.400751,1.516135 0.198353,0.466039 0.411526,0.812899 0.44877,1.015545 0.03754,0.20261 -0.10128,0.263393 -0.256921,0.293061 -0.15467,0.02894 -0.325131,0.02894 -0.411526,0.280035 -0.08575,0.250368 -0.08575,0.75208 0.08381,1.224089 0.169554,0.472008 0.507435,0.915434 0.585255,1.214609 0.07798,0.299211 -0.103545,0.454099 -0.295427,0.54947 -0.192852,0.09552 -0.395541,0.130973 -0.486111,0.573313 -0.0906,0.442196 -0.06925,1.290877 -0.08381,3.271858 -0.01618,1.982174 -0.06601,5.096683 -0.104515,8.519919 -0.03851,3.423236 -0.06601,7.154005 -0.02265,9.488973 0.04465,2.335005 0.160819,3.27544 0.173762,4.128861 0.01294,0.853421 -0.07798,1.619828 -0.322931,2.053702 -0.245272,0.433875 -0.647059,0.535179 -0.96368,0.817674 -0.316459,0.28112 -0.55005,0.74495 -0.847483,1.91184 -0.297368,1.16812 -0.659808,3.04063 -1.028719,4.46975 -0.368814,1.42912 -0.744068,2.41247 -1.293018,3.14313 -0.550082,0.73066 -1.274962,1.20745 -2.232202,1.51136 -0.957338,0.30391 -2.14804,0.43387 -3.060498,0.54951 -0.911454,0.11577 -1.545764,0.21708 -2.121345,0.45529 -0.575645,0.23843 -1.09269,0.61506 -1.558513,0.70088 -0.465888,0.0857 -0.879485,-0.11577 -1.092658,-0.48394 -0.213238,-0.36832 -0.225858,-0.90469 -0.427479,-1.11447 -0.200295,-0.20984 -0.588427,-0.0941 -0.931646,-0.14544 -0.343316,-0.0514 -0.640716,-0.2681 -0.815546,-0.75208 -0.174732,-0.48514 -0.225857,-1.23722 -0.01294,-1.97505 0.213238,-0.73779 0.691842,-1.46132 1.287711,-1.88803 0.595869,-0.42671 1.306867,-0.55663 2.109599,-0.53518 0.801665,0.0217 1.694966,0.19537 2.509412,0.28148 0.814446,0.0858 1.552074,0.0872 1.966804,-0.10854 0.413597,-0.19537 0.504167,-0.58641 0.756817,-0.97618 0.252714,-0.38973 0.666247,-0.7807 0.909286,-1.43031 0.243978,-0.64839 0.315488,-1.55666 0.317754,-2.56146 0,-1.00361 -0.06666,-2.104971 0.133314,-3.107383 0.200294,-1.002412 0.671553,-1.907064 1.046807,-2.572167 0.374218,-0.665102 0.65133,-1.089425 0.744067,-2.358847 0.09287,-1.268192 0,-3.38152 -0.03948,-5.560371 -0.04206,-2.177656 -0.03236,-4.420871 -0.06083,-5.995402 -0.02912,-1.574567 -0.09707,-2.481607 -0.501028,-4.163449 -0.403987,-1.682999 -1.14388,-4.141957 -1.722697,-6.199206 -0.577716,-2.057284 -0.995617,-3.711701 -1.360224,-5.343433 -0.364543,-1.631768 -0.677993,-3.239693 -0.916762,-4.137218 -0.2388,-0.897525 -0.405022,-1.082262 -0.623599,-1.15379 -0.218415,-0.07164 -0.490318,-0.02895 -0.580984,0.196821 -0.0906,0.223956 0,0.629356 0.187675,1.09894 0.187675,0.470815 0.472262,1.0048 0.491418,1.287296 0.01941,0.281482 -0.226181,0.31115 -0.55649,0.129887 -0.33047,-0.180178 -0.744067,-0.570925 -1.235485,-1.271774 -0.491418,-0.700849 -1.060656,-1.714006 -1.499849,-2.197918 -0.440227,-0.483947 -0.750474,-0.441038 -0.833601,-0.122651 -0.08381,0.318387 0.05727,0.910622 0.187675,1.417219 0.129108,0.50656 0.245272,0.924913 0.206766,1.106104 -0.03851,0.179816 -0.232329,0.122652 -0.445631,0.07851 -0.213238,-0.04305 -0.445535,-0.07272 -0.523355,0.166791 -0.07798,0.239513 0,0.744952 -0.168584,1.214573 -0.168261,0.470814 -0.581988,0.903494 -1.549939,2.292058 -0.966851,1.388637 -2.488023,3.731963 -3.774699,5.934656 -1.28564,2.201499 -2.336718,4.262366 -3.25665,6.323196 -0.918897,2.060867 -1.707715,4.122891 -2.644765,6.33036 -0.937049,2.207469 -2.0233,4.561504 -2.856902,6.101483 -0.833634,1.540015 -1.415621,2.268252 -2.239645,3.034696 -0.824056,0.766407 -1.890019,1.570948 -2.845189,2.631755 -0.955105,1.062037 -1.799417,2.379108 -2.525364,3.532898 -0.727015,1.153796 -1.335633,2.144296 -2.139465,2.772426 -0.8027,0.62697 -1.799417,0.8904 -2.700161,0.97502 -0.899709,0.0857 -1.703444,-0.007 -2.540314,-0.32417 -0.837808,-0.31839 -1.709883,-0.85939 -2.396321,-1.12282 -0.686536,-0.26339 -1.18326,-0.24784 -1.675778,-0.1241 -0.491418,0.1241 -0.976429,0.35638 -1.350647,0.34805 -0.374121,-0.007 -0.636381,-0.25507 -0.671554,-0.5423 -0.0343,-0.28619 0.158877,-0.61148 0.332606,-0.92137 0.173762,-0.31006 0.325067,-0.60432 0.235565,-0.87491 -0.08963,-0.271718 -0.422075,-0.518467 -0.49776,-0.983312 -0.07701,-0.464881 0.103221,-1.145468 0.636348,-1.734267 0.53303,-0.588834 1.419925,-1.083491 2.18742,-1.22293 0.768659,-0.139294 1.419925,0.07743 2.215182,0.525627 0.796293,0.44936 1.737614,1.129984 2.590404,1.324236 0.851754,0.193202 1.612874,-0.10022 2.450747,-0.719916 0.837808,-0.618611 1.751398,-1.563821 2.55523,-3.217008 0.804771,-1.653223 1.499849,-4.01681 2.152215,-5.50317 0.652397,-1.486323 1.262115,-2.095418 1.951822,-2.723545 0.689706,-0.628162 1.459369,-1.273004 2.493395,-3.056114 1.033022,-1.783146 2.329211,-4.70221 3.321722,-7.943061 0.992446,-3.239657 1.679984,-6.801174 2.420881,-9.710685 0.739796,-2.909512 1.532918,-5.169407 2.092578,-6.543715 0.559661,-1.374273 0.887963,-1.862961 0.897573,-2.270604 0.0097,-0.407644 -0.300604,-0.734243 -0.464819,-1.19196 -0.164054,-0.458875 -0.182175,-1.050098 -0.318725,-1.283678 -0.13655,-0.23481 -0.392273,-0.112159 -0.592698,0.183435 -0.200294,0.295593 -0.346454,0.764019 -0.336877,1.355205 0.0097,0.591223 0.173762,1.303975 0.110017,1.753334 -0.06407,0.448166 -0.354965,0.631744 -0.58312,0.539955 -0.228122,-0.0919 -0.391238,-0.457717 -0.473265,-1.039388 -0.08219,-0.580441 -0.08219,-1.375467 -0.182498,-2.078703 -0.100309,-0.703237 -0.300604,-1.31472 -0.502031,-1.416025 -0.200295,-0.101305 -0.400849,0.306447 -0.501028,0.765213 -0.10031,0.458911 -0.10031,0.96786 -0.218416,1.243192 -0.118429,0.275332 -0.356065,0.315854 -0.502031,0.13242 -0.145933,-0.183434 -0.200294,-0.591186 -0.264363,-1.23364 -0.06407,-0.642454 -0.13655,-1.518524 -0.35503,-2.354072 -0.218415,-0.835548 -0.58312,-1.630574 -0.884727,-1.753334 -0.300604,-0.122651 -0.537301,0.427905 -0.601272,1.079874 -0.06407,0.652005 0.04465,1.40651 0.17279,2.119262 0.127814,0.713982 0.274071,1.386212 0.200295,1.733072 -0.07281,0.34697 -0.364543,0.367122 -0.592698,0.06078 -0.228122,-0.305 -0.392273,-0.938046 -0.620428,-1.854638 -0.227152,-0.916592 -0.519084,-2.119262 -0.837808,-3.053727 -0.319695,-0.934465 -0.665212,-1.600761 -0.889095,-1.426734 -0.223916,0.174027 -0.324064,1.189536 -0.356065,2.089449 -0.03236,0.899913 0.0097,1.686581 0.134284,2.535226 0.130079,0.848646 0.351762,1.759304 0.47223,2.555524 0.120371,0.796184 0.138492,1.479159 0.05566,1.852251 -0.08316,0.373091 -0.26857,0.435068 -0.434922,0.227574 -0.166319,-0.206228 -0.314517,-0.682976 -0.453041,-1.438674 -0.139786,-0.755662 -0.26857,-1.78908 -0.48184,-2.048927 -0.213238,-0.258689 -0.509571,0.258689 -0.796293,0.992896 -0.28669,0.734207 -0.563932,1.686582 -0.907248,2.431534 -0.343219,0.744953 -0.749374,1.283714 -1.277,1.799826 -0.526624,0.517306 -1.174783,1.014315 -1.591551,1.169275 -0.416866,0.154851 -0.601273,-0.03256 -0.499993,-0.362346 0.10128,-0.331412 0.490383,-0.806929 0.943457,-1.376697 0.454109,-0.569731 0.972157,-1.232446 1.304763,-2.112098 0.332606,-0.880845 0.480804,-1.979786 0.407158,-2.311161 -0.07442,-0.332497 -0.369849,0.10239 -0.583023,0.133505 -0.213238,0.03256 -0.342183,-0.340819 -0.389102,-1.107298 -0.04627,-0.765214 -0.0097,-1.92378 -0.156612,-2.451795 -0.147228,-0.528052 -0.48074,-0.424323 -0.749374,-0.643648 -0.267599,-0.219252 -0.47113,-0.760474 -0.628939,-1.436286 -0.157906,-0.675812 -0.268569,-1.486323 -0.49996,-1.684193 -0.231358,-0.198992 -0.58312,0.215635 -0.85169,0.308618 -0.268569,0.09298 -0.453073,-0.134591 -0.555453,-0.517306 -0.102251,-0.382607 -0.120371,-0.920174 -0.342217,-1.023866 -0.22165,-0.102391 -0.646961,0.227574 -0.97426,0.837936 -0.3273,0.610253 -0.552219,1.498226 -0.908284,2.188365 -0.355968,0.688946 -0.841044,1.178827 -1.254641,1.456547 -0.414633,0.277865 -0.756849,0.344437 -0.875149,0.271714 -0.11843,-0.07272 -0.01294,-0.284739 0.243007,-0.641259 0.253685,-0.357462 0.656734,-0.860585 0.910419,-1.468451 0.253685,-0.607901 0.360239,-1.323041 0.325131,-1.997695 -0.03527,-0.674618 -0.212267,-1.309908 -0.390202,-1.500615 -0.176998,-0.191755 -0.354966,0.0597 -0.401884,0.489882 -0.04724,0.429098 0.03527,1.038157 -0.05986,1.355206 -0.09481,0.318386 -0.366679,0.344436 -0.555357,0.09877 -0.18994,-0.245665 -0.295427,-0.760438 -0.408291,-1.448189 -0.112929,-0.687752 -0.230387,-1.547143 -0.434921,-2.349296 -0.204825,-0.80219 -0.495689,-1.547143 -0.767527,-1.841542 -0.270835,-0.295593 -0.521284,-0.141826 -0.546911,0.300297 -0.02589,0.441002 0.176026,1.169275 0.206766,1.631732 0.03236,0.462493 -0.106457,0.659169 -0.300604,0.686557 -0.195118,0.02894 -0.444564,-0.112159 -0.670518,-0.665102 -0.225211,-0.553306 -0.425408,-1.519971 -0.707924,-2.207687 -0.282484,-0.687751 -0.644923,-1.093007 -0.940188,-1.183602 -0.294133,-0.0919 -0.519181,0.13242 -0.53193,0.686557 -0.01294,0.553053 0.187675,1.436286 0.124577,1.857027 -0.06245,0.420741 -0.38797,0.377831 -0.62677,0.08358 -0.23783,-0.294508 -0.388003,-0.840324 -0.481808,-1.529233 -0.09384,-0.688946 -0.132343,-1.519718 -0.256921,-1.76882 -0.125871,-0.249282 -0.337912,0.08358 -0.463655,0.466039 -0.125871,0.383801 -0.163083,0.817639 -0.300603,1.000024 -0.138492,0.182348 -0.376354,0.112159 -0.53303,-0.20261 -0.155641,-0.315854 -0.231359,-0.87607 -0.337913,-1.470838 -0.106457,-0.595962 -0.244301,-1.225318 -0.43175,-1.491099 -0.188646,-0.267011 -0.425311,-0.168238 -0.676958,-0.01085 -0.25142,0.157384 -0.513744,0.374285 -0.683267,0.112159 -0.169555,-0.26086 -0.243978,-1.001218 -0.227151,-1.755722 0.01941,-0.753274 0.129107,-1.522069 -0.247214,-2.299222 -0.377389,-0.775959 -1.240824,-1.56024 -2.732195,-2.407691 -1.491307,-0.847488 -3.610483,-1.75811 -5.419511,-2.205081 -1.808995,-0.446972 -3.308843,-0.427905 -4.938835,-0.41242 -1.629927,0.01447 -3.392003,0.02895 -4.867389,-0.03799 -1.475289,-0.06693 -2.664956,-0.212016 -3.594563,-0.713982 -0.92951,-0.501785 -1.597893,-1.357594 -1.980589,-2.022696 -0.382663,-0.665103 -0.480804,-1.139499 -0.415733,-1.512554 0.06601,-0.373092 0.293162,-0.64723 0.5053,-0.820063 0.212267,-0.174027 0.40719,-0.24675 0.586291,-0.473202 0.178938,-0.226489 0.342183,-0.60906 0.472229,-0.705625 0.130079,-0.09769 0.228123,0.0919 0.276012,0.357462 0.04789,0.265925 0.0453,0.610289 0.183469,0.820062 0.137521,0.209846 0.414633,0.286187 0.622499,0.271715 0.207737,-0.01447 0.346488,-0.121566 0.493554,-0.286187 0.147228,-0.16462 0.302869,-0.387382 0.424308,-0.464844 0.121341,-0.07743 0.207737,-0.01085 0.243007,0.17873 0.03495,0.189585 0.01618,0.498239 0.04692,0.72111 0.02912,0.222871 0.108722,0.358909 0.459383,0.494657 0.350759,0.136038 0.97439,0.271714 1.351682,0.310066 0.377389,0.03944 0.507435,-0.01809 0.688671,-0.110712 0.182175,-0.0919 0.415733,-0.218167 0.692878,-0.286186 0.277306,-0.06802 0.598069,-0.07634 0.922132,0.02533 0.324031,0.101305 0.654502,0.314768 1.03079,0.417195 0.377357,0.101305 0.800565,0.0919 1.394363,-0.06802 0.593733,-0.159917 1.354853,-0.46962 1.85381,-0.750922 0.497728,-0.280036 0.732322,-0.532792 0.619328,-0.774765 -0.111958,-0.242047 -0.572506,-0.474397 -1.222736,-0.84387 -0.65023,-0.368315 -1.493442,-0.872522 -2.213015,-1.252741 -0.719605,-0.380219 -1.314341,-0.634096 -1.629926,-0.859391 -0.314518,-0.223956 -0.349626,-0.420741 -0.494654,-0.641224 -0.144963,-0.220338 -0.398616,-0.46488 -0.6833,-0.597192 -0.284425,-0.13242 -0.60014,-0.151233 -0.804835,-0.07851 -0.205796,0.07381 -0.302869,0.239514 -0.463687,0.48033 -0.162113,0.239513 -0.389103,0.553088 -0.577814,0.699691 -0.188646,0.14653 -0.336812,0.127354 -0.428482,-0.08828 -0.09157,-0.215635 -0.126842,-0.626969 -0.162112,-0.964278 -0.03527,-0.3372 -0.06925,-0.601932 -0.188646,-0.685363 -0.117135,-0.08358 -0.318724,0.01447 -0.542543,0.258689 -0.222945,0.245664 -0.467959,0.636484 -0.669483,0.817675 -0.201589,0.181263 -0.359236,0.151233 -0.438092,0.01085 -0.07798,-0.141827 -0.07798,-0.396898 -0.09384,-0.887973 -0.01618,-0.49227 -0.04465,-1.220543 -0.236535,-1.814117 C 18.819222,16.365821 18.46636,15.905716 18.055934,15.35147 17.644472,14.797224 17.176514,14.146412 16.954766,13.400266 16.734047,12.65411 16.759609,11.811435 16.577273,11.250025 16.395099,10.687421 16.005899,10.407313 15.810782,9.9579538 15.615664,9.5086305 15.615664,8.8899835 15.911091,8.2582753 16.206517,7.6265672 16.79695,6.9805316 17.467468,6.7612066 c 0.672654,-0.2192527 1.426332,-0.010854 1.959265,0.3980919 0.53413,0.4100314 0.848583,1.0226726 1.212123,1.4410616 0.363508,0.4183529 0.77814,0.6436477 1.463543,0.6853636 0.6844,0.043055 1.63847,-0.097687 2.630916,-0.05608 0.992413,0.041607 2.022265,0.2670107 2.857937,0.7163339 0.834735,0.4493604 1.475354,1.1227844 2.209844,1.4469954 0.73449,0.32309 1.56382,0.294508 2.04676,0.03618 0.483976,-0.259775 0.621464,-0.750886 1.234385,-1.383825 0.612986,-0.6317084 1.700273,-1.4040856 3.081822,-1.8570269 1.381516,-0.4529413 3.057326,-0.5864104 4.474047,-0.352758 1.416722,0.2348102 2.574387,0.836742 3.432516,0.9475623 0.858096,0.1121589 1.415588,-0.2680961 1.984859,-0.914204 0.569303,-0.6471934 1.147052,-1.5614335 1.536154,-1.9857562 0.389103,-0.4231287 0.589527,-0.356376 0.678996,-0.010854 0.08963,0.345522 0.06925,0.9702111 -0.01941,1.7068422 -0.08963,0.7354009 -0.249479,1.5840824 -0.299634,2.2753795 -0.04886,0.6913341 0.0097,1.2265131 0.339013,1.5280761 0.32937,0.300296 0.927374,0.368279 1.565956,0.177645 0.638516,-0.189585 1.316477,-0.63529 2.016893,-1.197858 0.70032,-0.56141 1.422029,-1.2396098 2.442205,-1.6198649 1.020177,-0.3802188 2.336654,-0.4648445 3.405885,-0.5899922 1.069134,-0.1240985 1.888951,-0.2919751 2.497569,-0.6949152 0.608715,-0.4028677 1.006327,-1.0429335 1.403972,-1.1668872 0.397613,-0.1240985 0.795193,0.264478 0.783544,1.2896832 -0.01294,1.0238665 -0.434986,2.6854113 -1.09379,4.3076273 -0.658805,1.622217 -1.55311,3.206299 -2.38998,4.307664 -0.836805,1.101328 -1.613909,1.717551 -2.094617,2.34452 -0.480804,0.625775 -0.665211,1.262259 -0.715301,1.719939 -0.05048,0.457717 0.03333,0.739019 0.585158,0.934502 0.552218,0.19682 1.572395,0.308618 2.516854,0.636484 0.944492,0.326708 1.814334,0.868904 2.465664,1.308748 0.651363,0.439808 1.086284,0.775923 1.521205,0.756856 0.434889,-0.01809 0.868807,-0.392122 1.312271,-0.644806 0.443463,-0.2529 0.894401,-0.383837 1.438045,-0.430292 0.543643,-0.04631 1.178988,-0.01085 1.722632,-0.345522 0.543643,-0.336115 0.994549,-1.046514 1.346343,-1.66393 0.351794,-0.617417 0.602308,-1.140693 0.802732,-1.337369 0.200295,-0.196821 0.351762,-0.06549 0.359204,0.401673 0.0097,0.467269 -0.125872,1.270617 -0.434889,2.019151 -0.309017,0.748533 -0.794157,1.439866 -1.136373,1.926165 -0.342184,0.4863 -0.543643,0.766408 -0.393374,0.934465 0.150464,0.167877 0.652463,0.223956 1.354918,-0.04667 0.702456,-0.271714 1.6054,-0.868907 2.323873,-1.561434 0.719605,-0.691297 1.254673,-1.476806 1.588379,-2.26228 0.333641,-0.785475 0.467991,-1.569755 0.626803,-1.851057 0.158877,-0.280036 0.343219,-0.05608 0.393374,0.336115 0.04951,0.393352 -0.0343,0.953532 -0.176027,1.486359 -0.141727,0.532792 -0.342183,1.038158 -0.484978,1.43983 -0.141728,0.401674 -0.224887,0.700849 -0.10031,0.756892 0.124902,0.05608 0.459481,-0.130973 1.044737,-0.63529 0.585158,-0.505403 1.420928,-1.327815 2.10633,-2.206273 0.6855,-0.878458 1.220601,-1.812923 1.546768,-2.112098 0.326296,-0.299211 0.443496,0.0369 0.326296,0.579247 -0.117135,0.542343 -0.468056,1.289683 -0.894402,1.990532 -0.426443,0.700885 -0.928475,1.35524 -1.044769,1.748592 -0.116164,0.393316 0.150464,0.524434 0.563964,0.576859 0.413598,0.05355 0.972223,0.02894 1.456198,0.112159 0.483944,0.08358 0.89327,0.272799 1.277066,0.217082 0.383731,-0.05608 0.741932,-0.362346 1.09159,-0.533985 0.349626,-0.171495 0.690709,-0.209846 0.9807,-0.343352 0.289926,-0.133505 0.528759,-0.362345 0.818717,-0.362345 0.289926,0 0.631042,0.229021 0.989275,0.495851 0.358104,0.26701 0.733357,0.572119 1.296156,0.724691 0.562929,0.152681 1.313338,0.152681 2.195994,0.01809 0.881556,-0.13459 1.894291,-0.404061 2.791864,-0.308618 0.897572,0.09552 1.677913,0.557828 2.213014,0.996442 0.540472,0.448166 0.829427,0.861779 1.400704,1.545949 z"
       id="path548"
       style="fill:#000000;fill-opacity:1;stroke:#000000;stroke-width:0.28180262;stroke-linecap:round;stroke-linejoin:round" />
  </g>
</svg>
